<svg width="4366" height="2405" fill="none" xmlns="http://www.w3.org/2000/svg"><path d="M2402.47 1450.49c2.69 0 4.88-2.19 4.88-4.88 0-2.7-2.19-4.88-4.88-4.88-2.7 0-4.88 2.18-4.88 4.88a4.88 4.88 0 004.88 4.88zm-190.26 7.86c2.7 0 4.88-2.18 4.88-4.87 0-2.7-2.18-4.88-4.88-4.88a4.88 4.88 0 00-4.88 4.88c0 2.69 2.19 4.87 4.88 4.87zm-248.02 88.81a6.98 6.98 0 006.98-6.98c0-3.85-3.13-6.97-6.98-6.97-3.85 0-6.98 3.12-6.98 6.97a6.98 6.98 0 006.98 6.98zm-.1 63.05a7.66 7.66 0 000-15.32c-4.24 0-7.67 3.43-7.67 7.66s3.43 7.66 7.67 7.66zm161.18 47.89c0 .97-.29 1.91-.82 2.71-.54.8-1.3 1.43-2.19 1.8-.89.37-1.87.46-2.82.27a4.81 4.81 0 01-2.5-1.33 4.81 4.81 0 01-1.33-2.5c-.19-.94-.1-1.93.27-2.82.37-.89 1-1.65 1.8-2.19a4.882 4.882 0 017.59 4.06zm344.93 116.03c2.7 0 4.88-2.18 4.88-4.88a4.88 4.88 0 00-4.88-4.88c-2.69 0-4.88 2.19-4.88 4.88 0 2.7 2.19 4.88 4.88 4.88zm225.15 153.27c2.7 0 4.88-2.18 4.88-4.88a4.88 4.88 0 00-4.88-4.88c-2.69 0-4.88 2.19-4.88 4.88 0 2.7 2.19 4.88 4.88 4.88zm89.36 222.36c2.69 0 4.88-2.19 4.88-4.88 0-2.7-2.19-4.88-4.88-4.88-2.7 0-4.88 2.18-4.88 4.88a4.88 4.88 0 004.88 4.88zm-348.03 96.88c2.69 0 4.88-2.19 4.88-4.88s-2.19-4.88-4.88-4.88a4.88 4.88 0 000 9.76zm-467.87 6.61c2.69 0 4.88-2.19 4.88-4.88s-2.19-4.88-4.88-4.88a4.88 4.88 0 000 9.76zm-39.3 16.1a4.88 4.88 0 004.88-4.88c0-2.69-2.19-4.88-4.88-4.88a4.88 4.88 0 00-4.88 4.88c0 2.7 2.18 4.88 4.88 4.88zm66.11-62.63a4.88 4.88 0 004.88-4.88c0-2.69-2.19-4.88-4.88-4.88a4.88 4.88 0 00-4.88 4.88c0 2.7 2.18 4.88 4.88 4.88zm333.81-302.19c4 0 7.24-3.24 7.24-7.24s-3.24-7.24-7.24-7.24-7.24 3.24-7.24 7.24 3.24 7.24 7.24 7.24zm241.73 82.83c2.69 0 4.88-2.19 4.88-4.88 0-2.7-2.19-4.88-4.88-4.88-2.7 0-4.88 2.18-4.88 4.88a4.88 4.88 0 004.88 4.88zm460.36 3.72c6.14 0 11.12-4.98 11.12-11.12 0-6.14-4.98-11.12-11.12-11.12-6.14 0-11.12 4.98-11.12 11.12 0 6.14 4.98 11.12 11.12 11.12zm448.82-56.86c2.7 0 4.88-2.18 4.88-4.88a4.88 4.88 0 00-4.88-4.88c-2.69 0-4.88 2.19-4.88 4.88 0 2.7 2.19 4.88 4.88 4.88zm346.88-377.46c2.69 0 4.88-2.19 4.88-4.88s-2.19-4.88-4.88-4.88a4.88 4.88 0 000 9.76zm-154.73-91.53c2.69 0 4.88-2.19 4.88-4.88 0-2.7-2.19-4.88-4.88-4.88-2.7 0-4.88 2.18-4.88 4.88a4.88 4.88 0 004.88 4.88zm6.4-173.84c0 .97-.29 1.91-.83 2.72-.54.8-1.3 1.43-2.2 1.79-.89.37-1.87.47-2.82.27-.95-.19-1.82-.66-2.5-1.35a4.825 4.825 0 01-1.32-2.51c-.19-.95-.08-1.93.3-2.82.37-.89 1.01-1.65 1.82-2.18.81-.53 1.75-.81 2.72-.8.64 0 1.27.13 1.86.38.59.24 1.12.6 1.57 1.06.45.45.81.99 1.05 1.58.24.59.36 1.22.35 1.86zm-230.81 40.6c0 1.96-.59 3.88-1.68 5.51a9.94 9.94 0 01-10.18 4.22 9.922 9.922 0 01-5.07-2.72 9.85 9.85 0 01-2.72-5.07 9.94 9.94 0 014.22-10.18 9.916 9.916 0 015.51-1.67 9.916 9.916 0 019.92 9.91zm-9.92 59.8c7.97 0 14.43-6.46 14.43-14.43 0-7.96-6.46-14.42-14.43-14.42s-14.43 6.46-14.43 14.42c0 7.97 6.46 14.43 14.43 14.43zm-170.79-20.82c2.7 0 4.88-2.19 4.88-4.88 0-2.7-2.18-4.88-4.88-4.88-2.7 0-4.88 2.18-4.88 4.88a4.88 4.88 0 004.88 4.88zm-126.97-221.73a4.88 4.88 0 004.88-4.88c0-2.69-2.19-4.88-4.88-4.88a4.88 4.88 0 00-4.88 4.88c0 2.7 2.18 4.88 4.88 4.88zm-203.06-194.395c2.69 0 4.88-2.184 4.88-4.878a4.883 4.883 0 00-4.88-4.879c-2.7 0-4.88 2.184-4.88 4.879a4.876 4.876 0 004.88 4.878zm-222.63-76.635c2.7 0 4.88-2.184 4.88-4.879a4.876 4.876 0 00-4.88-4.878 4.882 4.882 0 00-4.88 4.878 4.883 4.883 0 004.88 4.879zm-103.15-65.411c2.69 0 4.88-2.184 4.88-4.878a4.883 4.883 0 00-4.88-4.879c-2.7 0-4.88 2.185-4.88 4.879a4.876 4.876 0 004.88 4.878zm-668.62 210.971a4.88 4.88 0 004.88-4.88c0-2.69-2.19-4.88-4.88-4.88a4.88 4.88 0 00-4.88 4.88c0 2.7 2.18 4.88 4.88 4.88zm-259.93-77.213c2.69 0 4.88-2.184 4.88-4.878a4.883 4.883 0 00-4.88-4.879c-2.7 0-4.88 2.184-4.88 4.879a4.876 4.876 0 004.88 4.878zm373.79-359.574c2.69 0 4.88-2.184 4.88-4.878a4.882 4.882 0 00-4.88-4.878c-2.7 0-4.88 2.184-4.88 4.878a4.876 4.876 0 004.88 4.878zm555.86-78.419c2.69 0 4.88-2.184 4.88-4.879a4.882 4.882 0 00-4.88-4.878c-2.7 0-4.88 2.184-4.88 4.878a4.876 4.876 0 004.88 4.879zm270.79-30.581c2.7 0 4.88-2.184 4.88-4.879a4.876 4.876 0 00-4.88-4.878 4.882 4.882 0 00-4.88 4.878 4.883 4.883 0 004.88 4.879zm124.51-22.451c2.7 0 4.88-2.184 4.88-4.878a4.876 4.876 0 00-4.88-4.879 4.883 4.883 0 00-4.88 4.879 4.882 4.882 0 004.88 4.878zm517.61-213.856c0 .965-.28 1.908-.82 2.711a4.907 4.907 0 01-2.19 1.796c-.89.37-1.87.466-2.82.278a4.862 4.862 0 01-3.83-3.833 4.853 4.853 0 012.07-5.008c.8-.536 1.75-.822 2.71-.822a4.87 4.87 0 011.88.357 4.95 4.95 0 011.59 1.056c.45.455.81.995 1.05 1.59.25.595.37 1.233.36 1.875zM3457.99 429.2c0 .965-.28 1.908-.82 2.71a4.883 4.883 0 01-7.51.739 4.898 4.898 0 01-1.33-2.497 4.94 4.94 0 01.27-2.819 4.884 4.884 0 016.38-2.64c.59.245 1.13.605 1.58 1.058.46.453.82.99 1.06 1.582.25.592.37 1.226.37 1.867zm-502.23 241.762c2.69 0 4.87-2.184 4.87-4.878a4.876 4.876 0 10-9.75 0 4.876 4.876 0 004.88 4.878zm-806.72 196.389c2.69 0 4.88-2.184 4.88-4.878a4.882 4.882 0 00-4.88-4.878c-2.7 0-4.88 2.184-4.88 4.878a4.876 4.876 0 004.88 4.878zm65.06 185.689c2.7 0 4.88-2.18 4.88-4.88a4.88 4.88 0 00-4.88-4.88c-2.69 0-4.88 2.19-4.88 4.88 0 2.7 2.19 4.88 4.88 4.88zm-126.5 111.05a12.015 12.015 0 01-7.42 11.09c-2.2.91-4.61 1.15-6.94.69-2.33-.47-4.47-1.61-6.15-3.29a11.917 11.917 0 01-3.29-6.15c-.47-2.33-.23-4.75.68-6.94.91-2.2 2.45-4.07 4.43-5.39 1.97-1.32 4.3-2.03 6.67-2.03a12.085 12.085 0 0112.02 12.02zM1686 1299c2.69 0 4.88-2.19 4.88-4.88s-2.19-4.88-4.88-4.88a4.88 4.88 0 000 9.76zm-430.83 40.13c2.7 0 4.88-2.19 4.88-4.88 0-2.7-2.18-4.88-4.88-4.88a4.88 4.88 0 00-4.88 4.88c0 2.69 2.19 4.88 4.88 4.88zm-180.76 211.44a8.36 8.36 0 01-1.38 4.65 8.329 8.329 0 01-3.74 3.1c-1.53.63-3.21.8-4.83.48a8.322 8.322 0 01-4.29-2.28 8.33 8.33 0 01-2.28-4.28c-.32-1.63-.15-3.31.48-4.83a8.329 8.329 0 013.1-3.74c1.38-.92 3-1.4 4.65-1.39 2.2.02 4.3.89 5.85 2.44a8.36 8.36 0 012.44 5.85zm-16.42 94.47c5.22 0 9.45-4.23 9.45-9.44 0-5.22-4.23-9.44-9.45-9.44-5.21 0-9.44 4.22-9.44 9.44 0 5.21 4.23 9.44 9.44 9.44zm-132.798 130.14c2.695 0 4.88-2.18 4.88-4.88 0-2.69-2.185-4.88-4.88-4.88a4.883 4.883 0 00-4.88 4.88c0 2.7 2.185 4.88 4.88 4.88zm-91.402 233.11c2.695 0 4.88-2.19 4.88-4.88 0-2.7-2.185-4.88-4.88-4.88a4.876 4.876 0 00-4.879 4.88c0 2.69 2.184 4.88 4.879 4.88zm52.627-81.47a4.874 4.874 0 100-9.75 4.875 4.875 0 100 9.75zm-28.596 41.34a4.883 4.883 0 004.879-4.88c0-2.69-2.184-4.88-4.879-4.88a4.883 4.883 0 00-4.88 4.88c0 2.69 2.185 4.88 4.88 4.88zm120.575 18.46a4.875 4.875 0 100-9.75 4.875 4.875 0 100 9.75zm-48.639-115.24a4.876 4.876 0 004.879-4.88c0-2.69-2.184-4.88-4.879-4.88a4.883 4.883 0 00-4.88 4.88c0 2.7 2.185 4.88 4.88 4.88zm-32.269-19.83a4.876 4.876 0 100-9.75 4.875 4.875 0 100 9.75zm509.112 416.07a4.88 4.88 0 004.88-4.88c0-2.69-2.19-4.88-4.88-4.88a4.88 4.88 0 00-4.88 4.88c0 2.7 2.18 4.88 4.88 4.88zm185.37 84.29a7.396 7.396 0 100-14.79c-4.08 0-7.4 3.31-7.4 7.4 0 4.08 3.32 7.39 7.4 7.39zm92.24 37.82c3.42 0 6.19-2.77 6.19-6.19 0-3.41-2.77-6.19-6.19-6.19-3.42 0-6.19 2.78-6.19 6.19 0 3.42 2.77 6.19 6.19 6.19zm-15.95-197.22c7.42 0 13.43-6.02 13.43-13.43 0-7.42-6.01-13.43-13.43-13.43s-13.43 6.01-13.43 13.43c0 7.41 6.01 13.43 13.43 13.43zm-25.71-133.03c0 .97-.28 1.91-.82 2.71-.54.8-1.3 1.43-2.19 1.8-.89.37-1.87.46-2.82.28-.95-.19-1.82-.66-2.5-1.34a4.883 4.883 0 01-1.33-2.5c-.19-.94-.09-1.92.27-2.81.37-.9 1-1.66 1.8-2.19a4.86 4.86 0 016.16.6c.92.92 1.43 2.16 1.43 3.45zm119.16 76.58c5.01 0 9.08-4.06 9.08-9.07 0-5.01-4.07-9.07-9.08-9.07s-9.08 4.06-9.08 9.07c0 5.01 4.07 9.07 9.08 9.07zm308.21 193.51c2.69 0 4.88-2.19 4.88-4.88s-2.19-4.88-4.88-4.88a4.88 4.88 0 000 9.76zm-501.45 46.58c2.69 0 4.88-2.19 4.88-4.88 0-2.7-2.19-4.88-4.88-4.88-2.7 0-4.88 2.18-4.88 4.88a4.88 4.88 0 004.88 4.88zm-357.53 18.78c2.69 0 4.88-2.19 4.88-4.88 0-2.7-2.19-4.88-4.88-4.88-2.7 0-4.88 2.18-4.88 4.88a4.88 4.88 0 004.88 4.88zm652.35-6.56c2.7 0 4.88-2.18 4.88-4.88a4.88 4.88 0 00-4.88-4.88c-2.69 0-4.88 2.19-4.88 4.88 0 2.7 2.19 4.88 4.88 4.88zm181.76-26.49c2.69 0 4.87-2.18 4.87-4.88 0-2.69-2.18-4.88-4.87-4.88a4.88 4.88 0 00-4.88 4.88c0 2.7 2.18 4.88 4.88 4.88zm499.19-54.19c2.69 0 4.88-2.18 4.88-4.87 0-2.7-2.19-4.88-4.88-4.88-2.7 0-4.88 2.18-4.88 4.88 0 2.69 2.18 4.87 4.88 4.87zm-6.46 82.62c2.7 0 4.88-2.18 4.88-4.88a4.88 4.88 0 00-4.88-4.88c-2.69 0-4.88 2.19-4.88 4.88 0 2.7 2.19 4.88 4.88 4.88zm-81.9-97.77c2.69 0 4.88-2.19 4.88-4.88 0-2.7-2.19-4.88-4.88-4.88-2.7 0-4.88 2.18-4.88 4.88a4.88 4.88 0 004.88 4.88zm11.65 62.36c2.69 0 4.88-2.18 4.88-4.87 0-2.7-2.19-4.88-4.88-4.88-2.7 0-4.88 2.18-4.88 4.88 0 2.69 2.18 4.87 4.88 4.87zm202.9 8.45c2.69 0 4.88-2.19 4.88-4.88s-2.19-4.88-4.88-4.88a4.88 4.88 0 000 9.76zm706.92-74.12a4.88 4.88 0 004.88-4.88c0-2.69-2.19-4.88-4.88-4.88a4.88 4.88 0 00-4.88 4.88c0 2.7 2.18 4.88 4.88 4.88zm-414.83-763.79c2.7 0 4.88-2.18 4.88-4.87 0-2.7-2.18-4.88-4.88-4.88a4.88 4.88 0 00-4.88 4.88c0 2.69 2.19 4.87 4.88 4.87zm-114.75 118.03c2.7 0 4.88-2.19 4.88-4.88 0-2.7-2.18-4.88-4.88-4.88a4.88 4.88 0 00-4.88 4.88c0 2.69 2.19 4.88 4.88 4.88zm-43.49-300.93c2.69 0 4.88-2.19 4.88-4.88 0-2.7-2.19-4.88-4.88-4.88-2.7 0-4.88 2.18-4.88 4.88a4.88 4.88 0 004.88 4.88zm19.3-70.35c2.7 0 4.88-2.18 4.88-4.87 0-2.7-2.18-4.88-4.88-4.88-2.69 0-4.87 2.18-4.87 4.88a4.87 4.87 0 004.87 4.87zm-99.11-16.2c2.7 0 4.88-2.19 4.88-4.88 0-2.7-2.18-4.88-4.88-4.88a4.88 4.88 0 00-4.88 4.88c0 2.69 2.19 4.88 4.88 4.88zm544.63-503.619c8.99 0 16.27-7.28 16.27-16.261 0-8.98-7.28-16.26-16.27-16.26-8.98 0-16.26 7.28-16.26 16.26 0 8.981 7.28 16.261 16.26 16.261zm-16.16-136.381a5.56 5.56 0 100-11.12 5.56 5.56 0 000 11.12zm62.7 2.938a5.29 5.29 0 01-.88 2.914 5.27 5.27 0 01-2.36 1.932c-.96.397-2.01.501-3.03.299a5.207 5.207 0 01-2.68-1.436 5.239 5.239 0 01-1.14-5.716 5.247 5.247 0 014.85-3.238c1.39 0 2.72.552 3.71 1.536a5.256 5.256 0 011.53 3.709zm125.35-38.345c3.22 0 5.83-2.606 5.83-5.822a5.826 5.826 0 00-5.83-5.823 5.823 5.823 0 000 11.645zm-8.86-35.564c2.69 0 4.87-2.184 4.87-4.878a4.876 4.876 0 10-9.75 0 4.876 4.876 0 004.88 4.878zm-41.09-19.723c2.7 0 4.88-2.184 4.88-4.878a4.876 4.876 0 00-4.88-4.878 4.882 4.882 0 00-4.88 4.878 4.882 4.882 0 004.88 4.878zm-4.41 23.71c2.7 0 4.88-2.185 4.88-4.879a4.876 4.876 0 00-4.88-4.878 4.882 4.882 0 00-4.88 4.878 4.883 4.883 0 004.88 4.879zm79.86 291.017c2.7 0 4.88-2.184 4.88-4.879a4.876 4.876 0 00-4.88-4.878 4.882 4.882 0 00-4.88 4.878 4.883 4.883 0 004.88 4.879zm96.07 150.177c2.7 0 4.88-2.184 4.88-4.878a4.876 4.876 0 00-4.88-4.879 4.883 4.883 0 00-4.88 4.879 4.882 4.882 0 004.88 4.878zm281.5-13.587c2.7 0 4.88-2.184 4.88-4.878a4.876 4.876 0 00-4.88-4.878 4.882 4.882 0 00-4.88 4.878 4.882 4.882 0 004.88 4.878zM2070.33 651.66c0 .964-.28 1.907-.82 2.71a4.854 4.854 0 01-2.19 1.796c-.89.37-1.87.466-2.82.278a4.94 4.94 0 01-2.5-1.335 4.9 4.9 0 01-1.33-2.498 4.856 4.856 0 01.28-2.818c.37-.892.99-1.654 1.79-2.19a4.908 4.908 0 012.71-.822 4.9 4.9 0 013.46 1.429 4.891 4.891 0 011.42 3.45zm-389.32-170.897c7.77 0 14.06-6.294 14.06-14.058s-6.29-14.058-14.06-14.058c-7.76 0-14.06 6.294-14.06 14.058s6.3 14.058 14.06 14.058zm-113.07-90.694a7.396 7.396 0 100-14.792c-4.08 0-7.4 3.312-7.4 7.396 0 4.085 3.32 7.396 7.4 7.396zm-157.56 44.691c2.69 0 4.88-2.184 4.88-4.878a4.883 4.883 0 00-4.88-4.879c-2.7 0-4.88 2.184-4.88 4.879a4.876 4.876 0 004.88 4.878zm-70.79-128.566c2.7 0 4.88-2.184 4.88-4.878a4.876 4.876 0 10-9.75 0 4.874 4.874 0 004.87 4.878zm112.81-76.688c2.7 0 4.88-2.184 4.88-4.878a4.876 4.876 0 00-4.88-4.878 4.882 4.882 0 00-4.88 4.878 4.882 4.882 0 004.88 4.878zm-210.77-8.549c2.7 0 4.88-2.184 4.88-4.879a4.876 4.876 0 00-4.88-4.878 4.882 4.882 0 00-4.88 4.878 4.883 4.883 0 004.88 4.879zm-20.93-109.945c2.69 0 4.88-2.184 4.88-4.878a4.882 4.882 0 00-4.88-4.878c-2.7 0-4.88 2.184-4.88 4.878a4.876 4.876 0 004.88 4.878zm-7.92 131.398c2.69 0 4.88-2.184 4.88-4.878a4.882 4.882 0 00-4.88-4.878c-2.7 0-4.88 2.184-4.88 4.878a4.876 4.876 0 004.88 4.878zm165.9 455.619c2.7 0 4.88-2.184 4.88-4.878a4.876 4.876 0 00-4.88-4.879 4.883 4.883 0 00-4.88 4.879 4.882 4.882 0 004.88 4.878zm-99.79-77.948c2.69 0 4.88-2.184 4.88-4.878a4.882 4.882 0 00-4.88-4.878c-2.7 0-4.88 2.184-4.88 4.878a4.876 4.876 0 004.88 4.878zm-218.07-128.46c2.7 0 4.88-2.184 4.88-4.878a4.876 4.876 0 10-9.75 0 4.874 4.874 0 004.87 4.878zm60.5 91.742c2.7 0 4.88-2.184 4.88-4.878a4.876 4.876 0 00-4.88-4.878 4.882 4.882 0 00-4.88 4.878 4.882 4.882 0 004.88 4.878zm102.11 216.165c2.69 0 4.88-2.184 4.88-4.878a4.883 4.883 0 00-4.88-4.879c-2.7 0-4.88 2.185-4.88 4.879a4.876 4.876 0 004.88 4.878zm-352.806 89.487a4.878 4.878 0 100-9.757 4.88 4.88 0 100 9.757zm1225.316-712.12c2.7 0 4.88-2.184 4.88-4.879a4.876 4.876 0 00-4.88-4.878 4.882 4.882 0 00-4.88 4.878 4.883 4.883 0 004.88 4.879zm11.49-146.61c2.7 0 4.88-2.184 4.88-4.878a4.876 4.876 0 00-4.88-4.879 4.882 4.882 0 00-4.88 4.879 4.882 4.882 0 004.88 4.878zM792.549 613.315a4.877 4.877 0 01-5.851 4.78 4.877 4.877 0 01-1.701-8.862 4.881 4.881 0 016.142.651 4.875 4.875 0 011.41 3.431zM598.413 272.361a4.877 4.877 0 01-5.832 4.785 4.883 4.883 0 01-3.556-6.652 4.882 4.882 0 017.959-1.582 4.877 4.877 0 011.429 3.449zm90.352-25.65a4.881 4.881 0 01-9.662 1.024 4.88 4.88 0 014.782-5.849 4.831 4.831 0 014.507 2.966c.246.589.373 1.221.373 1.859zm41.765-130.979a4.888 4.888 0 01-.213 2.017 4.9 4.9 0 01-1.015 1.755 4.898 4.898 0 01-1.641 1.191 4.898 4.898 0 01-3.968 0 4.898 4.898 0 01-1.641-1.191 4.9 4.9 0 01-1.015-1.755 4.88 4.88 0 017.907-5.135 4.88 4.88 0 011.586 3.118zm-273.26 45.216a4.874 4.874 0 01-2.987 4.549 4.877 4.877 0 01-5.342-1.047 4.875 4.875 0 01.772-7.527 4.883 4.883 0 016.129.628 4.874 4.874 0 011.428 3.397zm-33.632.211a4.88 4.88 0 11-7.558-4.026 4.874 4.874 0 012.73-.8 4.827 4.827 0 014.828 4.826zM283.597 534.266a4.878 4.878 0 11-9.707-1.01 4.878 4.878 0 019.707 1.01zm104.938-131.661a4.876 4.876 0 01-5.851 4.78 4.875 4.875 0 01-3.521-6.683 4.878 4.878 0 019.372 1.903zm20.988 72.702a4.882 4.882 0 01-3.012 4.507 4.875 4.875 0 01-5.318-1.057 4.88 4.88 0 118.33-3.45zm296.924-73.855a4.87 4.87 0 01-.826 2.715 4.876 4.876 0 01-7.522.715 4.875 4.875 0 01.796-7.512 4.872 4.872 0 012.725-.796 4.875 4.875 0 014.827 4.878zm179.445-121.433a4.882 4.882 0 01-3.012 4.507 4.884 4.884 0 01-5.318-1.057 4.88 4.88 0 118.33-3.45zm52.259-64.886a4.877 4.877 0 01-5.831 4.785 4.883 4.883 0 01-3.556-6.652 4.874 4.874 0 014.508-3.011 4.879 4.879 0 014.879 4.878zM830.957 77.703a4.873 4.873 0 01-3.024 4.512 4.883 4.883 0 01-6.648-3.593 4.875 4.875 0 012.12-5 4.88 4.88 0 017.552 4.081zM609.746 6.26a4.878 4.878 0 11-9.757 0 4.878 4.878 0 019.757 0zm367.757 23.92a4.878 4.878 0 11-9.757 0 4.878 4.878 0 019.757 0zM1147.08-3.496c0 .965-.28 1.908-.82 2.71a4.879 4.879 0 01-7.51.74 4.9 4.9 0 01-1.33-2.499 4.858 4.858 0 01.28-2.818c.37-.891.99-1.653 1.79-2.19a4.908 4.908 0 012.71-.822c1.3 0 2.54.514 3.46 1.43a4.89 4.89 0 011.42 3.449zM415.347 856.755a4.874 4.874 0 01-2.988 4.549 4.881 4.881 0 01-5.341-1.047 4.87 4.87 0 01-1.048-5.34 4.883 4.883 0 014.55-2.988 4.824 4.824 0 014.827 4.826zm-32.478 128.147a4.877 4.877 0 01-5.819 4.839 4.882 4.882 0 01-3.559-6.678 4.886 4.886 0 014.551-2.987 4.827 4.827 0 014.827 4.826zm44.126 122.008c.011.97-.267 1.92-.796 2.72a4.833 4.833 0 01-2.179 1.82c-.891.38-1.874.49-2.824.3a4.86 4.86 0 01-2.512-1.32 4.885 4.885 0 01-1.35-2.5 4.855 4.855 0 01.269-2.82c.367-.9.993-1.66 1.796-2.2a4.873 4.873 0 016.149.58 4.907 4.907 0 011.447 3.42zm-86.784 151.17c.071.68-.002 1.37-.214 2.02a4.776 4.776 0 01-1.015 1.75 4.89 4.89 0 01-1.641 1.2c-.624.27-1.3.42-1.983.42-.684 0-1.36-.15-1.984-.42a4.91 4.91 0 01-1.641-1.2 4.79 4.79 0 01-1.015-1.75 4.886 4.886 0 011.373-5.14c.896-.8 2.06-1.25 3.267-1.25 1.206 0 2.37.45 3.267 1.25a4.888 4.888 0 011.586 3.12zm-81.17 138.95c.011.97-.266 1.92-.796 2.73a4.88 4.88 0 01-8.596-4.53 4.92 4.92 0 011.796-2.2c.804-.53 1.75-.82 2.717-.82 1.285 0 2.518.51 3.432 1.41.913.9 1.434 2.13 1.447 3.41zm-25.133 84.72c.011.97-.267 1.91-.797 2.72a4.88 4.88 0 01-8.864-1.7 4.847 4.847 0 01.269-2.82c.367-.9.993-1.66 1.796-2.2a4.873 4.873 0 016.149.58 4.893 4.893 0 011.447 3.42zm351.02-211.65c.011.96-.268 1.91-.8 2.72a4.786 4.786 0 01-2.187 1.82 4.82 4.82 0 01-2.831.29 4.854 4.854 0 01-3.849-3.84 4.862 4.862 0 01.29-2.83 4.84 4.84 0 011.82-2.19c.81-.53 1.761-.81 2.73-.8 1.281 0 2.508.51 3.414 1.41a4.852 4.852 0 011.413 3.42zm35.364-43.17a4.876 4.876 0 01-2.975 4.54 4.88 4.88 0 01-6.417-6.35c.367-.89.993-1.66 1.796-2.19a4.873 4.873 0 012.717-.83 4.76 4.76 0 011.863.35c.592.24 1.13.6 1.584 1.04a4.86 4.86 0 011.432 3.44zm159.665-.32c0 .97-.286 1.91-.822 2.71a4.914 4.914 0 01-2.19 1.8c-.892.37-1.873.46-2.82.28a4.917 4.917 0 01-2.498-1.34 4.89 4.89 0 01-1.058-5.32c.37-.89.995-1.65 1.797-2.19a4.929 4.929 0 012.711-.82c.641 0 1.276.13 1.868.37.592.25 1.13.61 1.583 1.06a4.87 4.87 0 011.429 3.45zm22.51-54.03c.01.97-.267 1.92-.797 2.73a4.89 4.89 0 01-2.179 1.82c-.891.37-1.874.48-2.823.3a4.954 4.954 0 01-2.513-1.33 4.895 4.895 0 01-1.35-2.49 4.897 4.897 0 01.269-2.83 4.86 4.86 0 014.513-3.02c1.285 0 2.518.5 3.432 1.41.914.9 1.434 2.13 1.448 3.41zM709.7 1048.27c0 .96-.287 1.91-.826 2.71a4.93 4.93 0 01-2.198 1.8c-.895.37-1.879.46-2.827.27a4.99 4.99 0 01-2.497-1.35 4.913 4.913 0 01-1.324-2.52 4.886 4.886 0 012.12-5c.809-.53 1.758-.8 2.725-.79 1.285.01 2.513.53 3.417 1.44.903.92 1.41 2.15 1.41 3.44zm85.788 24.02a4.885 4.885 0 01-3.013 4.51c-.891.37-1.873.46-2.819.27a4.862 4.862 0 01-3.834-3.83 4.875 4.875 0 012.075-5.01 4.926 4.926 0 012.711-.82 4.878 4.878 0 014.88 4.88zm120.416 44.64a4.883 4.883 0 01-1.586 3.12c-.896.8-2.06 1.25-3.267 1.25a4.913 4.913 0 01-3.267-1.25 4.888 4.888 0 01-1.373-5.14c.212-.65.558-1.24 1.015-1.75a4.75 4.75 0 011.641-1.19 4.848 4.848 0 011.984-.42c.684 0 1.359.14 1.984.42a4.75 4.75 0 011.641 1.19c.457.51.803 1.1 1.015 1.75.211.65.284 1.34.213 2.02zm45.125 67.66c0 .97-.286 1.91-.823 2.71a4.84 4.84 0 01-2.19 1.8 4.859 4.859 0 01-5.317-1.06 4.865 4.865 0 01-1.058-5.31c.369-.89.995-1.66 1.797-2.19a4.846 4.846 0 012.711-.82c1.294 0 2.535.51 3.451 1.43a4.854 4.854 0 011.429 3.44zm-156.097 91.33c0 .97-.287 1.91-.826 2.71a4.86 4.86 0 01-2.198 1.8c-.895.37-1.879.46-2.827.27a4.84 4.84 0 01-2.497-1.35 4.875 4.875 0 01-1.323-2.51 4.86 4.86 0 012.119-5 4.884 4.884 0 012.725-.8 4.84 4.84 0 013.417 1.45c.904.91 1.41 2.14 1.41 3.43zm-448.193 155.11c.01.96-.268 1.91-.8 2.73a4.83 4.83 0 01-2.188 1.81 4.82 4.82 0 01-2.831.29 4.862 4.862 0 01-2.511-1.33 4.906 4.906 0 01-1.338-2.51 4.887 4.887 0 012.11-5.02 4.901 4.901 0 012.731-.8c1.28 0 2.508.51 3.413 1.41a4.853 4.853 0 011.414 3.42zm-39.824 179.34c0 .96-.288 1.91-.826 2.71a4.88 4.88 0 01-5.025 2.07 4.992 4.992 0 01-2.498-1.35 4.882 4.882 0 01.796-7.52c.81-.53 1.758-.8 2.726-.79 1.285.01 2.512.53 3.416 1.45a4.86 4.86 0 011.411 3.43zm175.615-15.69c.01.97-.267 1.92-.797 2.73a4.89 4.89 0 01-2.179 1.82 4.96 4.96 0 01-2.823.3 4.95 4.95 0 01-2.512-1.33 4.88 4.88 0 01-1.35-2.49 4.896 4.896 0 01.268-2.83c.368-.89.993-1.66 1.797-2.2a4.862 4.862 0 012.716-.82 4.82 4.82 0 014.88 4.82zm184.849-170.16c.011.97-.267 1.92-.796 2.72a4.833 4.833 0 01-2.179 1.82c-.891.38-1.874.49-2.824.3a4.86 4.86 0 01-2.512-1.32 4.885 4.885 0 01-1.35-2.5 4.855 4.855 0 01.269-2.82c.367-.9.993-1.66 1.796-2.2a4.873 4.873 0 012.717-.83c.638 0 1.271.12 1.863.36a4.81 4.81 0 013.016 4.47zm8.92 45.95c0 .97-.286 1.91-.822 2.71a4.914 4.914 0 01-2.19 1.8c-.892.37-1.873.46-2.82.28a4.917 4.917 0 01-2.498-1.34 4.863 4.863 0 01-1.336-2.5 4.9 4.9 0 01.278-2.82 4.91 4.91 0 011.797-2.19 4.929 4.929 0 012.711-.82c.641 0 1.276.13 1.868.37.592.25 1.13.61 1.583 1.06.453.45.812.99 1.057 1.58.246.6.372 1.23.372 1.87zm-187.053 196.81a4.884 4.884 0 01-1.587 3.12 4.863 4.863 0 01-3.267 1.25 4.867 4.867 0 01-4.853-4.37 4.859 4.859 0 011.229-3.77 4.862 4.862 0 011.641-1.19 4.84 4.84 0 011.983-.42 4.872 4.872 0 014.854 5.38zm-93.973 325.58c0 .97-.286 1.91-.822 2.71a4.85 4.85 0 01-2.19 1.8 4.863 4.863 0 01-5.318-1.06 4.863 4.863 0 01-1.058-5.31c.369-.9.995-1.66 1.797-2.19a4.859 4.859 0 012.711-.83c1.294 0 2.536.52 3.451 1.43a4.895 4.895 0 011.429 3.45zm-141.929 139.79c0 .97-.287 1.91-.823 2.71a4.84 4.84 0 01-2.19 1.8 4.86 4.86 0 01-5.318-1.06 4.871 4.871 0 01-1.335-2.49 4.875 4.875 0 01.278-2.82 4.85 4.85 0 011.797-2.19 4.846 4.846 0 012.711-.82c1.294 0 2.535.51 3.45 1.42.915.92 1.43 2.16 1.43 3.45zm222.994 30.9a4.884 4.884 0 01-3.012 4.51c-.892.37-1.873.46-2.819.27a4.862 4.862 0 01-3.834-3.83 4.875 4.875 0 012.075-5.01 4.926 4.926 0 012.711-.82c1.294 0 2.535.51 3.45 1.43a4.877 4.877 0 011.429 3.45zm277.091 26.54c0 .97-.287 1.91-.826 2.72a4.833 4.833 0 01-2.198 1.79c-.895.37-1.879.47-2.827.27a4.84 4.84 0 01-2.497-1.35 4.844 4.844 0 01-1.323-2.51 4.886 4.886 0 014.844-5.8c1.285.02 2.513.54 3.417 1.45a4.872 4.872 0 011.41 3.43zm-10.284-359.73a4.86 4.86 0 01-.797 2.72 4.828 4.828 0 01-2.179 1.82c-.89.38-1.873.48-2.823.3a4.87 4.87 0 01-3.862-3.82 4.863 4.863 0 01.268-2.82c.368-.9.993-1.66 1.797-2.2a4.872 4.872 0 012.716-.83c.639 0 1.272.12 1.864.36a4.82 4.82 0 013.016 4.47zm118.108 186.21c.011.97-.266 1.92-.796 2.73a4.896 4.896 0 01-2.179 1.82c-.891.37-1.874.48-2.824.3a4.95 4.95 0 01-2.512-1.33 4.895 4.895 0 01-1.35-2.49 4.88 4.88 0 012.065-5.03 4.863 4.863 0 012.717-.82 4.76 4.76 0 011.863.35 4.81 4.81 0 013.016 4.47zm-23.716 123.53c0 .97-.287 1.92-.826 2.72a4.839 4.839 0 01-2.198 1.79c-.895.37-1.879.47-2.827.27a4.84 4.84 0 01-2.497-1.35 4.836 4.836 0 01-1.323-2.51 4.886 4.886 0 014.844-5.8c1.285.02 2.513.54 3.417 1.45.903.92 1.41 2.15 1.41 3.43zm29.541 208.04c0 .96-.286 1.9-.822 2.71a4.892 4.892 0 01-2.19 1.79c-.892.37-1.873.47-2.82.28a4.9 4.9 0 01-2.498-1.33 4.942 4.942 0 01-1.336-2.5 4.883 4.883 0 012.075-5.01 4.849 4.849 0 012.711-.82c1.294 0 2.536.51 3.451 1.43a4.86 4.86 0 011.429 3.45zm-230.393-330.47c0 .97-.286 1.91-.823 2.71a4.842 4.842 0 01-2.189 1.8 4.863 4.863 0 01-5.318-1.06 4.873 4.873 0 01-1.336-2.49 4.883 4.883 0 012.075-5.01 4.849 4.849 0 012.711-.82c1.294 0 2.535.51 3.451 1.43a4.854 4.854 0 011.429 3.44zM1002.43 542.029c.01.969-.27 1.919-.8 2.729a4.943 4.943 0 01-2.191 1.82 4.882 4.882 0 01-6.39-6.388 4.88 4.88 0 014.551-2.987c1.28 0 2.51.508 3.41 1.413a4.813 4.813 0 011.42 3.413zm25.18 85.396c0 .965-.28 1.908-.82 2.71a4.883 4.883 0 01-7.51.74 4.831 4.831 0 01-1.33-2.498c-.19-.946-.1-1.927.27-2.819a4.884 4.884 0 014.51-3.011c1.3 0 2.54.514 3.45 1.429a4.857 4.857 0 011.43 3.449zm8.03 41.071c.01.97-.27 1.92-.8 2.73a4.838 4.838 0 01-2.19 1.819 4.88 4.88 0 01-2.83.291 4.906 4.906 0 01-2.51-1.338 4.871 4.871 0 01-1.34-2.51 4.98 4.98 0 01.29-2.83 4.906 4.906 0 011.82-2.187 4.872 4.872 0 012.73-.8c1.28 0 2.51.508 3.42 1.413.9.905 1.41 2.133 1.41 3.412zm-410.992-73.278a4.878 4.878 0 01-5.799 4.843 4.876 4.876 0 01-3.594-6.645 4.874 4.874 0 014.513-3.024 4.878 4.878 0 014.88 4.826zM3827.95-3.916a4.878 4.878 0 01-1.58 3.119 4.889 4.889 0 01-6.54 0 4.876 4.876 0 01-1.58-3.119c-.07-.68 0-1.366.21-2.016.21-.65.56-1.248 1.01-1.755a4.883 4.883 0 011.65-1.191 4.86 4.86 0 013.96 0 4.75 4.75 0 011.64 1.191 4.83 4.83 0 011.02 1.755c.21.65.28 1.337.21 2.016zm126.14 92.162c0 .965-.29 1.908-.82 2.71a4.909 4.909 0 01-2.19 1.797 4.888 4.888 0 01-6.66-3.555 4.942 4.942 0 01.28-2.818c.37-.892 1-1.654 1.8-2.19a4.86 4.86 0 012.71-.822c1.29 0 2.53.514 3.45 1.429a4.858 4.858 0 011.43 3.45zm-14.74 138.376a4.885 4.885 0 01-4.86 4.373 4.885 4.885 0 01-4.64-6.389c.22-.65.56-1.248 1.02-1.755a4.927 4.927 0 011.64-1.191c.62-.278 1.3-.422 1.98-.422.69 0 1.36.144 1.99.422.62.277 1.18.683 1.64 1.191a4.8 4.8 0 011.01 1.755c.22.649.29 1.336.22 2.016zm23.4 53.451c0 .964-.29 1.908-.83 2.71a4.802 4.802 0 01-2.19 1.796c-.89.37-1.87.466-2.82.278a4.871 4.871 0 01-2.49-1.335 4.856 4.856 0 01-1.06-5.316 4.84 4.84 0 011.8-2.19 4.86 4.86 0 012.71-.822c1.29 0 2.53.514 3.45 1.429a4.901 4.901 0 011.43 3.45zm194.76 221.619a4.857 4.857 0 01-3.02 4.511c-.9.368-1.88.461-2.83.269a4.925 4.925 0 01-2.5-1.35 4.876 4.876 0 01.8-7.512c.81-.53 1.76-.807 2.73-.797a4.87 4.87 0 013.41 1.447 4.854 4.854 0 011.41 3.432zm7.24 73.751a4.857 4.857 0 01-3.02 4.511 4.885 4.885 0 01-5.33-1.081 4.876 4.876 0 01.8-7.512c.81-.53 1.76-.807 2.73-.797.63 0 1.27.127 1.86.373a4.81 4.81 0 012.61 2.643c.24.591.36 1.224.35 1.863zm-331.44-165.022a4.88 4.88 0 01-2.98 4.544c-.89.377-1.87.482-2.82.299a4.91 4.91 0 01-2.52-1.322 4.997 4.997 0 01-1.35-2.497 4.965 4.965 0 01.27-2.826 4.93 4.93 0 011.8-2.198 4.88 4.88 0 016.15.584 4.923 4.923 0 011.45 3.416zm-172.73-112.41c0 .965-.29 1.908-.83 2.71a4.798 4.798 0 01-2.19 1.797 4.863 4.863 0 01-5.31-1.058 4.86 4.86 0 01-1.06-5.316c.37-.891.99-1.653 1.8-2.189a4.86 4.86 0 012.71-.822c1.29 0 2.53.514 3.45 1.429a4.897 4.897 0 011.43 3.449zm82.22-35.931c0 .967-.29 1.912-.83 2.715a4.88 4.88 0 01-5.03 2.065 4.88 4.88 0 01-2.49-1.35 4.944 4.944 0 01-1.33-2.511 4.96 4.96 0 01.3-2.823 4.894 4.894 0 011.82-2.178c.81-.53 1.76-.807 2.73-.797 1.28.014 2.51.534 3.41 1.448a4.86 4.86 0 011.42 3.431zm420.9-96.883c0 .965-.28 1.908-.82 2.71a4.883 4.883 0 01-5.01 2.075 4.948 4.948 0 01-2.5-1.335 4.905 4.905 0 01-1.33-2.498 4.86 4.86 0 01.28-2.819c.37-.891.99-1.653 1.79-2.189a4.908 4.908 0 012.71-.822c1.3 0 2.54.514 3.45 1.429a4.857 4.857 0 011.43 3.449zm73.67-22.398c0 .964-.28 1.908-.82 2.71a4.883 4.883 0 01-7.51.739 4.824 4.824 0 01-1.33-2.498c-.19-.946-.1-1.927.27-2.818a4.885 4.885 0 014.51-3.012c1.3 0 2.54.514 3.45 1.429a4.859 4.859 0 011.43 3.45zm-1.73-34.882c0 .965-.29 1.908-.82 2.711a4.907 4.907 0 01-2.19 1.796 4.891 4.891 0 01-5.32-1.057 4.917 4.917 0 01-1.34-2.498 4.944 4.944 0 01.28-2.819c.37-.891 1-1.653 1.8-2.189a4.877 4.877 0 016.16.607 4.858 4.858 0 011.43 3.449zm39.72 343.051a4.886 4.886 0 01-5.8 4.843 4.88 4.88 0 01-3.86-3.819 4.8 4.8 0 01.27-2.826c.36-.894.99-1.659 1.79-2.198a4.904 4.904 0 012.72-.826c.64-.007 1.27.113 1.86.353.59.239 1.13.593 1.59 1.042.45.449.81.983 1.06 1.572.24.589.37 1.221.37 1.859zm47.38 295.633a4.886 4.886 0 01-5.8 4.843 4.88 4.88 0 01-3.86-3.819c-.19-.948-.1-1.931.27-2.826.36-.894.99-1.659 1.79-2.198a4.877 4.877 0 016.15.585c.91.903 1.43 2.13 1.45 3.415zm-37.88 45.792c0 .965-.29 1.908-.83 2.711a4.802 4.802 0 01-2.19 1.796c-.89.369-1.87.466-2.82.278a4.871 4.871 0 01-2.49-1.335 4.856 4.856 0 01-1.06-5.316 4.84 4.84 0 011.8-2.19 4.86 4.86 0 012.71-.822c1.29 0 2.53.514 3.45 1.429a4.9 4.9 0 011.43 3.449zm-120.95-174.568c.01.967-.26 1.915-.79 2.724a4.886 4.886 0 01-7.52.796 4.914 4.914 0 01-1.35-2.497 4.878 4.878 0 012.07-5.023c.8-.538 1.75-.826 2.71-.826 1.29 0 2.52.507 3.44 1.41a4.87 4.87 0 011.44 3.416zm31.43 221.778c0 .965-.28 1.908-.82 2.71a4.856 4.856 0 01-2.19 1.797c-.89.369-1.87.466-2.82.277a4.933 4.933 0 01-2.5-1.335 4.898 4.898 0 01-1.33-2.497 4.859 4.859 0 01.28-2.819c.37-.891.99-1.653 1.79-2.189a4.908 4.908 0 012.71-.822c1.3 0 2.54.514 3.45 1.428a4.859 4.859 0 011.43 3.45zm159.09 282.517c0 .97-.29 1.91-.82 2.71-.54.8-1.3 1.43-2.19 1.8-.89.37-1.87.46-2.82.28a4.899 4.899 0 01-3.84-3.84 4.96 4.96 0 01.28-2.82c.37-.89 1-1.65 1.8-2.18.8-.54 1.75-.83 2.71-.83a4.9 4.9 0 013.45 1.43c.92.92 1.43 2.16 1.43 3.45zM3152.46-.139c.07.68 0 1.367-.21 2.016-.21.65-.56 1.248-1.01 1.755-.46.508-1.02.914-1.65 1.192a4.86 4.86 0 01-3.96 0 4.75 4.75 0 01-1.64-1.192 4.83 4.83 0 01-1.02-1.755c-.21-.65-.28-1.336-.21-2.016.12-1.2.69-2.31 1.58-3.118a4.889 4.889 0 016.54 0 4.876 4.876 0 011.58 3.118zM2855.12 81.06a4.889 4.889 0 01-4.85 4.373 4.889 4.889 0 01-4.86-4.373c-.07-.68 0-1.366.22-2.016.21-.65.55-1.247 1.01-1.755a4.944 4.944 0 011.64-1.191 4.896 4.896 0 013.97 0c.62.278 1.18.683 1.64 1.191.46.508.8 1.105 1.02 1.755.21.65.28 1.337.21 2.016zm402.28 33.099a4.94 4.94 0 01-.82 2.716 4.92 4.92 0 01-2.2 1.796 4.885 4.885 0 01-5.33-1.081 4.86 4.86 0 01-1.32-2.512 4.873 4.873 0 012.12-5c.81-.53 1.76-.807 2.72-.797a4.86 4.86 0 013.44 1.432 4.816 4.816 0 011.39 3.446zm-572.23 144.617c0 .967-.29 1.912-.82 2.715a4.914 4.914 0 01-2.2 1.796 4.885 4.885 0 01-5.33-1.081 4.876 4.876 0 01.8-7.512 4.875 4.875 0 017.55 4.082zm396.35 66.46c0 .964-.28 1.908-.82 2.71a4.883 4.883 0 01-7.51.739 4.897 4.897 0 01-1.33-2.498 4.856 4.856 0 01.28-2.818 4.88 4.88 0 011.79-2.189 4.91 4.91 0 012.71-.823c1.3 0 2.54.514 3.45 1.429a4.859 4.859 0 011.43 3.45zm-1948.5 930.694c0 .97-.28 1.91-.82 2.71a4.87 4.87 0 01-2.19 1.8c-.89.37-1.87.47-2.82.28-.95-.19-1.82-.66-2.5-1.34a4.883 4.883 0 01-1.33-2.5c-.19-.94-.09-1.92.27-2.81.37-.9 1-1.66 1.8-2.19a4.86 4.86 0 016.16.6c.92.92 1.43 2.16 1.43 3.45zm2752.96-725.546c0 .965-.28 1.908-.82 2.71a4.883 4.883 0 01-5.01 2.075 4.948 4.948 0 01-2.5-1.335 4.905 4.905 0 01-1.33-2.498 4.86 4.86 0 01.28-2.819c.37-.891.99-1.653 1.79-2.189a4.908 4.908 0 012.71-.822 4.855 4.855 0 013.45 1.429c.46.453.82.99 1.06 1.582.25.592.37 1.226.37 1.867zm247.03 233.842a4.886 4.886 0 01-5.8 4.843 4.88 4.88 0 01-3.86-3.819c-.19-.948-.1-1.931.27-2.826.37-.894.99-1.659 1.79-2.198a4.904 4.904 0 012.72-.826c1.29 0 2.52.507 3.43 1.411.92.903 1.44 2.13 1.45 3.415zm21.77 262.844c.01.97-.26 1.92-.8 2.73-.53.81-1.29 1.45-2.18 1.82-.9.38-1.88.48-2.84.29-.95-.18-1.82-.65-2.51-1.33a4.878 4.878 0 01-1.33-2.51c-.19-.96-.09-1.94.29-2.83a4.81 4.81 0 011.82-2.19c.81-.53 1.76-.81 2.73-.8 1.28 0 2.5.51 3.41 1.41.9.91 1.41 2.13 1.41 3.41zm211.19 265.53c-.12 1.2-.69 2.31-1.58 3.12-.9.8-2.06 1.25-3.27 1.25s-2.37-.45-3.27-1.25a4.885 4.885 0 01-1.58-3.12c-.07-.68 0-1.37.21-2.02.21-.65.56-1.25 1.02-1.75.45-.51 1.01-.92 1.64-1.19.62-.28 1.3-.43 1.98-.43.68 0 1.36.15 1.98.43.63.27 1.19.68 1.64 1.19.46.5.81 1.1 1.02 1.75.21.65.28 1.34.21 2.02zM555.703 2331.67a4.884 4.884 0 01-2.976 4.54c-.89.38-1.873.48-2.823.3a4.87 4.87 0 01-3.862-3.82c-.193-.95-.1-1.93.268-2.83.368-.89.993-1.66 1.797-2.19a4.87 4.87 0 016.148.58c.914.9 1.434 2.13 1.448 3.42zm-186.896 75.06a4.86 4.86 0 01-.797 2.72 4.876 4.876 0 01-5.002 2.12 4.87 4.87 0 01-3.862-3.82c-.193-.95-.1-1.93.268-2.82.368-.9.993-1.66 1.797-2.2a4.87 4.87 0 016.148.58 4.89 4.89 0 011.448 3.42z" fill="#FEF" opacity=".55"/><g opacity=".5" stroke-width=".25" stroke-miterlimit="10"><path style="mix-blend-mode:color-dodge" opacity=".5" d="M215.386 545.387S1220.49 1196.55 2093.42 1330.42" stroke="url(#paint0_linear)"/><path style="mix-blend-mode:color-dodge" opacity=".5" d="M215.386 601.513S1208.32 1241.98 2093.42 1330.63" stroke="url(#paint1_linear)"/><path style="mix-blend-mode:color-dodge" opacity=".5" d="M215.386 657.429S1196.14 1287.35 2093.42 1330.42" stroke="url(#paint2_linear)"/><path style="mix-blend-mode:color-dodge" opacity=".5" d="M215.386 713.765S1183.97 1332.73 2093.42 1330.42" stroke="url(#paint3_linear)"/><path style="mix-blend-mode:color-dodge" opacity=".5" d="M215.386 769.891S1171.85 1378.36 2093.42 1330.42" stroke="url(#paint4_linear)"/><path style="mix-blend-mode:color-dodge" opacity=".5" d="M215.386 826.018S1159.83 1423.58 2093.42 1330.42" stroke="url(#paint5_linear)"/><path style="mix-blend-mode:color-dodge" opacity=".5" d="M215.386 882.144S1147.5 1469 2093.42 1330.42" stroke="url(#paint6_linear)"/><path style="mix-blend-mode:color-dodge" opacity=".5" d="M215.386 938.27s919.944 576.16 1878.034 392.15" stroke="url(#paint7_linear)"/><path style="mix-blend-mode:color-dodge" opacity=".5" d="M215.386 994.396S1123.11 1559.64 2093.42 1330.42" stroke="url(#paint8_linear)"/><path style="mix-blend-mode:color-dodge" opacity=".5" d="M215.386 1050.84s895.654 554.39 1878.034 279.58" stroke="url(#paint9_linear)"/><path style="mix-blend-mode:color-dodge" opacity=".5" d="M215.386 1106.7s883.484 543.95 1878.034 223.72" stroke="url(#paint10_linear)"/><path style="mix-blend-mode:color-dodge" opacity=".5" d="M215.386 1162.83s871.304 533.2 1878.034 167.59" stroke="url(#paint11_linear)"/><path style="mix-blend-mode:color-dodge" opacity=".5" d="M215.386 1218.95s859.134 522.5 1878.034 111.47" stroke="url(#paint12_linear)"/><path style="mix-blend-mode:color-dodge" opacity=".5" d="M215.386 1275.08s846.964 511.8 1878.034 55.34" stroke="url(#paint13_linear)"/><path style="mix-blend-mode:color-dodge" opacity=".5" d="M215.386 1331.21s834.844 501.2 1878.034-.79" stroke="url(#paint14_linear)"/><path style="mix-blend-mode:color-dodge" opacity=".5" d="M215.386 1387.33s822.664 490.34 1878.034-56.91" stroke="url(#paint15_linear)"/><path style="mix-blend-mode:color-dodge" opacity=".5" d="M215.386 1443.46s810.494 479.64 1878.034-113.04" stroke="url(#paint16_linear)"/></g><g style="mix-blend-mode:color-dodge" opacity=".3" stroke-width=".25" stroke-miterlimit="10"><path style="mix-blend-mode:color-dodge" opacity=".3" d="M2645.87 1024.3s476.63-888.162 1504.72-424.885" stroke="url(#paint17_linear)"/><path style="mix-blend-mode:color-dodge" opacity=".3" d="M2645.87 1024.29s124.25-205.354 378.46-353.747c250.02-146.086 627.8-240.871 1126.26-40.757" stroke="url(#paint18_linear)"/><path style="mix-blend-mode:color-dodge" opacity=".3" d="M2645.87 1024.29s127.4-185.107 384.03-317.344c251.8-130.349 633.88-217.371 1120.69-46.789" stroke="url(#paint19_linear)"/><path style="mix-blend-mode:color-dodge" opacity=".3" d="M2645.87 1024.29s130.55-164.807 389.59-280.993c253.84-114.561 639.81-193.662 1115.13-52.717" stroke="url(#paint20_linear)"/><path style="mix-blend-mode:color-dodge" opacity=".3" d="M2645.87 1024.3s133.69-144.569 395.15-244.6c255.89-98.824 645.79-170.057 1109.57-58.748" stroke="url(#paint21_linear)"/><path style="mix-blend-mode:color-dodge" opacity=".3" d="M2645.87 1024.3s136.89-124.269 400.71-208.196c257.94-83.087 651.77-146.452 1104.01-64.781" stroke="url(#paint22_linear)"/><path style="mix-blend-mode:color-dodge" opacity=".3" d="M2645.87 1024.3s140.15-103.445 406.27-171.793c260.15-66.827 657.71-122.848 1098.45-70.813" stroke="url(#paint23_linear)"/><path style="mix-blend-mode:color-dodge" opacity=".3" d="M2645.87 1024.29s143.3-83.136 411.83-135.433c262.35-50.985 663.69-99.191 1092.89-76.793" stroke="url(#paint24_linear)"/><path style="mix-blend-mode:color-dodge" opacity=".3" d="M2645.87 1024.3s146.39-62.95 417.4-99.039c264.13-35.249 669.66-75.586 1087.32-82.825" stroke="url(#paint25_linear)"/><path style="mix-blend-mode:color-dodge" opacity=".3" d="M2645.87 1024.29s149.54-42.588 422.96-62.626c266.17-19.513 675.65-51.982 1081.76-88.857" stroke="url(#paint26_linear)"/><path style="mix-blend-mode:color-dodge" opacity=".3" d="M2645.87 1024.3s152.64-22.35 428.52-26.232c268.17-3.829 681.58-28.378 1076.2-94.89" stroke="url(#paint27_linear)"/><path style="mix-blend-mode:color-dodge" opacity=".3" d="M2645.87 1024.29s155.78-2.62 434.08 10.13c270.22 11.43 687.35-4.77 1070.38-100.871" stroke="url(#paint28_linear)"/><path style="mix-blend-mode:color-dodge" opacity=".3" d="M2645.87 1024.29s158.93 17.68 439.64 46.53c272.27 27.17 693.54 18.83 1065.13-106.901" stroke="url(#paint29_linear)"/><path style="mix-blend-mode:color-dodge" opacity=".3" d="M2645.87 1024.29s162.08 37.93 445.2 82.94c274.31 42.9 699.53 42.43 1059.52-112.939" stroke="url(#paint30_linear)"/><path style="mix-blend-mode:color-dodge" opacity=".3" d="M2645.87 1024.29s165.23 58.23 450.77 119.34c276.35 58.64 705.45 66.04 1053.95-119.02" stroke="url(#paint31_linear)"/><path style="mix-blend-mode:color-dodge" opacity=".3" d="M2645.87 1024.29s168.43 78.69 456.49 155.74c278.4 74.38 711.43 89.65 1048.39-124.94" stroke="url(#paint32_linear)"/><path style="mix-blend-mode:color-dodge" opacity=".3" d="M2645.87 1024.29s171.58 98.78 461.73 192.09c280.61 90.17 717.68 113.3 1042.99-130.92" stroke="url(#paint33_linear)"/></g><g style="mix-blend-mode:color-dodge" opacity=".8" stroke-width=".5" stroke-miterlimit="10"><path style="mix-blend-mode:color-dodge" opacity=".8" d="M215.386 953.901S684.2 698.081 1713.81 1223.25c550.24 280.63 817.94-35.72 1082.65-35.04 398.77 1 617.35 407.47 1354.13-54.13" stroke="url(#paint34_linear)"/><path style="mix-blend-mode:color-dodge" opacity=".8" d="M215.386 999.379S713.32 676.575 1733.64 1190.58c570.92 284.72 814.74 28.06 1091.36 26.48 402.44-1.25 634.88 358.37 1325.38-74.38" stroke="url(#paint35_linear)"/><path style="mix-blend-mode:color-dodge" opacity=".8" d="M215.386 1044.86S740.71 658.794 1753.53 1157.9c590.43 290.96 811.49 91.16 1100.38 88.02 406.22-4.41 651.99 309.48 1296.68-94.42" stroke="url(#paint36_linear)"/><path style="mix-blend-mode:color-dodge" opacity=".8" d="M215.386 1090.28s553.867-451.682 1557.974 34.94c610.69 295.94 808.39 154.69 1109.31 149.54 409.89-6.97 669.29 260.23 1267.92-114.82" stroke="url(#paint37_linear)"/><path style="mix-blend-mode:color-dodge" opacity=".8" d="M215.386 1135.76s582.41-517.672 1577.804-42.96c631 300.77 805.14 218.21 1118.23 211.08 413.61-9.45 686.61 211.18 1239.17-135.02" stroke="url(#paint38_linear)"/><path style="mix-blend-mode:color-dodge" opacity=".8" d="M215.386 1181.24s611.426-583.976 1597.644-121.38c651.4 305.49 801.94 281.84 1127.14 272.76 417.34-11.85 703.88 162.09 1210.42-155.26" stroke="url(#paint39_linear)"/><path style="mix-blend-mode:color-dodge" opacity=".8" d="M215.386 1226.66s640.441-650.43 1617.474-199.32c671.87 310.11 798.74 345.46 1136.07 334.13 420.85-14.32 721.19 112.88 1181.66-175.62" stroke="url(#paint40_linear)"/><path style="mix-blend-mode:color-dodge" opacity=".8" d="M215.386 1272.14S884.948 554.881 1852.69 994.501c692.6 314.729 795.54 409.139 1144.99 395.659 425-16.41 738.5 63.95 1152.91-195.7" stroke="url(#paint41_linear)"/><path style="mix-blend-mode:color-dodge" opacity=".8" d="M215.386 1317.62s698.84-784.298 1657.194-355.955c713 318.765 792.29 472.925 1153.85 457.195 428.41-18.52 755.77 14.89 1124.16-215.91" stroke="url(#paint42_linear)"/><path style="mix-blend-mode:color-dodge" opacity=".8" d="M215.386 1363.04s728.17-851.486 1677.024-433.897C2626.09 1252 2681.45 1465.86 3055.18 1447.86c432.14-20.98 773.09-34.2 1095.41-236.04" stroke="url(#paint43_linear)"/><path style="mix-blend-mode:color-dodge" opacity=".8" d="M215.386 1408.52S972.991 489.575 1912.25 896.463c754.45 326.787 785.93 600.547 1171.69 580.247 435.86-22.92 790.34-83.24 1066.65-256.34" stroke="url(#paint44_linear)"/><path style="mix-blend-mode:color-dodge" opacity=".8" d="M215.386 1454S1002.43 467.439 1932.08 863.784c775.29 330.466 782.79 664.436 1180.56 641.776 439.8-25.02 807.71-132.34 1037.95-276.38" stroke="url(#paint45_linear)"/><path style="mix-blend-mode:color-dodge" opacity=".8" d="M215.386 1499.43S1032.02 445.094 1952.12 831.106c796.01 334.084 779.38 728.534 1189.32 703.304 443.27-27.22 824.98-181.38 1009.15-296.78" stroke="url(#paint46_linear)"/><path style="mix-blend-mode:color-dodge" opacity=".8" d="M215.386 1544.9S1061.61 422.381 1971.75 798.426c817.21 337.434 776.54 793.114 1198.45 764.834 447.04-28.22 842.24-230.48 980.39-317.03" stroke="url(#paint47_linear)"/><path style="mix-blend-mode:color-dodge" opacity=".8" d="M215.386 1590.38S1091.31 399.931 1991.63 765.748c838.2 340.582 773.24 856.842 1207.27 826.362 450.81-30.47 859.6-279.53 951.69-337.23" stroke="url(#paint48_linear)"/><path style="mix-blend-mode:color-dodge" opacity=".8" d="M215.386 1635.81S1121.58 375.697 2011.46 733.068c859.92 342.112 770.1 920.622 1216.19 887.892 454.54-32.73 876.87-328.83 922.94-357.47" stroke="url(#paint49_linear)"/><path style="mix-blend-mode:color-dodge" opacity=".8" d="M215.386 1681.29S1150.76 354.191 2031.3 700.389c880.54 346.201 766.89 984.411 1225.1 949.421 458.22-34.98 894.19-377.67 894.19-377.67" stroke="url(#paint50_linear)"/></g><g style="mix-blend-mode:color-dodge" opacity=".8" stroke-width=".25" stroke-miterlimit="10"><path style="mix-blend-mode:color-dodge" opacity=".8" d="M215.386 963.553S684.2 707.733 1713.81 1232.85c550.24 280.63 817.94-35.67 1082.65-34.98 398.77.99 617.35 407.41 1354.13-54.19" stroke="url(#paint51_linear)"/><path style="mix-blend-mode:color-dodge" opacity=".8" d="M215.386 1008.87S713.32 686.069 1733.64 1200.02c570.92 284.77 814.74 28.11 1091.36 26.54 402.44-1.26 634.88 358.37 1325.38-74.38" stroke="url(#paint52_linear)"/><path style="mix-blend-mode:color-dodge" opacity=".8" d="M215.386 1054.51S740.71 668.445 1753.53 1167.55c590.43 290.96 811.49 91.16 1100.38 87.86 406.22-4.41 651.99 309.48 1296.68-94.42" stroke="url(#paint53_linear)"/><path style="mix-blend-mode:color-dodge" opacity=".8" d="M215.386 1099.93s553.867-451.68 1557.974 34.83c610.69 296.06 808.39 154.8 1109.31 149.66 409.89-6.98 669.29 260.22 1267.92-114.83" stroke="url(#paint54_linear)"/><path style="mix-blend-mode:color-dodge" opacity=".8" d="M215.386 1145.25s582.41-517.667 1577.804-43.22c631.16 300.93 805.14 218.37 1118.23 211.08 413.61-9.44 686.61 211.18 1239.17-135.02" stroke="url(#paint55_linear)"/><path style="mix-blend-mode:color-dodge" opacity=".8" d="M215.386 1190.89s611.426-583.974 1597.644-121.38c651.4 305.49 801.94 281.84 1127.14 272.76 417.34-11.85 703.88 162.09 1210.42-155.26" stroke="url(#paint56_linear)"/><path style="mix-blend-mode:color-dodge" opacity=".8" d="M215.386 1236.32s640.441-650.439 1617.474-199.33c671.87 309.95 798.74 345.31 1136.07 333.82 420.85-14.01 721.19 113.19 1181.66-175.3" stroke="url(#paint57_linear)"/><path style="mix-blend-mode:color-dodge" opacity=".8" d="M215.386 1281.64s669.562-717.107 1637.304-277.49c692.6 314.73 795.54 409.15 1144.99 395.67 425-16.42 738.5 63.94 1152.91-195.71" stroke="url(#paint58_linear)"/><path style="mix-blend-mode:color-dodge" opacity=".8" d="M215.386 1327.27s698.84-784.296 1657.194-355.797c713 318.767 792.34 472.767 1153.85 457.037 428.41-18.68 755.56 14.89 1124.16-215.9" stroke="url(#paint59_linear)"/><path style="mix-blend-mode:color-dodge" opacity=".8" d="M215.386 1372.7s728.17-851.652 1677.024-433.906c733.68 322.856 789.04 536.926 1162.77 518.726 432.14-20.99 773.09-34.2 1095.41-236.05" stroke="url(#paint60_linear)"/><path style="mix-blend-mode:color-dodge" opacity=".8" d="M215.386 1418.02S972.991 499.226 1912.25 906.115c754.45 326.795 785.93 600.545 1171.69 580.095 435.86-22.98 790.34-83.25 1066.65-256.35" stroke="url(#paint61_linear)"/><path style="mix-blend-mode:color-dodge" opacity=".8" d="M215.386 1463.65S1002.43 477.091 1932.08 873.436c775.29 330.464 782.79 664.444 1180.56 641.784 439.8-25.03 807.71-132.35 1037.95-276.6" stroke="url(#paint62_linear)"/><path style="mix-blend-mode:color-dodge" opacity=".8" d="M215.386 1509.08S1032.02 454.746 1952.12 841.019c796.01 333.821 779.38 728.071 1189.32 702.891 443.27-27.07 824.98-181.39 1009.15-296.79" stroke="url(#paint63_linear)"/><path style="mix-blend-mode:color-dodge" opacity=".8" d="M215.386 1554.4S1061.61 431.875 1971.75 807.92c817.21 337.44 776.54 793.11 1198.45 764.84 447.04-28.22 842.24-230.49 980.39-317.04" stroke="url(#paint64_linear)"/><path style="mix-blend-mode:color-dodge" opacity=".8" d="M215.386 1600.03S1091.31 409.583 1991.63 775.399c838.2 340.591 773.24 856.891 1207.27 826.211 450.81-30.48 859.6-279.53 951.69-337.23" stroke="url(#paint65_linear)"/><path style="mix-blend-mode:color-dodge" opacity=".8" d="M215.386 1645.46S1121.58 385.349 2011.46 742.72c859.92 342.11 770.1 920.63 1216.19 887.89 454.54-32.73 876.87-328.62 922.94-357.47" stroke="url(#paint66_linear)"/><path style="mix-blend-mode:color-dodge" opacity=".8" d="M215.386 1690.78S1150.76 363.685 2031.3 709.883c880.54 346.197 766.89 984.567 1225.1 949.427 458.22-35.15 894.19-377.67 894.19-377.67" stroke="url(#paint67_linear)"/></g><path style="mix-blend-mode:color-dodge" d="M215.386 800.105S727.382 1529.22 1451.46 1543.12c715.1 13.85 1671.15-1248.413 2699.13-603.224" stroke="url(#paint68_linear)" stroke-miterlimit="10"/><path style="mix-blend-mode:color-dodge" d="M215.386 1762.64S877.812 593.801 1666.06 558.395c847.01-37.977 1112.35 830.145 1587.88 977.535 536.81 166.39 896.65-6.71 896.65-6.71" stroke="url(#paint69_linear)" stroke-miterlimit="10"/><path style="mix-blend-mode:color-dodge" d="M215.386 700.442s356.372-162.609 753.355-75.167C1331.57 705.163 2128.89 1436.53 2519.32 1569.45c439.43 149.55 1140.26 20.98 1631.27-867.277" stroke="url(#paint70_linear)" stroke-miterlimit="10"/><path style="mix-blend-mode:color-dodge" d="M215.386 1460.35s442.947 230.8 991.254 137.06c470.23-80.2 1066.86-764.259 1616.05-763.525 528.21.734 871.41 223.195 1327.9 826.475" stroke="url(#paint71_linear)" stroke-miterlimit="10"/><path style="mix-blend-mode:color-dodge" d="M4150.59 831.367s-939.62-727.174-2116.62-31.787c-920.83 544-1114.183 698.9-1818.584 279.84" stroke="url(#paint72_linear)" stroke-miterlimit="10"/><path style="mix-blend-mode:color-dodge" d="M4150.59 848.363s-939.62-727.175-2116.62-31.788C1113.14 1360.58 919.787 1515.48 215.386 1096.42" stroke="url(#paint73_linear)" stroke-width=".25" stroke-miterlimit="10"/><defs><linearGradient id="paint0_linear" x1="215.019" y1="937.955" x2="2093.53" y2="937.955" gradientUnits="userSpaceOnUse"><stop stop-color="#87888A"/><stop offset=".5" stop-color="#E5E5E5"/><stop offset="1" stop-color="#7D7E80"/></linearGradient><linearGradient id="paint1_linear" x1="83.924" y1="136093" x2="672458" y2="136093" gradientUnits="userSpaceOnUse"><stop stop-color="#87888A"/><stop offset=".5" stop-color="#E5E5E5"/><stop offset="1" stop-color="#7D7E80"/></linearGradient><linearGradient id="paint2_linear" x1="83.924" y1="129320" x2="672439" y2="129320" gradientUnits="userSpaceOnUse"><stop stop-color="#87888A"/><stop offset=".5" stop-color="#E5E5E5"/><stop offset="1" stop-color="#7D7E80"/></linearGradient><linearGradient id="paint3_linear" x1="83.924" y1="121906" x2="672439" y2="121906" gradientUnits="userSpaceOnUse"><stop stop-color="#87888A"/><stop offset=".5" stop-color="#E5E5E5"/><stop offset="1" stop-color="#7D7E80"/></linearGradient><linearGradient id="paint4_linear" x1="83.924" y1="114619" x2="672439" y2="114619" gradientUnits="userSpaceOnUse"><stop stop-color="#87888A"/><stop offset=".5" stop-color="#E5E5E5"/><stop offset="1" stop-color="#7D7E80"/></linearGradient><linearGradient id="paint5_linear" x1="83.924" y1="107880" x2="672458" y2="107880" gradientUnits="userSpaceOnUse"><stop stop-color="#87888A"/><stop offset=".5" stop-color="#E5E5E5"/><stop offset="1" stop-color="#7D7E80"/></linearGradient><linearGradient id="paint6_linear" x1="83.924" y1="101627" x2="672458" y2="101627" gradientUnits="userSpaceOnUse"><stop stop-color="#87888A"/><stop offset=".5" stop-color="#E5E5E5"/><stop offset="1" stop-color="#7D7E80"/></linearGradient><linearGradient id="paint7_linear" x1="83.924" y1="95784.2" x2="672477" y2="95784.2" gradientUnits="userSpaceOnUse"><stop stop-color="#87888A"/><stop offset=".5" stop-color="#E5E5E5"/><stop offset="1" stop-color="#7D7E80"/></linearGradient><linearGradient id="paint8_linear" x1="83.924" y1="90276.3" x2="672477" y2="90276.3" gradientUnits="userSpaceOnUse"><stop stop-color="#87888A"/><stop offset=".5" stop-color="#E5E5E5"/><stop offset="1" stop-color="#7D7E80"/></linearGradient><linearGradient id="paint9_linear" x1="83.924" y1="85046.6" x2="672496" y2="85046.6" gradientUnits="userSpaceOnUse"><stop stop-color="#87888A"/><stop offset=".5" stop-color="#E5E5E5"/><stop offset="1" stop-color="#7D7E80"/></linearGradient><linearGradient id="paint10_linear" x1="83.924" y1="80201.2" x2="672496" y2="80201.2" gradientUnits="userSpaceOnUse"><stop stop-color="#87888A"/><stop offset=".5" stop-color="#E5E5E5"/><stop offset="1" stop-color="#7D7E80"/></linearGradient><linearGradient id="paint11_linear" x1="83.924" y1="75543.9" x2="672514" y2="75543.9" gradientUnits="userSpaceOnUse"><stop stop-color="#87888A"/><stop offset=".5" stop-color="#E5E5E5"/><stop offset="1" stop-color="#7D7E80"/></linearGradient><linearGradient id="paint12_linear" x1="102.704" y1="71116.6" x2="672514" y2="71116.6" gradientUnits="userSpaceOnUse"><stop stop-color="#87888A"/><stop offset=".5" stop-color="#E5E5E5"/><stop offset="1" stop-color="#7D7E80"/></linearGradient><linearGradient id="paint13_linear" x1="102.704" y1="66901.7" x2="672533" y2="66901.7" gradientUnits="userSpaceOnUse"><stop stop-color="#87888A"/><stop offset=".5" stop-color="#E5E5E5"/><stop offset="1" stop-color="#7D7E80"/></linearGradient><linearGradient id="paint14_linear" x1="102.704" y1="63095.7" x2="672533" y2="63095.7" gradientUnits="userSpaceOnUse"><stop stop-color="#87888A"/><stop offset=".5" stop-color="#E5E5E5"/><stop offset="1" stop-color="#7D7E80"/></linearGradient><linearGradient id="paint15_linear" x1="102.704" y1="73822.8" x2="672533" y2="73822.8" gradientUnits="userSpaceOnUse"><stop stop-color="#87888A"/><stop offset=".5" stop-color="#E5E5E5"/><stop offset="1" stop-color="#7D7E80"/></linearGradient><linearGradient id="paint16_linear" x1="102.704" y1="85343.7" x2="672552" y2="85343.7" gradientUnits="userSpaceOnUse"><stop stop-color="#87888A"/><stop offset=".5" stop-color="#E5E5E5"/><stop offset="1" stop-color="#7D7E80"/></linearGradient><linearGradient id="paint17_linear" x1="699495" y1="80725.3" x2="1131260" y2="80725.3" gradientUnits="userSpaceOnUse"><stop stop-color="#87888A"/><stop offset=".5" stop-color="#E5E5E5"/><stop offset="1" stop-color="#7D7E80"/></linearGradient><linearGradient id="paint18_linear" x1="699510" y1="76020.2" x2="1131260" y2="76020.2" gradientUnits="userSpaceOnUse"><stop stop-color="#87888A"/><stop offset=".5" stop-color="#E5E5E5"/><stop offset="1" stop-color="#7D7E80"/></linearGradient><linearGradient id="paint19_linear" x1="699510" y1="70856.1" x2="1131240" y2="70856.1" gradientUnits="userSpaceOnUse"><stop stop-color="#87888A"/><stop offset=".5" stop-color="#E5E5E5"/><stop offset="1" stop-color="#7D7E80"/></linearGradient><linearGradient id="paint20_linear" x1="699510" y1="65231.4" x2="1131240" y2="65231.4" gradientUnits="userSpaceOnUse"><stop stop-color="#87888A"/><stop offset=".5" stop-color="#E5E5E5"/><stop offset="1" stop-color="#7D7E80"/></linearGradient><linearGradient id="paint21_linear" x1="699525" y1="59177.4" x2="1131230" y2="59177.4" gradientUnits="userSpaceOnUse"><stop stop-color="#87888A"/><stop offset=".5" stop-color="#E5E5E5"/><stop offset="1" stop-color="#7D7E80"/></linearGradient><linearGradient id="paint22_linear" x1="699540" y1="52728.8" x2="1131210" y2="52728.8" gradientUnits="userSpaceOnUse"><stop stop-color="#87888A"/><stop offset=".5" stop-color="#E5E5E5"/><stop offset="1" stop-color="#7D7E80"/></linearGradient><linearGradient id="paint23_linear" x1="699555" y1="45964.2" x2="1131200" y2="45964.2" gradientUnits="userSpaceOnUse"><stop stop-color="#87888A"/><stop offset=".5" stop-color="#E5E5E5"/><stop offset="1" stop-color="#7D7E80"/></linearGradient><linearGradient id="paint24_linear" x1="699570" y1="39185.8" x2="1131200" y2="39185.8" gradientUnits="userSpaceOnUse"><stop stop-color="#87888A"/><stop offset=".5" stop-color="#E5E5E5"/><stop offset="1" stop-color="#7D7E80"/></linearGradient><linearGradient id="paint25_linear" x1="699585" y1="33504.4" x2="1131180" y2="33504.4" gradientUnits="userSpaceOnUse"><stop stop-color="#87888A"/><stop offset=".5" stop-color="#E5E5E5"/><stop offset="1" stop-color="#7D7E80"/></linearGradient><linearGradient id="paint26_linear" x1="699615" y1="28519.4" x2="1131200" y2="28519.4" gradientUnits="userSpaceOnUse"><stop stop-color="#87888A"/><stop offset=".5" stop-color="#E5E5E5"/><stop offset="1" stop-color="#7D7E80"/></linearGradient><linearGradient id="paint27_linear" x1="699630" y1="23358.3" x2="1131210" y2="23358.3" gradientUnits="userSpaceOnUse"><stop stop-color="#87888A"/><stop offset=".5" stop-color="#E5E5E5"/><stop offset="1" stop-color="#7D7E80"/></linearGradient><linearGradient id="paint28_linear" x1="699539" y1="20658" x2="1131030" y2="20658" gradientUnits="userSpaceOnUse"><stop stop-color="#87888A"/><stop offset=".5" stop-color="#E5E5E5"/><stop offset="1" stop-color="#7D7E80"/></linearGradient><linearGradient id="paint29_linear" x1="699670" y1="24502" x2="1131280" y2="24502" gradientUnits="userSpaceOnUse"><stop stop-color="#87888A"/><stop offset=".5" stop-color="#E5E5E5"/><stop offset="1" stop-color="#7D7E80"/></linearGradient><linearGradient id="paint30_linear" x1="699615" y1="29041" x2="1131260" y2="29041" gradientUnits="userSpaceOnUse"><stop stop-color="#87888A"/><stop offset=".5" stop-color="#E5E5E5"/><stop offset="1" stop-color="#7D7E80"/></linearGradient><linearGradient id="paint31_linear" x1="699600" y1="34122.7" x2="1131270" y2="34122.7" gradientUnits="userSpaceOnUse"><stop stop-color="#87888A"/><stop offset=".5" stop-color="#E5E5E5"/><stop offset="1" stop-color="#7D7E80"/></linearGradient><linearGradient id="paint32_linear" x1="699658" y1="45566.6" x2="1131410" y2="45566.6" gradientUnits="userSpaceOnUse"><stop stop-color="#87888A"/><stop offset=".5" stop-color="#E5E5E5"/><stop offset="1" stop-color="#7D7E80"/></linearGradient><linearGradient id="paint33_linear" x1="699570" y1="57540.5" x2="1131300" y2="57540.5" gradientUnits="userSpaceOnUse"><stop stop-color="#87888A"/><stop offset=".5" stop-color="#E5E5E5"/><stop offset="1" stop-color="#7D7E80"/></linearGradient><linearGradient id="paint34_linear" x1="-256.838" y1="100776" x2="2952130" y2="100776" gradientUnits="userSpaceOnUse"><stop stop-color="#87888A"/><stop offset=".5" stop-color="#E5E5E5"/><stop offset="1" stop-color="#7D7E80"/></linearGradient><linearGradient id="paint35_linear" x1="-335.512" y1="99852" x2="2951970" y2="99852" gradientUnits="userSpaceOnUse"><stop stop-color="#87888A"/><stop offset=".5" stop-color="#E5E5E5"/><stop offset="1" stop-color="#7D7E80"/></linearGradient><linearGradient id="paint36_linear" x1="-374.894" y1="99815.1" x2="2952130" y2="99815.1" gradientUnits="userSpaceOnUse"><stop stop-color="#87888A"/><stop offset=".5" stop-color="#E5E5E5"/><stop offset="1" stop-color="#7D7E80"/></linearGradient><linearGradient id="paint37_linear" x1="-414.246" y1="100992" x2="2952130" y2="100992" gradientUnits="userSpaceOnUse"><stop stop-color="#87888A"/><stop offset=".5" stop-color="#E5E5E5"/><stop offset="1" stop-color="#7D7E80"/></linearGradient><linearGradient id="paint38_linear" x1="-453.598" y1="103228" x2="2952130" y2="103228" gradientUnits="userSpaceOnUse"><stop stop-color="#87888A"/><stop offset=".5" stop-color="#E5E5E5"/><stop offset="1" stop-color="#7D7E80"/></linearGradient><linearGradient id="paint39_linear" x1="-453.598" y1="106420" x2="2952130" y2="106420" gradientUnits="userSpaceOnUse"><stop stop-color="#87888A"/><stop offset=".5" stop-color="#E5E5E5"/><stop offset="1" stop-color="#7D7E80"/></linearGradient><linearGradient id="paint40_linear" x1="-492.95" y1="110714" x2="2952130" y2="110714" gradientUnits="userSpaceOnUse"><stop stop-color="#87888A"/><stop offset=".5" stop-color="#E5E5E5"/><stop offset="1" stop-color="#7D7E80"/></linearGradient><linearGradient id="paint41_linear" x1="-492.95" y1="117112" x2="2952130" y2="117112" gradientUnits="userSpaceOnUse"><stop stop-color="#87888A"/><stop offset=".5" stop-color="#E5E5E5"/><stop offset="1" stop-color="#7D7E80"/></linearGradient><linearGradient id="paint42_linear" x1="-532.302" y1="127763" x2="2952130" y2="127763" gradientUnits="userSpaceOnUse"><stop stop-color="#87888A"/><stop offset=".5" stop-color="#E5E5E5"/><stop offset="1" stop-color="#7D7E80"/></linearGradient><linearGradient id="paint43_linear" x1="-532.302" y1="138844" x2="2952130" y2="138844" gradientUnits="userSpaceOnUse"><stop stop-color="#87888A"/><stop offset=".5" stop-color="#E5E5E5"/><stop offset="1" stop-color="#7D7E80"/></linearGradient><linearGradient id="paint44_linear" x1="-532.302" y1="150226" x2="2952130" y2="150226" gradientUnits="userSpaceOnUse"><stop stop-color="#87888A"/><stop offset=".5" stop-color="#E5E5E5"/><stop offset="1" stop-color="#7D7E80"/></linearGradient><linearGradient id="paint45_linear" x1="-571.654" y1="161880" x2="2952130" y2="161880" gradientUnits="userSpaceOnUse"><stop stop-color="#87888A"/><stop offset=".5" stop-color="#E5E5E5"/><stop offset="1" stop-color="#7D7E80"/></linearGradient><linearGradient id="paint46_linear" x1="-571.654" y1="173758" x2="2952130" y2="173758" gradientUnits="userSpaceOnUse"><stop stop-color="#87888A"/><stop offset=".5" stop-color="#E5E5E5"/><stop offset="1" stop-color="#7D7E80"/></linearGradient><linearGradient id="paint47_linear" x1="-571.654" y1="185851" x2="2952130" y2="185851" gradientUnits="userSpaceOnUse"><stop stop-color="#87888A"/><stop offset=".5" stop-color="#E5E5E5"/><stop offset="1" stop-color="#7D7E80"/></linearGradient><linearGradient id="paint48_linear" x1="-571.654" y1="198046" x2="2952130" y2="198046" gradientUnits="userSpaceOnUse"><stop stop-color="#87888A"/><stop offset=".5" stop-color="#E5E5E5"/><stop offset="1" stop-color="#7D7E80"/></linearGradient><linearGradient id="paint49_linear" x1="-571.654" y1="214607" x2="2952130" y2="214607" gradientUnits="userSpaceOnUse"><stop stop-color="#87888A"/><stop offset=".5" stop-color="#E5E5E5"/><stop offset="1" stop-color="#7D7E80"/></linearGradient><linearGradient id="paint50_linear" x1="-571.654" y1="232386" x2="2952210" y2="232386" gradientUnits="userSpaceOnUse"><stop stop-color="#87888A"/><stop offset=".5" stop-color="#E5E5E5"/><stop offset="1" stop-color="#7D7E80"/></linearGradient><linearGradient id="paint51_linear" x1="-20.726" y1="101631" x2="2951890" y2="101631" gradientUnits="userSpaceOnUse"><stop stop-color="#87888A"/><stop offset=".5" stop-color="#E5E5E5"/><stop offset="1" stop-color="#7D7E80"/></linearGradient><linearGradient id="paint52_linear" x1="-60.063" y1="100704" x2="2951730" y2="100704" gradientUnits="userSpaceOnUse"><stop stop-color="#87888A"/><stop offset=".5" stop-color="#E5E5E5"/><stop offset="1" stop-color="#7D7E80"/></linearGradient><linearGradient id="paint53_linear" x1="-60.078" y1="100629" x2="2951890" y2="100629" gradientUnits="userSpaceOnUse"><stop stop-color="#87888A"/><stop offset=".5" stop-color="#E5E5E5"/><stop offset="1" stop-color="#7D7E80"/></linearGradient><linearGradient id="paint54_linear" x1="-99.43" y1="101852" x2="2951890" y2="101852" gradientUnits="userSpaceOnUse"><stop stop-color="#87888A"/><stop offset=".5" stop-color="#E5E5E5"/><stop offset="1" stop-color="#7D7E80"/></linearGradient><linearGradient id="paint55_linear" x1="-99.43" y1="104068" x2="2951890" y2="104068" gradientUnits="userSpaceOnUse"><stop stop-color="#87888A"/><stop offset=".5" stop-color="#E5E5E5"/><stop offset="1" stop-color="#7D7E80"/></linearGradient><linearGradient id="paint56_linear" x1="-138.782" y1="107323" x2="2951890" y2="107323" gradientUnits="userSpaceOnUse"><stop stop-color="#87888A"/><stop offset=".5" stop-color="#E5E5E5"/><stop offset="1" stop-color="#7D7E80"/></linearGradient><linearGradient id="paint57_linear" x1="-138.782" y1="111649" x2="2951890" y2="111649" gradientUnits="userSpaceOnUse"><stop stop-color="#87888A"/><stop offset=".5" stop-color="#E5E5E5"/><stop offset="1" stop-color="#7D7E80"/></linearGradient><linearGradient id="paint58_linear" x1="-138.782" y1="118119" x2="2951890" y2="118119" gradientUnits="userSpaceOnUse"><stop stop-color="#87888A"/><stop offset=".5" stop-color="#E5E5E5"/><stop offset="1" stop-color="#7D7E80"/></linearGradient><linearGradient id="paint59_linear" x1="-138.782" y1="128835" x2="2951890" y2="128835" gradientUnits="userSpaceOnUse"><stop stop-color="#87888A"/><stop offset=".5" stop-color="#E5E5E5"/><stop offset="1" stop-color="#7D7E80"/></linearGradient><linearGradient id="paint60_linear" x1="-178.134" y1="140040" x2="2951890" y2="140040" gradientUnits="userSpaceOnUse"><stop stop-color="#87888A"/><stop offset=".5" stop-color="#E5E5E5"/><stop offset="1" stop-color="#7D7E80"/></linearGradient><linearGradient id="paint61_linear" x1="-178.134" y1="151469" x2="2951890" y2="151469" gradientUnits="userSpaceOnUse"><stop stop-color="#87888A"/><stop offset=".5" stop-color="#E5E5E5"/><stop offset="1" stop-color="#7D7E80"/></linearGradient><linearGradient id="paint62_linear" x1="-178.134" y1="163245" x2="2951890" y2="163245" gradientUnits="userSpaceOnUse"><stop stop-color="#87888A"/><stop offset=".5" stop-color="#E5E5E5"/><stop offset="1" stop-color="#7D7E80"/></linearGradient><linearGradient id="paint63_linear" x1="-178.134" y1="175150" x2="2951890" y2="175150" gradientUnits="userSpaceOnUse"><stop stop-color="#87888A"/><stop offset=".5" stop-color="#E5E5E5"/><stop offset="1" stop-color="#7D7E80"/></linearGradient><linearGradient id="paint64_linear" x1="-178.134" y1="187412" x2="2951890" y2="187412" gradientUnits="userSpaceOnUse"><stop stop-color="#87888A"/><stop offset=".5" stop-color="#E5E5E5"/><stop offset="1" stop-color="#7D7E80"/></linearGradient><linearGradient id="paint65_linear" x1="-178.134" y1="199675" x2="2951890" y2="199675" gradientUnits="userSpaceOnUse"><stop stop-color="#87888A"/><stop offset=".5" stop-color="#E5E5E5"/><stop offset="1" stop-color="#7D7E80"/></linearGradient><linearGradient id="paint66_linear" x1="-178.134" y1="216414" x2="2951890" y2="216414" gradientUnits="userSpaceOnUse"><stop stop-color="#87888A"/><stop offset=".5" stop-color="#E5E5E5"/><stop offset="1" stop-color="#7D7E80"/></linearGradient><linearGradient id="paint67_linear" x1="-178.134" y1="234328" x2="2951930" y2="234328" gradientUnits="userSpaceOnUse"><stop stop-color="#87888A"/><stop offset=".5" stop-color="#E5E5E5"/><stop offset="1" stop-color="#7D7E80"/></linearGradient><linearGradient id="paint68_linear" x1="-1398.05" y1="174583" x2="2952680" y2="174583" gradientUnits="userSpaceOnUse"><stop stop-color="#87888A"/><stop offset=".5" stop-color="#E5E5E5"/><stop offset="1" stop-color="#7D7E80"/></linearGradient><linearGradient id="paint69_linear" x1="-1516.1" y1="268976" x2="2952480" y2="268976" gradientUnits="userSpaceOnUse"><stop stop-color="#87888A"/><stop offset=".5" stop-color="#E5E5E5"/><stop offset="1" stop-color="#7D7E80"/></linearGradient><linearGradient id="paint70_linear" x1="-611.006" y1="219038" x2="2953350" y2="219038" gradientUnits="userSpaceOnUse"><stop stop-color="#87888A"/><stop offset=".5" stop-color="#E5E5E5"/><stop offset="1" stop-color="#7D7E80"/></linearGradient><linearGradient id="paint71_linear" x1="-689.71" y1="198625" x2="2953190" y2="198625" gradientUnits="userSpaceOnUse"><stop stop-color="#87888A"/><stop offset=".5" stop-color="#E5E5E5"/><stop offset="1" stop-color="#7D7E80"/></linearGradient><linearGradient id="paint72_linear" x1="-807.766" y1="143959" x2="2952840" y2="143959" gradientUnits="userSpaceOnUse"><stop stop-color="#87888A"/><stop offset=".5" stop-color="#E5E5E5"/><stop offset="1" stop-color="#7D7E80"/></linearGradient><linearGradient id="paint73_linear" x1="-20.726" y1="146633" x2="2951930" y2="146633" gradientUnits="userSpaceOnUse"><stop stop-color="#87888A"/><stop offset=".5" stop-color="#E5E5E5"/><stop offset="1" stop-color="#7D7E80"/></linearGradient></defs></svg>