<svg width="154" height="154" fill="none" xmlns="http://www.w3.org/2000/svg"><circle cx="75.385" cy="73.384" r="39.615" fill="url(#paint0_linear)"/><g filter="url(#filter0_d)"><circle cx="75" cy="73" r="58.5" stroke="#fff" stroke-width="3"/></g><path d="M74.196 68.7a.594.594 0 11-1.163.227c-.063-.322.309-1.494.309-1.494s.797.939.854 1.267zm-3.454 1.361a.594.594 0 01-.893.78c-.215-.245-.478-1.446-.478-1.446s1.156.42 1.371.666zm-2.318 2.907a.598.598 0 01-.383 1.133c-.308-.107-1.133-1.015-1.133-1.015s1.208-.222 1.516-.118zm-.551 3.677a.593.593 0 01.227 1.162c-.32.066-1.494-.308-1.494-.308s.946-.79 1.267-.854zm1.36 3.459a.593.593 0 11.78.893c-.245.216-1.446.48-1.446.48s.417-1.155.666-1.373zm2.907 2.313a.599.599 0 011.133.383c-.106.308-1.015 1.133-1.015 1.133s-.222-1.2-.118-1.516zm3.679.558a.595.595 0 111.165-.227c.063.322-.311 1.494-.311 1.494s-.79-.945-.854-1.267zm3.461-1.362a.595.595 0 11.892-.78c.227.247.48 1.446.48 1.446s-1.155-.42-1.373-.666zm2.317-2.907a.597.597 0 11.384-1.133c.31.107 1.133 1.016 1.133 1.016s-1.213.222-1.517.117zm.553-3.676a.594.594 0 01-.226-1.163c.322-.063 1.493.308 1.493.308s-.945.791-1.267.855zm-1.36-3.46a.593.593 0 01-.781-.892c.247-.216 1.446-.48 1.446-.48s-.42 1.157-.664 1.373zm-2.91-2.317a.592.592 0 11-1.12-.38c.103-.313 1.012-1.134 1.012-1.134s.215 1.206.109 1.514zm-1.97-.517a.424.424 0 11-.847-.06.424.424 0 01.846.06zm-3.674.503a.424.424 0 11-.76.375.424.424 0 01.76-.375zm-2.928 2.27a.424.424 0 11-.471.705.424.424 0 01.47-.705zm-1.401 3.432a.422.422 0 11-.065.84.422.422 0 01.065-.84zm.503 3.67a.422.422 0 11.366.76.422.422 0 01-.366-.76zm2.271 2.927a.424.424 0 11.703.475.424.424 0 01-.703-.475zm3.431 1.4a.423.423 0 11.844.06.423.423 0 01-.844-.06zm3.674-.5a.423.423 0 11.758-.376.423.423 0 01-.758.376zm2.928-2.273a.423.423 0 11.47-.704.423.423 0 01-.47.704zm1.4-3.429a.424.424 0 11.061-.846.424.424 0 01-.06.846zm-.501-3.673a.423.423 0 11-.375-.758.423.423 0 01.375.758zm-2.273-2.927a.423.423 0 11-.703-.469.423.423 0 01.703.47z" fill="#394855"/><path d="M81.146 76.246a6.147 6.147 0 01-4.165 5.416 6.153 6.153 0 01-8.07-5.029 6.147 6.147 0 016.509-6.93 6.154 6.154 0 015.726 6.543zm-3.21-1.079c0 .478-.295 1.117-.749 1.36.336-.39.655-1.906-.383-3.2a3.99 3.99 0 01-.525 1.956c.226-1.203-.873-2.41-.499-3.274-1.586.764-1.1 2.338-1.52 3.104-.182-.693-.647-1.486-.907-1.586.163 1.174-.789 1.543-.392 2.945a3.252 3.252 0 01-.453-1.692c-1.41 1.853-.28 4.261 1.08 4.803a1.698 1.698 0 01.2-1.631c-.003.295.075.586.227.84-.198-.69.274-.877.195-1.459.126.048.36.44.453.786.21-.38-.03-1.164.757-1.543-.186.429.358 1.029.247 1.627a1.98 1.98 0 00.26-.972c.517.644.358 1.396.19 1.586a.816.816 0 00.372-.68 1.865 1.865 0 01.032 1.434c1.358-.3 2.246-2.648 1.414-4.404z" fill="#394855"/><path d="M87.202 87H62.82V68.494l12.192-5.963 12.19 5.963V87zm-1.491-1.49V69.424l-10.7-5.233-10.7 5.233v16.084h21.4z" fill="#394855"/><path d="M75.012 61.702L61.69 68.215a.68.68 0 01-.907-.31l-.716-1.462a.68.68 0 01.31-.906l14.632-7.154 14.628 7.154a.68.68 0 01.31.906l-.716 1.462a.68.68 0 01-.906.31l-13.314-6.513zm7.614-.027l-2.934-1.387v-1.515h2.934v2.902z" fill="#394855"/><path d="M83.139 58h-3.957v.786h3.957V58z" fill="#394855"/><defs><linearGradient id="paint0_linear" x1="75.385" y1="33.769" x2="75.385" y2="113" gradientUnits="userSpaceOnUse"><stop stop-color="#40F4FF" stop-opacity=".71"/><stop offset=".66" stop-color="#2D8AFF" stop-opacity=".433"/><stop offset="1" stop-color="#2353FF" stop-opacity=".29"/></linearGradient><filter id="filter0_d" x="0" y="0" width="154" height="154" filterUnits="userSpaceOnUse" color-interpolation-filters="sRGB"><feFlood flood-opacity="0" result="BackgroundImageFix"/><feColorMatrix in="SourceAlpha" values="0 0 0 0 0 0 0 0 0 0 0 0 0 0 0 0 0 0 127 0"/><feMorphology radius="2" operator="dilate" in="SourceAlpha" result="effect1_dropShadow"/><feOffset dx="2" dy="4"/><feGaussianBlur stdDeviation="7.5"/><feColorMatrix values="0 0 0 0 0.7475 0 0 0 0 0.832619 0 0 0 0 0.866667 0 0 0 1 0"/><feBlend in2="BackgroundImageFix" result="effect1_dropShadow"/><feBlend in="SourceGraphic" in2="effect1_dropShadow" result="shape"/></filter></defs></svg>