<svg width="154" height="154" fill="none" xmlns="http://www.w3.org/2000/svg"><circle cx="75.385" cy="73.384" r="39.615" fill="url(#paint0_linear)"/><g filter="url(#filter0_d)"><circle cx="75" cy="73" r="58.5" stroke="#fff" stroke-width="3"/></g><path d="M82.878 86.643h-18.75l1.259-4.888.69-2.673h14.85l.688 2.67 1.263 4.89z" fill="#394855"/><path opacity=".1" d="M81.607 81.751a12.306 12.306 0 01-16.228 0l.698-2.651h14.847l.683 2.651z" fill="#fff"/><path d="M82.874 85.626h-18.75v1.017h18.75v-1.017zM97.59 67.799l-24.091 2.355v-7.907h24.09V67.8z" fill="#394855"/><path opacity=".1" d="M73.5 64.935V69.5l24.09-1.708v-2.857H73.5z" fill="#394855"/><path d="M80.75 79.75c4.004-4.004 4.004-10.496 0-14.5s-10.496-4.004-14.5 0-4.004 10.496 0 14.5 10.496 4.004 14.5 0z" fill="#394855"/><path d="M78.53 77.53a7.113 7.113 0 10-10.06-10.06 7.113 7.113 0 0010.06 10.06z" fill="#394855"/><path d="M74.017 71.469l-.518 1.032-.746-.878-.517-7.165.569-.07 1.212 7.08zm.513 1.549l-1.031-.517.881-.75 7.161-.514.07.57-7.08 1.211zm-1.545.515l.514-1.032.75.877.517 7.165-.57.07-1.211-7.08z" fill="#E0E0E0"/><path d="M72.467 71.983l1.032.517-.878.75-7.16.514-.07-.57 7.076-1.211zm2.13.154l-1.098.364.092-1.15 4.7-5.431.452.356-4.146 5.861zm-.735 1.458l-.363-1.094 1.153.091 5.428 4.701-.353.452-5.865-4.15z" fill="#E0E0E0"/><path d="M72.405 72.864l1.094-.363-.088 1.15-4.704 5.43-.452-.352 4.15-5.865zm.73-1.458l.364 1.095-1.15-.092-5.43-4.7.355-.452 5.861 4.15z" fill="#E0E0E0"/><path d="M73.499 73.819a1.318 1.318 0 110-2.636 1.318 1.318 0 010 2.636zm0-2.402a1.083 1.083 0 100 2.166 1.083 1.083 0 000-2.166z" fill="#fff"/><path d="M73.499 80.866a8.366 8.366 0 118.366-8.376 8.376 8.376 0 01-8.366 8.376zm0-15.244a6.878 6.878 0 106.878 6.868 6.886 6.886 0 00-6.878-6.868z" fill="#7B90A3"/><path d="M89 68.668c0 .088-.053.172-.146.235A.65.65 0 0188.5 69a.65.65 0 01-.354-.097c-.093-.063-.146-.147-.146-.235v-6.336c0-.088.053-.172.146-.235A.65.65 0 0188.5 62a.65.65 0 01.354.097c.093.063.146.147.146.235v6.336zm9-.953c0 .076-.053.148-.146.202A.732.732 0 0197.5 68a.732.732 0 01-.354-.083c-.093-.054-.146-.126-.146-.202v-5.43c0-.076.053-.148.146-.202A.732.732 0 0197.5 62c.133 0 .26.03.354.083.093.054.146.126.146.202v5.43z" fill="#35424E"/><path opacity=".1" d="M63.419 74.366a10.253 10.253 0 0020.164 0c-3.907 6.5-16.665 6.937-20.164 0z" fill="#394855"/><defs><linearGradient id="paint0_linear" x1="75.385" y1="33.769" x2="75.385" y2="113" gradientUnits="userSpaceOnUse"><stop stop-color="#40F4FF" stop-opacity=".71"/><stop offset=".66" stop-color="#2D8AFF" stop-opacity=".433"/><stop offset="1" stop-color="#2353FF" stop-opacity=".29"/></linearGradient><filter id="filter0_d" x="0" y="0" width="154" height="154" filterUnits="userSpaceOnUse" color-interpolation-filters="sRGB"><feFlood flood-opacity="0" result="BackgroundImageFix"/><feColorMatrix in="SourceAlpha" values="0 0 0 0 0 0 0 0 0 0 0 0 0 0 0 0 0 0 127 0"/><feMorphology radius="2" operator="dilate" in="SourceAlpha" result="effect1_dropShadow"/><feOffset dx="2" dy="4"/><feGaussianBlur stdDeviation="7.5"/><feColorMatrix values="0 0 0 0 0.7475 0 0 0 0 0.832619 0 0 0 0 0.866667 0 0 0 1 0"/><feBlend in2="BackgroundImageFix" result="effect1_dropShadow"/><feBlend in="SourceGraphic" in2="effect1_dropShadow" result="shape"/></filter></defs></svg>