<svg width="154" height="154" fill="none" xmlns="http://www.w3.org/2000/svg"><circle cx="75.385" cy="73.384" r="39.615" fill="url(#paint0_linear)"/><g filter="url(#filter0_d)"><circle cx="75" cy="73" r="58.5" stroke="#fff" stroke-width="3"/></g><path d="M73.78 67.56h.32a6.232 6.232 0 01.73-2.35c1.32-2.25 4.41-2.67 3.51-4.75-.9-2.08-7.23-5.33-13.09-2.09-5.86 3.24-4.69 8.75-2.5 10.95a11.85 11.85 0 005.71 2.64 5.41 5.41 0 015.32-4.4zm-4.84 7.84a6 6 0 01-2.4.54c-2.62 0-4.52-2.48-5.88-.66-1.36 1.82-1 8.93 4.74 12.39 5.74 3.46 9.93-.32 10.73-3.32a11.89 11.89 0 00-.56-6.26 5.3 5.3 0 01-1.79.31 5.411 5.411 0 01-4.84-3zm13.51-10.15a11.999 11.999 0 00-5.14 3.62 5.44 5.44 0 011.89 4.11 5.37 5.37 0 01-.9 3 6.19 6.19 0 011.67 1.81c1.29 2.27.1 5.15 2.36 5.41 2.26.26 8.23-3.6 8.36-10.29.13-6.69-5.24-8.46-8.24-7.66z" fill="#394855"/><path d="M73.78 77.36a4.38 4.38 0 100-8.76 4.38 4.38 0 000 8.76z" fill="#394855"/><defs><linearGradient id="paint0_linear" x1="75.385" y1="33.769" x2="75.385" y2="113" gradientUnits="userSpaceOnUse"><stop stop-color="#40F4FF" stop-opacity=".71"/><stop offset=".66" stop-color="#2D8AFF" stop-opacity=".433"/><stop offset="1" stop-color="#2353FF" stop-opacity=".29"/></linearGradient><filter id="filter0_d" x="0" y="0" width="154" height="154" filterUnits="userSpaceOnUse" color-interpolation-filters="sRGB"><feFlood flood-opacity="0" result="BackgroundImageFix"/><feColorMatrix in="SourceAlpha" values="0 0 0 0 0 0 0 0 0 0 0 0 0 0 0 0 0 0 127 0"/><feMorphology radius="2" operator="dilate" in="SourceAlpha" result="effect1_dropShadow"/><feOffset dx="2" dy="4"/><feGaussianBlur stdDeviation="7.5"/><feColorMatrix values="0 0 0 0 0.7475 0 0 0 0 0.832619 0 0 0 0 0.866667 0 0 0 1 0"/><feBlend in2="BackgroundImageFix" result="effect1_dropShadow"/><feBlend in="SourceGraphic" in2="effect1_dropShadow" result="shape"/></filter></defs></svg>