<svg width="154" height="154" fill="none" xmlns="http://www.w3.org/2000/svg"><circle cx="75.385" cy="73.384" r="39.615" fill="url(#paint0_linear)"/><g filter="url(#filter0_d)"><circle cx="75" cy="73" r="58.5" stroke="#fff" stroke-width="3"/></g><path d="M99.811 87H51.188c-.315 0-.617-.122-.84-.34a1.144 1.144 0 01-.348-.819V62.16c0-.308.125-.602.348-.82.223-.217.525-.339.84-.339h48.623c.316 0 .618.122.841.34.223.217.348.511.348.819v23.68c0 .308-.125.602-.348.82a1.205 1.205 0 01-.84.339zm-1.328-.2v-5.282h-45.98v5.281h45.98zM63.818 61.905h-10.89v.356h10.89v-.356zm0 .725h-10.89v.608h10.89v-.608zm11.348-.725H64.46v.356h10.717l-.013-.356zm0 .725H64.46v.608h10.717l-.013-.608zm11.354-.725H75.815v.356h10.717l-.013-.356zm0 .725H75.815v.608h10.717l-.013-.608zm11.526-.725h-10.89v.356h10.89v-.356zm0 .725h-10.89v.608h10.89v-.608zM79.647 74.023h-8.314a.262.262 0 00-.183.074.25.25 0 00-.075.178v2.984c0 .067.027.132.075.18a.269.269 0 00.183.079h8.314a.27.27 0 00.187-.076.256.256 0 00.078-.183v-2.997a.25.25 0 00-.083-.172.262.262 0 00-.182-.067zm20.297-12.628a79.773 79.773 0 00-1.016 12.776c0 1.088 0 2.169.08 3.237-19.454 1.98-27.595 1.98-47.043 0 .047-1.049.073-2.13.073-3.237a79.773 79.773 0 00-1.015-12.776 1.962 1.962 0 00-.452 1.294v22.654c-.01.454.14.897.425 1.256.449-2.715.755-5.45.916-8.195 19.508 1.988 27.642 1.988 47.143 0 .192 3.237.57 6.156.91 8.195.287-.358.439-.802.431-1.256V62.689a1.91 1.91 0 00-.438-1.314l-.014.02z" fill="#394855"/><defs><linearGradient id="paint0_linear" x1="75.385" y1="33.769" x2="75.385" y2="113" gradientUnits="userSpaceOnUse"><stop stop-color="#40F4FF" stop-opacity=".71"/><stop offset=".66" stop-color="#2D8AFF" stop-opacity=".433"/><stop offset="1" stop-color="#2353FF" stop-opacity=".29"/></linearGradient><filter id="filter0_d" x="0" y="0" width="154" height="154" filterUnits="userSpaceOnUse" color-interpolation-filters="sRGB"><feFlood flood-opacity="0" result="BackgroundImageFix"/><feColorMatrix in="SourceAlpha" values="0 0 0 0 0 0 0 0 0 0 0 0 0 0 0 0 0 0 127 0"/><feMorphology radius="2" operator="dilate" in="SourceAlpha" result="effect1_dropShadow"/><feOffset dx="2" dy="4"/><feGaussianBlur stdDeviation="7.5"/><feColorMatrix values="0 0 0 0 0.7475 0 0 0 0 0.832619 0 0 0 0 0.866667 0 0 0 1 0"/><feBlend in2="BackgroundImageFix" result="effect1_dropShadow"/><feBlend in="SourceGraphic" in2="effect1_dropShadow" result="shape"/></filter></defs></svg>