<svg width="52" height="52" fill="none" xmlns="http://www.w3.org/2000/svg"><path d="M26.5 44A18.5 18.5 0 1145 25.5 18.52 18.52 0 0126.5 44zm0-36.119A17.619 17.619 0 1044.119 25.5 17.639 17.639 0 0026.5 7.881z" fill="url(#paint0_linear)"/><path fill-rule="evenodd" clip-rule="evenodd" d="M39 26.071c0-2.307-.658-4.566-1.895-6.509a12.022 12.022 0 00-5.083-4.454 11.934 11.934 0 00-6.668-.994 11.966 11.966 0 00-6.15 2.78 12.08 12.08 0 00-3.688 5.677 12.145 12.145 0 00-.065 6.782 12.084 12.084 0 003.58 5.747 11.969 11.969 0 006.094 2.9v-8.437h-3.048v-3.49h3.048V23.41c0-3.026 1.792-4.698 4.533-4.698.9.013 1.798.091 2.686.236v2.972H30.83c-1.49 0-1.955.93-1.955 1.886v2.265h3.327l-.531 3.491h-2.796V38a11.985 11.985 0 007.25-4.085A12.12 12.12 0 0039 26.071z" fill="url(#paint1_linear)"/><defs><linearGradient id="paint0_linear" x1="7.563" y1="13.665" x2="49.514" y2="18.751" gradientUnits="userSpaceOnUse"><stop stop-color="#00A3FF"/><stop offset="1" stop-color="#8F00FF"/></linearGradient><linearGradient id="paint1_linear" x1="14.717" y1="18.323" x2="41.928" y2="21.622" gradientUnits="userSpaceOnUse"><stop stop-color="#00A3FF"/><stop offset="1" stop-color="#8F00FF"/></linearGradient></defs></svg>