<svg width="500" height="500" fill="none" xmlns="http://www.w3.org/2000/svg"><path d="M500 0H0v500h500V0z" fill="#fff"/><path d="M231.99 451.8v21.1l246.76-142.98v-21.1L231.99 451.8z" fill="#BCBEC0"/><path d="M232.1 451.8v21.1L18.75 348.52v-20.97L232.1 451.8z" fill="#E6E7E8"/><path d="M232.02 451.8v4.58l241.54-139.93v-4.58L232.02 451.8z" fill="#C28D60"/><path d="M232.1 451.8v4.58L18.75 332v-4.45L232.1 451.8z" fill="#A7A9AC"/><path d="M18.75 327.55L232.1 451.8l246.65-142.98-213.59-124.38L18.75 327.55z" fill="#F1B98A"/><path d="M231.99 451.8v4.58L289.91 423v-4.59l-57.92 33.39z" fill="#808285"/><path d="M18.75 327.55L232.1 451.8l57.81-33.39L76.32 294.03l-57.57 33.52z" fill="#BCBEC0"/><path style="mix-blend-mode:multiply" opacity=".5" d="M423 299.49l14.66-8.39-.44-.71-15 8.62L372 269.76l14.65-8.39-.43-.7-15 8.61L320.87 240l14.65-8.39-.43-.71-15 8.62-50.22-29.24 14.65-8.4-.43-.7-15.09 8.66-23.87-13.91-.43.71 51.13 29.77-14.48 8.3-51.43-30-.43.7 34.81 20.28-14.48 8.31-35.1-20.44-.44.7 20.88 12.16-14.42 8.26.47.34-21.7-12.63-.43.7 48.65 28.34-14.48 8.29-48.95-28.48-.43.71 29.78 17.34-14.48 8.3-30.07-17.52-.44.71 15.23 8.87-14.48 8.29-15.52-9-.43.71 43 25L182 283l-43.31-25.22-.43.7 24.14 14.06-14.48 8.29-24.43-14.22-.44.7 42.2 24.58-14.48 8.29L124.7 285l-.23-.37-.21.12-16-9.32-.43.71 15.59 9.08-14.5 8.28-15.87-9.24-.43.71 30.64 17.84-15.68 9 .78.57h-.06l15.79-9 50.21 29.24-15.68 9 .78.57 15.78-9 50.21 29.25-15.68 9 .78.57 15.78-9 50.22 29.24-15.69 9 .78.57h-.05l15.78-9 28.7 16.72h-.05v4.59l.78-.57v-4.59l-43.86-25.87 14.5-8.28 43.75 25.48h-.05v4.58l.78-.57v-4.59l-17.15-10 14.48-8.29 17.14 10h-.05v4.58l.78-.57v-4.58l-35.2-20.5 14.47-8.29 35.21 20.51h-.05v4.59l.78-.58v-4.58l-16.33-9.51 14.45-8.28v-.06l16.4 9.55h-.06v4.59l.79-.57v-4.59l-44.12-25.69 14.48-8.29L382 365h-.05v4.59l.78-.57v-4.59l-29.56-17.21 14.44-8.22 29.55 17.21h-.05v4.58l.78-.57v-4.59l-10.69-6.23 14.48-8.29 10.69 6.22h-.06V352l.78-.57v-4.63l-38.46-22.4 14.48-8.3 38.46 22.4h-.05v4.58l.78-.57V338l-24.53-14.29 14.48-8.29 24.53 14.28v4.59l.78-.58v-4.58l-8.21-4.78 14.48-8.29 8.21 4.78h-.06v4.59l.78-.57v-4.59L423 299.49zm-89.74-34.58l14.48-8.29 50.22 29.24-14.48 8.29-50.22-29.24zm-31.53-.68l14.49-8.29 50.21 29.24-14.48 8.3-50.22-29.25zM285.12 290l14.48-8.29 50.22 29.24-14.48 8.3L285.12 290zM251 287.79l14.48-8.29 50.22 29.24-14.44 8.26L251 287.79zm-17.19 25.36l14.45-8.28v-.05l50.28 29.28-14.48 8.29-50.25-29.24zm-7.07 31.25l-.23-.37-.2.12-23.72-13.82 14.52-8.33 50.22 29.24-14.48 8.3-26.11-15.14zm-1.26.22L211 352.9l-50.2-29.24 14.5-8.28 50.18 29.24zM199.77 311l14.48-8.29 50.23 29.25-14.48 8.27L199.77 311zm21.51-22.85l14.48-8.29L286 309.09l-14.48 8.3-50.24-29.24zM272.54 265l14.49-8.3 50.21 29.25-14.42 8.26.45.33L272.54 265zm24.11-38.06l50.22 29.25-14.48 8.29-50.22-29.24 14.48-8.3zm-31.53-.67l50.22 29.24-14.48 8.29-50.22-29.24 14.48-8.29zm-29.14.71l50.22 29.24-14.42 8.26.46.34-50.74-29.6 14.48-8.24zm12.58 25l50.21 29.24-14.48 8.29-50.22-29.24 14.49-8.29zm-34.08-2.17L264.7 279l-14.48 8.29L200 258.07l14.48-8.26zm-29.76.36l50.22 29.24-14.49 8.29-50.21-29.24 14.48-8.29zm12.51 25l50.28 29.29-14.51 8.21-50.22-29.25 14.45-8.27v.02zm-34-2.12l50.23 29.24-14.46 8.22-50.22-29.25 14.43-8.26.02.05zm2.87 19.35l50.21 29.24-14.48 8.29-26.06-15.18-.23-.37-.21.12-23.72-13.81 14.49-8.29zm-41.81-6.67l50.21 29.25-14.5 8.2-50.22-29.25 14.51-8.2zm137.8 97l-50.22-29.24 14.5-8.28 50.22 29.24-14.5 8.28zm41.83 6.68l-26.07-15.18-.23-.37-.2.12-23.72-13.81 14.48-8.3L318.37 381l-14.45 8.41zM301 370l-50.22-29.25 14.47-8.29 50.23 29.25L301 370zm34.07 2.16l-50.22-29.25 14.45-8.27v-.06l50.28 29.28-14.51 8.3zm-12.57-25l-50.22-29.24 14.48-8.29L337 338.82l-14.5 8.34zm29.76-.35l-50.22-29.24 14.48-8.3 50.22 29.25-14.48 8.29zm34.08 2.16l-50.22-29.24 14.48-8.3 50.22 29.25-14.48 8.29zm-12.07-24.71l-50.72-29.54 14.48-8.29 50.22 29.24-14.43 8.26.45.33zm28.64-1L352.73 294l14.48-8.29 50.22 29.24-14.52 8.31zm31.52.68l-50.22-29.25 14.49-8.29 50.3 29.19-14.57 8.35z" fill="url(#paint0_linear)"/><path opacity=".01" d="M189.42 361.63l96.03 56.64 132.8-76.7-137.44-81.62-91.39 101.68z" fill="#FEDEB4"/><path opacity=".02" d="M189.64 361.77l95.81 56.5 130.74-75.63L279.7 261.7l-90.06 100.07z" fill="#FEDEB4"/><path opacity=".03" d="M189.85 361.9l95.6 56.37 128.67-74.55-135.53-80.28-88.74 98.46z" fill="#FEDEB4"/><path opacity=".04" d="M190.07 362.04l95.38 56.23 126.61-73.48-134.58-79.6-87.41 96.85z" fill="#FEDEB4"/><path opacity=".05" d="M190.28 362.17l95.17 56.1 124.54-72.41-133.62-78.93-86.09 95.24z" fill="#FEDEB4"/><path opacity=".06" d="M190.49 362.31l94.96 55.96 122.48-71.34-132.67-78.25-84.77 93.63z" fill="#FEDEB4"/><path opacity=".07" d="M190.71 362.44l94.74 55.83L405.86 348l-131.71-77.58-83.44 92.02z" fill="#FEDEB4"/><path opacity=".08" d="M190.92 362.58l94.53 55.69 118.35-69.2-130.76-76.9-82.12 90.41z" fill="#FEDEB4"/><path opacity=".09" d="M191.14 362.71l94.31 55.56 116.28-68.13-129.8-76.22-80.79 88.79z" fill="#FEDEB4"/><path opacity=".1" d="M191.35 362.85l94.1 55.42 114.22-67.06-128.85-75.55-79.47 87.19z" fill="#FEDEB4"/><path opacity=".11" d="M191.56 362.98l93.89 55.29 112.15-65.99-127.89-74.87-78.15 85.57z" fill="#FEDEB4"/><path opacity=".12" d="M191.78 363.12l93.67 55.15 110.09-64.92-126.94-74.2-76.82 83.97z" fill="#FEDEB4"/><path opacity=".13" d="M191.99 363.25l93.46 55.02 108.02-63.85-125.98-73.52-75.5 82.35z" fill="#FEDEB4"/><path opacity=".14" d="M192.21 363.39l93.24 54.88 105.96-62.78-125.03-72.85-74.17 80.75z" fill="#FEDEB4"/><path opacity=".15" d="M192.42 363.52l93.03 54.75 103.89-61.71-124.07-72.17-72.85 79.13z" fill="#FEDEB4"/><path opacity=".16" d="M192.63 363.66l92.82 54.61 101.83-60.64-123.12-71.5-71.53 77.53z" fill="#FEDEB4"/><path opacity=".17" d="M192.85 363.8l92.6 54.47 99.76-59.57-122.16-70.82-70.2 75.92z" fill="#FEDEB4"/><path opacity=".18" d="M193.06 363.93l92.39 54.34 97.7-58.5-121.21-70.15-68.88 74.31z" fill="#FEDEB4"/><path opacity=".19" d="M193.28 364.06l92.17 54.21 95.63-57.43-120.25-69.47-67.55 72.69z" fill="#FEDEB4"/><path opacity=".2" d="M193.49 364.2l91.96 54.07 93.57-56.36-119.29-68.79-66.24 71.08z" fill="#FEDEB4"/><path opacity=".21" d="M193.71 364.33l91.74 53.94 91.5-55.29-118.33-68.12-64.91 69.47z" fill="#FEDEB4"/><path opacity=".22" d="M193.92 364.47l91.53 53.8 89.44-54.22-117.39-67.44-63.58 67.86z" fill="#FEDEB4"/><path opacity=".23" d="M194.13 364.61l91.32 53.66 87.37-53.15-116.43-66.77-62.26 66.26z" fill="#FEDEB4"/><path opacity=".24" d="M194.35 364.74l91.1 53.53 85.31-52.08-115.48-66.09-60.93 64.64z" fill="#FEDEB4"/><path opacity=".25" d="M194.56 364.88l90.89 53.39 83.24-51.01-114.51-65.42-59.62 63.04z" fill="#FEDEB4"/><path opacity=".25" d="M194.78 365.01l90.67 53.26 81.18-49.94-113.56-64.74-58.29 61.42z" fill="#FEDEB4"/><path opacity=".26" d="M194.99 365.14l90.46 53.13 79.12-48.87-112.61-64.07-56.97 59.81z" fill="#FEDEB4"/><path opacity=".27" d="M195.2 365.28l90.25 52.99 77.05-47.8-111.65-63.39-55.65 58.2z" fill="#FEDEB4"/><path opacity=".28" d="M195.42 365.42l90.03 52.85 74.99-46.73-110.7-62.72-54.32 56.6z" fill="#FEDEB4"/><path opacity=".29" d="M195.63 365.55l89.82 52.72 72.92-45.66-109.74-62.04-53 54.98z" fill="#FEDEB4"/><path opacity=".3" d="M195.84 365.69l89.61 52.58 70.86-44.59-108.79-61.37-51.68 53.38z" fill="#FEDEB4"/><path opacity=".31" d="M196.06 365.82l89.39 52.45 68.79-43.52-107.83-60.69-50.35 51.76z" fill="#FEDEB4"/><path opacity=".32" d="M196.27 365.95l89.18 52.32 66.73-42.45-106.88-60.01-49.03 50.14z" fill="#FEDEB4"/><path opacity=".33" d="M196.49 366.09l88.96 52.18 64.66-41.38-105.92-59.34-47.7 48.54z" fill="#FEDEB4"/><path opacity=".34" d="M196.7 366.23l88.75 52.04 62.6-40.3-104.97-58.67-46.38 46.93z" fill="#FEDEB4"/><path opacity=".35" d="M196.92 366.36l88.53 51.91 60.53-39.23-104.01-58-45.05 45.32z" fill="#FEDEB4"/><path opacity=".36" d="M197.13 366.5l88.32 51.77 58.47-38.16-103.06-57.32-43.73 43.71z" fill="#FEDEB4"/><path opacity=".37" d="M197.34 366.63l88.11 51.64 56.4-37.09-102.1-56.65-42.41 42.1z" fill="#FEDEB4"/><path opacity=".38" d="M197.56 366.76l87.89 51.51 54.34-36.02-101.15-55.97-41.08 40.48z" fill="#FEDEB4"/><path opacity=".39" d="M197.77 366.9l87.68 51.37 52.27-34.95-100.19-55.3-39.76 38.88z" fill="#FEDEB4"/><path opacity=".4" d="M197.99 367.04l87.46 51.23 50.21-33.88-99.24-54.62-38.43 37.27z" fill="#FEDEB4"/><path opacity=".41" d="M198.2 367.17l87.25 51.1 48.14-32.81-98.28-53.95-37.11 35.66z" fill="#FEDEB4"/><path opacity=".42" d="M198.41 367.31l87.04 50.96 46.08-31.74-97.33-53.27-35.79 34.05z" fill="#FEDEB4"/><path opacity=".43" d="M198.63 367.44l86.82 50.83 44.01-30.67-96.37-52.6-34.46 32.44z" fill="#FEDEB4"/><path opacity=".44" d="M198.84 367.57l86.61 50.7 41.95-29.6-95.42-51.92-33.14 30.82z" fill="#FEDEB4"/><path opacity=".45" d="M199.06 367.71l86.39 50.56 39.88-28.53-94.46-51.24-31.81 29.21z" fill="#FEDEB4"/><path opacity=".46" d="M199.27 367.85l86.18 50.42 37.82-27.46-93.51-50.57-30.49 27.61z" fill="#FEDEB4"/><path opacity=".47" d="M199.48 367.98l85.97 50.29 35.75-26.39-92.55-49.89-29.17 25.99z" fill="#FEDEB4"/><path opacity=".48" d="M199.7 368.12l85.75 50.15 33.69-25.32-91.6-49.22-27.84 24.39z" fill="#FEDEB4"/><path opacity=".49" d="M199.91 368.25l85.54 50.02 31.62-24.25-90.64-48.54-26.52 22.77z" fill="#FEDEB4"/><path opacity=".5" d="M200.13 368.38l85.32 49.89 29.56-23.18-89.69-47.87-25.19 21.16z" fill="#FEDEB4"/><path d="M473.28 160.67v151.48l5.47-3.03V157.63l-5.47 3.04z" fill="#BCBEC0"/><path d="M473.4 160.67v151.48L260.04 187.78V36.43L473.4 160.67z" fill="#D1EBFF"/><path d="M260.04 36.43L473.4 160.67l5.35-3.04L265.16 33.26l-5.12 3.17z" fill="#F1F2F2"/><path d="M469.75 308.79v5.46l3.81-2.12v-9.82a7.4 7.4 0 00-3.81 6.48z" fill="#B56F65"/><path d="M259.92 178a7.548 7.548 0 00-3.56 6.41v5.53l213.47 124.31v-5.53a7.373 7.373 0 013.73-6.41L259.92 178z" fill="url(#paint1_linear)"/><path d="M82.33 145.91v151.48l-5.46-3.04V142.87l5.46 3.04z" fill="#E6E7E8"/><path d="M82.22 145.91v151.48l182.93-106.43V39.61L82.22 145.91z" fill="#A8CFF0"/><path d="M265.15 39.61L82.22 145.91l-5.35-3.04L260.03 36.44l5.12 3.17z" fill="#F1F2F2"/><path d="M85.87 294v5.47l-3.81-2.12v-9.83a7.423 7.423 0 013.81 6.48z" fill="#B56F65"/><path d="M265.18 195.24v-14L82.06 287.54a7.39 7.39 0 013.73 6.46v5.54l179.39-104.3z" fill="url(#paint2_linear)"/><path style="mix-blend-mode:multiply" opacity=".2" d="M305 297.42v-17.4l29.8-2.02-29.8 19.42z" fill="url(#paint3_linear)"/><path d="M245.86 242.79l-13.68 10.87 13.8 4.1v-14.94l-.12-.03z" fill="#BA9267"/><path style="mix-blend-mode:multiply" opacity=".3" d="M484.17 382.78L370.56 349l-12.67 11.01 112.57 33.63 13.71-10.86z" fill="url(#paint4_linear)"/><g style="mix-blend-mode:multiply" fill="#C49A6C"><path d="M76.45 147.54L73.4 295.31l92.89 56.28 73.88-97.47 18.56-58.42-105.51-29.32-76.77-18.84z" opacity=".01"/><path d="M76.66 148.84l-2.98 146.65 92.25 55.86 72.99-97 17.81-57.4-104.07-29.01-76-19.1z" opacity=".02"/><path d="M76.87 150.14l-2.9 145.53 91.61 55.45 72.08-96.54 17.07-56.39-102.62-28.69-75.24-19.36z" opacity=".03"/><path d="M77.08 151.44l-2.83 144.41 90.97 55.03 71.19-96.07 16.32-55.37-101.17-28.37-74.48-19.63z" opacity=".04"/><path d="M77.29 152.74l-2.75 143.28 90.33 54.62 70.28-95.6 15.58-54.35L151 172.63l-73.71-19.89z" opacity=".05"/><path d="M77.5 154.04L74.82 296.2l89.69 54.21 69.39-95.14 14.83-53.34-98.28-27.74-72.95-20.15z" opacity=".06"/><path d="M77.71 155.34l-2.6 141.04 89.05 53.79 68.49-94.67 14.08-52.32-96.83-27.43-72.19-20.41z" opacity=".07"/><path d="M77.92 156.64l-2.53 139.92 88.42 53.37 67.58-94.2 13.34-51.31-95.39-27.11-71.42-20.67z" opacity=".08"/><path d="M78.13 157.94l-2.46 138.8 87.78 52.96 66.69-93.74 12.6-50.29-93.95-26.8-70.66-20.93z" opacity=".09"/><path d="M78.34 159.24l-2.38 137.68 87.14 52.54 65.78-93.27 11.86-49.28-92.5-26.48-69.9-21.19z" opacity=".1"/><path d="M78.55 160.54L76.24 297.1l86.5 52.12 64.89-92.8 11.11-48.26-91.05-26.17-69.14-21.45z" opacity=".11"/><path d="M78.76 161.84l-2.23 135.44 85.86 51.71 63.98-92.34 10.37-47.24-89.61-25.86-68.37-21.71z" opacity=".12"/><path d="M78.97 163.14l-2.16 134.32 85.22 51.29 63.09-91.87 9.62-46.23-88.16-25.53-67.61-21.98z" opacity=".13"/><path d="M79.18 164.44l-2.08 133.2 84.58 50.87 62.19-91.4 8.87-45.21-86.71-25.22-66.85-22.24z" opacity=".14"/><path d="M79.39 165.74l-2.01 132.08 83.94 50.46 61.29-90.95 8.13-44.19-85.27-24.9-66.08-22.5z" opacity=".15"/><path d="M79.6 167.04L77.67 298l83.3 50.04 60.39-90.48 7.38-43.17-83.82-24.59-65.32-22.76z" opacity=".16"/><path d="M79.81 168.34l-1.86 129.84 82.66 49.63 59.49-90.02 6.64-42.16-82.37-24.27-64.56-23.02z" opacity=".17"/><path d="M80.02 169.64l-1.78 128.72 82.02 49.21 58.59-89.55 5.89-41.14-80.93-23.96-63.79-23.28z" opacity=".18"/><path d="M80.23 170.94l-1.71 127.6 81.39 48.79 57.68-89.08 5.16-40.13-79.49-23.64-63.03-23.54z" opacity=".19"/><path d="M80.44 172.24l-1.63 126.48 80.74 48.38 56.79-88.62 4.41-39.11-78.04-23.33-62.27-23.8z" opacity=".2"/><path d="M80.65 173.54L79.09 298.9l80.11 47.96 55.88-88.15 3.67-38.09-76.6-23.02-61.5-24.06z" opacity=".21"/><path d="M80.86 174.84l-1.49 124.24 79.47 47.54 54.99-87.68 2.92-37.08-75.15-22.7-60.74-24.32z" opacity=".22"/><path d="M81.07 176.14l-1.41 123.11 78.83 47.14 54.08-87.22 2.18-36.06-73.7-22.38-59.98-24.59z" opacity=".23"/><path d="M81.28 177.44l-1.34 121.99 78.19 46.72 53.19-86.75 1.43-35.05-72.26-22.06-59.21-24.85z" opacity=".24"/><path d="M81.49 178.74l-1.26 120.87 77.55 46.31 52.29-86.29.68-34.03-70.81-21.75-58.45-25.11z" opacity=".25"/><path d="M81.7 180.04l-1.19 119.75 76.91 45.89 51.39-85.82-.06-33.02-69.36-21.43-57.69-25.37z" opacity=".25"/><path d="M81.91 181.34L80.8 299.97l76.27 45.47 50.49-85.35-.81-32-67.92-21.12-56.92-25.63z" opacity=".26"/><path d="M82.12 182.64l-1.04 117.51 75.64 45.06 49.58-84.89-1.55-30.99-66.47-20.8-56.16-25.89z" opacity=".27"/><path d="M82.33 183.94l-.97 116.39 75 44.64 48.69-84.42-2.3-29.97-65.02-20.49-55.4-26.15z" opacity=".28"/><path d="M82.54 185.24l-.89 115.27 74.36 44.22 47.78-83.95-3.03-28.96-63.59-20.17-54.63-26.41z" opacity=".29"/><path d="M82.75 186.54l-.82 114.15 73.72 43.81 46.89-83.49-3.78-27.94-62.14-19.86-53.87-26.67z" opacity=".3"/><path d="M82.96 187.84l-.74 113.03 73.08 43.39 45.99-83.02-4.53-26.92-60.69-19.54-53.11-26.94z" opacity=".31"/><path d="M83.17 189.14l-.67 111.91 72.44 42.97 45.09-82.56-5.27-25.9-59.25-19.22-52.34-27.2z" opacity=".32"/><path d="M83.38 190.44l-.59 110.79 71.8 42.56 44.19-82.1-6.02-24.88-57.8-18.91-51.58-27.46z" opacity=".33"/><path d="M83.59 191.74l-.52 109.67 71.16 42.14 43.29-81.63-6.76-23.87-56.35-18.59-50.82-27.72z" opacity=".34"/><path d="M83.8 193.04l-.44 108.55 70.52 41.73 42.39-81.17-7.51-22.85-54.91-18.28-50.05-27.98z" opacity=".35"/><path d="M84.01 194.34l-.37 107.43 69.88 41.31 41.49-80.7-8.25-21.84-53.46-17.96-49.29-28.24z" opacity=".36"/><path d="M84.22 195.64l-.3 106.31 69.25 40.89 40.59-80.23-9-20.82-52.01-17.65-48.53-28.5z" opacity=".37"/><path d="M84.43 196.94l-.22 105.19 68.6 40.48 39.69-79.77-9.74-19.81-50.57-17.33-47.76-28.76z" opacity=".38"/><path d="M84.64 198.24l-.15 104.07 67.97 40.06 38.79-79.3-10.48-18.79-49.13-17.02-47-29.02z" opacity=".39"/><path d="M84.85 199.54l-.07 102.95 67.33 39.64L190 263.3l-11.23-17.77-47.68-16.71-46.24-29.28z" opacity=".4"/><path d="M85.06 200.84v101.83l66.69 39.23 36.99-78.37-11.97-16.76-46.24-16.39-45.47-29.54z" opacity=".41"/><path d="M85.27 202.14l.08 100.7 66.05 38.82 36.09-77.9-12.72-15.74-44.79-16.07-44.71-29.81z" opacity=".42"/><path d="M85.48 203.44l.15 99.58 65.41 38.41 35.19-77.44-13.46-14.73-43.34-15.75-43.95-30.07z" opacity=".43"/><path d="M85.69 204.74l.23 98.46 64.77 37.99 34.29-76.97-14.21-13.71-41.9-15.44-43.18-30.33z" opacity=".44"/><path d="M85.9 206.04l.3 97.34 64.13 37.57 33.39-76.5-14.95-12.7-40.45-15.12-42.42-30.59z" opacity=".45"/><path d="M86.11 207.34l.38 96.22 63.49 37.16 32.49-76.04-15.7-11.68-39-14.81-41.66-30.85z" opacity=".46"/><path d="M86.32 208.64l.45 95.1 62.85 36.74 31.6-75.57-16.45-10.67-37.56-14.49-40.89-31.11z" opacity=".47"/><path d="M86.53 209.94l.53 93.98 62.21 36.32 30.69-75.1-17.18-9.65-36.12-14.18-40.13-31.37z" opacity=".48"/><path d="M86.74 211.24l.6 92.86 61.57 35.91 29.8-74.64-17.93-8.63-34.67-13.87-39.37-31.63z" opacity=".49"/><path d="M87.62 304.28l60.94 35.49 28.89-74.17-51.9-21.17-38.6-31.89.67 91.74z" opacity=".5"/></g><path d="M154.2 194.04v151.48l5.47-3.03V191l-5.47 3.04z" fill="#BCBEC0"/><path d="M154.32 194.04v151.48l-82.48-48.2V145.97l82.48 48.07z" fill="#FFD6B5"/><path d="M71.84 145.97l82.48 48.07 5.35-3.04-82.71-48.2-5.12 3.17z" fill="#F1F2F2"/><path style="mix-blend-mode:multiply" opacity=".1" d="M449.7 239.81v10.66l-9.34-5.41v-10.64l9.34 5.39z" fill="url(#paint5_linear)"/><path d="M448.44 239.77v9.81l1.09-.61v-9.81l-1.09.61z" fill="#E6E7E8"/><path d="M448.46 239.77v9.81l-8.59-4.98v-9.79l8.59 4.96z" fill="#F1F2F2"/><path d="M447.29 240.35l-.86 7.56.82-.45.04-7.11z" fill="#E6E7E8"/><path d="M447.31 240.35l-.87 7.56-6.42-3.72.86-7.55 6.43 3.71z" fill="url(#paint6_linear)"/><path d="M439.87 234.81l8.59 4.96 1.07-.61-8.64-4.98-1.02.63z" fill="#fff"/><path d="M436.01 290.61l-3.1 1.89V153.42l3.1-1.88v139.07zm-58.4-33.43l-3.03 1.67V119.77l3.03-1.67v139.08z" fill="#E6E7E8"/><path d="M372.42 114.84l-3.1 1.89 63.59 36.69 3.1-1.88-63.59-36.7z" fill="#fff"/><path d="M426.75 156.8v132.54l-51.87-29.95V126.85l51.87 29.95z" fill="#F1F2F2"/><path opacity=".5" d="M420.61 164.17l-39.58-22.87v6.67l39.58 22.87v-6.67z" fill="#E6E7E8"/><path d="M382.24 142v5.27l-1.21.7v-6.67l1.21.7z" fill="#E6E7E8"/><path d="M382.24 147.27l38.37 22.17v1.4l-39.58-22.87 1.21-.7z" fill="#fff"/><path opacity=".5" d="M420.61 179.37l-39.58-22.87v6.67l39.58 22.86v-6.66z" fill="#E6E7E8"/><path d="M382.24 157.2v5.27l-1.21.7v-6.67l1.21.7z" fill="#E6E7E8"/><path d="M382.24 162.47l38.37 22.17v1.39l-39.58-22.86 1.21-.7z" fill="#fff"/><path opacity=".5" d="M420.61 194.57l-39.58-22.87v6.67l39.58 22.86v-6.66z" fill="#E6E7E8"/><path d="M382.24 172.4v5.27l-1.21.7v-6.67l1.21.7z" fill="#E6E7E8"/><path d="M382.24 177.67l38.37 22.17v1.39l-39.58-22.86 1.21-.7z" fill="#fff"/><path opacity=".5" d="M420.61 209.77l-39.58-22.87v6.67l39.58 22.86v-6.66z" fill="#E6E7E8"/><path d="M382.24 187.6v5.27l-1.21.7v-6.67l1.21.7z" fill="#E6E7E8"/><path d="M382.24 192.87l38.37 22.17v1.39l-39.58-22.86 1.21-.7z" fill="#fff"/><path opacity=".5" d="M420.61 224.97l-39.58-22.87v6.67l39.58 22.86v-6.66z" fill="#E6E7E8"/><path d="M382.24 202.8v5.27l-1.21.7v-6.67l1.21.7z" fill="#E6E7E8"/><path d="M382.24 208.07l38.37 22.17v1.39l-39.58-22.86 1.21-.7z" fill="#fff"/><path opacity=".5" d="M420.61 240.17l-39.58-22.87v6.67l39.58 22.86v-6.66z" fill="#E6E7E8"/><path d="M382.24 218v5.27l-1.21.7v-6.67l1.21.7z" fill="#E6E7E8"/><path d="M382.24 223.27l38.37 22.17v1.39l-39.58-22.86 1.21-.7z" fill="#fff"/><path opacity=".5" d="M420.61 255.37l-39.58-22.87v6.67l39.58 22.86v-6.66z" fill="#E6E7E8"/><path d="M382.24 233.19v5.28l-1.21.7v-6.67l1.21.69z" fill="#E6E7E8"/><path d="M382.24 238.47l38.37 22.17v1.39l-39.58-22.86 1.21-.7z" fill="#fff"/><path opacity=".5" d="M420.61 270.56l-39.58-22.86v6.67l39.58 22.86v-6.67z" fill="#E6E7E8"/><path d="M382.24 248.39v5.28l-1.21.7v-6.67l1.21.69z" fill="#E6E7E8"/><path d="M382.24 253.67l38.37 22.17v1.39l-39.58-22.86 1.21-.7z" fill="#fff"/><path d="M426.74 156.8v132.54l2.76-1.7V155.11l-2.76 1.69z" fill="#E6E7E8"/><path d="M429.5 155.11l-2.76 1.69-51.86-29.95 2.79-1.7 51.83 29.96z" fill="#fff"/><path d="M429.5 155.11l-2.76 1.69-51.86-29.95 51.64 28.68 2.98-.42z" fill="#fff"/><path d="M425.15 217.09v13.7l-4.17-2.44v-13.69l4.17 2.43z" fill="#BCBEC0"/><path d="M425.15 217.09v13.7l.63-.36v-13.7l-.63.36z" fill="#A7A9AC"/><path d="M425.78 216.73l-.63.36-4.17-2.43.63-.37 4.17 2.44z" fill="#F0F8FF"/><path d="M422.13 225.14c0-.51.36-.72.81-.46a1.805 1.805 0 01.82 1.4c0 .41-.23.62-.55.56v1.51l-.53-.31v-1.5a1.812 1.812 0 01-.55-1.2z" fill="#808285"/><path d="M423.19 221.15c-1.4 0-5.33-1.65-7-3.27s-1.64-3.09-2-2.5c-.36.59 1.08 3.88 3 5.21 2.83 1.91 5 2.44 5.86 2.38 1.23-.09 1.08-1.85.14-1.82z" fill="#E6E7E8"/><path d="M414.18 215.38c.08-.12.15-.15.21-.11 0 1 1.32 3.76 3.09 5 2.82 1.92 5 2.45 5.86 2.39.184-.015.361-.081.51-.19a.88.88 0 01-.78.54c-.83.06-3-.47-5.86-2.38-1.95-1.37-3.41-4.63-3.03-5.25z" fill="#A7A9AC"/><path d="M369.26 116.72v139.07l5.33 3.07V125.9l53 30.56v132.97l5.32 3.07V153.42l-63.65-36.7z" fill="#F1F2F2"/><g style="mix-blend-mode:multiply" opacity=".5" fill="#C49A6C"><path d="M93.59 179.29l56.57 32.61.69 63.4-9.64-3.83-46.95-24.04-.67-68.14z" opacity=".09"/><path d="M94.65 180.19l55.13 31.79.68 60.77-9.46-2.64-45.68-23.51-.67-66.41z" opacity=".18"/><path d="M95.71 181.09l53.7 30.96.66 58.14-9.27-1.45-44.41-22.97-.68-64.68z" opacity=".27"/><path d="M96.77 181.99l52.26 30.14.65 55.51-9.08-.27-43.16-22.43-.67-62.95z" opacity=".36"/><path d="M97.83 182.89l50.83 29.31.63 52.88-8.89.93-41.9-21.89-.67-61.23z" opacity=".45"/><path d="M98.89 183.79l49.39 28.48.62 50.26-8.7 2.11-40.64-21.35-.67-59.5z" opacity=".55"/><path d="M99.95 184.69l47.96 27.66.6 47.63-8.52 3.3-39.36-20.82-.68-57.77z" opacity=".64"/><path d="M101.01 185.59l46.52 26.83.58 45-8.32 4.49-38.1-20.27-.68-56.05z" opacity=".73"/><path d="M102.07 186.5l45.09 26 .56 42.37-8.13 5.68-36.84-19.74-.68-54.31z" opacity=".82"/><path d="M103.13 187.4l43.65 25.17.55 39.74-7.94 6.87-35.58-19.2-.68-52.58z" opacity=".91"/><path d="M104.19 188.3l42.22 24.34.53 37.12-7.75 8.05-34.32-18.65-.68-50.86z" opacity=".5"/></g><path d="M83.95 240v1.75l23.88-13.76v-1.75L83.95 240z" fill="#808285"/><path d="M83.96 240v1.75l-2.98-1.67v-1.74l2.98 1.66z" fill="#939598"/><path d="M80.98 238.34l2.98 1.66 23.87-13.76-2.99-1.67-23.86 13.77z" fill="#A7A9AC"/><path d="M122.59 262.25V264l23.88-13.76v-1.75l-23.88 13.76z" fill="#808285"/><path d="M122.6 262.25V264l-2.98-1.67v-1.74l2.98 1.66z" fill="#939598"/><path d="M119.62 260.59l2.98 1.66 23.87-13.76-3-1.67-23.85 13.77z" fill="#A7A9AC"/><path d="M131.66 222.93v43.82l17.08-10.12v-43.82l-17.08 10.12z" fill="#E6E7E8"/><path d="M75.28 190.4l56.4 32.53 17.06-10.12-56.44-32.55-17.02 10.14z" fill="#fff"/><path d="M75.28 190.4v43.8l56.4 32.55v-43.82l-56.4-32.53zm39.59 22.76l.49.14 17.06-10.12-.52-.15-17.03 10.13z" fill="#F1F2F2"/><path d="M114.87 213.16v43.81l.49.15V213.3l-.49-.14z" fill="#F1F2F2"/><path d="M144.83 226.4l-9.48 5.46a1.003 1.003 0 00-.48.83v.22a.393.393 0 00.2.336.39.39 0 00.39-.006l9.47-5.45a1.003 1.003 0 00.48-.83v-.22a.389.389 0 00-.58-.34z" fill="#A7A9AC"/><path d="M145 226.35c.046.064.07.141.07.22v.21a.995.995 0 01-.48.83l-9.48 5.46a.404.404 0 01-.17.05.391.391 0 00.52.12l9.47-5.45a1.003 1.003 0 00.48-.83v-.22a.39.39 0 00-.41-.39z" fill="#fff"/><path d="M144.83 228.76l-9.48 5.46a1.003 1.003 0 00-.48.83v.22a.392.392 0 00.393.395.383.383 0 00.197-.055l9.47-5.46a1.003 1.003 0 00.48-.83v-.22a.394.394 0 00-.193-.336.386.386 0 00-.387-.004z" fill="#A7A9AC"/><path d="M145 228.71a.41.41 0 01.07.22v.21a.998.998 0 01-.48.83l-9.48 5.46a.307.307 0 01-.17 0 .38.38 0 00.52.13l9.47-5.46a1.003 1.003 0 00.48-.83v-.22a.393.393 0 00-.41-.34z" fill="#fff"/><path d="M144.83 231.13l-9.48 5.46a.941.941 0 00-.48.83v.21a.392.392 0 00.393.395.383.383 0 00.197-.055l9.47-5.46a1.003 1.003 0 00.48-.83v-.22a.38.38 0 00-.58-.33z" fill="#A7A9AC"/><path d="M145 231.08a.38.38 0 01.07.21v.22a.995.995 0 01-.48.83l-9.48 5.46a.605.605 0 01-.17 0 .391.391 0 00.52.12l9.47-5.46a1.003 1.003 0 00.48-.83v-.22a.378.378 0 00-.41-.33z" fill="#fff"/><path d="M144.83 233.49l-9.48 5.51a.941.941 0 00-.48.83v.17a.392.392 0 00.393.395c.069 0 .137-.02.197-.055l9.47-5.46a1.003 1.003 0 00.48-.83v-.21a.386.386 0 00-.188-.343.388.388 0 00-.392-.007z" fill="#A7A9AC"/><path d="M145 233.44a.377.377 0 01.07.21v.22a.998.998 0 01-.48.83l-9.48 5.46a.665.665 0 01-.17.05.391.391 0 00.52.12l9.47-5.46a1.003 1.003 0 00.48-.83v-.21a.39.39 0 00-.41-.39z" fill="#fff"/><path d="M144.83 235.85l-9.48 5.46a1.003 1.003 0 00-.48.83v.21a.392.392 0 00.393.395.383.383 0 00.197-.055l9.47-5.46a.942.942 0 00.48-.83v-.21a.389.389 0 00-.58-.34z" fill="#A7A9AC"/><path d="M145 235.8c.046.064.07.141.07.22v.21a.998.998 0 01-.48.83l-9.48 5.46a.406.406 0 01-.17 0 .391.391 0 00.52.12l9.47-5.46a.942.942 0 00.48-.83v-.21a.393.393 0 00-.41-.34z" fill="#fff"/><path d="M144.83 238.21l-9.48 5.46a1.003 1.003 0 00-.48.83v.22a.392.392 0 00.393.395.383.383 0 00.197-.055l9.47-5.46a1.003 1.003 0 00.48-.83v-.22a.389.389 0 00-.58-.34z" fill="#A7A9AC"/><path d="M145 238.16a.41.41 0 01.07.22v.21a.998.998 0 01-.48.83l-9.48 5.46a.404.404 0 01-.17.05.4.4 0 00.52.13l9.47-5.46a1.003 1.003 0 00.48-.83v-.22a.39.39 0 00-.41-.39z" fill="#fff"/><path d="M144.83 240.57l-9.48 5.43a1.003 1.003 0 00-.48.83v.22a.392.392 0 00.393.395.383.383 0 00.197-.055l9.47-5.46a1.003 1.003 0 00.48-.83v-.22a.388.388 0 00-.393-.36.393.393 0 00-.187.05z" fill="#A7A9AC"/><path d="M145 240.52a.443.443 0 01.07.22v.26a.995.995 0 01-.48.83l-9.48 5.45a.307.307 0 01-.17 0 .38.38 0 00.52.13l9.47-5.46a1.003 1.003 0 00.48-.83v-.22a.395.395 0 00-.125-.277.396.396 0 00-.285-.103z" fill="#fff"/><path d="M144.83 242.94l-9.48 5.46a.941.941 0 00-.48.83v.21a.392.392 0 00.393.395.383.383 0 00.197-.055l9.47-5.46a1.003 1.003 0 00.48-.83v-.21a.384.384 0 00-.188-.345.374.374 0 00-.392.005z" fill="#A7A9AC"/><path d="M145 242.89a.38.38 0 01.07.21v.22a.995.995 0 01-.48.83l-9.48 5.46a.605.605 0 01-.17 0 .391.391 0 00.52.12l9.47-5.46a1.003 1.003 0 00.48-.83v-.21a.393.393 0 00-.41-.34z" fill="#fff"/><path d="M144.83 245.3l-9.48 5.46a1.003 1.003 0 00-.48.83v.21a.392.392 0 00.393.395c.069 0 .137-.02.197-.055l9.47-5.46a.942.942 0 00.48-.83v-.21a.389.389 0 00-.58-.34z" fill="#A7A9AC"/><path d="M145 245.25a.38.38 0 01.07.21v.22a.995.995 0 01-.48.83l-9.48 5.49a.404.404 0 01-.17.05.391.391 0 00.52.12l9.47-5.46a.941.941 0 00.48-.83v-.21a.393.393 0 00-.247-.394.396.396 0 00-.163-.026z" fill="#fff"/><path d="M144.83 247.66l-9.48 5.46a1.003 1.003 0 00-.48.83v.22a.393.393 0 00.2.336.39.39 0 00.39-.006l9.47-5.46a.942.942 0 00.48-.83V248a.389.389 0 00-.58-.34z" fill="#A7A9AC"/><path d="M145 247.61c.046.064.07.141.07.22v.17a.998.998 0 01-.48.83l-9.48 5.46a.406.406 0 01-.17 0 .391.391 0 00.52.12l9.47-5.46a.942.942 0 00.48-.83V248a.39.39 0 00-.41-.39z" fill="#fff"/><path d="M144.83 250l-9.48 5.46a1.003 1.003 0 00-.48.83v.22a.392.392 0 00.393.395.383.383 0 00.197-.055l9.47-5.46a1.003 1.003 0 00.48-.83v-.22a.394.394 0 00-.193-.336.386.386 0 00-.387-.004z" fill="#A7A9AC"/><path d="M145 250a.412.412 0 01.07.22v.21a.998.998 0 01-.48.83l-9.48 5.46a.302.302 0 01-.17.05.39.39 0 00.52.13l9.47-5.46a1.003 1.003 0 00.48-.83v-.22a.39.39 0 00-.41-.39z" fill="#fff"/><path d="M144.83 252.39l-9.48 5.45a1.003 1.003 0 00-.48.83v.22a.392.392 0 00.393.395.383.383 0 00.197-.055l9.47-5.46a1.003 1.003 0 00.48-.83v-.22a.38.38 0 00-.58-.33z" fill="#A7A9AC"/><path d="M145 252.34a.38.38 0 01.07.21v.22a.995.995 0 01-.48.83l-9.48 5.46a.628.628 0 01-.17.05.391.391 0 00.52.12l9.47-5.46a1.003 1.003 0 00.48-.83v-.22a.389.389 0 00-.122-.28.37.37 0 00-.288-.1z" fill="#fff"/><path d="M133.83 263.36a.828.828 0 01-.82-.83v-31.62a2.116 2.116 0 011.06-1.84l12.22-7a.784.784 0 01.728-.057.842.842 0 01.449.449.827.827 0 01.063.318v31.62a2.123 2.123 0 01-1.07 1.84l-12.22 7a.872.872 0 01-.41.12zm12.87-40.93a.42.42 0 00-.18 0l-12.22 7a1.663 1.663 0 00-.84 1.44v31.62a.374.374 0 00.367.367.378.378 0 00.183-.047l12.22-7a1.664 1.664 0 00.84-1.45V222.8a.373.373 0 00-.108-.262.373.373 0 00-.262-.108z" fill="#E6E7E8"/><path d="M133.83 263.36a.867.867 0 01-.41-.11l.23-.4a.33.33 0 00.36 0l12.22-7a1.664 1.664 0 00.84-1.45v-31.6a.361.361 0 00-.23-.34l.16-.46a.837.837 0 01.52.77v31.62a2.123 2.123 0 01-1.07 1.84l-12.22 7a.876.876 0 01-.4.13z" fill="#F1F2F2"/><path d="M95.15 205.49c-8.63-5-15.63-1-15.63 8.91s7 22 15.63 26.95c8.63 4.95 15.62 1 15.62-8.91s-7-21.97-15.62-26.95zm0 33.87c-7.68-4.43-13.89-15.15-13.89-24s6.21-12.34 13.89-7.92c7.68 4.42 13.88 15.16 13.88 24s-6.21 12.35-13.88 7.92z" fill="#E6E7E8"/><path d="M105.673 242.613c6.065-3.545 6.004-14.934-.136-25.438s-16.035-16.145-22.1-12.599c-6.064 3.545-6.003 14.934.137 25.438 6.14 10.504 16.035 16.145 22.099 12.599z" fill="#414042"/><path d="M94.56 205.66c-8.63-5-15.63-1-15.63 8.91s7 22 15.63 27 15.62 1 15.62-8.91-6.99-22.02-15.62-27zm0 33.87c-7.67-4.43-13.89-15.16-13.89-24s6.22-12.35 13.89-7.92c7.67 4.43 13.89 15.16 13.89 24s-6.22 12.39-13.89 7.92z" fill="#E6E7E8"/><path d="M94.56 210.64c-6.23-3.6-11.29-.72-11.29 6.43 0 7.15 5.06 15.87 11.29 19.47 6.23 3.6 11.28.72 11.28-6.43 0-7.15-5.05-15.87-11.28-19.47zm0 23.91C89.29 231.5 85 224.13 85 218.08c0-6.05 4.28-8.49 9.55-5.45 5.27 3.04 9.55 10.42 9.55 16.47 0 6.05-4.27 8.49-9.54 5.45z" fill="#E6E7E8"/><path d="M94.56 215.62c-3.84-2.21-7-.44-7 4a15.29 15.29 0 007 12c3.83 2.21 6.94.44 6.94-4a15.326 15.326 0 00-6.94-12zm0 13.95a11.477 11.477 0 01-5.21-9c0-3.3 2.33-4.63 5.21-3a11.477 11.477 0 015.21 9c0 3.33-2.33 4.66-5.21 3z" fill="#E6E7E8"/><path d="M96.16 226.34c.878-.513.87-2.158-.016-3.674s-2.316-2.33-3.194-1.817c-.877.513-.87 2.158.017 3.674.886 1.516 2.316 2.33 3.193 1.817z" fill="#E6E7E8"/><path d="M94.88 221.53l-.65-.37v-13.89l.65.37v13.89zm0 18.38l-.65-.37v-13.89l.65.37v13.89zm-2.1-17.72v.74l-12.28-7.09v-.74l12.28 7.09zm15.84 9.15v.74l-12.28-7.09v-.74l12.28 7.09zm-15.21-10.27l-.46.27-8.56-14.77.45-.26 8.57 14.76zm11.32 19.54l-.46.26-8.56-14.76.46-.27 8.56 14.77zm-11.66-16.7l.46.79-8.69 4.96-.45-.79 8.68-4.96zm11.2-6.38l.46.78-8.68 4.96-.46-.79 8.68-4.95z" fill="#E6E7E8"/><path d="M94.22 205.91c-8.63-5-15.62-1-15.62 8.91s7 22 15.62 27 15.63 1 15.63-8.91-7-22.02-15.63-27zm0 33.87c-7.67-4.43-13.89-15.16-13.89-24s6.22-12.35 13.89-7.92c7.67 4.43 13.89 15.16 13.89 24s-6.21 12.35-13.89 7.92z" fill="#fff"/><path d="M94.22 210.89c-6.23-3.6-11.28-.72-11.28 6.44s5 15.86 11.28 19.46c6.28 3.6 11.29.72 11.29-6.43 0-7.15-5.05-15.87-11.29-19.47zm0 23.91c-5.27-3.05-9.54-10.42-9.54-16.47 0-6.05 4.27-8.49 9.54-5.45s9.55 10.42 9.55 16.47c0 6.05-4.27 8.49-9.55 5.45z" fill="#fff"/><path d="M94.22 215.87c-3.83-2.21-6.94-.44-6.94 4a15.309 15.309 0 006.94 12c3.84 2.21 7 .44 7-4a15.313 15.313 0 00-7-12zm0 13.95a11.476 11.476 0 01-5.2-9c0-3.3 2.33-4.63 5.2-3a11.5 11.5 0 015.21 9c0 3.33-2.33 4.66-5.21 3z" fill="#fff"/><path d="M96.48 225.14c0 1.43-1 2-2.26 1.29a4.999 4.999 0 01-2.22-3.89c0-1.43 1-2 2.25-1.29a5.002 5.002 0 012.23 3.89z" fill="#fff"/><path d="M94.55 221.78l-.65-.37v-13.89l.65.37v13.89zm0 18.39l-.65-.38V225.9l.65.37v13.9zm-2.11-17.73v.74l-12.28-7.09v-.74l12.28 7.09zm15.85 9.15v.74l-12.28-7.09v-.74l12.28 7.09zm-15.22-10.27l-.46.27-8.56-14.77.46-.26 8.56 14.76zm11.33 19.54l-.46.26-8.56-14.76.46-.26 8.56 14.76zm-11.67-16.7l.46.8-8.68 4.95-.46-.79 8.68-4.96zm11.21-6.38l.46.79-8.69 4.95-.45-.79 8.68-4.95z" fill="#fff"/><path d="M128.68 230.34l-8.92-5.15a2.937 2.937 0 01-1.23-2.35v-1c0-.91.55-1.32 1.23-.93l8.92 5.15a2.928 2.928 0 011.23 2.35v1c0 .91-.55 1.32-1.23.93z" fill="#E6E7E8"/><path d="M128.39 230.34l-8.92-5.15a2.937 2.937 0 01-1.23-2.35v-1c0-.91.55-1.32 1.23-.93l8.92 5.15a2.928 2.928 0 011.23 2.35v1c0 .91-.55 1.32-1.23.93z" fill="#fff"/><path style="mix-blend-mode:multiply" opacity=".1" d="M302.56 197.28l16.96 9.77 9.6-5.56-16.98-9.78-9.58 5.57z" fill="url(#paint7_linear)"/><path d="M345.95 310.93v1.5l7.01-4.15v-1.5l-7.01 4.15z" fill="#E6E7E8"/><path d="M329 301.15l16.96 9.78 7-4.15-16.98-9.78-6.98 4.15z" fill="#fff"/><path d="M331.47 301.14l4.52-2.69 4.9 2.85-4.53 2.69-4.89-2.85z" fill="#A8CFF0"/><path d="M345.13 309.06l4.52-2.69.94.5-4.53 2.69-.93-.5z" fill="#939598"/><path d="M335.99 298.8l4.6 2.68.3-.18-4.9-2.85-4.52 2.69.3.17 4.22-2.51z" fill="#A8CFF0"/><path d="M329 301.15v1.5l16.96 9.78v-1.5L329 301.15z" fill="#F1F2F2"/><path d="M340.12 304.45l-.6-.35c-.26-.15-.23-.41.08-.59l.43-.25a1.167 1.167 0 011 0l.59.34c.26.15.23.42-.07.59l-.44.25a1.114 1.114 0 01-.99.01z" fill="#E6E7E8"/><path d="M340.12 304.23l-.6-.34c-.26-.15-.23-.42.08-.59l.43-.25a1.144 1.144 0 011-.05l.59.35c.26.15.23.41-.07.59l-.44.25a1.152 1.152 0 01-.99.04z" fill="#F1F2F2"/><path d="M343.76 306.58l-.6-.34c-.26-.16-.23-.42.08-.59l.43-.26a1.155 1.155 0 011 0l.6.34c.26.16.23.42-.08.59l-.43.26a1.154 1.154 0 01-1 0z" fill="#E6E7E8"/><path d="M343.76 306.36l-.6-.34c-.26-.15-.23-.41.08-.59l.43-.25a1.11 1.11 0 011 0l.6.34c.26.15.23.41-.08.59l-.43.25a1.124 1.124 0 01-1 0z" fill="#F1F2F2"/><path d="M340.51 306.39l-.59-.34c-.26-.15-.23-.42.07-.59l.44-.26a1.155 1.155 0 011 0l.59.34c.27.16.23.42-.07.59l-.44.26a1.154 1.154 0 01-1 0z" fill="#E6E7E8"/><path d="M340.51 306.17l-.59-.34c-.26-.15-.23-.41.07-.59l.44-.25a1.11 1.11 0 011 0l.59.34c.27.15.23.41-.07.59l-.44.25a1.124 1.124 0 01-1 0z" fill="#F1F2F2"/><path d="M343.44 304.56l-.59-.34c-.26-.15-.23-.41.07-.59l.44-.25a1.124 1.124 0 011 0l.6.34c.26.15.22.41-.08.59l-.43.25a1.135 1.135 0 01-1.01 0z" fill="#E6E7E8"/><path d="M343.44 304.35l-.59-.34c-.26-.16-.23-.42.07-.59l.44-.26a1.155 1.155 0 011 0l.6.34c.26.16.22.42-.08.59l-.43.26a1.176 1.176 0 01-1.01 0z" fill="#F1F2F2"/><path d="M344.78 306.03l-1.29-.25.86-.5.43.75zm-4.67-2.68l1.29.24-.86.5-.43-.74zm.41 2.51l.42-.75.87.51-1.29.24zm3.82-2.46l-.43.75-.86-.51 1.29-.24z" fill="#939598"/><path style="mix-blend-mode:multiply" opacity=".2" d="M260.18 425.68L53.79 306.16l-1 .8-1 .05L26 327.8l2.86 1.64 6.48-5.21 65.12 37.51-6.26 5 2.87 1.65 6.19-5 65.12 37.51-6 4.81 2.86 1.65 6-4.82 65.12 37.51-5.77 4.63 2.87 1.65 25.08-20.17.58.33 1.06-.81zM180.67 395l65.12 37.51-4 3.22-65.15-37.48 4.03-3.25zm.69-.55l4-3.24 65.12 37.51-4 3.22-65.12-37.49zm-68.68-38.59l65.12 37.51-4 3.22-65.15-37.49 4.03-3.24zm.68-.55l4-3.24 65.12 37.51-4 3.22-65.12-37.49zm4.71-3.79l4.57-3.67 65.09 37.53-4.51 3.62-65.15-37.48zm1.71-5.32l-4.48 3.6-65.15-37.49 4.54-3.65 65.09 37.54zm-75-29.54l65.12 37.51-4 3.22-65.18-37.5 4.06-3.23zm.68-.55l4-3.24 65.12 37.5-4 3.23-65.12-37.49zM36 323.69l4-3.25L105.15 358l-4 3.22L36 323.69zm67.93 39.2l4-3.25 65.12 37.51-4 3.22-65.12-37.48zm68 39.14l4-3.25 65.12 37.51-4 3.22-65.12-37.48zm79.3 26.11l-65.15-37.49 4.52-3.63 65.09 37.53-4.46 3.59z" fill="url(#paint8_linear)"/><path d="M469.79 308.85v5.4l3.77-2.09v-9.71a7.314 7.314 0 00-3.77 6.4z" fill="#C28D60"/><path d="M435.88 280.36a7.429 7.429 0 00-3.53 6.33v5.47l37.52 22.09v-5.47c0-1.287.341-2.552.989-3.664a7.28 7.28 0 012.701-2.666l-37.68-22.09z" fill="url(#paint9_linear)"/><g style="mix-blend-mode:multiply" fill="#D1EBFF"><path d="M248.83 88.75c.1-6.74-8.87-11.51-14.62-8l-39.05 24.38-5.33 3.33-44.38 27.72-.75 7.75-.35 9.11v2.55l9.56 15.35 47.24-27.31 47.24-27.32.44-27.56z" opacity=".09"/><path d="M247.79 88.1c.1-6.06-9.36-9.51-14.55-6.37L195 105.58l-5.22 3.25-43.46 27.1-1.22 7.31-.37 8.92.1 2.47 9.29 15.07 46.6-27 46.61-27 .46-27.6z" opacity=".18"/><path d="M246.76 87.45c.08-5.38-9.87-7.51-14.48-4.71L194.85 106l-5.11 3.18-42.55 26.52-1.69 6.87-.38 8.73.19 2.39 9 14.79 46-26.77 46-26.77.45-27.49z" opacity=".27"/><path d="M245.72 86.81c.07-4.72-10.37-5.52-14.4-3.07l-36.63 22.76-5 3.11-41.64 25.87-2.15 6.42-.4 8.53.28 2.32 8.74 14.52 45.35-26.51 45.34-26.5.51-27.45z" opacity=".36"/><path d="M244.68 86.16c.06-4-10.87-3.51-14.32-1.42L194.53 107l-4.88 3-40.73 25.26-2.62 6-.42 8.34.38 2.24 8.46 14.24 44.72-26.24 44.71-26.23.53-27.45z" opacity=".45"/><path d="M243.65 85.51c0-3.37-11.38-1.51-14.25.24l-35 21.67-4.77 3L149.78 135l-3.07 5.53-.44 8.16.47 2.15 8.18 14 44.09-26 44.08-26 .56-27.33z" opacity=".55"/><path d="M242.61 84.86c0-2.69-11.87.49-14.18 1.89l-34.21 21.14-4.67 2.88-38.9 24-3.54 5.08-.46 8 .57 2.07 7.91 13.69 43.45-25.69 43.42-25.7.61-27.36z" opacity=".64"/><path d="M241.57 84.21c0-2-12.37 2.5-14.1 3.54l-33.41 20.6-4.55 2.81-38 23.41-4 4.64L147 147l.67 2 7.63 13.42L198.15 137 241 111.54l.57-27.33z" opacity=".73"/><path d="M240.54 83.57c0-1.35-12.88 4.49-14 5.19l-32.61 20-4.44 2.73-37.08 22.81-4.47 4.19-.5 7.59.76 1.91 7.36 13.14L197.72 136l42.19-25.16.63-27.27z" opacity=".82"/><path d="M239.5 82.92c0-.68-13.38 6.49-13.95 6.84l-31.8 19.51-4.34 2.66-36.16 22.19-4.94 3.75-.51 7.39.85 1.84 7.08 12.9 41.56-24.89 41.56-24.89.65-27.3z" opacity=".91"/><path d="M238.46 82.27l-44.87 27.46-44.88 27.47-.53 7.2 7.75 14.34 40.93-24.61 40.93-24.62.67-27.24z"/></g><path d="M151.16 161.87a6.629 6.629 0 006.32.06l.61-.32-4.7-4.39-2.23 4.65z" fill="url(#paint10_linear)"/><path d="M154.62 149v10.79a2.335 2.335 0 01-1.164 1.98 2.326 2.326 0 01-2.296.02l-6.83-3.8v-26.43A19.998 19.998 0 01154.62 149z" fill="#F1F2F2"/><path d="M234.59 78.93a20.341 20.341 0 019.64 17.29v11.06a6.798 6.798 0 01-3.35 5.84L157.4 162a2.005 2.005 0 01-1.995.003 2.004 2.004 0 01-1.005-1.723v-11.43a19.854 19.854 0 00-10.07-17.29l90.26-52.63z" fill="url(#paint11_linear)"/><path style="mix-blend-mode:multiply" d="M163.33 150.42a2.371 2.371 0 01-1.17-.32 2.318 2.318 0 01-1.18-2v-3.14a19.57 19.57 0 00-9.88-17l.36-.63a20.287 20.287 0 0110.25 17.61v3.14a1.616 1.616 0 001.628 1.623 1.62 1.62 0 00.812-.223l73-42.84a6.407 6.407 0 003.17-5.53v-2.74a19.865 19.865 0 00-9.46-17l.39-.62A20.573 20.573 0 01241 98.37v2.72a7.15 7.15 0 01-3.53 6.16l-73 42.84a2.317 2.317 0 01-1.14.33z" fill="url(#paint12_linear)"/><path d="M239.71 108.4v.6a5 5 0 01-2.49 4.34l-73.52 43.4a1.478 1.478 0 01-2.23-1.28v-.94l78.24-46.12z" fill="#5F6371"/><path d="M167.61 141.76v1.36l67.9-39.31v-1.34l-67.9 39.29zm0-2.2v1.36l67.9-39.31v-1.34l-67.9 39.29zm0-2.19v1.35l67.9-39.31v-1.33l-67.9 39.29zm120.83 281.26l-3.38 2.06v-151.9l3.38-2.06v151.9zM164.4 347.15l-3.31 1.83v-151.9l3.31-1.83v151.9z" fill="#E6E7E8"/><path d="M158.74 191.69l-3.39 2.06 129.71 75.04 3.38-2.06-129.7-75.04zm57.11 184.47l-49.96-29.15 2.09-1.1 49.5 28.96-1.63 1.29z" fill="#fff"/><path d="M165.89 211.93v135.08l2.09-1.1V212.54l-2.09-.61z" fill="#E6E7E8"/><path d="M161.87 205v144.33l58 33.79V238.76l-58-33.76zm54 171.19l-50-29.15V211.93l50 29.15v135.11z" fill="#F1F2F2"/><path opacity=".3" d="M216.97 375.49L167 346.34V211.26l49.97 29.15v135.08z" fill="#fff"/><path d="M219.86 238.76v144.36l3.01-1.85V236.92l-3.01 1.84z" fill="#E6E7E8"/><path d="M222.87 236.92l-3.01 1.84-57.99-33.79 3.04-1.85 57.96 33.8zm51.71 173.43l-49.96-29.16 2.09-1.1 49.5 28.97-1.63 1.29z" fill="#fff"/><path d="M224.62 246.11v135.08l2.09-1.1V246.72l-2.09-.61z" fill="#E6E7E8"/><path d="M220.6 239.15v144.36l58 33.8V273l-58-33.85zm54 171.2l-50-29.16V246.11l50 29.16v135.08z" fill="#F1F2F2"/><path opacity=".3" d="M275.7 409.68l-49.97-29.16V245.44l49.97 29.16v135.08z" fill="#fff"/><path style="mix-blend-mode:screen" opacity=".3" d="M275.7 409.68L232.5 249l43.2 25.6v135.08z" fill="url(#paint13_linear)"/><path d="M278.59 272.95v144.36l3.01-1.86V271.11l-3.01 1.84z" fill="#E6E7E8"/><path d="M281.6 271.11l-3.01 1.84-57.99-33.79 3.04-1.86 57.96 33.81z" fill="#fff"/><path d="M155.29 193.74v151.9l5.81 3.36V203.77l118.14 68.33v145.23l5.82 3.36v-151.9l-129.77-75.05z" fill="#F1F2F2"/><path d="M29.34 293.63v1.28l-2.15-1.19v-1.28l2.15 1.19z" fill="#E6E7E8"/><path d="M29.29 293.63v1.28l49.91-28.97v-1.23l-49.91 28.92z" fill="#BCBEC0"/><path d="M79.2 264.71l-49.91 28.92-2.1-1.19 50-28.98 2.01 1.25z" fill="#F1F2F2"/><path d="M29.34 302.11v1.28l-2.15-1.19v-1.28l2.15 1.19z" fill="#E6E7E8"/><path d="M29.29 302.11v1.28l49.91-28.97v-1.23l-49.91 28.92z" fill="#BCBEC0"/><path d="M79.2 273.19l-49.91 28.92-2.1-1.19 50-28.97 2.01 1.24z" fill="#F1F2F2"/><path d="M29.34 310.6v1.28l-2.15-1.2v-1.28l2.15 1.2z" fill="#E6E7E8"/><path d="M29.29 310.6v1.28L79.2 282.9v-1.22L29.29 310.6z" fill="#BCBEC0"/><path d="M79.2 281.68L29.29 310.6l-2.1-1.2 50-28.97 2.01 1.25z" fill="#F1F2F2"/><path d="M29.34 319.08v1.28l-2.15-1.2v-1.28l2.15 1.2z" fill="#E6E7E8"/><path d="M29.29 319.08v1.28l49.91-28.98v-1.22l-49.91 28.92z" fill="#BCBEC0"/><path d="M79.2 290.16l-49.91 28.92-2.1-1.2 50-28.97 2.01 1.25z" fill="#F1F2F2"/><path d="M27.55 283.28v46.67l2.82-1.56v-46.67l-2.82 1.56z" fill="#BCBEC0"/><path d="M27.61 283.28v46.68l-2.86-1.67v-46.61l2.86 1.6z" fill="#E6E7E8"/><path d="M24.75 281.68l2.86 1.6 2.76-1.56-2.98-1.67-2.64 1.63z" fill="#F1F2F2"/><path d="M94.33 334.14v1.28l2.15-1.19v-1.28l-2.15 1.19z" fill="#BCBEC0"/><path d="M94.38 334.14v1.28l-66.3-38.59v-1.23l66.3 38.54z" fill="#E6E7E8"/><path d="M28.08 295.6l66.3 38.54 2.1-1.19-66.39-38.6-2.01 1.25z" fill="#F1F2F2"/><path d="M94.33 342.63v1.28l2.15-1.2v-1.28l-2.15 1.2z" fill="#BCBEC0"/><path d="M94.38 342.63v1.28l-66.3-38.6v-1.23l66.3 38.55z" fill="#E6E7E8"/><path d="M28.08 304.08l66.3 38.55 2.1-1.2-66.39-38.59-2.01 1.24z" fill="#F1F2F2"/><path d="M94.33 351.11v1.28l2.15-1.2v-1.28l-2.15 1.2z" fill="#BCBEC0"/><path d="M94.38 351.11v1.28l-66.3-38.6v-1.23l66.3 38.55z" fill="#E6E7E8"/><path d="M28.08 312.56l66.3 38.55 2.1-1.2-66.39-38.59-2.01 1.24z" fill="#F1F2F2"/><path d="M94.33 359.59v1.28l2.15-1.19v-1.28l-2.15 1.19z" fill="#BCBEC0"/><path d="M94.38 359.59v1.28l-66.3-38.6v-1.22l66.3 38.54z" fill="#E6E7E8"/><path d="M28.08 321.05l66.3 38.54 2.1-1.19-66.39-38.6-2.01 1.25z" fill="#F1F2F2"/><path d="M95.64 322.51v46.68l2.81-1.57v-46.67l-2.81 1.56z" fill="#BCBEC0"/><path d="M95.7 322.51v46.68l-2.87-1.67v-46.61l2.87 1.6z" fill="#E6E7E8"/><path d="M92.83 320.91l2.87 1.6 2.75-1.56-2.98-1.67-2.64 1.63z" fill="#F1F2F2"/><path d="M162.41 373.88v1.28l2.15-1.2v-1.28l-2.15 1.2z" fill="#BCBEC0"/><path d="M162.46 373.88v1.28l-66.3-38.6v-1.23l66.3 38.55z" fill="#E6E7E8"/><path d="M96.16 335.33l66.3 38.55 2.1-1.2-66.39-38.59-2.01 1.24z" fill="#F1F2F2"/><path d="M162.41 382.36v1.28l2.15-1.2v-1.28l-2.15 1.2z" fill="#BCBEC0"/><path d="M162.46 382.36v1.28l-66.3-38.6v-1.23l66.3 38.55z" fill="#E6E7E8"/><path d="M96.16 343.81l66.3 38.55 2.1-1.2-66.39-38.59-2.01 1.24z" fill="#F1F2F2"/><path d="M162.41 390.84v1.28l2.15-1.19v-1.28l-2.15 1.19z" fill="#BCBEC0"/><path d="M162.46 390.84v1.28l-66.3-38.6v-1.22l66.3 38.54z" fill="#E6E7E8"/><path d="M96.16 352.3l66.3 38.54 2.1-1.19-66.39-38.6-2.01 1.25z" fill="#F1F2F2"/><path d="M162.41 399.32v1.28l2.15-1.19v-1.28l-2.15 1.19z" fill="#BCBEC0"/><path d="M162.46 399.32v1.28l-66.3-38.59v-1.23l66.3 38.54z" fill="#E6E7E8"/><path d="M96.16 360.78l66.3 38.54 2.1-1.19-66.39-38.6-2.01 1.25z" fill="#F1F2F2"/><path d="M163.72 361.74v46.68l2.81-1.57v-46.67l-2.81 1.56z" fill="#BCBEC0"/><path d="M163.78 361.74v46.68l-2.87-1.67v-46.61l2.87 1.6z" fill="#E6E7E8"/><path d="M160.91 360.14l2.87 1.6 2.75-1.56-2.98-1.67-2.64 1.63z" fill="#F1F2F2"/><path d="M230.72 413.61v1.28l2.15-1.2v-1.28l-2.15 1.2z" fill="#BCBEC0"/><path d="M230.76 413.61v1.28l-66.3-38.6v-1.23l66.3 38.55z" fill="#E6E7E8"/><path d="M164.46 375.06l66.3 38.55 2.11-1.2-66.39-38.59-2.02 1.24z" fill="#F1F2F2"/><path d="M230.72 422.09v1.28l2.15-1.19v-1.28l-2.15 1.19z" fill="#BCBEC0"/><path d="M230.76 422.09v1.28l-66.3-38.6v-1.22l66.3 38.54z" fill="#E6E7E8"/><path d="M164.46 383.55l66.3 38.54 2.11-1.19-66.39-38.6-2.02 1.25z" fill="#F1F2F2"/><path d="M230.72 430.57v1.28l2.15-1.19v-1.28l-2.15 1.19z" fill="#BCBEC0"/><path d="M230.76 430.57v1.28l-66.3-38.59v-1.23l66.3 38.54z" fill="#E6E7E8"/><path d="M164.46 392.03l66.3 38.54 2.11-1.19-66.39-38.6-2.02 1.25z" fill="#F1F2F2"/><path d="M230.72 439.06v1.27l2.15-1.19v-1.28l-2.15 1.2z" fill="#BCBEC0"/><path d="M230.76 439.06v1.27l-66.3-38.59v-1.23l66.3 38.55z" fill="#E6E7E8"/><path d="M164.46 400.51l66.3 38.55 2.11-1.2-66.39-38.6-2.02 1.25z" fill="#F1F2F2"/><path d="M231.79 400.97v46.67l2.82-1.56v-46.67l-2.82 1.56z" fill="#BCBEC0"/><path d="M231.86 400.97v46.67l-2.87-1.66v-46.61l2.87 1.6z" fill="#E6E7E8"/><path d="M228.99 399.37l2.87 1.6 2.75-1.56-2.98-1.67-2.64 1.63z" fill="#F1F2F2"/><path d="M82.44 250.74v1.31l-51.08 29.27v-1.34l51.08-29.24z" fill="#BCBEC0"/><path d="M232.1 404.81v1.91L18.75 282.34v-1.78L232.1 404.81z" fill="#E6E7E8"/><path d="M231.99 404.81v1.91l6.7-4v-1.9l-6.7 3.99z" fill="#BCBEC0"/><path d="M31.28 280.36l51.16-29.62-6.12-3.69-57.57 33.51L232.1 404.81l6.46-3.87L31.28 280.36z" fill="#F1F2F2"/><defs><linearGradient id="paint0_linear" x1="92.63" y1="304.84" x2="458.71" y2="304.84" gradientUnits="userSpaceOnUse"><stop stop-color="#F1B98A"/><stop offset="1" stop-color="#E0A069"/></linearGradient><linearGradient id="paint1_linear" x1="80031.8" y1="33034.7" x2="79405.2" y2="34735.3" gradientUnits="userSpaceOnUse"><stop stop-color="#F1B98A"/><stop offset="1" stop-color="#E0A069"/></linearGradient><linearGradient id="paint2_linear" x1="172.72" y1="235.66" x2="178.74" y2="245.88" gradientUnits="userSpaceOnUse"><stop stop-color="#E0A069"/><stop offset="1" stop-color="#C28D60"/></linearGradient><linearGradient id="paint3_linear" x1="9995.37" y1="5440.81" x2="9776.26" y2="5998.81" gradientUnits="userSpaceOnUse"><stop stop-color="#fff"/><stop offset="1"/></linearGradient><linearGradient id="paint4_linear" x1="37768.3" y1="12216.5" x2="37651.4" y2="13290" gradientUnits="userSpaceOnUse"><stop stop-color="#fff"/><stop offset="1"/></linearGradient><linearGradient id="paint5_linear" x1="4553.33" y1="4125.74" x2="4640.57" y2="4125.74" gradientUnits="userSpaceOnUse"><stop stop-color="#fff"/><stop offset="1"/></linearGradient><linearGradient id="paint6_linear" x1="440.39" y1="244" x2="447.6" y2="240.2" gradientUnits="userSpaceOnUse"><stop stop-color="#fff"/><stop offset="1" stop-color="#F1F2F2"/></linearGradient><linearGradient id="paint7_linear" x1="8741.47" y1="3192.21" x2="8700.68" y2="3333.45" gradientUnits="userSpaceOnUse"><stop stop-color="#fff"/><stop offset="1"/></linearGradient><linearGradient id="paint8_linear" x1="41473.5" y1="44923.7" x2="37148" y2="57375.5" gradientUnits="userSpaceOnUse"><stop stop-color="#fff"/><stop offset="1"/></linearGradient><linearGradient id="paint9_linear" x1="19215.5" y1="10173.5" x2="19017.4" y2="10558.3" gradientUnits="userSpaceOnUse"><stop stop-color="#F1B98A"/><stop offset="1" stop-color="#E0A069"/></linearGradient><linearGradient id="paint10_linear" x1="156.01" y1="158.95" x2="153.62" y2="163.08" gradientUnits="userSpaceOnUse"><stop stop-color="#fff"/><stop offset=".23" stop-color="#FCFCFC"/><stop offset=".4" stop-color="#F2F3F3"/><stop offset=".52" stop-color="#E6E7E8"/></linearGradient><linearGradient id="paint11_linear" x1="148051" y1="8996.93" x2="149217" y2="11415.3" gradientUnits="userSpaceOnUse"><stop stop-color="#fff"/><stop offset=".23" stop-color="#FCFCFC"/><stop offset=".4" stop-color="#F2F3F3"/><stop offset=".52" stop-color="#E6E7E8"/></linearGradient><linearGradient id="paint12_linear" x1="17343.6" y1="7315.28" x2="18144.4" y2="9104.78" gradientUnits="userSpaceOnUse"><stop stop-color="#fff"/><stop offset=".23" stop-color="#FCFCFC"/><stop offset=".4" stop-color="#F2F3F3"/><stop offset=".52" stop-color="#E6E7E8"/></linearGradient><linearGradient id="paint13_linear" x1="11280.5" y1="52979.4" x2="13345.1" y2="52582.8" gradientUnits="userSpaceOnUse"><stop stop-color="#fff"/><stop offset="1"/></linearGradient></defs></svg>