<svg width="2294" height="624" fill="none" xmlns="http://www.w3.org/2000/svg"><path d="M1262.31 345.176c1.42 0 2.57-.49 2.57-1.095 0-.604-1.15-1.094-2.57-1.094-1.41 0-2.56.49-2.56 1.094 0 .605 1.15 1.095 2.56 1.095zm-99.96 1.765c1.42 0 2.56-.49 2.56-1.094 0-.605-1.14-1.095-2.56-1.095-1.42 0-2.56.49-2.56 1.095 0 .604 1.14 1.094 2.56 1.094zm-130.32 19.925c2.03 0 3.67-.701 3.67-1.565 0-.865-1.64-1.566-3.67-1.566-2.02 0-3.66.701-3.66 1.566 0 .864 1.64 1.565 3.66 1.565zm-.05 14.146c2.22 0 4.02-.77 4.02-1.719 0-.949-1.8-1.718-4.02-1.718-2.23 0-4.03.769-4.03 1.718s1.8 1.719 4.03 1.719zm84.69 10.745c0 .216-.15.428-.43.608-.29.18-.69.32-1.15.403a5.9 5.9 0 01-1.49.062c-.49-.042-.95-.146-1.31-.299-.36-.154-.6-.349-.7-.561-.1-.212-.05-.432.15-.632.19-.2.52-.371.94-.491.42-.121.92-.185 1.42-.185.68 0 1.34.115 1.82.321.48.205.75.483.75.774zm181.23 26.032c1.42 0 2.57-.49 2.57-1.094 0-.605-1.15-1.095-2.57-1.095-1.41 0-2.56.49-2.56 1.095 0 .604 1.15 1.094 2.56 1.094zm118.3 34.388c1.42 0 2.57-.49 2.57-1.094 0-.605-1.15-1.095-2.57-1.095-1.41 0-2.56.49-2.56 1.095 0 .604 1.15 1.094 2.56 1.094zm46.95 49.887c1.42 0 2.56-.49 2.56-1.094 0-.605-1.14-1.095-2.56-1.095-1.42 0-2.56.49-2.56 1.095 0 .604 1.14 1.094 2.56 1.094zm-182.86 21.737c1.41 0 2.56-.49 2.56-1.094 0-.605-1.15-1.095-2.56-1.095-1.42 0-2.57.49-2.57 1.095 0 .604 1.15 1.094 2.57 1.094zm-245.83 1.483c1.41 0 2.56-.49 2.56-1.094 0-.605-1.15-1.095-2.56-1.095-1.42 0-2.57.49-2.57 1.095 0 .604 1.15 1.094 2.57 1.094zm-20.65 3.613c1.42 0 2.56-.49 2.56-1.094 0-.605-1.14-1.095-2.56-1.095-1.42 0-2.56.49-2.56 1.095 0 .604 1.14 1.094 2.56 1.094zm34.74-14.052c1.41 0 2.56-.49 2.56-1.094 0-.605-1.15-1.095-2.56-1.095-1.42 0-2.57.49-2.57 1.095 0 .604 1.15 1.094 2.57 1.094zm175.39-67.799c2.1 0 3.8-.727 3.8-1.624 0-.897-1.7-1.624-3.8-1.624-2.1 0-3.81.727-3.81 1.624 0 .897 1.71 1.624 3.81 1.624zm127.01 18.582c1.41 0 2.56-.49 2.56-1.094 0-.605-1.15-1.095-2.56-1.095-1.42 0-2.57.49-2.57 1.095 0 .604 1.15 1.094 2.57 1.094zm241.88.837c3.23 0 5.85-1.117 5.85-2.495 0-1.378-2.62-2.495-5.85-2.495-3.22 0-5.84 1.117-5.84 2.495 0 1.378 2.62 2.495 5.84 2.495zm235.83-12.758c1.41 0 2.56-.49 2.56-1.094 0-.605-1.15-1.095-2.56-1.095-1.42 0-2.57.49-2.57 1.095 0 .604 1.15 1.094 2.57 1.094zm182.25-84.687c1.42 0 2.57-.49 2.57-1.095 0-.604-1.15-1.094-2.57-1.094-1.41 0-2.56.49-2.56 1.094 0 .605 1.15 1.095 2.56 1.095zm-81.3-20.537c1.42 0 2.57-.49 2.57-1.095 0-.604-1.15-1.094-2.57-1.094-1.41 0-2.56.49-2.56 1.094 0 .605 1.15 1.095 2.56 1.095zm3.37-39.002c0 .217-.16.429-.44.61-.28.18-.68.32-1.15.403a5.9 5.9 0 01-1.49.06c-.5-.043-.95-.149-1.31-.303-.36-.154-.6-.35-.7-.563-.09-.214-.04-.434.16-.634s.53-.37.96-.489c.42-.118.92-.181 1.43-.178.33 0 .67.028.98.083.31.055.59.136.82.238.24.102.42.223.55.355.13.133.19.275.19.418zm-121.28 9.109c0 .44-.3.87-.88 1.236-.57.366-1.38.651-2.34.819-.95.169-2 .213-3.01.127-1.01-.086-1.94-.298-2.66-.609-.73-.311-1.23-.707-1.43-1.139-.2-.431-.1-.878.3-1.285.39-.406 1.06-.754 1.92-.998.85-.244 1.86-.375 2.89-.375 1.38 0 2.71.235 3.68.652.98.417 1.53.983 1.53 1.572zm-5.21 13.417c4.19 0 7.58-1.449 7.58-3.236 0-1.788-3.39-3.237-7.58-3.237-4.19 0-7.58 1.449-7.58 3.237 0 1.787 3.39 3.236 7.58 3.236zm-89.74-4.672c1.42 0 2.57-.491 2.57-1.095s-1.15-1.094-2.57-1.094c-1.41 0-2.56.49-2.56 1.094 0 .604 1.15 1.095 2.56 1.095zm-66.71-49.747c1.41 0 2.56-.49 2.56-1.094 0-.605-1.15-1.095-2.56-1.095-1.42 0-2.57.49-2.57 1.095 0 .604 1.15 1.094 2.57 1.094zm-106.69-43.614c1.41 0 2.56-.49 2.56-1.095 0-.604-1.15-1.094-2.56-1.094-1.42 0-2.57.49-2.57 1.094 0 .605 1.15 1.095 2.57 1.095zm-116.98-17.194c1.42 0 2.57-.49 2.57-1.095 0-.604-1.15-1.094-2.57-1.094-1.41 0-2.56.49-2.56 1.094 0 .605 1.15 1.095 2.56 1.095zm-54.2-14.676c1.42 0 2.57-.49 2.57-1.094 0-.605-1.15-1.095-2.57-1.095-1.41 0-2.56.49-2.56 1.095 0 .604 1.15 1.094 2.56 1.094zm-351.3 47.334c1.41 0 2.56-.49 2.56-1.095 0-.604-1.15-1.094-2.56-1.094-1.42 0-2.57.49-2.57 1.094 0 .605 1.15 1.095 2.57 1.095zm-136.578-17.324c1.416 0 2.563-.49 2.563-1.094 0-.605-1.147-1.095-2.563-1.095-1.416 0-2.564.49-2.564 1.095 0 .604 1.148 1.094 2.564 1.094zm196.398-80.674c1.42 0 2.56-.49 2.56-1.095 0-.604-1.14-1.094-2.56-1.094-1.42 0-2.56.49-2.56 1.094 0 .605 1.14 1.095 2.56 1.095zm292.06-17.595c1.42 0 2.57-.49 2.57-1.094 0-.605-1.15-1.095-2.57-1.095-1.41 0-2.56.49-2.56 1.095 0 .604 1.15 1.094 2.56 1.094zm142.28-6.861c1.42 0 2.57-.49 2.57-1.094 0-.605-1.15-1.095-2.57-1.095-1.41 0-2.56.49-2.56 1.095 0 .604 1.15 1.094 2.56 1.094zm65.43-5.037c1.41 0 2.56-.49 2.56-1.094 0-.605-1.15-1.095-2.56-1.095-1.42 0-2.57.49-2.57 1.095 0 .604 1.15 1.094 2.57 1.094zm271.96-47.981c0 .217-.15.428-.43.608s-.68.32-1.15.404c-.47.082-.99.104-1.48.062-.5-.042-.96-.147-1.32-.3-.36-.153-.6-.348-.7-.56-.1-.212-.05-.433.15-.633.19-.2.52-.37.94-.49.42-.12.92-.185 1.43-.185.33-.002.67.025.98.08.31.054.6.135.84.237.24.102.42.223.55.357.13.133.19.276.19.42zm-35.51 42.073c0 .217-.15.428-.43.608s-.68.321-1.15.403a5.82 5.82 0 01-1.48.063c-.5-.042-.96-.147-1.31-.3-.36-.153-.61-.348-.71-.56-.1-.212-.04-.433.15-.633s.52-.37.94-.491c.43-.12.92-.184 1.43-.184.33 0 .67.028.98.083.31.055.59.136.83.237.24.102.43.223.56.355.13.133.19.276.19.419zm-263.89 54.242c1.42 0 2.57-.49 2.57-1.094 0-.605-1.15-1.095-2.57-1.095-1.41 0-2.56.49-2.56 1.095 0 .604 1.15 1.094 2.56 1.094zm-423.86 44.062c1.41 0 2.56-.49 2.56-1.094 0-.605-1.15-1.095-2.56-1.095-1.42 0-2.57.49-2.57 1.095 0 .604 1.15 1.094 2.57 1.094zm34.18 41.662c1.42 0 2.57-.49 2.57-1.095 0-.604-1.15-1.094-2.57-1.094-1.41 0-2.56.49-2.56 1.094 0 .605 1.15 1.095 2.56 1.095zm-66.47 24.914c0 .533-.37 1.054-1.06 1.497-.69.443-1.68.789-2.83.993-1.16.204-2.43.257-3.65.153-1.23-.104-2.35-.361-3.23-.738-.89-.377-1.49-.857-1.73-1.38-.25-.522-.12-1.064.36-1.557.48-.492 1.28-.913 2.32-1.209 1.04-.296 2.26-.454 3.51-.454 1.67.003 3.27.288 4.46.792 1.18.505 1.85 1.189 1.85 1.903zm-211.007 30.269c1.416 0 2.564-.49 2.564-1.094 0-.605-1.148-1.095-2.564-1.095-1.416 0-2.564.49-2.564 1.095 0 .604 1.148 1.094 2.564 1.094zm-226.366 9.003c1.416 0 2.564-.49 2.564-1.095 0-.604-1.148-1.094-2.564-1.094-1.416 0-2.564.49-2.564 1.094 0 .605 1.148 1.095 2.564 1.095zm-94.974 47.439c.005.372-.248.735-.727 1.044-.48.31-1.164.552-1.966.695a9.96 9.96 0 01-2.539.109c-.853-.072-1.636-.25-2.251-.513-.614-.262-1.033-.597-1.201-.961-.168-.364-.079-.741.256-1.083.335-.343.902-.635 1.627-.84a9.131 9.131 0 012.445-.31c1.153.003 2.257.2 3.072.548.816.348 1.277.819 1.284 1.311zm-8.629 21.196c2.741 0 4.962-.948 4.962-2.118s-2.221-2.119-4.962-2.119c-2.741 0-4.962.949-4.962 2.119 0 1.17 2.221 2.118 4.962 2.118zm-69.776 29.198c1.416 0 2.564-.49 2.564-1.094 0-.605-1.148-1.095-2.564-1.095-1.416 0-2.564.49-2.564 1.095 0 .604 1.148 1.094 2.564 1.094zm-48.025 52.3c1.416 0 2.564-.49 2.564-1.094 0-.605-1.148-1.095-2.564-1.095-1.416 0-2.563.49-2.563 1.095 0 .604 1.147 1.094 2.563 1.094zm27.652-18.277c1.416 0 2.564-.49 2.564-1.094 0-.605-1.148-1.095-2.564-1.095-1.416 0-2.564.49-2.564 1.095 0 .604 1.148 1.094 2.564 1.094zm-15.026 9.274c1.416 0 2.564-.49 2.564-1.094 0-.605-1.148-1.095-2.564-1.095-1.416 0-2.563.49-2.563 1.095 0 .604 1.147 1.094 2.563 1.094zm63.354 4.143c1.416 0 2.564-.49 2.564-1.095 0-.604-1.148-1.094-2.564-1.094-1.416 0-2.564.49-2.564 1.094 0 .605 1.148 1.095 2.564 1.095zm-25.556-25.856c1.416 0 2.563-.49 2.563-1.095 0-.604-1.147-1.094-2.563-1.094-1.416 0-2.564.49-2.564 1.094 0 .605 1.148 1.095 2.564 1.095zm-16.955-4.448c1.416 0 2.564-.49 2.564-1.095 0-.604-1.148-1.094-2.564-1.094-1.416 0-2.564.49-2.564 1.094 0 .605 1.148 1.095 2.564 1.095zm267.498 93.349c1.416 0 2.564-.49 2.564-1.095 0-.604-1.148-1.094-2.564-1.094-1.416 0-2.563.49-2.563 1.094 0 .605 1.147 1.095 2.563 1.095zm97.4 18.912c2.147 0 3.888-.743 3.888-1.659 0-.917-1.741-1.659-3.888-1.659-2.146 0-3.887.742-3.887 1.659 0 .916 1.741 1.659 3.887 1.659zm48.465 8.485c1.797 0 3.254-.621 3.254-1.388 0-.767-1.457-1.389-3.254-1.389-1.796 0-3.253.622-3.253 1.389s1.457 1.388 3.253 1.388zm-8.38-44.25c3.898 0 7.057-1.349 7.057-3.013s-3.159-3.013-7.057-3.013c-3.898 0-7.058 1.349-7.058 3.013s3.16 3.013 7.058 3.013zm-13.509-29.845c0 .216-.15.428-.432.608-.282.18-.682.32-1.151.403a5.785 5.785 0 01-1.481.062c-.497-.042-.954-.146-1.313-.299-.358-.153-.603-.348-.702-.561-.098-.212-.048-.432.146-.632s.523-.371.945-.491c.421-.12.917-.185 1.424-.185.68 0 1.332.116 1.813.321.481.205.751.484.751.774zm62.609 17.182c2.634 0 4.769-.912 4.769-2.036 0-1.125-2.135-2.036-4.769-2.036-2.634 0-4.77.911-4.77 2.036 0 1.124 2.136 2.036 4.77 2.036zm161.935 43.415c1.42 0 2.57-.49 2.57-1.095 0-.604-1.15-1.094-2.57-1.094-1.41 0-2.56.49-2.56 1.094 0 .605 1.15 1.095 2.56 1.095zm-263.471 10.45c1.416 0 2.564-.49 2.564-1.094 0-.605-1.148-1.095-2.564-1.095-1.416 0-2.564.49-2.564 1.095 0 .604 1.148 1.094 2.564 1.094zM679.346 565.78c.044.213-.016.428-.177.63-.161.203-.419.389-.757.546a5.13 5.13 0 01-1.209.37c-.458.086-.953.13-1.454.13s-.996-.044-1.455-.13a5.12 5.12 0 01-1.208-.37c-.338-.157-.596-.343-.757-.546-.161-.202-.222-.417-.178-.63.079-.384.492-.741 1.158-1.002.666-.26 1.536-.405 2.44-.405.903 0 1.773.145 2.439.405.666.261 1.08.618 1.158 1.002zm-43.09-8.708c1.416 0 2.564-.49 2.564-1.095 0-.604-1.148-1.094-2.564-1.094-1.416 0-2.564.49-2.564 1.094 0 .605 1.148 1.095 2.564 1.095zm-53.841 5.19c0 .428-.297.847-.855 1.203-.557.356-1.349.633-2.276.797-.927.164-1.947.207-2.931.124-.984-.084-1.888-.29-2.597-.593-.71-.303-1.193-.689-1.389-1.109-.195-.42-.095-.855.289-1.251.384-.396 1.034-.734 1.868-.972.834-.238 1.815-.365 2.818-.365 1.346 0 2.636.228 3.587.634.952.407 1.486.957 1.486 1.532zm396.603-6.662c1.416 0 2.564-.49 2.564-1.094 0-.605-1.148-1.095-2.564-1.095-1.416 0-2.564.49-2.564 1.095 0 .604 1.148 1.094 2.564 1.094zm95.502-5.943c1.41 0 2.56-.49 2.56-1.094 0-.605-1.15-1.095-2.56-1.095-1.42 0-2.57.49-2.57 1.095 0 .604 1.15 1.094 2.57 1.094zm134.37 19.713c1.41 0 2.56-.49 2.56-1.095 0-.604-1.15-1.094-2.56-1.094-1.42 0-2.57.49-2.57 1.094 0 .605 1.15 1.095 2.57 1.095zm127.91-31.87c1.42 0 2.57-.49 2.57-1.094 0-.605-1.15-1.095-2.57-1.095-1.41 0-2.56.49-2.56 1.095 0 .604 1.15 1.094 2.56 1.094zm-3.39 18.536c1.42 0 2.57-.49 2.57-1.095 0-.604-1.15-1.094-2.57-1.094-1.41 0-2.56.49-2.56 1.094 0 .605 1.15 1.095 2.56 1.095zm-43.03-21.937c1.41 0 2.56-.49 2.56-1.094 0-.605-1.15-1.095-2.56-1.095-1.42 0-2.57.49-2.57 1.095 0 .604 1.15 1.094 2.57 1.094zm6.12 13.993c1.41 0 2.56-.49 2.56-1.095 0-.604-1.15-1.094-2.56-1.094-1.42 0-2.57.49-2.57 1.094 0 .605 1.15 1.095 2.57 1.095zm106.61 1.895c1.41 0 2.56-.49 2.56-1.095 0-.604-1.15-1.094-2.56-1.094-1.42 0-2.57.49-2.57 1.094 0 .605 1.15 1.095 2.57 1.095zm370.19 18.889c0 .216-.15.428-.43.608-.29.18-.69.32-1.16.403a5.8 5.8 0 01-1.48.062c-.49-.042-.95-.146-1.31-.299-.36-.153-.6-.348-.7-.561-.1-.212-.05-.432.15-.632.19-.2.52-.371.94-.491.42-.121.92-.185 1.42-.185.68 0 1.34.116 1.82.321.48.205.75.483.75.774zm52.74-.153c1.41 0 2.56-.49 2.56-1.095 0-.604-1.15-1.094-2.56-1.094-1.42 0-2.57.49-2.57 1.094 0 .605 1.15 1.095 2.57 1.095zm103.9 1.341c0 .217-.15.428-.43.608s-.68.321-1.15.403a5.82 5.82 0 01-1.48.063c-.5-.043-.96-.147-1.31-.3-.36-.153-.61-.348-.71-.56-.09-.213-.04-.433.15-.633s.52-.371.94-.491c.43-.12.92-.184 1.43-.184.68 0 1.33.115 1.81.32.48.206.75.484.75.774zm-155.4-36.707c1.41 0 2.56-.49 2.56-1.094 0-.605-1.15-1.095-2.56-1.095-1.42 0-2.57.49-2.57 1.095 0 .604 1.15 1.094 2.57 1.094zm-217.96-171.363c1.42 0 2.56-.49 2.56-1.095 0-.604-1.14-1.094-2.56-1.094-1.42 0-2.56.49-2.56 1.094 0 .605 1.14 1.095 2.56 1.095zm-60.29 26.479c1.41 0 2.56-.49 2.56-1.094 0-.605-1.15-1.095-2.56-1.095-1.42 0-2.57.49-2.57 1.095 0 .604 1.15 1.094 2.57 1.094zm-22.86-67.517c1.42 0 2.57-.49 2.57-1.094 0-.605-1.15-1.095-2.57-1.095-1.41 0-2.56.49-2.56 1.095 0 .604 1.15 1.094 2.56 1.094zm10.15-15.782c1.41 0 2.56-.49 2.56-1.094 0-.605-1.15-1.095-2.56-1.095-1.42 0-2.56.49-2.56 1.095 0 .604 1.14 1.094 2.56 1.094zm-52.08-3.636c1.42 0 2.57-.49 2.57-1.095 0-.604-1.15-1.094-2.57-1.094-1.41 0-2.56.49-2.56 1.094 0 .605 1.15 1.095 2.56 1.095zm286.16-112.992c4.72 0 8.55-1.633 8.55-3.648s-3.83-3.648-8.55-3.648c-4.72 0-8.54 1.633-8.54 3.648s3.82 3.648 8.54 3.648zm-8.49-30.598c1.62 0 2.93-.559 2.93-1.248s-1.31-1.247-2.93-1.247c-1.61 0-2.92.558-2.92 1.247 0 .689 1.31 1.248 2.92 1.248zm32.95.659c0 .233-.16.46-.47.654-.3.193-.73.344-1.23.433a6.35 6.35 0 01-1.6.067 4.719 4.719 0 01-1.41-.322c-.38-.165-.65-.374-.75-.603-.11-.228-.06-.465.15-.68.21-.215.57-.398 1.02-.528.45-.129.99-.198 1.53-.198.73 0 1.43.124 1.95.345.52.22.81.52.81.832zm65.86-8.603c1.69 0 3.06-.585 3.06-1.307 0-.721-1.37-1.306-3.06-1.306s-3.06.585-3.06 1.306c0 .722 1.37 1.307 3.06 1.307zm-4.66-7.979c1.42 0 2.56-.49 2.56-1.095 0-.604-1.14-1.094-2.56-1.094-1.42 0-2.56.49-2.56 1.094 0 .605 1.14 1.095 2.56 1.095zm-21.59-4.425c1.42 0 2.57-.49 2.57-1.095 0-.604-1.15-1.094-2.57-1.094-1.41 0-2.56.49-2.56 1.094 0 .605 1.15 1.095 2.56 1.095zm-2.31 5.319c1.41 0 2.56-.49 2.56-1.094 0-.605-1.15-1.095-2.56-1.095-1.42 0-2.57.49-2.57 1.095 0 .604 1.15 1.094 2.57 1.094zm41.96 65.293c1.41 0 2.56-.49 2.56-1.095 0-.604-1.15-1.094-2.56-1.094-1.42 0-2.57.49-2.57 1.094 0 .605 1.15 1.095 2.57 1.095zm50.48 33.694c1.41 0 2.56-.49 2.56-1.095 0-.604-1.15-1.094-2.56-1.094-1.42 0-2.57.49-2.57 1.094 0 .605 1.15 1.095 2.57 1.095zm147.9-3.049c1.42 0 2.57-.49 2.57-1.094 0-.605-1.15-1.095-2.57-1.095-1.41 0-2.56.49-2.56 1.095 0 .604 1.15 1.094 2.56 1.094zM1087.8 165.95c0 .217-.15.429-.43.609-.28.179-.68.32-1.15.403-.47.082-.98.104-1.48.062-.5-.042-.95-.147-1.31-.3-.36-.153-.61-.348-.7-.56-.1-.212-.05-.432.14-.632s.52-.371.95-.492c.42-.12.91-.184 1.42-.184.68 0 1.33.115 1.81.321.48.205.75.483.75.773zm-204.556-38.342c4.08 0 7.388-1.412 7.388-3.154s-3.308-3.154-7.388-3.154c-4.081 0-7.389 1.412-7.389 3.154s3.308 3.154 7.389 3.154zm-59.41-20.348c2.147 0 3.887-.743 3.887-1.659 0-.917-1.74-1.66-3.887-1.66-2.147 0-3.887.743-3.887 1.66 0 .916 1.74 1.659 3.887 1.659zm-82.789 10.027c1.416 0 2.564-.49 2.564-1.095 0-.604-1.148-1.094-2.564-1.094-1.416 0-2.564.49-2.564 1.094 0 .605 1.148 1.095 2.564 1.095zm-37.19-28.845c1.416 0 2.564-.49 2.564-1.095 0-.604-1.148-1.094-2.564-1.094-1.416 0-2.563.49-2.563 1.094 0 .605 1.147 1.095 2.563 1.095zm59.273-17.206c1.416 0 2.564-.49 2.564-1.094 0-.605-1.148-1.095-2.564-1.095-1.416 0-2.564.49-2.564 1.095 0 .604 1.148 1.094 2.564 1.094zm-110.744-1.918c1.416 0 2.564-.49 2.564-1.095 0-.604-1.148-1.094-2.564-1.094-1.416 0-2.564.49-2.564 1.094 0 .605 1.148 1.095 2.564 1.095zm-11-24.668c1.416 0 2.564-.49 2.564-1.094 0-.605-1.148-1.095-2.564-1.095-1.416 0-2.564.49-2.564 1.095 0 .604 1.148 1.094 2.564 1.094zm-4.162 29.481c1.416 0 2.563-.49 2.563-1.094 0-.605-1.147-1.095-2.563-1.095-1.416 0-2.564.49-2.564 1.095 0 .604 1.148 1.094 2.564 1.094zm87.172 102.223c1.416 0 2.563-.49 2.563-1.094 0-.605-1.147-1.095-2.563-1.095-1.416 0-2.564.49-2.564 1.095 0 .604 1.148 1.094 2.564 1.094zm-52.436-17.488c1.416 0 2.564-.49 2.564-1.095 0-.604-1.148-1.094-2.564-1.094-1.416 0-2.564.49-2.564 1.094 0 .605 1.148 1.095 2.564 1.095zm-114.575-28.822c1.416 0 2.564-.49 2.564-1.094 0-.605-1.148-1.095-2.564-1.095-1.416 0-2.564.49-2.564 1.095 0 .604 1.148 1.094 2.564 1.094zm31.787 20.583c1.416 0 2.563-.49 2.563-1.094 0-.605-1.147-1.095-2.563-1.095-1.416 0-2.564.49-2.564 1.095 0 .604 1.148 1.094 2.564 1.094zm53.648 48.499c1.416 0 2.564-.49 2.564-1.094 0-.604-1.148-1.094-2.564-1.094-1.416 0-2.564.49-2.564 1.094 0 .604 1.148 1.094 2.564 1.094zm-185.371 20.078c1.416 0 2.564-.49 2.564-1.095 0-.604-1.148-1.094-2.564-1.094-1.416 0-2.564.49-2.564 1.094 0 .605 1.148 1.095 2.564 1.095zM1101.26 59.432c1.41 0 2.56-.49 2.56-1.094 0-.605-1.15-1.095-2.56-1.095-1.42 0-2.57.49-2.57 1.095 0 .604 1.15 1.094 2.57 1.094zm6.03-32.893c1.42 0 2.57-.49 2.57-1.095 0-.604-1.15-1.094-2.57-1.094-1.41 0-2.56.49-2.56 1.094 0 .605 1.15 1.095 2.56 1.095zm-15.3-11.028c1.42 0 2.57-.49 2.57-1.094 0-.605-1.15-1.095-2.57-1.095-1.41 0-2.56.49-2.56 1.095 0 .604 1.15 1.094 2.56 1.094zm-55-5.096c1.42 0 2.57-.49 2.57-1.094 0-.605-1.15-1.095-2.57-1.095-1.41 0-2.56.49-2.56 1.095 0 .604 1.15 1.094 2.56 1.094zM416.424 157.347c0 .217-.151.43-.434.61-.283.18-.685.32-1.155.403-.47.082-.987.103-1.485.06-.498-.043-.955-.149-1.312-.303-.358-.154-.6-.35-.696-.563-.095-.213-.041-.434.158-.634.198-.199.531-.369.956-.488a5.343 5.343 0 011.432-.179c.675.003 1.32.12 1.795.325.475.205.741.481.741.769zM314.42 80.85c0 .217-.15.429-.432.609-.281.18-.682.32-1.15.403a5.834 5.834 0 01-1.482.062c-.497-.042-.954-.146-1.312-.3-.359-.152-.603-.347-.702-.56-.099-.212-.048-.432.146-.632s.523-.37.944-.491c.422-.12.918-.185 1.425-.185.68 0 1.332.116 1.813.32.48.206.75.485.75.775zm47.473-5.754c.006.217-.14.43-.418.611-.279.182-.677.324-1.145.409a5.817 5.817 0 01-1.483.067 4.406 4.406 0 01-1.32-.297c-.362-.153-.609-.348-.71-.56-.101-.213-.052-.434.141-.634.194-.201.522-.373.944-.493a5.29 5.29 0 011.428-.186c.335-.001.668.026.979.08.311.053.593.132.832.233.238.1.428.22.557.353.129.132.196.274.195.417zm21.945-29.386a.521.521 0 01-.112.452c-.111.146-.293.28-.533.394a3.619 3.619 0 01-.863.267 5.638 5.638 0 01-1.042.094c-.359 0-.714-.032-1.042-.094a3.61 3.61 0 01-.862-.267c-.241-.114-.422-.248-.534-.394a.525.525 0 01-.112-.452c.066-.27.363-.519.834-.7.471-.181 1.082-.282 1.716-.282.634 0 1.246.1 1.717.282.471.181.768.43.833.7zM240.261 55.854c.005.218-.141.43-.421.613-.28.181-.68.324-1.149.408-.47.084-.988.107-1.488.065-.499-.042-.959-.146-1.319-.3s-.605-.35-.703-.563c-.098-.214-.045-.435.152-.635.198-.2.531-.371.957-.49.425-.12.925-.183 1.434-.18.671.003 1.312.118 1.786.32s.744.476.751.762zm-17.672.047c.005.218-.141.43-.421.613-.279.181-.679.323-1.149.408a5.822 5.822 0 01-1.487.065 4.402 4.402 0 01-1.32-.3c-.36-.154-.605-.35-.703-.563-.098-.214-.045-.435.153-.635.197-.2.53-.372.956-.491a5.32 5.32 0 011.435-.18c.672 0 1.318.114 1.793.318.476.203.743.478.743.765zm-73.58 83.711c-.066.269-.363.519-.834.7-.471.181-1.083.281-1.717.281-.634 0-1.245-.1-1.716-.281-.471-.181-.768-.431-.834-.7a.522.522 0 01.113-.452c.111-.146.293-.28.533-.394.24-.114.534-.205.862-.267a5.663 5.663 0 011.042-.095c.36 0 .715.033 1.043.095.328.062.622.153.862.267.24.114.422.248.533.394.111.146.15.3.113.452zm55.137-29.539c0 .217-.152.429-.434.609-.283.18-.686.32-1.156.403-.47.082-.987.103-1.485.06-.498-.043-.955-.149-1.312-.303-.357-.154-.599-.35-.695-.563-.096-.213-.041-.434.157-.633.198-.2.531-.37.956-.489a5.349 5.349 0 011.432-.179c.675.003 1.321.12 1.795.325.475.205.742.481.742.77zm11.027 16.311c0 .217-.15.428-.432.608-.282.18-.682.32-1.151.403a5.83 5.83 0 01-1.481.063c-.497-.043-.954-.147-1.313-.3-.358-.153-.602-.348-.701-.56-.099-.213-.048-.433.146-.633s.522-.371.944-.491c.421-.12.917-.184 1.424-.184.68 0 1.332.115 1.813.32.481.205.751.484.751.774zm156.011-16.57c0 .217-.151.429-.434.609-.283.18-.685.321-1.155.403-.47.083-.987.104-1.485.06-.498-.043-.955-.148-1.312-.303-.358-.154-.6-.35-.696-.563-.095-.213-.041-.433.158-.633.198-.2.531-.37.956-.489a5.343 5.343 0 011.432-.179c.675.003 1.32.12 1.795.325.475.205.741.482.741.77zm94.285-27.244c0 .216-.151.427-.432.607-.282.18-.682.32-1.151.403a5.83 5.83 0 01-1.481.063c-.498-.043-.954-.147-1.313-.3s-.603-.348-.702-.56c-.099-.213-.048-.433.146-.633s.523-.37.945-.49a5.29 5.29 0 011.424-.185c.68 0 1.332.115 1.813.32.481.205.751.484.751.774zm27.458-14.559c0 .217-.15.429-.432.609-.282.18-.682.32-1.151.403a5.826 5.826 0 01-1.481.062c-.497-.042-.954-.146-1.313-.3-.358-.153-.602-.348-.701-.56-.099-.212-.049-.432.145-.632.195-.2.523-.371.945-.492.421-.12.917-.184 1.424-.184.68 0 1.332.115 1.813.32.481.206.751.484.751.775zm-56.322-30.834c0 .217-.152.43-.435.61-.282.18-.685.32-1.155.403-.47.082-.987.103-1.485.06-.498-.043-.955-.149-1.312-.303-.357-.154-.599-.35-.695-.564-.096-.213-.041-.433.157-.633s.531-.37.956-.489a5.345 5.345 0 011.432-.178c.675.003 1.321.12 1.795.325.475.204.742.481.742.77zM293.441 7.92c0 .144-.067.286-.195.42a1.712 1.712 0 01-.556.354 3.85 3.85 0 01-.832.238 5.677 5.677 0 01-.981.083c-.68 0-1.332-.115-1.813-.32-.481-.206-.751-.484-.751-.775.007-.288.281-.563.761-.766.48-.203 1.128-.316 1.803-.316s1.323.113 1.803.316.753.478.761.766zm-73.774 3.33c0 .291-.27.57-.751.775-.481.205-1.133.32-1.813.32-.68 0-1.332-.115-1.813-.32-.481-.205-.751-.484-.751-.774.007-.288.281-.564.761-.766.48-.203 1.128-.317 1.803-.317s1.323.114 1.803.317c.48.202.754.478.761.766zm4.852-9.426c0 .29-.27.569-.751.774-.481.205-1.133.32-1.813.32-.675-.002-1.32-.12-1.795-.324-.475-.205-.741-.482-.741-.77 0-.288.266-.565.741-.77.475-.204 1.12-.321 1.795-.324.68 0 1.332.115 1.813.32.481.206.751.484.751.774zm95.856 19.324c0 .217-.15.428-.432.608-.282.18-.682.32-1.151.403a5.83 5.83 0 01-1.481.063c-.497-.043-.954-.147-1.313-.3-.358-.153-.602-.348-.701-.56-.099-.213-.049-.433.145-.633.195-.2.523-.37.945-.49a5.29 5.29 0 011.424-.185c.337 0 .67.028.981.083.311.055.594.136.832.237.238.102.427.223.556.355.129.133.195.276.195.42zm193.229 5.367c0 .216-.151.428-.432.608-.282.18-.683.32-1.151.403a5.833 5.833 0 01-1.481.062c-.498-.042-.955-.146-1.313-.3-.359-.152-.603-.347-.702-.56-.099-.212-.048-.432.146-.632s.523-.37.944-.491a5.685 5.685 0 012.406-.101c.311.055.594.135.832.237.238.102.427.222.555.355.129.133.196.275.196.419zm89.101-7.555c0 .216-.15.427-.432.607-.281.18-.682.32-1.15.403a5.834 5.834 0 01-1.482.063c-.497-.043-.954-.147-1.312-.3-.359-.153-.603-.348-.702-.56-.099-.213-.048-.433.146-.633s.522-.37.944-.49a5.27 5.27 0 011.425-.185c.679 0 1.332.115 1.812.32.481.206.751.484.751.774zM218.233 211.966c.006.218-.141.431-.42.613-.28.181-.68.323-1.15.408a5.827 5.827 0 01-1.487.065 4.402 4.402 0 01-1.32-.3c-.36-.154-.605-.35-.703-.564-.098-.213-.045-.434.153-.634.197-.201.53-.372.956-.491a5.36 5.36 0 011.435-.18c.672 0 1.318.114 1.793.317.476.204.743.479.743.766zm-17.065 28.751c.006.218-.141.431-.42.613-.28.181-.68.323-1.15.408a5.827 5.827 0 01-1.487.065 4.402 4.402 0 01-1.32-.3c-.36-.154-.604-.35-.703-.564-.098-.213-.044-.434.153-.634.197-.201.53-.372.956-.491a5.36 5.36 0 011.435-.18c.673 0 1.318.114 1.793.317.476.204.743.479.743.766zm23.186 27.374c.005.217-.141.43-.419.611-.278.182-.677.324-1.145.409a5.84 5.84 0 01-1.483.067 4.413 4.413 0 01-1.32-.297c-.361-.153-.608-.348-.71-.56-.101-.213-.052-.434.142-.634.193-.201.521-.373.944-.493a5.283 5.283 0 011.427-.186c.675 0 1.323.114 1.803.317.48.202.753.478.761.766zm-45.599 33.917a.526.526 0 01-.112.453c-.111.146-.293.28-.534.394a3.68 3.68 0 01-.862.267 5.664 5.664 0 01-1.042.094c-.359 0-.714-.032-1.042-.094a3.704 3.704 0 01-.863-.267c-.24-.114-.422-.248-.533-.394a.526.526 0 01-.112-.453c.066-.269.363-.518.833-.699.471-.181 1.083-.282 1.717-.282.634 0 1.246.101 1.716.282.471.181.768.43.834.699zm-42.649 31.176c.006.217-.14.43-.418.611-.279.182-.677.324-1.145.408a5.8 5.8 0 01-1.484.067 4.377 4.377 0 01-1.319-.296c-.362-.153-.609-.348-.71-.561-.101-.212-.052-.433.141-.633.193-.201.522-.373.944-.494.422-.12.919-.185 1.427-.185.676 0 1.324.114 1.804.316.48.203.753.479.76.767zm-13.205 19.006c.006.217-.14.43-.419.611-.278.182-.676.324-1.144.409a5.848 5.848 0 01-1.484.067c-.499-.041-.958-.144-1.32-.297-.361-.153-.608-.348-.709-.56-.101-.213-.052-.433.141-.634.193-.201.522-.372.944-.493a5.283 5.283 0 011.427-.186c.675 0 1.323.114 1.803.317s.754.478.761.766zm184.434-47.487c.006.218-.141.431-.42.613-.28.182-.68.324-1.15.408a5.827 5.827 0 01-1.487.065c-.5-.042-.959-.146-1.32-.3-.36-.154-.604-.35-.703-.563-.098-.214-.044-.435.153-.635.197-.201.53-.371.956-.491a5.32 5.32 0 011.435-.179c.672 0 1.318.114 1.793.317.476.203.743.478.743.765zm18.581-9.685c.006.217-.14.43-.418.611-.279.182-.677.324-1.145.408a5.803 5.803 0 01-1.484.067 4.39 4.39 0 01-1.32-.296c-.361-.153-.608-.348-.709-.56-.101-.213-.052-.434.141-.634.193-.201.522-.373.944-.494.422-.12.919-.185 1.427-.185.336-.001.668.025.979.079.311.054.594.133.833.234.238.101.427.221.557.353.129.132.195.274.195.417zm83.892-.071c0 .216-.15.428-.432.608-.282.18-.682.32-1.151.403a5.785 5.785 0 01-1.481.062c-.497-.042-.954-.146-1.313-.299-.358-.153-.603-.348-.702-.56-.098-.213-.048-.433.146-.633s.523-.371.945-.491c.421-.12.917-.184 1.424-.184.337 0 .67.028.981.083.311.055.594.135.832.237.238.102.427.222.556.355.129.133.195.275.195.419zm11.827-12.122c.005.217-.14.43-.419.612-.278.181-.677.323-1.145.408a5.795 5.795 0 01-1.483.067c-.499-.041-.959-.144-1.32-.297-.361-.152-.608-.347-.709-.56-.102-.213-.052-.433.141-.634.193-.201.522-.372.944-.493a5.284 5.284 0 011.427-.185c.675 0 1.323.113 1.803.316s.754.478.761.766zm-48.742-27.892c0 .217-.151.429-.434.61-.283.18-.685.32-1.155.403-.47.082-.987.103-1.485.06-.498-.043-.955-.149-1.312-.303-.358-.154-.6-.35-.695-.563-.096-.213-.041-.434.157-.634.198-.199.531-.37.956-.488a5.343 5.343 0 011.432-.179c.675.003 1.32.12 1.795.325.475.205.741.481.741.769zm45.075 5.391c0 .216-.15.428-.432.608-.282.18-.682.32-1.151.403a5.83 5.83 0 01-1.481.062c-.497-.042-.954-.146-1.313-.299-.358-.153-.602-.348-.701-.561-.099-.212-.049-.432.145-.632.195-.2.523-.371.945-.491a5.262 5.262 0 011.424-.185c.68 0 1.332.116 1.813.321.481.205.751.483.751.774zm63.27 10.015c-.066.269-.363.518-.834.7-.471.181-1.082.281-1.716.281-.634 0-1.246-.1-1.717-.281-.471-.182-.768-.431-.833-.7a.523.523 0 01.112-.452c.111-.146.293-.28.533-.394a3.61 3.61 0 01.863-.267 5.577 5.577 0 011.042-.095c.359 0 .714.032 1.042.095.328.062.622.153.862.267.241.114.423.248.534.394a.523.523 0 01.112.452zm23.709 15.181c0 .217-.15.428-.432.608-.281.18-.682.321-1.15.403a5.838 5.838 0 01-1.482.063c-.497-.043-.954-.147-1.312-.3-.359-.153-.603-.348-.702-.56-.099-.213-.048-.433.146-.633s.522-.371.944-.491c.422-.12.917-.184 1.424-.184.68 0 1.333.115 1.813.32.481.206.751.484.751.774zm-82.017 20.49c0 .217-.151.429-.434.609-.283.18-.685.32-1.155.403-.47.082-.987.103-1.485.06-.498-.043-.955-.148-1.312-.303-.358-.154-.6-.35-.695-.563-.096-.213-.041-.434.157-.633.198-.2.531-.37.956-.489a5.349 5.349 0 011.432-.179c.675.003 1.32.12 1.795.325.475.205.742.481.741.77zm-235.491 34.8c.006.217-.141.43-.42.612-.28.182-.68.324-1.15.408a5.826 5.826 0 01-1.487.066c-.5-.042-.959-.147-1.319-.301-.361-.153-.605-.349-.703-.563-.098-.213-.045-.434.152-.635.198-.2.531-.371.956-.49.426-.12.926-.182 1.435-.18.673 0 1.318.114 1.794.317.475.203.742.479.742.766zm-20.925 40.237c0 .217-.151.429-.434.609-.283.181-.685.321-1.155.403-.47.083-.987.104-1.485.061-.498-.043-.955-.149-1.312-.303-.358-.154-.6-.351-.695-.564-.096-.213-.041-.433.157-.633s.531-.37.956-.489a5.35 5.35 0 011.432-.178c.675.003 1.32.119 1.795.324.475.205.742.482.741.77zm92.273-3.519c.005.217-.14.43-.419.611-.278.182-.677.324-1.145.409a5.84 5.84 0 01-1.483.067c-.499-.041-.959-.144-1.32-.297-.361-.153-.608-.348-.709-.56-.102-.213-.053-.434.141-.634.193-.201.521-.373.944-.493a5.283 5.283 0 011.427-.186c.335-.001.668.026.979.079.311.054.594.134.832.234.239.101.428.221.557.353.129.132.196.274.196.417zm97.124-38.178c.006.217-.14.43-.419.612-.278.181-.676.323-1.144.408a5.803 5.803 0 01-1.484.067c-.499-.041-.958-.144-1.32-.297-.361-.152-.608-.347-.709-.56-.101-.213-.052-.433.141-.634.193-.201.522-.372.944-.493a5.284 5.284 0 011.427-.185 5.57 5.57 0 01.979.079c.311.053.594.133.832.234.239.1.428.22.557.352.13.132.196.274.196.417zm4.687 10.31c0 .216-.151.428-.432.608-.282.18-.682.32-1.151.403a5.785 5.785 0 01-1.481.062c-.498-.042-.955-.146-1.313-.299-.359-.153-.603-.348-.702-.561-.099-.212-.048-.432.146-.632s.523-.371.944-.491c.422-.12.918-.185 1.425-.185.337 0 .67.029.981.084.311.055.594.135.832.237.238.102.427.222.556.355.128.133.195.275.195.419zm-98.283 44.156c-.065.269-.362.519-.833.7-.471.181-1.083.281-1.717.281-.634 0-1.245-.1-1.716-.281-.471-.181-.768-.431-.834-.7a.524.524 0 01.112-.452c.112-.146.293-.28.534-.394.24-.114.534-.205.862-.267a5.663 5.663 0 011.042-.095c.359 0 .714.033 1.043.095.328.062.621.153.862.267.24.114.422.248.533.394.111.146.15.3.112.452zm-49.375 73.048c0 .217-.15.429-.432.609-.282.18-.682.32-1.15.403a5.839 5.839 0 01-1.482.062c-.497-.042-.954-.146-1.313-.3-.358-.153-.602-.348-.701-.56-.099-.212-.048-.432.146-.632s.522-.371.944-.492c.422-.12.917-.184 1.424-.184.68 0 1.333.115 1.813.321.481.205.751.483.751.773zm-74.573 31.364c0 .216-.15.428-.432.608-.282.18-.682.32-1.151.403a5.83 5.83 0 01-1.481.062c-.497-.042-.954-.146-1.313-.299-.358-.153-.603-.348-.701-.561-.099-.212-.049-.432.145-.632s.523-.371.945-.491a5.262 5.262 0 011.424-.185c.68 0 1.332.116 1.813.321.481.205.751.484.751.774zm117.167 6.932c0 .216-.151.428-.432.608-.282.18-.682.32-1.151.403a5.785 5.785 0 01-1.481.062c-.498-.042-.954-.146-1.313-.299s-.603-.348-.702-.561c-.099-.212-.048-.432.146-.632s.523-.371.944-.491c.422-.12.918-.185 1.425-.185.68 0 1.332.116 1.813.321.481.205.751.484.751.774zm145.59 5.955c0 .217-.151.429-.434.609-.283.18-.685.32-1.155.403-.47.082-.987.103-1.485.06a4.337 4.337 0 01-1.313-.303c-.357-.154-.599-.35-.695-.563-.096-.213-.041-.434.157-.634.199-.199.531-.369.957-.488a5.338 5.338 0 011.432-.179c.675.003 1.32.12 1.795.325.475.205.741.481.741.77zm-5.404-80.71c.006.217-.14.43-.418.611-.279.182-.677.324-1.145.409a5.846 5.846 0 01-1.484.067 4.406 4.406 0 01-1.319-.297c-.362-.153-.609-.348-.71-.56-.101-.213-.052-.434.141-.634.193-.201.522-.373.944-.493a5.285 5.285 0 011.428-.186c.335-.001.668.026.979.079.31.054.593.134.832.234.238.101.428.221.557.353.129.132.195.274.195.417zm62.057 41.779c.006.217-.14.43-.418.611-.279.182-.677.324-1.145.408a5.803 5.803 0 01-1.484.067 4.39 4.39 0 01-1.32-.296c-.361-.153-.608-.348-.709-.56-.101-.213-.052-.434.141-.634.193-.201.522-.373.944-.494.422-.12.919-.185 1.427-.185a5.66 5.66 0 01.979.079c.311.054.594.133.833.234.238.101.427.221.557.353.129.132.195.274.195.417zm-12.461 27.715c0 .217-.151.429-.434.609-.283.181-.685.321-1.155.403-.47.083-.987.104-1.485.061-.498-.043-.955-.149-1.312-.303-.358-.154-.6-.35-.695-.564-.096-.213-.041-.433.157-.633s.531-.37.956-.489a5.35 5.35 0 011.432-.178c.675.003 1.32.12 1.795.324.475.205.742.482.741.77zm15.522 46.675c0 .216-.151.428-.432.608-.282.18-.682.32-1.151.403a5.785 5.785 0 01-1.481.062c-.498-.042-.955-.146-1.313-.299-.359-.153-.603-.348-.702-.561-.099-.212-.048-.432.146-.632s.523-.371.944-.491c.422-.12.918-.185 1.425-.185.68 0 1.332.116 1.813.321.481.205.751.484.751.774zm-84.113 28.645c0 .216-.15.428-.432.608-.282.18-.682.32-1.151.403a5.785 5.785 0 01-1.481.062c-.497-.042-.954-.146-1.313-.299-.358-.153-.602-.348-.701-.56-.099-.213-.048-.433.146-.633s.522-.371.944-.491c.422-.12.917-.184 1.424-.184.68 0 1.332.115 1.813.32.481.205.751.484.751.774zM261.13 596.426c0 .216-.15.428-.432.608-.282.18-.682.32-1.151.403a5.785 5.785 0 01-1.481.062c-.497-.042-.954-.146-1.313-.299-.358-.153-.603-.348-.702-.56-.098-.213-.048-.433.146-.633s.523-.371.945-.491c.421-.12.917-.184 1.424-.184.68 0 1.332.115 1.813.32.481.205.751.484.751.774zm78.654-123.995c0 .216-.151.428-.432.608-.282.18-.682.32-1.151.403a5.785 5.785 0 01-1.481.062c-.498-.042-.954-.146-1.313-.299s-.603-.348-.702-.561c-.099-.212-.048-.432.146-.632s.523-.371.944-.491c.422-.12.918-.185 1.425-.185.68 0 1.332.116 1.813.321.481.205.751.484.751.774zm186.915-331.077c.005.217-.141.43-.421.612-.279.182-.679.324-1.149.408-.47.085-.987.107-1.487.066-.5-.042-.96-.147-1.32-.301-.36-.153-.605-.349-.703-.563-.098-.213-.045-.434.153-.635.197-.2.53-.371.956-.49a5.32 5.32 0 011.435-.18c.672 0 1.317.114 1.793.317s.743.479.743.766zm13.233 19.159c0 .217-.151.428-.432.608-.282.18-.683.321-1.151.403a5.83 5.83 0 01-1.481.063c-.498-.043-.955-.147-1.313-.3-.359-.153-.603-.348-.702-.56-.099-.213-.048-.433.146-.633s.523-.371.944-.491c.422-.12.918-.184 1.425-.184.68 0 1.332.115 1.813.32.481.206.751.484.751.774zm4.218 9.215c.005.218-.141.431-.421.613s-.68.324-1.149.408c-.47.084-.988.107-1.488.065-.5-.042-.959-.146-1.319-.3s-.605-.35-.703-.563c-.098-.214-.045-.435.152-.635.198-.201.531-.372.957-.491a5.313 5.313 0 011.434-.179c.673 0 1.318.114 1.794.317.475.203.743.478.743.765zm-215.945-16.441c.005.217-.14.43-.419.612-.278.181-.677.323-1.145.408a5.84 5.84 0 01-1.483.067c-.499-.041-.959-.144-1.32-.297-.361-.152-.608-.347-.71-.56-.101-.213-.052-.433.142-.634.193-.201.521-.372.944-.493a5.284 5.284 0 011.427-.185c.675 0 1.323.113 1.803.316s.754.478.761.766zM731.782 14.04c.004.143-.059.285-.185.418a1.662 1.662 0 01-.548.355 3.788 3.788 0 01-.826.238 5.61 5.61 0 01-.977.083 5.64 5.64 0 01-.986-.08 3.798 3.798 0 01-.835-.236 1.686 1.686 0 01-.556-.357c-.127-.134-.191-.277-.187-.42 0-.144.066-.286.195-.418a1.72 1.72 0 01.557-.353c.239-.1.522-.18.833-.234.311-.053.643-.08.979-.079.672 0 1.318.114 1.793.317.476.204.743.479.743.766zm77.054-2.53c0 .143-.066.285-.196.417a1.706 1.706 0 01-.556.353c-.239.1-.522.18-.833.234-.311.053-.643.08-.979.079-.672 0-1.318-.114-1.793-.318-.476-.203-.743-.478-.743-.765-.004-.143.059-.285.185-.418s.312-.254.548-.355a3.77 3.77 0 01.826-.238 5.62 5.62 0 01.977-.084 5.65 5.65 0 01.986.08c.313.055.597.136.835.237.239.102.428.224.556.357.127.134.191.277.187.42zM1082.32 1.094c0 .29-.27.57-.75.774-.48.206-1.14.321-1.82.321-.68 0-1.33-.115-1.81-.32-.48-.206-.75-.484-.75-.775 0-.29.27-.568.75-.773.48-.206 1.13-.321 1.81-.321.68 0 1.34.115 1.82.32.48.206.75.484.75.774zm728.2 17.089a.557.557 0 01-.12.452c-.11.146-.29.28-.53.394a3.56 3.56 0 01-.86.267 5.73 5.73 0 01-2.09 0 3.56 3.56 0 01-.86-.267c-.24-.114-.42-.248-.53-.394-.11-.146-.15-.3-.11-.452.06-.27.36-.519.83-.7.47-.181 1.08-.281 1.72-.281.63 0 1.24.1 1.71.281.47.181.77.43.84.7zm200.78.682c-.07.27-.36.519-.84.7-.47.18-1.08.281-1.71.281-.64 0-1.25-.1-1.72-.281-.47-.181-.77-.43-.83-.7-.04-.152 0-.306.11-.452.11-.146.29-.28.53-.394.24-.114.54-.205.87-.267.32-.063.68-.095 1.04-.095s.71.032 1.04.095c.33.062.62.153.86.267.24.114.42.248.54.394.11.145.14.3.11.452zm136.13-4.719c0 .29-.27.569-.75.774-.48.205-1.13.32-1.81.32-.68 0-1.33-.115-1.81-.32-.49-.205-.76-.484-.76-.774.01-.146.09-.29.23-.423.13-.133.33-.253.58-.353.25-.1.55-.177.87-.228.32-.05.66-.073 1-.067.65.012 1.27.13 1.72.328.46.2.72.465.73.743zm-69.86 25.397c0 .216-.15.428-.43.608s-.68.32-1.15.403a5.82 5.82 0 01-1.48.062c-.5-.042-.96-.146-1.31-.3-.36-.152-.61-.347-.71-.56-.09-.212-.04-.432.15-.632s.52-.371.94-.491c.43-.12.92-.185 1.43-.185.68 0 1.33.116 1.81.32.48.206.75.484.75.775zm-7.74 31.046c-.07.269-.37.518-.84.7-.47.18-1.08.28-1.71.28-.64 0-1.25-.1-1.72-.28-.47-.182-.77-.431-.83-.7-.04-.153 0-.307.11-.453.11-.145.29-.28.53-.393.24-.114.54-.205.86-.268a5.76 5.76 0 011.05-.094c.36 0 .71.032 1.04.094.33.063.62.154.86.268.24.114.42.248.53.393.12.146.15.3.12.453zm12.29 11.991c0 .217-.15.429-.43.609s-.68.32-1.15.403a5.84 5.84 0 01-1.48.062c-.5-.042-.96-.146-1.32-.3-.35-.152-.6-.347-.7-.56-.1-.212-.05-.432.15-.632.19-.2.52-.371.94-.491.42-.12.92-.185 1.43-.185.68 0 1.33.116 1.81.32.48.206.75.484.75.775zm102.34 49.724c0 .217-.16.429-.44.609s-.68.321-1.15.403c-.47.083-.99.103-1.49.06s-.95-.148-1.31-.303c-.36-.154-.6-.35-.7-.563-.09-.213-.04-.434.16-.633.2-.2.53-.37.96-.489.42-.119.92-.181 1.43-.179.67.003 1.32.12 1.79.325.48.205.75.482.75.77zm3.8 16.546c0 .217-.15.429-.43.61-.29.18-.69.32-1.16.403-.47.082-.99.103-1.48.06-.5-.043-.96-.149-1.32-.303-.35-.154-.6-.35-.69-.563-.1-.213-.04-.434.16-.634.19-.199.53-.37.95-.488.43-.119.93-.181 1.43-.179.34 0 .67.028.98.083.31.056.59.136.83.238.23.102.42.223.55.355.12.133.18.275.18.418zm-174.15-37.024c.01.217-.14.43-.42.611-.28.182-.68.324-1.14.409-.47.084-.99.108-1.49.067-.5-.041-.96-.144-1.32-.297-.36-.153-.61-.348-.71-.56-.1-.213-.05-.434.14-.634.2-.201.53-.372.95-.493.42-.121.92-.186 1.43-.186.67 0 1.32.114 1.8.317s.75.478.76.766zm-90.76-25.22c0 .216-.15.428-.43.608s-.68.32-1.15.403a5.82 5.82 0 01-1.48.062c-.5-.042-.95-.146-1.31-.3-.36-.152-.61-.347-.7-.56-.1-.212-.05-.432.14-.632.2-.2.52-.371.95-.491.42-.12.91-.185 1.42-.185.68 0 1.33.115 1.81.32.48.206.75.484.75.775zm43.2-8.062c0 .217-.15.43-.43.61s-.69.32-1.16.403a5.79 5.79 0 01-1.48.06c-.5-.043-.96-.149-1.31-.303-.36-.154-.6-.35-.7-.563-.09-.214-.04-.434.16-.634s.53-.37.96-.489a5.28 5.28 0 011.43-.178c.67.003 1.32.12 1.79.325.48.204.74.481.74.77zm221.16-21.737c0 .217-.15.428-.43.608s-.69.32-1.15.404c-.47.082-.99.104-1.49.062a4.4 4.4 0 01-1.31-.3c-.36-.153-.6-.348-.7-.56-.1-.212-.05-.432.15-.633.19-.2.52-.37.94-.49.42-.12.92-.185 1.42-.185.68 0 1.34.115 1.82.32.48.206.75.484.75.774zm38.71-5.025c0 .217-.15.428-.44.608-.28.18-.68.32-1.15.403a5.82 5.82 0 01-1.48.063c-.5-.043-.95-.147-1.31-.3-.36-.153-.6-.348-.7-.56-.1-.213-.05-.433.14-.633.2-.2.53-.37.95-.49a5.21 5.21 0 011.42-.185c.68 0 1.33.115 1.82.32.48.206.75.484.75.774zm-.91-7.826c0 .216-.15.428-.44.608-.28.18-.68.32-1.15.403a5.82 5.82 0 01-1.48.063c-.5-.043-.95-.147-1.31-.3-.36-.153-.6-.348-.7-.56-.1-.213-.05-.433.14-.633.2-.2.53-.37.95-.491.42-.12.91-.184 1.42-.184.68 0 1.33.115 1.81.32.49.205.76.484.76.774zm20.87 76.967c0 .217-.14.43-.42.612-.28.181-.68.323-1.15.408-.47.085-.98.108-1.48.067-.5-.041-.96-.144-1.32-.297-.36-.152-.61-.347-.71-.56-.1-.213-.05-.433.14-.634s.52-.372.94-.493c.43-.121.92-.185 1.43-.185.34-.002.67.025.98.079.31.053.59.133.83.234.24.1.43.22.56.352.13.132.2.274.2.417zm24.89 66.329c.01.217-.14.429-.42.611-.28.181-.68.324-1.14.408-.47.085-.99.108-1.49.067-.5-.041-.96-.144-1.32-.296-.36-.153-.61-.348-.71-.561-.1-.212-.05-.433.14-.634.2-.2.53-.372.95-.493.42-.121.92-.185 1.43-.185.67 0 1.32.114 1.8.316.48.203.75.478.76.767zm-19.9 10.274c0 .216-.15.428-.44.608-.28.18-.68.32-1.15.403-.47.083-.98.105-1.48.062-.5-.042-.95-.146-1.31-.299-.36-.153-.6-.348-.7-.561-.1-.212-.05-.432.14-.632.2-.2.53-.371.95-.491.42-.12.91-.185 1.42-.185.68 0 1.33.116 1.81.321.49.205.76.484.76.774zm-63.55-39.166c0 .217-.14.429-.42.611-.28.181-.68.323-1.14.408-.47.085-.99.108-1.49.067-.5-.041-.96-.144-1.32-.297-.36-.152-.61-.347-.71-.56-.1-.212-.05-.433.14-.634.2-.2.53-.372.95-.493.42-.121.92-.185 1.43-.185.67 0 1.32.114 1.8.316.48.203.75.478.76.767zm16.51 49.758c0 .216-.15.428-.43.608s-.68.32-1.15.403c-.47.083-.98.105-1.48.062-.5-.042-.96-.146-1.31-.299-.36-.153-.61-.348-.71-.561-.09-.212-.04-.432.15-.632s.52-.371.94-.491c.43-.12.92-.185 1.43-.185.68 0 1.33.116 1.81.321.48.205.75.484.75.774zm83.59 63.386c0 .216-.15.428-.43.608s-.68.32-1.15.403c-.47.083-.99.105-1.48.062-.5-.042-.96-.146-1.32-.299-.35-.153-.6-.348-.7-.561-.1-.212-.05-.432.15-.632.19-.2.52-.371.94-.491.42-.12.92-.185 1.43-.185.68 0 1.33.116 1.81.321.48.205.75.484.75.774zM1444.73 13.91c0 .144-.06.287-.19.42-.13.132-.32.253-.56.354-.23.102-.52.183-.83.238-.31.055-.64.083-.98.083-.68 0-1.33-.115-1.81-.32-.48-.206-.75-.484-.75-.775 0-.29.27-.568.75-.774.48-.205 1.13-.32 1.81-.32.68 0 1.33.115 1.81.32.48.206.75.484.75.774zm211.65 5.803c.04.152 0 .306-.11.452-.11.146-.3.28-.54.394a3.56 3.56 0 01-.86.267c-.33.062-.68.094-1.04.094s-.72-.032-1.04-.094a3.647 3.647 0 01-.87-.267c-.24-.114-.42-.248-.53-.394-.11-.146-.15-.3-.11-.452.06-.27.36-.519.83-.7.47-.181 1.08-.282 1.72-.282.63 0 1.24.1 1.72.282.47.181.76.43.83.7zM1500.15 37.93c-.07.27-.37.519-.84.7-.47.181-1.08.282-1.71.282-.64 0-1.25-.1-1.72-.282-.47-.181-.77-.43-.83-.7-.04-.152 0-.306.11-.452.11-.146.29-.28.53-.394.24-.114.54-.205.86-.267a5.76 5.76 0 011.05-.094c.36 0 .71.032 1.04.094.33.063.62.154.86.267.24.114.42.248.53.394.12.146.15.3.12.453zm211.37 7.426c0 .218-.15.43-.44.61-.28.18-.68.32-1.15.403-.47.082-.99.103-1.49.06s-.95-.149-1.31-.303c-.36-.154-.6-.35-.7-.563-.09-.213-.04-.434.16-.634s.53-.37.96-.488c.42-.12.92-.181 1.43-.179.34 0 .67.028.98.084.31.055.59.136.82.237.24.102.43.223.55.356a.59.59 0 01.19.417zm-300.67 32.447c0 .217-.15.429-.43.61-.28.18-.69.32-1.16.402-.47.082-.98.103-1.48.06s-.96-.148-1.31-.302c-.36-.155-.6-.35-.7-.564-.09-.213-.04-.433.16-.633s.53-.37.95-.489a5.42 5.42 0 011.44-.179c.67.003 1.32.12 1.79.325.48.205.74.482.74.77zm208.26 14.911c0 .216-.15.428-.44.608-.28.18-.68.32-1.15.403-.47.083-.98.105-1.48.062a4.33 4.33 0 01-1.31-.3c-.36-.152-.6-.347-.7-.56-.1-.212-.05-.432.14-.632.2-.2.53-.37.95-.491.42-.12.92-.185 1.42-.185.68 0 1.33.116 1.82.321.48.205.75.484.75.774zM595.317 301.526c0 .217-.151.428-.432.608-.282.18-.682.32-1.151.403a5.83 5.83 0 01-1.481.063c-.498-.043-.955-.147-1.313-.3-.359-.153-.603-.348-.702-.56-.099-.213-.048-.433.146-.633s.523-.371.944-.491c.422-.12.918-.184 1.425-.184.68 0 1.332.115 1.813.32.481.205.751.484.751.774zM2041.79 138.741c0 .217-.15.428-.43.608s-.69.321-1.15.403a5.9 5.9 0 01-1.49.063c-.49-.043-.95-.147-1.31-.3-.36-.153-.6-.348-.7-.56-.1-.213-.05-.433.15-.633.19-.2.52-.371.94-.491.42-.12.92-.184 1.43-.184.33 0 .67.028.98.083.31.055.59.136.83.237.24.102.43.223.55.355.13.133.2.275.2.419zm129.79 52.465c.01.217-.14.43-.42.611-.28.182-.67.324-1.14.409-.47.084-.99.108-1.49.067a4.546 4.546 0 01-1.32-.297c-.36-.153-.6-.348-.7-.56-.11-.213-.06-.434.14-.634.19-.201.52-.373.94-.493.42-.121.92-.186 1.43-.186.67 0 1.32.114 1.8.317.48.202.75.478.76.766zm11.44 58.973c.01.217-.14.431-.42.612-.28.182-.68.324-1.15.409-.47.084-.98.107-1.48.065-.5-.042-.96-.147-1.32-.3-.36-.154-.61-.35-.71-.564-.1-.213-.04-.434.16-.635.19-.2.53-.371.95-.49.43-.12.93-.182 1.44-.18.67 0 1.31.114 1.79.317s.74.479.74.766zm110.97 59.573c-.07.269-.37.519-.84.7-.47.181-1.08.281-1.71.281-.64 0-1.25-.1-1.72-.281-.47-.181-.77-.431-.83-.7-.04-.152 0-.306.11-.452.11-.146.29-.28.53-.394.24-.114.54-.205.86-.267a5.76 5.76 0 012.09 0c.33.062.62.153.86.267.24.114.42.248.53.394.12.146.15.3.12.452zM291.979 542.879c.006.217-.14.429-.418.611-.279.181-.677.323-1.145.408a5.8 5.8 0 01-1.484.067c-.499-.041-.958-.144-1.319-.297-.362-.152-.609-.347-.71-.56-.101-.212-.052-.433.141-.634.194-.2.522-.372.944-.493a5.292 5.292 0 011.428-.185c.675 0 1.323.114 1.803.316.48.203.753.478.76.767zM5.1 622.906c0 .29-.27.568-.75.773-.482.206-1.134.321-1.814.321-.675-.003-1.32-.12-1.795-.325-.475-.205-.741-.481-.741-.769 0-.289.266-.565.741-.77.475-.205 1.12-.322 1.795-.325.68 0 1.332.115 1.813.321.481.205.751.483.751.774zm188.68-63.187c.005.217-.14.43-.419.612-.278.181-.677.323-1.145.408a5.793 5.793 0 01-1.483.067c-.499-.041-.959-.144-1.32-.297-.361-.152-.608-.347-.709-.56-.102-.213-.052-.433.141-.634.193-.201.522-.372.944-.493a5.284 5.284 0 011.427-.185c.675 0 1.323.113 1.803.316s.754.478.761.766zm-41.739 48.052c0 .217-.151.428-.432.608-.282.18-.682.321-1.151.403a5.83 5.83 0 01-1.481.063c-.498-.043-.954-.147-1.313-.3s-.603-.348-.702-.56c-.099-.213-.048-.433.146-.633s.523-.371.945-.491c.421-.12.917-.184 1.424-.184.68 0 1.332.115 1.813.32.481.206.751.484.751.774zm23.957-26.868c0 .217-.15.428-.432.608-.282.18-.682.32-1.151.403a5.83 5.83 0 01-1.481.063c-.497-.043-.954-.147-1.313-.3-.358-.153-.602-.348-.701-.56-.099-.213-.049-.433.146-.633.194-.2.522-.371.944-.491.421-.12.917-.184 1.424-.184.68 0 1.332.115 1.813.32.481.205.751.484.751.774zm75.014 34.906c0 .217-.15.428-.432.608-.282.18-.682.321-1.15.404a5.885 5.885 0 01-1.482.062 4.362 4.362 0 01-1.313-.3c-.358-.153-.602-.348-.701-.56-.099-.212-.048-.433.146-.633s.522-.37.944-.491c.422-.12.917-.184 1.424-.184.68 0 1.333.115 1.813.32.481.206.751.484.751.774z" fill="#FEF" opacity=".55"/><g opacity=".5" stroke-width=".25" stroke-miterlimit="10"><path style="mix-blend-mode:color-dodge" opacity=".5" d="M113.169 142.107s528.105 146.097 986.761 176.13" stroke="url(#paint0_linear)"/><path style="mix-blend-mode:color-dodge" opacity=".5" d="M113.169 154.699s521.709 143.696 986.761 163.585" stroke="url(#paint1_linear)"/><path style="mix-blend-mode:color-dodge" opacity=".5" d="M113.169 167.245s515.313 141.33 986.761 150.993" stroke="url(#paint2_linear)"/><path style="mix-blend-mode:color-dodge" opacity=".5" d="M113.169 179.885s508.917 138.87 986.761 138.352" stroke="url(#paint3_linear)"/><path style="mix-blend-mode:color-dodge" opacity=".5" d="M113.169 192.477s502.549 136.517 986.761 125.76" stroke="url(#paint4_linear)"/><path style="mix-blend-mode:color-dodge" opacity=".5" d="M113.169 205.07s496.235 134.069 986.761 113.167" stroke="url(#paint5_linear)"/><path style="mix-blend-mode:color-dodge" opacity=".5" d="M113.169 217.662S602.926 349.33 1099.93 318.237" stroke="url(#paint6_linear)"/><path style="mix-blend-mode:color-dodge" opacity=".5" d="M113.169 230.255s483.361 129.267 986.761 87.982" stroke="url(#paint7_linear)"/><path style="mix-blend-mode:color-dodge" opacity=".5" d="M113.169 242.847s476.937 126.82 986.761 75.39" stroke="url(#paint8_linear)"/><path style="mix-blend-mode:color-dodge" opacity=".5" d="M113.169 255.51s470.597 124.384 986.761 62.727" stroke="url(#paint9_linear)"/><path style="mix-blend-mode:color-dodge" opacity=".5" d="M113.169 268.044s464.201 122.041 986.761 50.193" stroke="url(#paint10_linear)"/><path style="mix-blend-mode:color-dodge" opacity=".5" d="M113.169 280.636s457.805 119.629 986.761 37.601" stroke="url(#paint11_linear)"/><path style="mix-blend-mode:color-dodge" opacity=".5" d="M113.169 293.229s451.409 117.228 986.761 25.008" stroke="url(#paint12_linear)"/><path style="mix-blend-mode:color-dodge" opacity=".5" d="M113.169 305.821s445.013 114.827 986.761 12.416" stroke="url(#paint13_linear)"/><path style="mix-blend-mode:color-dodge" opacity=".5" d="M113.169 318.414s438.645 112.45 986.761-.177" stroke="url(#paint14_linear)"/><path style="mix-blend-mode:color-dodge" opacity=".5" d="M113.169 331.006s432.249 110.014 986.761-12.769" stroke="url(#paint15_linear)"/><path style="mix-blend-mode:color-dodge" opacity=".5" d="M113.169 343.599s425.853 107.613 986.761-25.362" stroke="url(#paint16_linear)"/></g><g style="mix-blend-mode:color-dodge" opacity=".3" stroke-width=".25" stroke-miterlimit="10"><path style="mix-blend-mode:color-dodge" opacity=".3" d="M1390.2 249.555s250.44-199.267 790.62-95.326" stroke="url(#paint17_linear)"/><path style="mix-blend-mode:color-dodge" opacity=".3" d="M1390.2 249.555s65.29-46.074 198.86-79.368c131.36-32.776 329.86-54.042 591.76-9.144" stroke="url(#paint18_linear)"/><path style="mix-blend-mode:color-dodge" opacity=".3" d="M1390.2 249.555s66.94-41.531 201.78-71.2c132.3-29.245 333.06-48.77 588.84-10.498" stroke="url(#paint19_linear)"/><path style="mix-blend-mode:color-dodge" opacity=".3" d="M1390.2 249.555s68.59-36.977 204.7-63.045c133.38-25.702 336.17-43.45 585.92-11.827" stroke="url(#paint20_linear)"/><path style="mix-blend-mode:color-dodge" opacity=".3" d="M1390.2 249.555s70.25-32.434 207.62-54.877c134.46-22.172 339.32-38.154 583-13.181" stroke="url(#paint21_linear)"/><path style="mix-blend-mode:color-dodge" opacity=".3" d="M1390.2 249.555s71.93-27.88 210.55-46.71c135.52-18.641 342.45-32.858 580.07-14.534" stroke="url(#paint22_linear)"/><path style="mix-blend-mode:color-dodge" opacity=".3" d="M1390.2 249.555s73.64-23.208 213.47-38.542c136.68-14.994 345.57-27.562 577.15-15.888" stroke="url(#paint23_linear)"/><path style="mix-blend-mode:color-dodge" opacity=".3" d="M1390.2 249.555s75.29-18.653 216.39-30.386c137.84-11.44 348.72-22.255 574.23-17.23" stroke="url(#paint24_linear)"/><path style="mix-blend-mode:color-dodge" opacity=".3" d="M1390.2 249.555s76.92-14.122 219.31-22.219c138.78-7.909 351.86-16.959 571.31-18.583" stroke="url(#paint25_linear)"/><path style="mix-blend-mode:color-dodge" opacity=".3" d="M1390.2 249.555s78.57-9.556 222.23-14.051c139.86-4.378 355.01-11.663 568.39-19.937" stroke="url(#paint26_linear)"/><path style="mix-blend-mode:color-dodge" opacity=".3" d="M1390.2 249.555s80.2-5.013 225.16-5.884c140.9-.859 358.11-6.367 565.46-21.29" stroke="url(#paint27_linear)"/><path style="mix-blend-mode:color-dodge" opacity=".3" d="M1390.2 249.555s81.86-.588 228.08 2.272c141.98 2.565 361.15-1.071 562.4-22.631" stroke="url(#paint28_linear)"/><path style="mix-blend-mode:color-dodge" opacity=".3" d="M1390.2 249.555s83.51 3.966 231 10.439c143.06 6.096 364.4 4.225 559.65-23.984" stroke="url(#paint29_linear)"/><path style="mix-blend-mode:color-dodge" opacity=".3" d="M1390.2 249.555s85.16 8.509 233.92 18.607c144.13 9.626 367.55 9.52 556.7-25.339" stroke="url(#paint30_linear)"/><path style="mix-blend-mode:color-dodge" opacity=".3" d="M1390.2 249.555s86.82 13.063 236.85 26.774c145.2 13.157 370.66 14.817 553.77-26.703" stroke="url(#paint31_linear)"/><path style="mix-blend-mode:color-dodge" opacity=".3" d="M1390.2 249.555s88.5 17.653 239.85 34.941c146.28 16.688 373.8 20.113 550.85-28.033" stroke="url(#paint32_linear)"/><path style="mix-blend-mode:color-dodge" opacity=".3" d="M1390.2 249.555s90.15 22.161 242.61 43.097c147.44 20.231 377.08 25.421 548.01-29.375" stroke="url(#paint33_linear)"/></g><g style="mix-blend-mode:color-dodge" opacity=".8" stroke-width=".5" stroke-miterlimit="10"><path style="mix-blend-mode:color-dodge" opacity=".8" d="M113.169 233.762s246.326-57.396 787.305 60.432c289.116 62.963 429.766-8.014 568.856-7.861 209.52.223 324.37 91.419 711.49-12.146" stroke="url(#paint34_linear)"/><path style="mix-blend-mode:color-dodge" opacity=".8" d="M113.169 243.965s261.626-72.424 797.726 42.897c299.975 63.88 428.085 6.296 573.425 5.943 211.45-.282 333.58 80.404 696.39-16.688" stroke="url(#paint35_linear)"/><path style="mix-blend-mode:color-dodge" opacity=".8" d="M113.169 254.169s276.017-86.618 808.175 25.361c310.226 65.281 426.376 20.454 578.166 19.748 213.44-.988 342.57 69.435 681.31-21.184" stroke="url(#paint36_linear)"/><path style="mix-blend-mode:color-dodge" opacity=".8" d="M113.169 264.36s291.015-101.34 818.596 7.838c320.875 66.399 424.745 34.706 582.855 33.553 215.37-1.565 351.67 58.384 666.2-25.762" stroke="url(#paint37_linear)"/><path style="mix-blend-mode:color-dodge" opacity=".8" d="M113.169 274.564s306.012-116.145 829.017-9.639c331.544 67.482 423.044 48.958 587.544 47.358 217.32-2.119 360.76 47.38 651.09-30.293" stroke="url(#paint38_linear)"/><path style="mix-blend-mode:color-dodge" opacity=".8" d="M113.169 284.767s321.257-131.021 839.438-27.232c342.263 68.54 421.363 63.233 592.233 61.197 219.28-2.66 369.83 36.365 635.98-34.836" stroke="url(#paint39_linear)"/><path style="mix-blend-mode:color-dodge" opacity=".8" d="M113.169 294.959s336.503-145.932 849.858-44.721c353.013 69.577 419.673 77.509 596.913 74.967 221.13-3.213 378.93 25.326 620.88-39.402" stroke="url(#paint40_linear)"/><path style="mix-blend-mode:color-dodge" opacity=".8" d="M113.169 305.162s351.803-160.925 860.279-62.291c363.902 70.612 417.992 91.796 601.602 88.771 223.31-3.684 388.03 14.346 605.77-43.909" stroke="url(#paint41_linear)"/><path style="mix-blend-mode:color-dodge" opacity=".8" d="M113.169 315.366S480.356 139.4 983.897 235.504C1358.53 307.022 1400.18 341.61 1590.16 338.08c225.1-4.155 397.1 3.342 590.66-48.44" stroke="url(#paint42_linear)"/><path style="mix-blend-mode:color-dodge" opacity=".8" d="M113.169 325.558s382.598-191.042 881.149-97.351c385.492 72.436 414.582 120.417 610.952 116.381 227.05-4.708 406.19-7.673 575.55-52.959" stroke="url(#paint43_linear)"/><path style="mix-blend-mode:color-dodge" opacity=".8" d="M113.169 335.761s398.064-206.176 891.571-114.886c396.41 73.319 412.95 134.74 615.63 130.185 229.02-5.143 415.27-18.677 560.45-57.513" stroke="url(#paint44_linear)"/><path style="mix-blend-mode:color-dodge" opacity=".8" d="M113.169 345.964s413.53-221.345 901.991-132.421c407.35 74.143 411.3 149.074 620.29 143.99 231.08-5.614 424.4-29.692 545.37-62.009" stroke="url(#paint45_linear)"/><path style="mix-blend-mode:color-dodge" opacity=".8" d="M113.169 356.156s429.078-236.551 912.521-149.945c418.24 74.955 409.51 163.456 624.9 157.795 232.9-6.108 433.46-40.696 530.23-66.587" stroke="url(#paint46_linear)"/><path style="mix-blend-mode:color-dodge" opacity=".8" d="M113.169 366.36S557.796 114.509 1036 198.879c429.38 75.708 408.02 177.943 629.7 171.6 234.88-6.332 442.53-51.712 515.12-71.13" stroke="url(#paint47_linear)"/><path style="mix-blend-mode:color-dodge" opacity=".8" d="M113.169 376.563S573.4 109.473 1046.45 191.547c440.41 76.415 406.28 192.242 634.33 185.405 236.87-6.838 451.65-62.716 500.04-75.661" stroke="url(#paint48_linear)"/><path style="mix-blend-mode:color-dodge" opacity=".8" d="M113.169 386.755s476.138-282.72 943.701-202.539c451.82 76.755 404.63 206.552 639.01 199.208 238.83-7.343 460.73-73.778 484.94-80.203" stroke="url(#paint49_linear)"/><path style="mix-blend-mode:color-dodge" opacity=".8" d="M113.169 396.958S604.635 99.21 1067.29 176.883c462.66 77.674 402.95 220.864 643.7 213.014 240.76-7.85 469.83-84.735 469.83-84.735" stroke="url(#paint50_linear)"/></g><g style="mix-blend-mode:color-dodge" opacity=".8" stroke-width=".25" stroke-miterlimit="10"><path style="mix-blend-mode:color-dodge" opacity=".8" d="M113.169 235.927s246.326-57.396 787.305 60.421c289.116 62.962 429.766-8.003 568.856-7.85 209.52.224 324.37 91.408 711.49-12.157" stroke="url(#paint51_linear)"/><path style="mix-blend-mode:color-dodge" opacity=".8" d="M113.169 246.095s261.626-72.424 797.726 42.885c299.975 63.893 428.085 6.308 573.425 5.955 211.45-.282 333.58 80.404 696.39-16.688" stroke="url(#paint52_linear)"/><path style="mix-blend-mode:color-dodge" opacity=".8" d="M113.169 256.334s276.017-86.617 808.175 25.362c310.226 65.281 426.376 20.454 578.166 19.712 213.44-.988 342.57 69.436 681.31-21.183" stroke="url(#paint53_linear)"/><path style="mix-blend-mode:color-dodge" opacity=".8" d="M113.169 266.526s291.015-101.34 818.596 7.814c320.875 66.423 424.745 34.73 582.855 33.576 215.37-1.565 351.67 58.385 666.2-25.761" stroke="url(#paint54_linear)"/><path style="mix-blend-mode:color-dodge" opacity=".8" d="M113.169 276.694s306.012-116.145 829.017-9.697c331.624 67.517 423.044 48.993 587.544 47.357 217.32-2.119 360.76 47.381 651.09-30.293" stroke="url(#paint55_linear)"/><path style="mix-blend-mode:color-dodge" opacity=".8" d="M113.169 286.933S434.426 155.912 952.607 259.7c342.263 68.541 421.363 63.233 592.233 61.197 219.28-2.66 369.83 36.365 635.98-34.835" stroke="url(#paint56_linear)"/><path style="mix-blend-mode:color-dodge" opacity=".8" d="M113.169 297.124s336.503-145.932 849.858-44.721c353.013 69.542 419.673 77.474 596.913 74.896 221.13-3.142 378.93 25.397 620.88-39.331" stroke="url(#paint57_linear)"/><path style="mix-blend-mode:color-dodge" opacity=".8" d="M113.169 307.293s351.803-160.89 860.279-62.257c363.902 70.612 417.992 91.796 601.602 88.772 223.31-3.684 388.03 14.346 605.77-43.909" stroke="url(#paint58_linear)"/><path style="mix-blend-mode:color-dodge" opacity=".8" d="M113.169 317.531s367.187-175.965 870.728-79.827c374.633 71.519 416.313 106.072 606.263 102.541 225.1-4.19 396.99 3.342 590.66-48.44" stroke="url(#paint59_linear)"/><path style="mix-blend-mode:color-dodge" opacity=".8" d="M113.169 327.723s382.598-191.077 881.149-97.351c385.492 72.437 414.582 120.465 610.952 116.381 227.05-4.707 406.19-7.673 575.55-52.959" stroke="url(#paint60_linear)"/><path style="mix-blend-mode:color-dodge" opacity=".8" d="M113.169 337.891s398.064-206.14 891.571-114.851c396.41 73.319 412.95 134.74 615.63 130.15 229.02-5.154 415.27-18.676 560.45-57.513" stroke="url(#paint61_linear)"/><path style="mix-blend-mode:color-dodge" opacity=".8" d="M113.169 348.13s413.53-221.346 901.991-132.422c407.35 74.143 411.3 149.074 620.29 143.99 231.08-5.613 424.4-29.692 545.37-62.056" stroke="url(#paint62_linear)"/><path style="mix-blend-mode:color-dodge" opacity=".8" d="M113.169 358.322s429.078-236.551 912.521-149.886c418.24 74.896 409.51 163.349 624.9 157.7 232.9-6.073 433.46-40.696 530.23-66.587" stroke="url(#paint63_linear)"/><path style="mix-blend-mode:color-dodge" opacity=".8" d="M113.169 368.49S557.796 116.64 1036 201.01c429.38 75.708 408.02 177.942 629.7 171.599 234.88-6.332 442.53-51.712 515.12-71.13" stroke="url(#paint64_linear)"/><path style="mix-blend-mode:color-dodge" opacity=".8" d="M113.169 378.729S573.4 111.638 1046.45 193.713c440.41 76.414 406.28 192.253 634.33 185.369 236.87-6.838 451.65-62.716 500.04-75.661" stroke="url(#paint65_linear)"/><path style="mix-blend-mode:color-dodge" opacity=".8" d="M113.169 388.92s476.138-282.719 943.701-202.539c451.82 76.755 404.63 206.552 639.01 199.209 238.83-7.344 460.73-73.731 484.94-80.204" stroke="url(#paint66_linear)"/><path style="mix-blend-mode:color-dodge" opacity=".8" d="M113.169 399.089S604.635 101.34 1067.29 179.014c462.66 77.673 402.95 220.898 643.7 213.013 240.76-7.885 469.83-84.734 469.83-84.734" stroke="url(#paint67_linear)"/></g><path style="mix-blend-mode:color-dodge" d="M113.169 199.256s269.015 163.585 649.462 166.703c375.729 3.107 878.059-280.095 1418.189-135.34" stroke="url(#paint68_linear)" stroke-miterlimit="10"/><path style="mix-blend-mode:color-dodge" d="M113.169 415.212S461.223 152.97 875.387 145.026c445.043-8.521 584.453 186.251 834.313 219.321 282.05 37.331 471.12-1.506 471.12-1.506" stroke="url(#paint69_linear)" stroke-miterlimit="10"/><path style="mix-blend-mode:color-dodge" d="M113.169 176.895S300.415 140.412 509 160.031c190.637 17.924 609.57 182.015 814.71 211.836 230.89 33.553 599.12 4.708 857.11-194.583" stroke="url(#paint70_linear)" stroke-miterlimit="10"/><path style="mix-blend-mode:color-dodge" d="M113.169 347.388s232.734 51.783 520.827 30.752c247.07-17.994 560.554-171.47 849.114-171.305 277.53.165 457.86 50.076 697.71 185.427" stroke="url(#paint71_linear)" stroke-miterlimit="10"/><path style="mix-blend-mode:color-dodge" d="M2180.82 206.27s-493.7-163.15-1112.12-7.132c-483.832 122.054-585.422 156.807-955.531 62.786" stroke="url(#paint72_linear)" stroke-miterlimit="10"/><path style="mix-blend-mode:color-dodge" d="M2180.82 210.083s-493.7-163.15-1112.12-7.132c-483.832 122.053-585.422 156.806-955.531 62.786" stroke="url(#paint73_linear)" stroke-width=".25" stroke-miterlimit="10"/><defs><linearGradient id="paint0_linear" x1="112.976" y1="230.184" x2="1099.99" y2="230.184" gradientUnits="userSpaceOnUse"><stop stop-color="#87888A"/><stop offset=".5" stop-color="#E5E5E5"/><stop offset="1" stop-color="#7D7E80"/></linearGradient><linearGradient id="paint1_linear" x1="44.095" y1="30553.7" x2="353325" y2="30553.7" gradientUnits="userSpaceOnUse"><stop stop-color="#87888A"/><stop offset=".5" stop-color="#E5E5E5"/><stop offset="1" stop-color="#7D7E80"/></linearGradient><linearGradient id="paint2_linear" x1="44.095" y1="29034" x2="353316" y2="29034" gradientUnits="userSpaceOnUse"><stop stop-color="#87888A"/><stop offset=".5" stop-color="#E5E5E5"/><stop offset="1" stop-color="#7D7E80"/></linearGradient><linearGradient id="paint3_linear" x1="44.095" y1="27370.7" x2="353316" y2="27370.7" gradientUnits="userSpaceOnUse"><stop stop-color="#87888A"/><stop offset=".5" stop-color="#E5E5E5"/><stop offset="1" stop-color="#7D7E80"/></linearGradient><linearGradient id="paint4_linear" x1="44.095" y1="25735.7" x2="353316" y2="25735.7" gradientUnits="userSpaceOnUse"><stop stop-color="#87888A"/><stop offset=".5" stop-color="#E5E5E5"/><stop offset="1" stop-color="#7D7E80"/></linearGradient><linearGradient id="paint5_linear" x1="44.095" y1="24223.8" x2="353325" y2="24223.8" gradientUnits="userSpaceOnUse"><stop stop-color="#87888A"/><stop offset=".5" stop-color="#E5E5E5"/><stop offset="1" stop-color="#7D7E80"/></linearGradient><linearGradient id="paint6_linear" x1="44.095" y1="22820.9" x2="353325" y2="22820.9" gradientUnits="userSpaceOnUse"><stop stop-color="#87888A"/><stop offset=".5" stop-color="#E5E5E5"/><stop offset="1" stop-color="#7D7E80"/></linearGradient><linearGradient id="paint7_linear" x1="44.095" y1="21510" x2="353335" y2="21510" gradientUnits="userSpaceOnUse"><stop stop-color="#87888A"/><stop offset=".5" stop-color="#E5E5E5"/><stop offset="1" stop-color="#7D7E80"/></linearGradient><linearGradient id="paint8_linear" x1="44.095" y1="20274.2" x2="353335" y2="20274.2" gradientUnits="userSpaceOnUse"><stop stop-color="#87888A"/><stop offset=".5" stop-color="#E5E5E5"/><stop offset="1" stop-color="#7D7E80"/></linearGradient><linearGradient id="paint9_linear" x1="44.095" y1="19100.9" x2="353345" y2="19100.9" gradientUnits="userSpaceOnUse"><stop stop-color="#87888A"/><stop offset=".5" stop-color="#E5E5E5"/><stop offset="1" stop-color="#7D7E80"/></linearGradient><linearGradient id="paint10_linear" x1="44.095" y1="18013.7" x2="353345" y2="18013.7" gradientUnits="userSpaceOnUse"><stop stop-color="#87888A"/><stop offset=".5" stop-color="#E5E5E5"/><stop offset="1" stop-color="#7D7E80"/></linearGradient><linearGradient id="paint11_linear" x1="44.095" y1="16968.8" x2="353355" y2="16968.8" gradientUnits="userSpaceOnUse"><stop stop-color="#87888A"/><stop offset=".5" stop-color="#E5E5E5"/><stop offset="1" stop-color="#7D7E80"/></linearGradient><linearGradient id="paint12_linear" x1="53.963" y1="15975.5" x2="353355" y2="15975.5" gradientUnits="userSpaceOnUse"><stop stop-color="#87888A"/><stop offset=".5" stop-color="#E5E5E5"/><stop offset="1" stop-color="#7D7E80"/></linearGradient><linearGradient id="paint13_linear" x1="53.963" y1="15029.9" x2="353365" y2="15029.9" gradientUnits="userSpaceOnUse"><stop stop-color="#87888A"/><stop offset=".5" stop-color="#E5E5E5"/><stop offset="1" stop-color="#7D7E80"/></linearGradient><linearGradient id="paint14_linear" x1="53.963" y1="14176" x2="353365" y2="14176" gradientUnits="userSpaceOnUse"><stop stop-color="#87888A"/><stop offset=".5" stop-color="#E5E5E5"/><stop offset="1" stop-color="#7D7E80"/></linearGradient><linearGradient id="paint15_linear" x1="53.963" y1="16582.7" x2="353365" y2="16582.7" gradientUnits="userSpaceOnUse"><stop stop-color="#87888A"/><stop offset=".5" stop-color="#E5E5E5"/><stop offset="1" stop-color="#7D7E80"/></linearGradient><linearGradient id="paint16_linear" x1="53.963" y1="19167.5" x2="353375" y2="19167.5" gradientUnits="userSpaceOnUse"><stop stop-color="#87888A"/><stop offset=".5" stop-color="#E5E5E5"/><stop offset="1" stop-color="#7D7E80"/></linearGradient><linearGradient id="paint17_linear" x1="367531" y1="18131.3" x2="594390" y2="18131.3" gradientUnits="userSpaceOnUse"><stop stop-color="#87888A"/><stop offset=".5" stop-color="#E5E5E5"/><stop offset="1" stop-color="#7D7E80"/></linearGradient><linearGradient id="paint18_linear" x1="367539" y1="17075.7" x2="594390" y2="17075.7" gradientUnits="userSpaceOnUse"><stop stop-color="#87888A"/><stop offset=".5" stop-color="#E5E5E5"/><stop offset="1" stop-color="#7D7E80"/></linearGradient><linearGradient id="paint19_linear" x1="367539" y1="15917.1" x2="594382" y2="15917.1" gradientUnits="userSpaceOnUse"><stop stop-color="#87888A"/><stop offset=".5" stop-color="#E5E5E5"/><stop offset="1" stop-color="#7D7E80"/></linearGradient><linearGradient id="paint20_linear" x1="367539" y1="14655.1" x2="594382" y2="14655.1" gradientUnits="userSpaceOnUse"><stop stop-color="#87888A"/><stop offset=".5" stop-color="#E5E5E5"/><stop offset="1" stop-color="#7D7E80"/></linearGradient><linearGradient id="paint21_linear" x1="367547" y1="13296.8" x2="594374" y2="13296.8" gradientUnits="userSpaceOnUse"><stop stop-color="#87888A"/><stop offset=".5" stop-color="#E5E5E5"/><stop offset="1" stop-color="#7D7E80"/></linearGradient><linearGradient id="paint22_linear" x1="367555" y1="11850" x2="594366" y2="11850" gradientUnits="userSpaceOnUse"><stop stop-color="#87888A"/><stop offset=".5" stop-color="#E5E5E5"/><stop offset="1" stop-color="#7D7E80"/></linearGradient><linearGradient id="paint23_linear" x1="367563" y1="10332.3" x2="594358" y2="10332.3" gradientUnits="userSpaceOnUse"><stop stop-color="#87888A"/><stop offset=".5" stop-color="#E5E5E5"/><stop offset="1" stop-color="#7D7E80"/></linearGradient><linearGradient id="paint24_linear" x1="367571" y1="8811.51" x2="594358" y2="8811.51" gradientUnits="userSpaceOnUse"><stop stop-color="#87888A"/><stop offset=".5" stop-color="#E5E5E5"/><stop offset="1" stop-color="#7D7E80"/></linearGradient><linearGradient id="paint25_linear" x1="367579" y1="7536.81" x2="594350" y2="7536.81" gradientUnits="userSpaceOnUse"><stop stop-color="#87888A"/><stop offset=".5" stop-color="#E5E5E5"/><stop offset="1" stop-color="#7D7E80"/></linearGradient><linearGradient id="paint26_linear" x1="367594" y1="6418.38" x2="594358" y2="6418.38" gradientUnits="userSpaceOnUse"><stop stop-color="#87888A"/><stop offset=".5" stop-color="#E5E5E5"/><stop offset="1" stop-color="#7D7E80"/></linearGradient><linearGradient id="paint27_linear" x1="367602" y1="5260.43" x2="594366" y2="5260.43" gradientUnits="userSpaceOnUse"><stop stop-color="#87888A"/><stop offset=".5" stop-color="#E5E5E5"/><stop offset="1" stop-color="#7D7E80"/></linearGradient><linearGradient id="paint28_linear" x1="367554" y1="4654.59" x2="594271" y2="4654.59" gradientUnits="userSpaceOnUse"><stop stop-color="#87888A"/><stop offset=".5" stop-color="#E5E5E5"/><stop offset="1" stop-color="#7D7E80"/></linearGradient><linearGradient id="paint29_linear" x1="367623" y1="5517.03" x2="594403" y2="5517.03" gradientUnits="userSpaceOnUse"><stop stop-color="#87888A"/><stop offset=".5" stop-color="#E5E5E5"/><stop offset="1" stop-color="#7D7E80"/></linearGradient><linearGradient id="paint30_linear" x1="367594" y1="6535.41" x2="594390" y2="6535.41" gradientUnits="userSpaceOnUse"><stop stop-color="#87888A"/><stop offset=".5" stop-color="#E5E5E5"/><stop offset="1" stop-color="#7D7E80"/></linearGradient><linearGradient id="paint31_linear" x1="367587" y1="7675.53" x2="594398" y2="7675.53" gradientUnits="userSpaceOnUse"><stop stop-color="#87888A"/><stop offset=".5" stop-color="#E5E5E5"/><stop offset="1" stop-color="#7D7E80"/></linearGradient><linearGradient id="paint32_linear" x1="367617" y1="10243.1" x2="594468" y2="10243.1" gradientUnits="userSpaceOnUse"><stop stop-color="#87888A"/><stop offset=".5" stop-color="#E5E5E5"/><stop offset="1" stop-color="#7D7E80"/></linearGradient><linearGradient id="paint33_linear" x1="367571" y1="12929.6" x2="594414" y2="12929.6" gradientUnits="userSpaceOnUse"><stop stop-color="#87888A"/><stop offset=".5" stop-color="#E5E5E5"/><stop offset="1" stop-color="#7D7E80"/></linearGradient><linearGradient id="paint34_linear" x1="-134.949" y1="22630" x2="1551120" y2="22630" gradientUnits="userSpaceOnUse"><stop stop-color="#87888A"/><stop offset=".5" stop-color="#E5E5E5"/><stop offset="1" stop-color="#7D7E80"/></linearGradient><linearGradient id="paint35_linear" x1="-176.286" y1="22422.6" x2="1551040" y2="22422.6" gradientUnits="userSpaceOnUse"><stop stop-color="#87888A"/><stop offset=".5" stop-color="#E5E5E5"/><stop offset="1" stop-color="#7D7E80"/></linearGradient><linearGradient id="paint36_linear" x1="-196.978" y1="22414.3" x2="1551120" y2="22414.3" gradientUnits="userSpaceOnUse"><stop stop-color="#87888A"/><stop offset=".5" stop-color="#E5E5E5"/><stop offset="1" stop-color="#7D7E80"/></linearGradient><linearGradient id="paint37_linear" x1="-217.655" y1="22678.5" x2="1551120" y2="22678.5" gradientUnits="userSpaceOnUse"><stop stop-color="#87888A"/><stop offset=".5" stop-color="#E5E5E5"/><stop offset="1" stop-color="#7D7E80"/></linearGradient><linearGradient id="paint38_linear" x1="-238.331" y1="23180.1" x2="1551120" y2="23180.1" gradientUnits="userSpaceOnUse"><stop stop-color="#87888A"/><stop offset=".5" stop-color="#E5E5E5"/><stop offset="1" stop-color="#7D7E80"/></linearGradient><linearGradient id="paint39_linear" x1="-238.331" y1="23896.3" x2="1551120" y2="23896.3" gradientUnits="userSpaceOnUse"><stop stop-color="#87888A"/><stop offset=".5" stop-color="#E5E5E5"/><stop offset="1" stop-color="#7D7E80"/></linearGradient><linearGradient id="paint40_linear" x1="-259.008" y1="24859.6" x2="1551120" y2="24859.6" gradientUnits="userSpaceOnUse"><stop stop-color="#87888A"/><stop offset=".5" stop-color="#E5E5E5"/><stop offset="1" stop-color="#7D7E80"/></linearGradient><linearGradient id="paint41_linear" x1="-259.008" y1="26295" x2="1551120" y2="26295" gradientUnits="userSpaceOnUse"><stop stop-color="#87888A"/><stop offset=".5" stop-color="#E5E5E5"/><stop offset="1" stop-color="#7D7E80"/></linearGradient><linearGradient id="paint42_linear" x1="-279.684" y1="28684.7" x2="1551120" y2="28684.7" gradientUnits="userSpaceOnUse"><stop stop-color="#87888A"/><stop offset=".5" stop-color="#E5E5E5"/><stop offset="1" stop-color="#7D7E80"/></linearGradient><linearGradient id="paint43_linear" x1="-279.684" y1="31170.8" x2="1551120" y2="31170.8" gradientUnits="userSpaceOnUse"><stop stop-color="#87888A"/><stop offset=".5" stop-color="#E5E5E5"/><stop offset="1" stop-color="#7D7E80"/></linearGradient><linearGradient id="paint44_linear" x1="-279.684" y1="33724.6" x2="1551120" y2="33724.6" gradientUnits="userSpaceOnUse"><stop stop-color="#87888A"/><stop offset=".5" stop-color="#E5E5E5"/><stop offset="1" stop-color="#7D7E80"/></linearGradient><linearGradient id="paint45_linear" x1="-300.361" y1="36339.2" x2="1551120" y2="36339.2" gradientUnits="userSpaceOnUse"><stop stop-color="#87888A"/><stop offset=".5" stop-color="#E5E5E5"/><stop offset="1" stop-color="#7D7E80"/></linearGradient><linearGradient id="paint46_linear" x1="-300.361" y1="39004.2" x2="1551120" y2="39004.2" gradientUnits="userSpaceOnUse"><stop stop-color="#87888A"/><stop offset=".5" stop-color="#E5E5E5"/><stop offset="1" stop-color="#7D7E80"/></linearGradient><linearGradient id="paint47_linear" x1="-300.361" y1="41717.5" x2="1551120" y2="41717.5" gradientUnits="userSpaceOnUse"><stop stop-color="#87888A"/><stop offset=".5" stop-color="#E5E5E5"/><stop offset="1" stop-color="#7D7E80"/></linearGradient><linearGradient id="paint48_linear" x1="-300.361" y1="44453.4" x2="1551120" y2="44453.4" gradientUnits="userSpaceOnUse"><stop stop-color="#87888A"/><stop offset=".5" stop-color="#E5E5E5"/><stop offset="1" stop-color="#7D7E80"/></linearGradient><linearGradient id="paint49_linear" x1="-300.361" y1="48169.1" x2="1551120" y2="48169.1" gradientUnits="userSpaceOnUse"><stop stop-color="#87888A"/><stop offset=".5" stop-color="#E5E5E5"/><stop offset="1" stop-color="#7D7E80"/></linearGradient><linearGradient id="paint50_linear" x1="-300.361" y1="52158.2" x2="1551160" y2="52158.2" gradientUnits="userSpaceOnUse"><stop stop-color="#87888A"/><stop offset=".5" stop-color="#E5E5E5"/><stop offset="1" stop-color="#7D7E80"/></linearGradient><linearGradient id="paint51_linear" x1="-10.89" y1="22821.8" x2="1550990" y2="22821.8" gradientUnits="userSpaceOnUse"><stop stop-color="#87888A"/><stop offset=".5" stop-color="#E5E5E5"/><stop offset="1" stop-color="#7D7E80"/></linearGradient><linearGradient id="paint52_linear" x1="-31.559" y1="22613.7" x2="1550910" y2="22613.7" gradientUnits="userSpaceOnUse"><stop stop-color="#87888A"/><stop offset=".5" stop-color="#E5E5E5"/><stop offset="1" stop-color="#7D7E80"/></linearGradient><linearGradient id="paint53_linear" x1="-31.566" y1="22596.8" x2="1550990" y2="22596.8" gradientUnits="userSpaceOnUse"><stop stop-color="#87888A"/><stop offset=".5" stop-color="#E5E5E5"/><stop offset="1" stop-color="#7D7E80"/></linearGradient><linearGradient id="paint54_linear" x1="-52.243" y1="22871.3" x2="1550990" y2="22871.3" gradientUnits="userSpaceOnUse"><stop stop-color="#87888A"/><stop offset=".5" stop-color="#E5E5E5"/><stop offset="1" stop-color="#7D7E80"/></linearGradient><linearGradient id="paint55_linear" x1="-52.243" y1="23368.4" x2="1550990" y2="23368.4" gradientUnits="userSpaceOnUse"><stop stop-color="#87888A"/><stop offset=".5" stop-color="#E5E5E5"/><stop offset="1" stop-color="#7D7E80"/></linearGradient><linearGradient id="paint56_linear" x1="-72.919" y1="24098.8" x2="1550990" y2="24098.8" gradientUnits="userSpaceOnUse"><stop stop-color="#87888A"/><stop offset=".5" stop-color="#E5E5E5"/><stop offset="1" stop-color="#7D7E80"/></linearGradient><linearGradient id="paint57_linear" x1="-72.919" y1="25069.5" x2="1550990" y2="25069.5" gradientUnits="userSpaceOnUse"><stop stop-color="#87888A"/><stop offset=".5" stop-color="#E5E5E5"/><stop offset="1" stop-color="#7D7E80"/></linearGradient><linearGradient id="paint58_linear" x1="-72.919" y1="26521" x2="1550990" y2="26521" gradientUnits="userSpaceOnUse"><stop stop-color="#87888A"/><stop offset=".5" stop-color="#E5E5E5"/><stop offset="1" stop-color="#7D7E80"/></linearGradient><linearGradient id="paint59_linear" x1="-72.919" y1="28925.2" x2="1550990" y2="28925.2" gradientUnits="userSpaceOnUse"><stop stop-color="#87888A"/><stop offset=".5" stop-color="#E5E5E5"/><stop offset="1" stop-color="#7D7E80"/></linearGradient><linearGradient id="paint60_linear" x1="-93.596" y1="31439.2" x2="1550990" y2="31439.2" gradientUnits="userSpaceOnUse"><stop stop-color="#87888A"/><stop offset=".5" stop-color="#E5E5E5"/><stop offset="1" stop-color="#7D7E80"/></linearGradient><linearGradient id="paint61_linear" x1="-93.596" y1="34003.4" x2="1550990" y2="34003.4" gradientUnits="userSpaceOnUse"><stop stop-color="#87888A"/><stop offset=".5" stop-color="#E5E5E5"/><stop offset="1" stop-color="#7D7E80"/></linearGradient><linearGradient id="paint62_linear" x1="-93.596" y1="36645.5" x2="1550990" y2="36645.5" gradientUnits="userSpaceOnUse"><stop stop-color="#87888A"/><stop offset=".5" stop-color="#E5E5E5"/><stop offset="1" stop-color="#7D7E80"/></linearGradient><linearGradient id="paint63_linear" x1="-93.596" y1="39316.5" x2="1550990" y2="39316.5" gradientUnits="userSpaceOnUse"><stop stop-color="#87888A"/><stop offset=".5" stop-color="#E5E5E5"/><stop offset="1" stop-color="#7D7E80"/></linearGradient><linearGradient id="paint64_linear" x1="-93.596" y1="42067.7" x2="1550990" y2="42067.7" gradientUnits="userSpaceOnUse"><stop stop-color="#87888A"/><stop offset=".5" stop-color="#E5E5E5"/><stop offset="1" stop-color="#7D7E80"/></linearGradient><linearGradient id="paint65_linear" x1="-93.596" y1="44819.1" x2="1550990" y2="44819.1" gradientUnits="userSpaceOnUse"><stop stop-color="#87888A"/><stop offset=".5" stop-color="#E5E5E5"/><stop offset="1" stop-color="#7D7E80"/></linearGradient><linearGradient id="paint66_linear" x1="-93.596" y1="48574.7" x2="1550990" y2="48574.7" gradientUnits="userSpaceOnUse"><stop stop-color="#87888A"/><stop offset=".5" stop-color="#E5E5E5"/><stop offset="1" stop-color="#7D7E80"/></linearGradient><linearGradient id="paint67_linear" x1="-93.596" y1="52593.7" x2="1551010" y2="52593.7" gradientUnits="userSpaceOnUse"><stop stop-color="#87888A"/><stop offset=".5" stop-color="#E5E5E5"/><stop offset="1" stop-color="#7D7E80"/></linearGradient><linearGradient id="paint68_linear" x1="-734.567" y1="39189.3" x2="1551410" y2="39189.3" gradientUnits="userSpaceOnUse"><stop stop-color="#87888A"/><stop offset=".5" stop-color="#E5E5E5"/><stop offset="1" stop-color="#7D7E80"/></linearGradient><linearGradient id="paint69_linear" x1="-796.596" y1="60367.4" x2="1551300" y2="60367.4" gradientUnits="userSpaceOnUse"><stop stop-color="#87888A"/><stop offset=".5" stop-color="#E5E5E5"/><stop offset="1" stop-color="#7D7E80"/></linearGradient><linearGradient id="paint70_linear" x1="-321.037" y1="49163.3" x2="1551760" y2="49163.3" gradientUnits="userSpaceOnUse"><stop stop-color="#87888A"/><stop offset=".5" stop-color="#E5E5E5"/><stop offset="1" stop-color="#7D7E80"/></linearGradient><linearGradient id="paint71_linear" x1="-362.39" y1="44583.4" x2="1551680" y2="44583.4" gradientUnits="userSpaceOnUse"><stop stop-color="#87888A"/><stop offset=".5" stop-color="#E5E5E5"/><stop offset="1" stop-color="#7D7E80"/></linearGradient><linearGradient id="paint72_linear" x1="-424.42" y1="32318.4" x2="1551490" y2="32318.4" gradientUnits="userSpaceOnUse"><stop stop-color="#87888A"/><stop offset=".5" stop-color="#E5E5E5"/><stop offset="1" stop-color="#7D7E80"/></linearGradient><linearGradient id="paint73_linear" x1="-10.89" y1="32918.5" x2="1551010" y2="32918.5" gradientUnits="userSpaceOnUse"><stop stop-color="#87888A"/><stop offset=".5" stop-color="#E5E5E5"/><stop offset="1" stop-color="#7D7E80"/></linearGradient></defs></svg>