<svg width="52" height="52" fill="none" xmlns="http://www.w3.org/2000/svg"><path d="M26.5 44A18.5 18.5 0 1145 25.5 18.52 18.52 0 0126.5 44zm0-36.119A17.619 17.619 0 1044.119 25.5 17.638 17.638 0 0026.5 7.881z" fill="url(#paint0_linear)"/><path d="M31.583 15.916a4.5 4.5 0 013.237 1.408 4.919 4.919 0 011.347 3.384v9.584a4.919 4.919 0 01-1.347 3.384 4.5 4.5 0 01-3.237 1.407h-9.166a4.5 4.5 0 01-3.237-1.407 4.919 4.919 0 01-1.347-3.385V20.71a4.919 4.919 0 011.347-3.385 4.5 4.5 0 013.237-1.408h9.166zm0-1.916h-9.166c-1.7.005-3.33.714-4.532 1.97A6.886 6.886 0 0016 20.71v9.582a6.886 6.886 0 001.885 4.738c1.202 1.257 2.831 1.966 4.532 1.971h9.166c1.7-.005 3.33-.714 4.532-1.97A6.886 6.886 0 0038 30.29v-9.58a6.886 6.886 0 00-1.885-4.738c-1.202-1.257-2.832-1.966-4.532-1.971z" fill="url(#paint1_linear)"/><path d="M32.497 21a1.5 1.5 0 11.006 0h-.006z" fill="url(#paint2_linear)"/><path d="M27 21.166a3.79 3.79 0 012.222.73 4.279 4.279 0 011.474 1.946 4.67 4.67 0 01.227 2.503 4.456 4.456 0 01-1.094 2.22 3.916 3.916 0 01-2.049 1.185 3.716 3.716 0 01-2.31-.246 4.088 4.088 0 01-1.796-1.596A4.595 4.595 0 0123 25.5c0-1.15.421-2.252 1.172-3.064.75-.813 1.767-1.27 2.828-1.27zM27 19a5.677 5.677 0 00-3.333 1.095 6.417 6.417 0 00-2.21 2.918 7.005 7.005 0 00-.342 3.755 6.684 6.684 0 001.642 3.328 5.873 5.873 0 003.072 1.78c1.164.25 2.37.121 3.467-.37a6.132 6.132 0 002.693-2.395A6.891 6.891 0 0033 25.5c0-1.724-.632-3.377-1.757-4.596C30.117 19.684 28.59 19 27 19z" fill="url(#paint3_linear)"/><defs><linearGradient id="paint0_linear" x1="7.563" y1="13.665" x2="49.514" y2="18.751" gradientUnits="userSpaceOnUse"><stop stop-color="#00A3FF"/><stop offset="1" stop-color="#8F00FF"/></linearGradient><linearGradient id="paint1_linear" x1="15.74" y1="18.143" x2="40.715" y2="21.039" gradientUnits="userSpaceOnUse"><stop stop-color="#00A3FF"/><stop offset="1" stop-color="#8F00FF"/></linearGradient><linearGradient id="paint2_linear" x1="30.965" y1="18.54" x2="34.366" y2="18.953" gradientUnits="userSpaceOnUse"><stop stop-color="#00A3FF"/><stop offset="1" stop-color="#8F00FF"/></linearGradient><linearGradient id="paint3_linear" x1="20.858" y1="21.342" x2="34.493" y2="22.868" gradientUnits="userSpaceOnUse"><stop stop-color="#00A3FF"/><stop offset="1" stop-color="#8F00FF"/></linearGradient></defs></svg>