<svg width="1440" height="2043" fill="none" xmlns="http://www.w3.org/2000/svg"><path style="mix-blend-mode:screen" opacity=".7" d="M639.48 1058.28c-39.392 81.35-61.531 174.6-63.949 269.72-.092 3.11-.15 6.19-.174 9.25-1.027 91.92 15.166 184.72 47.793 273.89l2.4-.6c-33.623-91.89-49.711-187.63-47.427-282.24 2.335-94.38 23.992-185.73 63.717-268.77 46.878-96.736 116.936-168.745 197.414-204.778a4363.707 4363.707 0 0019.515 19.4c-77.884 40.379-144.385 115.117-187.555 214.558-74.152 171.96-74.06 371.19.255 555.69l2.537-.78c-74.105-182.2-74.25-384.05-.347-553.82 43.168-99.149 109.504-173.629 187.195-213.676 62.764 61.584 129.495 119.922 209.826 153.886 42.95 18.09 88.29 28.57 133.73 30.9 7.8.91 15.6 1.56 23.39 1.95 7.67.93 15.38 1.54 23.04 1.96 7.75.98 15.58 1.64 23.34 2.06 7.75.98 15.52 1.64 23.26 2.1 7.89 1.08 15.77 1.82 23.63 2.23 7.81 1.02 15.6 1.78 23.36 2.28 7.88 1.08 15.79 1.9 23.7 2.45l.35.02c6.01.86 12.02 1.57 17.98 2.11l5.35.39c4.33.66 8.65 1.22 13 1.73 3.69.36 7.41.73 11.1 1.09 2.41.37 4.81.71 7.2 1.05 5.72.78 11.54 1.41 17.42 1.95l.9.17c7.83 1.28 15.88 2.24 23.89 3.13 8.32 1.41 16.7 2.69 25.15 3.67 6.86 1.29 13.92 2.53 20.84 3.53 1.41.21 2.85.38 4.28.56 4.13.89 8.3 1.74 12.46 2.49 4.16.75 8.7 1.49 13.08 2.15 1.21.3 2.43.63 3.64.9 6.94 1.58 14 2.98 21.12 4.21 8.27 2.2 16.61 4.15 25.02 5.84 51.13 15.22 104.73 20.3 152.31 14.22 57.56-7.33 104.8-30.44 136.62-66.8l-2.14-1.82c-31.42 35.91-78.12 58.71-135.06 66-40.6 4.77-82.37 2.43-123.4-6.91 32.74 4.25 65.55 4.66 97.71 1.23 66.09-7.03 124.03-30.23 163.19-65.3l-1.85-1.94c-38.77 34.76-96.26 57.73-161.85 64.72-40.25 4.3-81.48 2.51-122.27-5.31 37.98 3.83 75.89 3.14 112.89-2.04 66.34-9.06 129.58-31.71 173.53-62.2l-1.56-2.02c-43.66 30.28-106.55 52.81-172.53 61.8-41.3 5.85-83.75 5.98-126.11.37l-1.35-.43-1.87-.67c40.46 2.24 80.64-.06 119.75-6.86 65.78-10.76 132.8-32.32 183.89-59.07l-1.26-2.06c-50.98 26.6-117.67 48.13-183.22 58.87-44.76 7.41-87.45 9.45-127.45 6.24-1.92-.69-3.83-1.34-5.74-2.04 38.01.69 78.85-3.29 123.7-11.87 81.42-15.45 156.65-41.72 194.23-56l-.98-2.03c-37.53 14.27-112.62 40.49-193.89 55.91-47.08 9.02-89.76 12.84-129.3 11.58-2.33-.9-4.68-1.78-7-2.69 37.84-.95 79.27-6.42 126.84-16.68 48.6-10.37 98.95-24.26 143.27-36.42 21.87-6.02 42.54-11.7 61.29-16.46l-.7-2.02c-18.85 4.84-39.51 10.54-61.38 16.56-44.35 12.19-94.6 26.03-143.17 36.4-49.34 10.63-92.07 16.13-130.98 16.73l-7.74-3.2c45.97-3.02 90.15-12.15 129.27-21.43 23.93-5.64 48.52-11.93 72.32-17.98 51.88-13.22 100.87-25.71 142.7-31.96l-.48-1.93c-41.91 6.27-90.96 18.76-142.88 32-23.85 6.13-48.38 12.32-72.3 17.95-40.11 9.54-85.54 18.86-132.74 21.61-2.7-1.17-5.39-2.4-8.09-3.61 46.4-4.87 91.23-15.7 131.36-26.04 9.84-2.52 19.74-5.08 29.72-7.69 68.11-17.71 138.54-36.03 195.8-39.16l-.28-1.83c-57.35 3.18-127.89 21.53-196.09 39.26-9.96 2.59-19.86 5.15-29.71 7.7-41.03 10.6-86.8 21.56-134.15 26.3-2.86-1.31-5.7-2.65-8.56-3.96 43.44-6.15 86.92-17.53 133.29-30.42 77.83-21.48 166.06-45.8 235.82-43.93l-.1-1.72c-70.1-1.951-158.46 22.44-236.4 43.94-47.19 13.11-91.38 24.67-135.53 30.73-3.06-1.46-6.12-2.93-9.17-4.41 45.33-7.99 89.92-21.16 133.55-34.08l1.66-.51c153.63-45.181 207.76-44.752 246.35-40.868l.03-1.593c-33.48-3.387-72.83-.579-120.33 8.591-42.53 8.16-85.98 20.37-126.62 32.31l-1.67.5c-44.23 13.09-89.5 26.5-135.4 34.39-3.08-1.54-6.19-3.08-9.26-4.67 41.7-8.72 82.67-21.58 122.8-34.2l14.03-4.41c148.96-46.292 213.3-45.196 256.83-37.872l.13-1.447c-35.58-5.983-76.87-4.593-126.16 4.105-47.17 8.364-94.97 22.444-131.37 33.764l-13.98 4.24c-40.59 12.75-82.09 25.82-124.29 34.53-3.19-1.65-6.36-3.31-9.54-5 38.77-9.35 76.7-21.93 114.02-34.31 8.12-2.71 16.25-5.41 24.4-8.1 80.22-26.229 183.16-53.98 267.33-34.85l.2-1.326c-37.61-8.556-80.79-8.661-132.05-.258-38.95 6.344-82.18 17.528-136.06 35.174-8.13 2.66-16.27 5.39-24.4 8.1-37.67 12.54-76.11 25.35-115.28 34.67-3.22-1.75-6.41-3.49-9.6-5.26 36.13-9.73 71.57-22.22 106.34-34.51 10.91-3.81 22.22-7.83 33.36-11.67 158.08-54.212 234.26-44.112 277.84-31.841l.24-1.202c-39.58-11.136-84.64-12.723-137.86-4.7-41.26 6.17-85.97 17.805-140.73 36.563-11.15 3.83-22.45 7.83-33.38 11.67-35.21 12.35-70.96 25.01-107.46 34.78-3.29-1.82-6.59-3.67-9.86-5.52 33.91-10.07 67.15-22.4 99.83-34.53 13.51-5.02 27.49-10.2 41.29-15.141 77.49-27.679 191.69-60.789 288.35-28.846l.29-1.067c-97.02-32.047-211.53 1.096-289.17 28.832-13.8 4.942-27.79 10.132-41.3 15.162-32.97 12.24-66.54 24.66-100.77 34.81-3.35-1.88-6.68-3.79-9.98-5.73 31.92-10.31 63.23-22.5 94.01-34.5 15.84-6.19 32.22-12.569 48.39-18.574 56.13-20.812 105.16-33.671 149.89-39.318 56.14-7.102 106.19-2.606 149 13.492l.29-.952c-42.84-16.068-93.2-20.673-149.52-13.567-44.8 5.668-93.87 18.502-150.1 39.397-16.18 6.006-32.6 12.349-48.41 18.562-31.04 12.1-62.58 24.4-94.75 34.76l-10.2-5.98c30.15-10.48 59.73-22.52 88.85-34.383 17.96-7.324 36.52-14.895 54.85-21.945 127.5-48.998 228.78-56.423 309.43-22.821l.28-.811c-80.87-33.72-182.31-26.25-310.12 22.808-18.28 7.088-36.89 14.621-54.87 21.932-29.31 11.95-59.11 24.07-89.46 34.59-3.44-2.05-6.88-4.1-10.29-6.17 28.52-10.57 56.47-22.41 84.08-34.176 19.89-8.46 40.5-17.205 60.83-25.27 58.6-23.211 110.75-36.929 159.28-42.143 60.07-6.355 114.08 1.224 160.7 22.325l.29-.711c-46.79-21.281-100.94-28.763-161.14-22.393-48.65 5.154-100.81 18.959-159.47 42.191-20.37 8.067-40.95 16.825-60.86 25.273-27.74 11.794-55.91 23.754-84.6 34.384l-10.42-6.38c27-10.63 53.46-22.259 79.81-33.865 21.7-9.597 44.15-19.497 66.37-28.565 59.84-24.487 113.55-38.664 163.97-43.547 62.05-5.978 118.1 3.011 166.57 26.746l.26-.594c-48.61-23.792-104.77-32.812-166.94-26.807-50.52 4.863-104.2 19.136-164.16 43.594-22.31 9.006-44.69 18.984-66.41 28.568-26.33 11.635-53.01 23.4-80.14 34.07-19.47-12.04-38.72-24.298-57.77-36.479-21.58-13.793-43.89-28.052-66.03-41.547-40.91-24.923-92.55-53.812-149.21-74.434-13.79-6.087-27.29-11.489-40.52-16.206a605.137 605.137 0 00-32-12.808c-13.69-6.088-27.16-11.498-40.42-16.23a588.927 588.927 0 00-31.921-12.859c-12.202-5.484-24.271-10.457-36.205-14.918-12.498-5.671-24.893-10.766-37.184-15.285-11.677-5.348-23.232-10.146-34.664-14.394-12.569-5.834-25.047-11.11-37.434-15.827-12.276-5.713-24.477-10.894-36.602-15.544-12.305-5.814-24.546-11.08-36.724-15.8-12.425-5.934-24.787-11.331-37.087-16.19-12.582-6.145-25.152-11.718-37.711-16.721a604.47 604.47 0 00-37.432-16.92 608.986 608.986 0 00-37.065-17.1 646.6 646.6 0 00-38.625-18.231 673.078 673.078 0 00-38.11-18.469 658.954 658.954 0 00-86.583-38.712c-54.109-19.702-110.491-30.469-166.688-31.83-58.493-1.044-112.234 9.019-159.742 29.954-44.32 19.515-84.878 49.331-120.3 88.541-32.076 35.361-59.57 77.731-81.745 125.942-42.114 91.537-61.782 193.131-80.825 291.377l.681.18c19.02-98.224 38.676-199.731 80.768-291.238 22.158-48.152 49.617-90.476 81.631-125.788 35.455-39.114 75.89-68.833 120.164-88.356 47.429-20.899 101.101-30.942 159.448-29.91 56.089 1.352 112.365 12.081 166.379 31.719a654.908 654.908 0 0179.194 34.858c-2.969-1.271-5.926-2.556-8.917-3.796-14.193-5.753-28.54-11.049-42.735-15.638-113.783-36.683-231.129-32.164-321.935 12.397-42.874 21.012-81.792 51.71-115.689 91.218-32.197 38.031-58.44 80.683-77.99 126.748-38.197 88.466-55.526 184.086-72.798 290.856l.8.19c17.277-106.82 34.634-202.367 72.736-290.809 19.48-45.964 45.635-88.529 77.723-126.494 33.822-39.443 72.717-70.04 115.434-91.05 90.737-44.397 207.908-48.927 321.443-12.261 14.172 4.548 28.526 9.802 42.668 15.588a650.839 650.839 0 0118.008 7.745 703.306 703.306 0 0114.218 7.865c-1.434-.563-2.874-1.153-4.302-1.687-14.297-5.331-28.784-10.088-43.106-14.152-112.225-31.819-227.986-22.153-317.573 26.497-41.339 22.459-78.685 54.06-110.937 93.882-30.773 38.492-55.635 81.36-73.9 127.421-37.173 92.008-52.367 193.895-64.773 290.325l.913.18c12.4-96.39 27.592-198.207 64.725-290.126 18.243-45.971 43.062-88.756 73.775-127.181 32.213-39.803 69.473-71.325 110.733-93.747 89.4-48.574 204.908-58.214 316.908-26.443a561.952 561.952 0 0143.027 14.117c3.245 1.214 6.557 2.478 9.785 3.821a708.168 708.168 0 0115.27 9.048c-13.451-4.466-27.092-8.43-40.618-11.738-110.733-27.146-224.894-12.322-313.224 40.684-39.821 23.893-75.627 56.372-106.269 96.624-29.39 38.985-52.926 82.095-69.982 128.183C15.894 984.77 3.657 1088.89-4.9 1178.9l1.042.18c8.592-89.98 20.754-193.973 56.705-289.575 17.023-46.003 40.517-89.032 69.856-127.942 30.523-40.127 66.261-72.514 106.059-96.375 88.098-52.87 201.993-67.652 312.456-40.564a537.106 537.106 0 0143.381 12.619l1.175.419a901.149 901.149 0 0116.109 10.168c-11.053-3.094-22.176-5.812-33.144-8.035-109.915-22.54-220.792-2.852-308.851 54.842-38.274 25.323-72.458 58.742-101.568 99.32-28.015 39.466-50.221 82.825-66.046 128.956-33.03 94.787-43.167 199.427-48.748 289.277l1.172.18c5.563-89.8 15.705-194.33 48.672-289.002 15.803-46.041 37.967-89.318 65.92-128.716 29.043-40.485 63.13-73.81 101.319-99.053 87.766-57.545 198.288-77.211 307.87-54.783 12.133 2.514 24.387 5.57 36.508 9.052a434 434 0 016.788 4.455 784.273 784.273 0 019.693 6.584c-8.523-1.935-17.076-3.654-25.569-5.067-54.676-9.24-109.747-7.734-161.897 4.428-52.179 12.011-100.597 33.955-142.599 64.629-71.228 51.803-127.687 134.097-159.005 231.75-31.635 98.683-38.38 206.153-40.704 288.763l1.279.14c2.34-82.53 9.062-189.9 40.668-288.435 31.215-97.443 87.504-179.578 158.567-231.193 41.863-30.566 90.123-52.426 142.129-64.383 51.992-12.111 106.889-13.613 161.396-4.418 9.45 1.598 18.954 3.546 28.423 5.752a830.65 830.65 0 0116.684 11.856c-5.913-1.025-11.822-1.951-17.714-2.722-54.885-7.137-109.701-3.177-160.975 11.628-51.368 14.689-98.57 38.965-139.126 71.554-68.524 54.733-121.935 138.262-150.356 235.205-13.455 45.866-30.933 121.276-32.616 256.406-.12 10.25-.156 20.86-.107 31.82l1.403.11c-.42-74.29 2.484-184.99 32.647-287.877 28.369-96.696 81.621-180.009 149.963-234.568 40.41-32.504 87.457-56.712 138.663-71.35 51.094-14.75 105.719-18.69 160.411-11.57a492.128 492.128 0 0120.265 3.113c5.605 4.15 11.244 8.326 16.87 12.659-3.256-.389-6.524-.763-9.679-1.007-55.122-5.069-109.694 1.341-160.058 18.802-50.561 17.35-96.555 43.982-135.655 78.55-65.797 57.633-116.12 142.377-141.718 238.678-16.424 61.77-24.888 129.72-25.877 209.89-.302 24.74.097 50.68 1.197 77.82l1.527.08c-4.7-115.28 3.179-206.62 24.627-287.32 25.523-96.021 75.721-180.525 141.274-237.934 38.964-34.455 84.798-61.004 135.185-78.303 50.154-17.418 104.505-23.83 159.409-18.806 4.001.37 8.046.82 12.057 1.317 5.677 4.37 11.348 8.855 17.051 13.436l-1.854-.136c-106.461-6.237-209.92 33.377-291.317 111.548-62.98 60.409-110.268 146.474-133.104 242.108-12.773 53.6-19.541 112.29-20.348 177.61-.415 34.59.822 71.11 3.711 109.59l1.646.03c-8.353-111.1-2.927-204.9 16.611-286.75 22.756-95.378 69.879-181.113 132.694-241.406 81.135-77.889 184.137-117.343 290.102-111.069 1.324.077 2.643.197 3.956.289a1161.735 1161.735 0 0117.154 14.178c-103.551-.56-203.084 43.96-280.801 125.783-61.036 64.227-104.049 149.128-124.523 245.585-10.157 49.06-15.46 99.34-15.838 150.2-.392 45.36 2.014 90.94 7.205 136.5l1.776-.04c-12-108.56-9.248-202.2 8.647-286.19 20.359-96.162 63.246-180.823 124-244.879 77.915-81.986 177.74-126.337 281.524-125.248 5.747 4.875 11.516 9.86 17.261 14.948-100.094 5.472-194.961 54.566-268.48 139.379-58.05 66.986-98.093 153.09-115.818 249.03-7.518 41.53-11.48 83.89-11.849 126.65-.463 53.02 3.305 106.35 11.27 159.52l1.85-.1c-15.273-104.63-15.087-200.72.592-285.59 17.666-95.66 57.573-181.503 115.452-248.258 73.61-84.937 168.713-133.927 268.962-138.904a1305.462 1305.462 0 0117.369 15.717c-96.721 11.229-186.982 64.661-256.122 152.29-55.034 69.67-92.097 156.955-107.17 252.485-5.393 34.59-8.282 69.71-8.646 105.12-.49 60.04 4.895 120.49 16.083 180.54l1.98-.17c-18.598-102.36-21.091-198.25-7.435-285.07 15.02-95.21 51.963-182.228 106.769-251.592 69.265-87.655 159.711-141.021 256.44-151.769l7.179 6.672c3.423 3.226 6.818 6.525 10.236 9.793-93.335 16.758-179.016 74.248-243.843 164.357-51.984 72.239-86.061 160.739-98.538 255.929a724.797 724.797 0 00-5.983 85.15c-.537 66.59 6.659 133.68 21.452 200.01l2.077-.27c-21.861-100.07-27.051-195.76-15.445-284.46 12.452-94.87 46.397-183.09 98.199-255.078 64.838-90.125 150.608-147.453 243.952-163.8a2414.272 2414.272 0 0117.759 17.266c-89.418 22.204-172.341 84.591-231.868 175.603-48.865 74.719-80.013 164.359-89.866 259.349-2.226 21.78-3.511 43.82-3.857 66.13-.602 72.88 8.583 146.36 27.323 218.58l2.173-.36c-24.998-97.94-32.884-193.44-23.478-283.82 9.891-94.65 40.856-184.05 89.557-258.508 59.515-90.925 142.498-153.149 231.813-175.001a3417.078 3417.078 0 0118.003 17.923c-86.334 27.224-164.842 93.047-220.081 186.117-45.74 77.079-73.823 167.969-81.223 262.849a707.429 707.429 0 00-2.118 46.01c-.621 79.47 10.772 159.62 33.815 237.9l2.27-.46c-27.642-94.55-38.517-192.52-31.437-283.31 7.387-94.44 35.417-185.09 80.959-261.931 55.181-92.993 133.666-158.643 219.896-185.515l18.343 18.484c-83.326 31.996-157.65 101.037-208.69 196.072-42.575 79.28-67.677 171.35-72.592 266.29-.488 9.16-.78 18.34-.874 27.55-.867 85.72 12.796 172.23 40.445 256.08l2.4-.6c-30.598-92.62-43.964-188.44-39.441-282.75 4.895-94.59 29.889-186.34 72.332-265.34 50.977-94.916 125.125-163.825 208.364-195.387l18.808 18.948c-80.655 36.377-150.821 108.568-197.797 205.539zm200.441-203.795c4.987-2.23 10.036-4.296 15.083-6.291a56058.2 56058.2 0 0018.765 18.654c-4.863 2.203-9.693 4.502-14.49 6.968a5194.584 5194.584 0 01-19.375-19.344l.017.013zM626.693 656.736c5.159 1.727 10.361 3.605 15.513 5.517 4.747 2.635 9.505 5.326 14.217 8.149a473.483 473.483 0 00-14.991-4.393c-4.856-3.191-9.854-6.297-14.756-9.285l.017.012zm-3.948-2.447c-4.453-2.68-8.885-5.248-13.327-7.801 4.697 1.893 9.433 3.815 14.209 5.765 4.226 2.178 8.44 4.371 12.659 6.663a617.192 617.192 0 00-13.557-4.64l.016.013zm824.335 403.021c-3.39.82-6.78 1.59-10.18 2.35-3.15-1.55-6.33-3.14-9.56-4.7 3.46-.86 6.88-1.75 10.31-2.69 2.71 1.48 5.39 3 8.09 4.42.45.17.9.38 1.33.61l.01.01zm86.1 37.78l-2.95-.26-3.67-1.03 3.19-.02 3.25 1.17.18.14zM717.537 701.553a906.4 906.4 0 0115.283 9.772 476.469 476.469 0 00-9.815-1.845 338.28 338.28 0 00-5.807-.922 781.708 781.708 0 00-15.732-10.889 453.966 453.966 0 0116.071 3.884zm-19.309-6.092a899.726 899.726 0 00-15.119-9.887 460.686 460.686 0 0115.666 4.607c4.909 2.874 9.829 5.804 14.742 8.847a448.215 448.215 0 00-15.289-3.567zm724.142 359.529c-3.4.82-6.79 1.61-10.18 2.38-3.17-1.52-6.33-3.09-9.55-4.69 3.41-.88 6.81-1.79 10.2-2.73 3.15 1.7 6.3 3.39 9.47 5.02l.06.02zm-103.35 14.62l2.17-.01 2.84.56-1.29-.05-3.72-.5zM869.701 819.374c5.3-.999 10.667-1.806 16.056-2.501a1456.71 1456.71 0 0116.596 15.001c-2.23.442-4.465.857-6.673 1.339a304.144 304.144 0 00-8.985 2.172 7327.387 7327.387 0 00-17.011-16.023l.017.012zm-96.645-81.084a879.252 879.252 0 00-15.695-11.361 377.35 377.35 0 0116.049 2.964 956.777 956.777 0 0115.279 10.268c-3.475-.48-6.951-.96-10.393-1.345-1.785-.299-3.476-.409-5.223-.584l-.017.058zm5.149 2.338c4.605.54 9.226 1.163 13.863 1.869a785.012 785.012 0 0115.618 11.114l-1.775-.173a354.92 354.92 0 00-14.011-.86 967.974 967.974 0 00-15.954-12.172l2.259.222zm672.345 341.912l3.65-.03 4.12 1.15-3.34-.09-4.43-1.03zM833.503 768.09c-1.674-.097-3.376-.121-5.062-.203-5.239-4.047-10.468-7.967-15.686-11.831a356.563 356.563 0 0115.92 2.013 986.062 986.062 0 0115.276 10.765c-3.46-.326-6.987-.56-10.448-.744zm.06 2.067c4.525.259 9.101.626 13.676 1.064l15.57 11.53-1.668-.07c-4.657-.117-9.331-.106-13.994-.038a1225.993 1225.993 0 00-15.895-12.604c.818-.013 1.618-.038 2.368.041l-.057.077zm31.518 3.191a946.513 946.513 0 0114.951 10.43 352.103 352.103 0 00-15.177-.939 594.928 594.928 0 00-15.351-11.368 272.139 272.139 0 0115.668 1.825l-.091.052zm36.323 15.005a886.944 886.944 0 0114.599 10.026c-4.937-.373-9.93-.669-14.845-.86l-14.964-11.081c5.071.52 10.156 1.161 15.255 1.924l-.045-.009zm35.987 14.755a774.21 774.21 0 0114.414 9.818c-4.884-.445-9.74-.727-14.569-.846-4.932-3.652-9.813-7.267-14.735-10.792 4.998.466 9.989 1.117 14.941 1.786l-.051.034zm36.054 14.663a810.693 810.693 0 0113.91 9.373c-4.75-.378-9.462-.632-14.158-.803a737.701 737.701 0 00-14.382-10.388c4.964.512 9.753 1.084 14.681 1.784l-.051.034zm35.685 14.318a967.74 967.74 0 0114.13 9.392c-4.67-.381-9.35-.672-14.03-.872-4.74-3.515-9.543-6.926-14.296-10.255 4.75.448 9.496 1.039 14.246 1.701l-.05.034zm401.36 242.861c-1.25.06-2.51.07-3.77.12-2.64-.7-5.28-1.35-7.93-2.1 2.48-.18 4.98-.35 7.46-.61 2.48.84 4.98 1.62 7.48 2.4l-3.24.19zm-33.6-5.85c-2.02.17-4.04.29-6.06.44-2.81-.8-5.66-1.64-8.53-2.56 2.83-.29 5.54-.65 8.28-1 2.8 1 5.63 1.93 8.35 2.8-.43.16-1.16.26-1.89.34l-.15-.02zm-33.61-5.85c-2.54.33-5.05.59-7.57.86-3.03-.94-6.05-1.89-9.06-2.9 2.95-.46 5.92-.95 8.9-1.46 2.98 1.15 5.97 2.26 8.96 3.31l-1.23.19zM904.827 814.914c3.94-.254 7.903-.443 11.888-.569 1.286-.047 2.628-.029 3.902-.06a967.484 967.484 0 0115.406 12.526l.387.287c-5.184.419-10.363.937-15.538 1.625a1274.96 1274.96 0 00-15.613-13.513l-.432-.296zm-15.856-15.263c4.33-.005 8.71.099 13.136.212 5.201 3.852 10.333 7.938 15.51 12.033l-1.19.023c-4.754.119-9.503.409-14.252.769a878.556 878.556 0 00-15.797-13.054c.874-.019 1.759-.053 2.593.017zm55.025 26.951c-1.906.111-3.841.295-5.776.48l-1.396-1.177a1010.743 1010.743 0 00-14.211-11.57c5.198.02 10.351.101 15.469.228 5.05 3.739 10.16 7.714 15.242 11.691-3.094.025-6.188.12-9.282.287l-.046.061zm-4.8 2.963a1350.07 1350.07 0 0115.99 13.602c-5.152.728-10.283 1.567-15.38 2.574a2099.685 2099.685 0 00-16.317-14.605 239.241 239.241 0 0115.719-1.657l-.012.086zm1.884-.151c1.111-.057 2.222-.186 3.334-.243 4.043-.217 8.075-.347 12.226-.461 3.676 2.896 7.349 5.831 11.021 8.803l4.475 3.671-.44.031c-4.93.393-9.868.971-14.76 1.63a1365.53 1365.53 0 00-15.76-13.455l-.096.024zm420.44 231.166a653.09 653.09 0 01-9.37-3.75c3.26-.66 6.48-1.39 9.69-2.13 3.08 1.43 6.19 2.8 9.27 4.15-3.19.52-6.41 1.06-9.59 1.63v.1zm11.21-1.05c2.98 1.28 5.95 2.52 8.97 3.76-3 .52-6.07.98-9.1 1.4-3.09-1.1-6.18-2.2-9.23-3.44 3.18-.59 6.38-1.12 9.45-1.75l-.09.03zm-22.13-3.38a487.58 487.58 0 01-9.7-4.16c3.35-.78 6.71-1.59 10.06-2.45l1.02.52c2.81 1.37 5.64 2.66 8.49 3.91-3.28.74-6.55 1.45-9.83 2.12l-.04.06zm-3.37.64c-3.24.64-6.45 1.24-9.65 1.8-3.21-1.22-6.41-2.47-9.6-3.75 3.32-.68 6.62-1.38 9.94-2.16 3.13 1.37 6.23 2.74 9.35 4.05l-.04.06zm-13.19 2.3c-2.46.39-4.92.83-7.4 1.18l-1.79.24c-3.17-1.06-6.19-2.2-9.51-3.35 3.2-.56 6.37-1.14 9.54-1.76 3.11 1.3 6.09 2.58 9.16 3.69zm-7.36-4.88c-3.24-1.34-6.48-2.71-9.72-4.13 3.4-.79 6.79-1.62 10.16-2.49l1.42.72c2.73 1.31 5.46 2.52 8.23 3.71-3.35.81-6.7 1.55-10.06 2.21l-.03-.02zm-3.1.66c-3.22.62-6.46 1.2-9.71 1.75-3.24-1.19-6.46-2.43-9.68-3.72 3.33-.7 6.64-1.43 9.92-2.17 3.16 1.45 6.33 2.85 9.5 4.18l-.03-.04zm-12.94 2.31l-.76.14c-2.91.42-5.68.84-8.51 1.25-3.23-1.06-6.43-2.15-9.65-3.3 3.18-.56 6.35-1.16 9.51-1.78 3.14 1.31 6.36 2.59 9.43 3.73l-.02-.04zm-20.2-2.36a411.042 411.042 0 01-31.62-12.94c-69.66-32.04-129.04-83.836-186.44-133.934-23.42-20.433-47.65-41.563-72.13-60.978l-5.291-4.154c4.736-.061 9.711.052 14.921.226 6.95 5.144 13.95 10.406 21 15.785 24.32 18.849 48.33 39.292 71.54 59.093 55.43 47.235 112.76 96.092 179.34 127.122 6.11 2.84 12.26 5.51 18.41 8.04-3.26.61-6.5 1.21-9.71 1.78l-.02-.04zM999.214 848.153c24.536 19.452 48.746 40.57 72.126 60.978 57.51 50.173 116.99 102.069 186.89 134.209 9.55 4.39 19.28 8.38 29.11 12.04-3.03.57-6.24 1-9.36 1.45a397.41 397.41 0 01-42.66-16.49c-73.06-33.14-134.61-88.052-194.14-141.154-20.82-18.557-42.267-37.673-64.036-55.72 4.817-.311 9.91-.536 15.249-.602l6.821 5.289zm-24.974-7.1c-1.89-1.566-3.763-3.119-5.676-4.654a870.732 870.732 0 00-9.629-7.726c5.029-.035 10.108.04 15.198.241a946.367 946.367 0 0115.137 11.447c-5.047.092-10.055.309-15.03.692zm-2.082 2.812l2.955-.19c22.133 18.293 43.927 37.742 65.117 56.616 59.65 53.189 121.29 108.189 194.58 141.449a400.787 400.787 0 0039.92 15.6c-2.98.41-5.97.78-8.98 1.11a395.679 395.679 0 01-53.89-19.68c-76.5-34.3-140.31-92.4-202.05-148.583-16.389-14.923-33.186-30.217-50.222-45.045 4.175-.5 8.328-.969 12.57-1.277zm303.972 213.945c3.03.98 6.07 1.95 9.1 2.84-2.82.29-5.64.58-8.54.81-3.12-.79-6.22-1.63-9.31-2.49 2.95-.4 5.87-.79 8.75-1.16zm3.32-.47c3.06-.44 6.13-.93 9.17-1.44 3.08 1.12 6.19 2.21 9.29 3.26-2.94.45-5.97.75-8.96 1.08-3.15-.95-6.31-1.93-9.47-2.94l-.03.04zm20.13 2.38c2.95.99 5.85 1.95 8.85 2.83-2.82.29-5.64.58-8.27.78-3.09-.79-6.18-1.65-9.25-2.52 2.91-.37 5.83-.73 8.77-1.09h-.1zm3.47-.5c2.34-.34 4.67-.67 7.01-1.05.67-.1 1.32-.23 2-.35 3 1.13 6.07 2.12 9.04 3.25-2.89.38-5.77.75-8.62 1.08-3.13-.98-6.26-1.97-9.39-2.98l-.04.05zm19.98 2.52c2.9.98 5.82 1.92 8.69 2.86-2.82.29-5.4.47-8.12.7-2.96-.79-5.92-1.62-8.88-2.48 2.81-.38 5.63-.81 8.37-1.16l-.06.08zm16.27-2.51c3.16-.57 6.3-1.19 9.45-1.81 3.02 1.26 5.97 2.49 9.06 3.74-3.09.5-6.18.96-9.28 1.38-3.04-1.11-6.12-2.23-9.19-3.36l-.04.05zm20.4 2.64c2.92 1.14 5.81 2.26 8.73 3.32-2.74.35-5.46.72-8.23 1.04l-.42.05c-3.04-.97-6.08-1.96-9.11-2.98 3.05-.48 6.07-.97 9.07-1.47l-.04.04zm15.27 3.6c2.94-.44 5.88-.9 8.84-1.38 2.84 1.13 5.68 2.29 8.54 3.36-2.88.36-5.73.7-8.59 1.03-2.92-1.02-5.83-2.04-8.75-3.06l-.04.05zm20.01 2.93c2.72 1.01 5.44 1.98 8.23 2.97-2.63.24-5.25.47-7.86.65-2.85-.83-5.7-1.67-8.53-2.56 2.7-.4 5.45-.74 8.15-1.15l.01.09zm16.29 3.49c2.82-.29 5.64-.58 8.29-.99 2.62 1 5.24 2 7.87 2.95l-7.98.6c-2.73-.81-5.44-1.72-8.15-2.61l-.03.05zm-3.2-1.04c-2.91-.96-5.85-1.95-8.74-3.04 2.93-.42 5.86-.86 8.8-1.33 2.85 1.18 5.71 2.32 8.56 3.43-2.85.31-5.72.61-8.59.9l-.03.04zm-11.34-3.97c-3.02-1.09-6.12-2.29-9.06-3.43 3.05-.59 6.23-1.09 9.34-1.69 2.94 1.3 5.91 2.57 8.87 3.78-3.03.47-6.06.87-9.12 1.3l-.03.04zm-11.1-4.22c-3.14-1.26-6.29-2.52-9.43-3.85 3.25-.66 6.48-1.36 9.72-2.07 3.06 1.43 6.12 2.82 9.2 4.19-3.12.55-6.27 1.14-9.46 1.68l-.03.05zm-11.08-4.57c-3.19-1.36-6.36-2.71-9.54-4.16 3.33-.77 6.68-1.59 10-2.45l.37.28c2.98 1.49 5.98 2.9 9 4.28-3.23.66-6.52 1.34-9.8 2l-.03.05zm-10.88-4.77c-3.25-1.5-6.49-3-9.67-4.55 3.45-.9 6.89-1.83 10.32-2.77 3.15 1.66 6.32 3.29 9.44 4.85-3.33.79-6.69 1.63-10.06 2.42l-.03.05zm-10.84-5.11c-3.26-1.58-6.48-3.22-9.74-4.83 3.53-1 7.05-2.06 10.55-3.13 3.17 1.78 6.39 3.52 9.6 5.23-3.44.9-6.9 1.79-10.38 2.69l-.03.04zm-2.95.77c-3.37.86-6.75 1.66-10.15 2.45-3.27-1.46-6.53-2.93-9.72-4.46 3.46-.88 6.91-1.85 10.35-2.83 3.16 1.58 6.35 3.21 9.56 4.8l-.04.04zm-20.87-2.49c-59.74-28.75-112.65-71.522-163.82-112.893-22.84-18.434-46.3-37.4-70.11-54.939-15.29-11.326-30.51-21.866-45.65-31.618 4.22.744 8.62 1.456 13.09 2.345 20.74 12.404 41.77 26.236 63.1 41.493 23.42 16.799 46.63 35.01 69.11 52.629 45.69 35.859 92.84 72.813 144.75 100.173-3.48.9-6.95 1.85-10.44 2.76l-.03.05zm-234.99-166.36c23.77 17.486 47.28 36.49 70.02 54.877 50.67 40.969 103.08 83.273 162.19 112.133-3.4.86-6.82 1.71-10.25 2.5-3.39-1.51-6.77-3.04-10.13-4.62-63.07-29.84-118.16-75.609-171.46-119.841-23.03-19.124-46.79-38.882-70.93-57.112a918.834 918.834 0 00-32.55-23.511c4.51.459 9.14 1.034 13.96 1.746 16.24 10.414 32.63 21.69 49.15 33.828zm-31.61-10.677c24.07 18.179 47.86 37.935 70.84 57.05 53.41 44.306 108.58 90.207 171.91 120.167 2.64 1.24 5.28 2.46 7.93 3.64-3.3.73-6.63 1.43-9.99 2.12-6.95-2.79-13.86-5.78-20.74-8.99-66.33-30.92-123.51-79.568-178.87-126.824-23.24-19.799-47.27-40.282-71.63-59.155-6.36-4.925-12.71-9.695-19.03-14.354 4.63.253 9.45.594 14.49 1.023a1033.73 1033.73 0 0135.08 25.338l.01-.015zm-56.11-29.04c-4.85-.154-9.717-.203-14.589-.147-4.97-3.847-9.974-7.648-14.861-11.291 4.9.235 9.848.592 14.844 1.073 4.827 3.384 9.696 6.844 14.596 10.381l.01-.016zm-35.808-14.219a317.578 317.578 0 00-14.76-.06 954.32 954.32 0 00-14.944-11.494c5.027.249 10.071.607 15.131 1.071 4.815 3.423 9.669 6.922 14.562 10.498l.011-.015zm-35.702-14.26c-5.084-.173-10.074-.157-15.053-.085a958.167 958.167 0 00-15.342-11.909c5.065.199 10.181.553 15.345 1.064a1115.326 1115.326 0 0115.039 10.946l.011-.016zm-35.932-14.477c-3.36-.109-6.702-.205-10.063-.172-1.753.01-3.496.075-5.278.088a878.29 878.29 0 00-15.615-12.278c5.185.248 10.449.602 15.689 1.128 5.083 3.693 10.167 7.458 15.267 11.234zm-37.568-12.619l4.538.172a986.37 986.37 0 0115.829 12.412c-5.29.104-10.523.343-15.786.728a993.97 993.97 0 00-16.116-13.433c3.88-.029 7.73.015 11.563.118l-.028.003zm23.205 14.805a979.53 979.53 0 0115.976 13.163c-5.257.413-10.499.979-15.702 1.67-3.729-3.317-7.46-6.595-11.194-9.836-1.699-1.472-3.415-2.886-5.125-4.342a583.2 583.2 0 0116.05-.627l-.005-.028zm18.611 15.376l1.324 1.099c4.952 4.223 9.895 8.494 14.828 12.813a259.78 259.78 0 00-15.629 2.699 1340.236 1340.236 0 00-16.495-14.927 277.741 277.741 0 0115.978-1.656l-.006-.028zm18.691 16.22a1392.86 1392.86 0 0116.434 14.692c-5.103.979-10.27 2.219-15.336 3.534a2695.161 2695.161 0 00-16.901-15.679 495.436 495.436 0 0115.888-2.627l-.085.08zm18.968 16.972c12.386 11.219 24.614 22.581 36.628 33.738 64.067 59.336 130.227 120.841 210.487 156.441a396.705 396.705 0 0061.79 21.5c-2.71.15-5.42.29-8.12.41-26.21-5.53-51.97-13.8-76.81-24.67-83.67-36.726-152.12-101.403-218.282-164.029-7.027-6.631-14.143-13.352-21.299-20.054a481.473 481.473 0 0115.645-3.354l-.039.018zm247.565 189.039c-80.05-35.49-146.17-96.846-210.119-156.194-11.819-10.964-23.833-22.121-35.984-33.165 5.154-.941 10.358-1.845 15.538-2.505 17.328 15.068 34.4 30.589 51.075 45.767 61.79 56.276 125.68 114.477 202.49 148.907a399.995 399.995 0 0050.82 18.75c-2.84.29-5.69.55-8.56.79-22.24-5.5-44.07-12.99-65.22-22.37l-.04.02zm75.56 22.06c2.91.82 5.82 1.64 8.68 2.36-2.72.15-5.3.33-7.94.45-3.02-.65-6-1.33-8.94-2.01 2.78-.27 5.5-.54 8.24-.82l-.04.02zm11.07 3.01c2.63.66 5.26 1.33 7.91 1.95-2.22.07-4.43.17-6.61.23-2.86-.53-5.71-1.09-8.62-1.63 2.45-.21 4.9-.39 7.36-.57l-.04.02zm4.1-.34c2.76-.2 5.4-.5 8.13-.76 2.82.83 5.65 1.62 8.48 2.38-2.54.19-5.1.36-7.62.49-2.96-.67-5.95-1.38-8.95-2.13l-.04.02zm19.28 2.38c2.57.67 5.09 1.39 7.72 1.96-2.27.08-4.52.08-6.77.13-2.66-.53-5.3-1.05-7.95-1.61 2.38-.19 4.78-.31 7.06-.53l-.06.05zm4.47-.35c2.61-.21 5.22-.49 7.84-.76 2.77.84 5.51 1.7 8.35 2.42-2.58.17-5.1.27-7.67.39-2.79-.71-5.61-1.37-8.45-2.1l-.07.05zm19.03 2.46c2.43.66 4.88 1.23 7.28 1.89-2.07.06-4.16.13-6.23.15-2.6-.5-5.2-1.04-7.78-1.6 2.27-.18 4.53-.34 6.78-.5l-.05.06zm4.75-.39c2.5-.21 5.02-.44 7.53-.7l7.93 2.38c-2.34.14-4.68.31-7.02.41-2.77-.74-5.58-1.42-8.4-2.15l-.04.06zm11.77-1.18l5.28-.58 3.16-.47c2.79.98 5.6 1.94 8.35 2.8-2.77.22-5.37.53-8.05.73-2.83-.81-5.74-1.71-8.7-2.54l-.04.06zm19.66 2.67c2.59.82 5.21 1.62 7.83 2.4-2.5.14-4.97.24-7.44.34-2.67-.65-5.35-1.33-8.01-2.03 2.56-.25 5.08-.5 7.64-.74l-.02.03zm11.28 3.41c2.18.58 4.45 1.24 6.69 1.84-1.99.04-3.95.09-5.92.11-2.38-.51-4.74-1.02-7.12-1.57 2.14-.15 4.26-.27 6.38-.41l-.03.03zm5.31-.41c.88-.06 1.74-.1 2.7-.13 1.62-.14 3.22-.33 4.83-.5 2.56.83 5.12 1.61 7.69 2.39-2.41.15-4.8.28-7.19.39-2.7-.76-5.35-1.44-8.01-2.18l-.02.03zm19.11 2.95c2.12.65 4.25 1.3 6.41 1.9-2.03.04-4.05.02-6.07.03-2.24-.5-4.5-.96-6.7-1.52 2.02-.26 4.16-.37 6.36-.41zm18.19 2.99c1.97-.09 3.94-.25 5.91-.38 2.13.64 4.28 1.26 6.43 1.88-1.88.01-3.75.03-5.61.01-2.27-.57-4.53-1.07-6.76-1.61l.03.1zm11.89-.71c2.38-.19 4.75-.43 7.11-.66 2.41.86 4.84 1.7 7.24 2.5-2.32.11-4.67.19-7 .24-2.49-.77-4.94-1.47-7.38-2.18l.03.1zm18.74 3.24l6.05 1.89c-1.43 0-2.87.04-4.32.03l-1.15-.04c-2.2-.54-4.4-1.09-6.58-1.66 2-.14 4-.2 5.97-.32l.03.1zm37.21 7.88l-1.35-.28-2.67-.65 3.43-.03 3.71 1.13c-1.07-.15-2.11-.18-3.15-.26l.03.09zm-12.09-2.88l-6.05-1.61 5.84-.22c1.97.65 3.91 1.33 5.85 1.96-1.89-.12-3.78-.18-5.67-.23l.03.1zm-11.65-3.16c-2.52-.72-5.02-1.46-7.53-2.23 2.42-.17 4.84-.34 7.26-.54 2.37.88 4.74 1.72 7.11 2.53-2.31 0-4.58.1-6.79.2l-.05.04zm-11.81-3.56c-2.7-.86-5.39-1.73-8.1-2.65 2.76-.21 5.38-.6 8.05-.94 2.68 1.07 5.34 2.09 7.98 3.06-2.67.12-5.36.34-7.96.43l.03.1zm-11.56-3.81c-2.91-1.01-5.86-1.95-8.7-3.11 2.92-.43 5.85-.85 8.79-1.31 2.81 1.17 5.62 2.33 8.43 3.43-2.84.31-5.68.61-8.55.88l.03.11zm-11.39-4.12c-3.01-1.14-6.1-2.33-9.06-3.5 3.04-.58 6.19-1.1 9.28-1.69 2.97 1.34 5.9 2.59 8.92 3.89-3.08.41-6.14.81-9.16 1.19l.02.11zm-11.31-4.43c-3.1-1.25-6.19-2.52-9.29-3.86 3.25-.66 6.5-1.32 9.74-2.04 3.02 1.45 6.06 2.84 9.09 4.24-3.19.46-6.37 1.03-9.57 1.55l.03.11zm-11.09-4.67c-3.19-1.39-6.36-2.78-9.54-4.26 3.32-.71 6.66-1.51 10.02-2.4 3.13 1.58 6.25 3.1 9.4 4.58-3.33.63-6.61 1.32-9.9 1.97l.02.11zm-11.05-4.97c-3.19-1.48-6.4-3.02-9.61-4.62 3.42-.89 6.85-1.81 10.26-2.77 3.11 1.68 6.25 3.32 9.4 4.91-3.32.83-6.68 1.62-10.07 2.37l.02.11zm-10.83-5.19l-.6-.3c-3.06-1.51-6.07-3.07-9.1-4.65 3.51-1.01 6.95-1.99 10.48-3.1 3.19 1.78 6.38 3.53 9.58 5.26-3.51.83-6.85 1.82-10.38 2.68l.02.11zm-10.7-5.54a438.43 438.43 0 01-9.74-5.29c3.47-1.16 7.12-2.25 10.64-3.42 3.22 1.88 6.43 3.74 9.68 5.58-3.59 1.02-7.12 2.05-10.64 3.08l.06.05zm-10.55-5.74c-45.58-25.38-87.89-57.503-129-88.708-22.19-16.839-45.15-34.267-68.26-50.36-23.81-16.583-47.22-31.424-70.24-44.521 3.51.931 7.11 1.938 10.79 3.021a912.109 912.109 0 0189.73 53.932c22.7 15.339 45.33 31.907 67.19 47.929 35.5 25.976 71.92 52.607 110.34 75.307-3.5 1.1-7.05 2.23-10.61 3.35l.06.05zm-198.51-137.378c23.06 16.055 45.98 33.458 68.15 50.301 40.64 30.856 82.5 62.597 127.52 87.887-3.45 1.14-7.08 2.14-10.62 3.15-52.49-27.35-100.18-64.665-146.31-100.946-22.48-17.648-45.71-35.871-69.2-52.692-19.67-14.094-39.11-26.972-58.3-38.636 3.87.823 7.82 1.727 11.85 2.714a902.998 902.998 0 0176.91 48.222zm-94.83-54.571a990.402 990.402 0 00-11.01-6.463c3.35.896 6.74 1.816 10.15 2.761 3.63 1.879 7.3 3.798 10.99 5.756-3.38-.718-6.68-1.358-10.13-2.054zm-5.69-1.048c-3.98-.716-7.99-1.36-12.02-1.93-4.21-2.69-8.41-5.329-12.61-7.916 4.05.833 8.11 1.75 12.2 2.707 4.12 2.315 8.25 4.687 12.43 7.139zm-16.53-2.56c-4.41-.582-8.84-1.121-13.29-1.543a755.773 755.773 0 00-13.6-9.093c4.48.675 8.99 1.475 13.51 2.345 4.44 2.667 8.9 5.445 13.36 8.279l.02.012zm-31.87-13.872a714.573 714.573 0 00-12.222-7.743c4.322.819 8.622 1.84 12.952 2.857 3.87 2.2 7.75 4.483 11.63 6.782-4.15-.709-8.28-1.345-12.38-1.908l.02.012zm-4.07-.632a368.322 368.322 0 00-13.394-1.406 828.481 828.481 0 00-13.398-9.113c4.581.712 9.199 1.515 13.854 2.409 4.25 2.672 8.551 5.381 12.878 8.131l.06-.021zm-31.58-13.661a782.29 782.29 0 00-12.941-8.322c4.352.844 8.704 1.831 13.078 2.858a858.327 858.327 0 0112.693 7.496 609.107 609.107 0 00-12.814-1.948l-.016-.084zm-3.882-.495a345.43 345.43 0 00-13.831-1.489 808.278 808.278 0 00-14.027-9.602c4.698.696 9.339 1.468 14.158 2.421 4.59 2.859 9.173 5.762 13.751 8.707l-.051-.037zm-32.214-14.007a788.744 788.744 0 00-12.974-8.419c4.527.926 9.104 1.937 13.731 3.032a815.5 815.5 0 0112.446 7.408 479.653 479.653 0 00-13.152-1.984l-.051-.037zm-3.565-.5c-4.755-.618-9.555-1.176-14.153-1.512a840.21 840.21 0 00-14.138-9.804c4.866.749 9.753 1.6 14.659 2.554a778.833 778.833 0 0113.682 8.8l-.05-.038zm-32.422-14.113c-4.536-3.026-9.076-6-13.619-8.92 4.622 1.044 9.385 2.002 14.114 3.148a711.568 711.568 0 0113.219 7.982 423.386 423.386 0 00-13.664-2.173l-.05-.037zm-3.239-.448a393.78 393.78 0 00-14.626-1.649 812.283 812.283 0 00-14.563-10.214c4.956.769 9.918 1.636 14.929 2.611 4.801 3.055 9.5 6.107 14.31 9.289l-.05-.037zm-33.085-14.486a821.192 821.192 0 00-13.977-9.28c4.797.983 9.618 2.063 14.462 3.24 4.544 2.699 9.092 5.496 13.663 8.334a395.813 395.813 0 00-14.097-2.256l-.051-.038zm-2.974-.418a325.762 325.762 0 00-14.896-1.706c-5.049-3.739-9.988-7.135-14.984-10.597a412.428 412.428 0 0115.279 2.703 879.811 879.811 0 0114.652 9.637l-.051-.037zm-33.404-14.723c-4.816-3.28-9.61-6.521-14.41-9.647a443.68 443.68 0 0114.817 3.36 758.168 758.168 0 0114.134 8.683 406.269 406.269 0 00-14.558-2.408l.017.012zm-2.721-.373a365.157 365.157 0 00-15.29-1.807c-5.049-3.74-10.179-7.372-15.331-10.973a436.146 436.146 0 0115.689 2.817 981.017 981.017 0 0114.915 9.951l.017.012zm-19.196-.228c1.595.135 3.195.297 4.845.496a1480.78 1480.78 0 0115.928 11.962c-5.315-.178-10.614-.272-15.926-.209a972.915 972.915 0 00-16.186-12.986c3.759.168 7.547.403 11.322.725l.017.012zm23.522 14.517a1129.12 1129.12 0 0116.092 12.726c-5.308.129-10.617.376-15.927.742a1131.23 1131.23 0 00-16.367-13.762c5.39.043 10.774.128 16.202.294zm18.683 14.858a856.56 856.56 0 0116.228 13.493c-5.314.418-10.578 1.015-15.854 1.699a494.685 494.685 0 00-6.542-5.843c-3.329-2.965-6.665-5.816-9.989-8.682 5.278-.23 10.715-.533 16.111-.605l.046-.062zm18.779 15.643c1.99 1.712 3.981 3.353 5.977 5.092 3.498 3.019 6.979 6.097 10.477 9.186-5 .699-9.989 1.453-14.833 2.433l-1.011.203a1516.365 1516.365 0 00-16.661-15.264 382.817 382.817 0 0116.005-1.588l.046-.062zm29.576 35.272c2.728-.621 5.494-1.118 8.249-1.671a3652.259 3652.259 0 0116.991 15.77 297.909 297.909 0 00-15.269 4.465 3885.291 3885.291 0 00-17.498-16.74c2.395-.629 4.958-1.205 7.482-1.762l.045-.062zm27.554 16.289a4393.85 4393.85 0 0121.758 20.489c66.28 62.643 134.82 127.438 218.66 164.305 23.54 10.3 47.92 18.28 72.72 23.81-2.44.09-4.87.17-7.3.23-30.21-5.3-59.94-14.24-88.5-26.6-87.37-37.96-158.239-106.093-226.754-171.984l-5.955-5.719a247.143 247.143 0 0115.325-4.47l.046-.061zm315.678 209.154l.22-.01c2.41.5 4.83 1.04 7.24 1.51-1.98.01-3.99-.06-5.98-.08-2.66-.39-5.31-.79-7.95-1.24 2.11.01 4.27-.03 6.43-.12l.04-.06zm4.54-.26c2.54-.14 5.05-.3 7.56-.49 2.74.7 5.49 1.35 8.23 1.98-.68.04-1.39.09-2.08.1-1.66.06-3.36.06-5.02.09-2.94-.46-5.84-1.02-8.73-1.61l.04-.07zm13.86 2.41c1.63-.05 3.27-.16 4.91-.23 2.26.48 4.61 1.03 6.93 1.49-1.84-.01-3.69-.02-5.54-.06-2.49-.37-4.99-.75-7.49-1.17l1.19-.03zm22.51 1.98c1.91-.04 3.83-.1 5.75-.2 2.22.53 4.45 1.04 6.55 1.43h-5.21c-2.51-.41-4.84-.78-7.18-1.21l.09-.02zm29.14 1.9c2.02.47 4.04.92 6.06 1.35l-2.66.08-1.95-.07c-2.31-.41-4.46-.71-6.67-1.11 1.58-.09 3.34-.14 5.12-.23l.1-.02zm18.59 2.35l5.03-.18 5.55 1.31-4.56-.08-6.02-1.05zm10.77-.47c2.12-.12 4.23-.25 6.35-.41 2.33.65 4.66 1.28 7 1.88-2.03.06-4.04.07-6.06.1-2.49-.44-4.93-.99-7.35-1.52l.06-.05zm17.72 2.58l5.28 1.25c-1.33-.01-2.6-.02-3.98-.09-1.9-.32-3.81-.66-5.71-1.02l4.41-.14zm11.54 2.65l1.65.34-.25-.02-2.32-.38.92.06zm7.94-.17c1.48-.03 2.98-.05 4.48-.1l4.76 1.14-4.01-.11c-1.81-.2-3.48-.48-5.21-.81l-.02-.12zm16 2.65l.78.17-1.23-.17h.45zm8.52-.04l4.29-.13 4.49 1.19-3.79.04c-1.62-.37-3.29-.65-4.97-.99l-.02-.11zm16.15 2.82l.38.09-.61-.09h.23zm8.67-.02c.65-.02 1.28 0 1.94-.02l1.96-.07 4.22 1.17-3.46-.18-4.66-.9zm79.72 11.1l-4.27-1.02 3.21-.01 3.72 1.17-2.66-.14zm-12.55-3.08c-2.02-.55-4.02-1.08-6.03-1.67 1.86-.05 3.71-.15 5.58-.22l5.9 1.99-5.45-.1zm-12.04-3.45c-2.4-.73-4.82-1.45-7.23-2.24 2.42-.13 4.84-.27 7.25-.46 2.33.9 4.68 1.73 7.01 2.6-2.38.05-4.73.06-7.07.09l.04.01zm-11.61-3.68c-2.76-.92-5.53-1.83-8.33-2.83 2.82-.29 5.56-.47 8.22-.86 2.63 1.09 5.28 2.13 7.93 3.16-2.64.19-5.24.4-7.87.52l.05.01zm-11.8-4.09c-2.85-1.04-5.71-2.07-8.56-3.15 2.91-.42 5.85-.86 8.77-1.29 2.82 1.23 5.64 2.42 8.46 3.58-2.93.32-5.83.58-8.71.85l.04.01zm-11.49-4.33c-3-1.17-6.05-2.39-8.98-3.58 3.11-.51 6.24-1.05 9.38-1.61 2.91 1.34 5.85 2.66 8.76 3.94-3.09.44-6.16.85-9.21 1.24l.05.01zm-11.36-4.58c-3.08-1.3-6.14-2.62-9.21-3.97 3.26-.63 6.47-1.31 9.7-2.01 3.04 1.49 6.09 2.93 9.12 4.37-3.25.54-6.4 1.11-9.66 1.6l.05.01zm-11.25-4.88c-3.13-1.39-6.25-2.85-9.36-4.32 3.32-.71 6.67-1.49 10.03-2.35 3.08 1.57 6.15 3.13 9.22 4.65-3.33.7-6.65 1.38-9.93 2.01l.04.01zm-22.02-10.48l-1.39-.67c-2.78-1.42-5.52-2.85-8.27-4.31 3.49-.99 6.97-2 10.44-3.05 3.19 1.79 6.36 3.56 9.56 5.29-3.48.93-6.95 1.84-10.39 2.73l.05.01zm-10.82-5.63c-3.25-1.74-6.5-3.51-9.73-5.33 3.44-1.14 7.03-2.22 10.53-3.36 3.24 1.9 6.47 3.77 9.74 5.62-3.55 1.08-7.09 2.11-10.62 3.08l.08-.01zm-10.69-5.87c-3.28-1.83-6.55-3.7-9.79-5.61 3.49-1.2 7.01-2.42 10.52-3.65 3.25 1.98 6.54 3.94 9.82 5.89-3.57 1.19-7.09 2.29-10.62 3.39l.07-.02zm-10.57-6.07c-38.94-22.84-75.86-49.85-111.83-76.175-21.89-16.019-44.53-32.599-67.27-47.963a933.934 933.934 0 00-79.94-48.635l6.8 2.182a897.303 897.303 0 01103.52 59.058c22.35 14.623 44.7 30.34 66.31 45.536 30.15 21.203 61.06 42.837 92.99 62.437-3.59 1.15-7.11 2.39-10.65 3.58l.07-.02zm-270.57-178.956l-2.46-1.251 3.44 1.52-.98-.269zm-18.64-4.741l-8.3-4.527c2.74.839 5.5 1.692 8.27 2.6a642.7 642.7 0 018.04 3.929c-2.64-.737-5.29-1.416-8.01-2.002zm-29.14-12.918c-2.5-.638-4.94-1.281-7.47-1.802a561.259 561.259 0 00-7.41-4.079c2.67.805 5.37 1.592 7.98 2.502 2.34 1.066 4.64 2.177 6.94 3.332l-.04.047zm8.16 1.731l4.69 1.718-3-.842-1.69-.876zm-22.52-5.11a389.48 389.48 0 00-10.54-2.125 698.215 698.215 0 00-10.35-6.119c3.65.931 7.34 1.919 11.07 2.965a887.62 887.62 0 019.82 5.279zm-28.29-12.508l-9.079-5.058c2.879.869 5.699 1.842 8.629 2.705 2.99 1.453 5.96 2.936 8.96 4.445-2.88-.755-5.72-1.456-8.54-2.117l.03.025zm-6.52-1.474a382.05 382.05 0 00-11.34-2.284 997.822 997.822 0 00-11.552-6.89c3.891.963 7.807 1.999 11.746 3.109 3.658 1.923 7.382 3.968 11.116 6.04l.03.025zm-29.857-13.213c-2.881-1.634-5.763-3.269-8.633-4.848a418.98 418.98 0 0110.29 3.244 493.593 493.593 0 017.806 3.925 298.143 298.143 0 00-9.496-2.346l.033.025zm-5.826-1.318a368.533 368.533 0 00-11.667-2.335 683.24 683.24 0 00-11.237-6.823 569.683 569.683 0 0112.275 3.309 243.006 243.006 0 0110.595 5.824l.034.025zm-29.47-12.997a1015.44 1015.44 0 00-9.975-5.675 501.014 501.014 0 0110.554 3.344c3.187 1.575 6.356 3.208 9.475 4.804-3.344-.858-6.7-1.687-10.07-2.486l.016.013zm-5.561-1.288a340.277 340.277 0 00-12.399-2.545c-4.087-2.575-8.153-5.038-12.23-7.487a502.333 502.333 0 0112.759 3.43 632.017 632.017 0 0111.853 6.589l.017.013zm-30.7-13.624a831.272 831.272 0 00-10.605-6.092 715.104 715.104 0 0111.18 3.521c3.375 1.707 6.773 3.43 10.193 5.17-3.629-.896-7.224-1.766-10.785-2.611l.017.012zm-5.14-1.189c-4.286-.97-8.561-1.86-12.826-2.671a797.792 797.792 0 00-12.747-7.846c4.391 1.111 8.758 2.252 13.232 3.566a768.172 768.172 0 0112.324 6.939l.017.012zm-31.183-13.886a462.181 462.181 0 00-11.262-6.508 492.687 492.687 0 0111.833 3.767 828.584 828.584 0 0110.799 5.618 418.73 418.73 0 00-11.387-2.89l.017.013zm-4.74-1.131a323.008 323.008 0 00-13.361-2.758 784.73 784.73 0 00-13.167-8.228 465.158 465.158 0 0113.744 3.754 571.038 571.038 0 0112.756 7.235l.028-.003zm-31.615-14.112a528.067 528.067 0 00-11.98-7.016 384.935 384.935 0 0112.473 4.028 354.066 354.066 0 0111.506 6.142 273.728 273.728 0 00-12.028-3.151l.029-.003zm-4.414-1.079c-4.638-1.056-9.21-2.063-13.805-2.968-4.575-2.936-9.145-5.845-13.711-8.655a475.014 475.014 0 0114.194 3.922 701.976 701.976 0 0113.294 7.704l.028-.003zm-17.088-3.567a342.858 342.858 0 00-14.896-2.515 777.839 777.839 0 00-14.908-10.065 395.493 395.493 0 0115.295 3.524 566.32 566.32 0 0114.509 9.056zm-33.65-15.095c-4.687-3.067-9.381-6.091-14.148-9.05 4.908 1.256 9.77 2.644 14.677 4.113a643.847 643.847 0 0113.794 8.05c-4.763-1.1-9.485-2.219-14.3-3.144l-.023.031zm-2.933-.578a429.034 429.034 0 00-15.329-2.67 869.052 869.052 0 00-15.273-10.453 433.433 433.433 0 0115.734 3.706 600.872 600.872 0 0114.89 9.386l-.022.031zM735.364 711.9a705.33 705.33 0 00-14.709-9.489 524.115 524.115 0 0115.183 4.345 744.858 744.858 0 0114.276 8.455 411.464 411.464 0 00-14.727-3.341l-.023.03zm-12.466-.763c4.5.787 8.976 1.676 13.492 2.617a905.401 905.401 0 0115.604 10.604l-1.335-.204a342.262 342.262 0 00-14.591-1.765c-5.353-3.964-10.689-7.915-16.042-11.737l2.872.485zm27.699 14.755l4.652.757a839.69 839.69 0 0115.998 11.515 454.83 454.83 0 00-16.173-1.177 860.972 860.972 0 00-16.291-12.564c3.911.375 7.834.837 11.769 1.389l.045.08zm23.489 14.35a840.82 840.82 0 0116.18 12.291 291.02 291.02 0 00-16.293-.171 1021.55 1021.55 0 00-16.488-13.352c5.524.142 11.052.596 16.557 1.152l.044.08zm18.839 14.332a991.15 991.15 0 0116.365 13.094c-5.435.09-10.838.347-16.186.741a924.495 924.495 0 00-16.64-14.131c5.45-.087 10.922-.015 16.416.215l.045.081zm18.805 15.115c5.506 4.53 10.99 9.161 16.49 13.877-4.766.347-9.517.779-14.239 1.349l-1.975.274-1.687-1.558a1085.796 1085.796 0 00-15.017-13.333c5.37-.353 10.886-.622 16.383-.69l.045.081zm2.738 17.419c5.355-.65 10.748-1.105 16.157-1.476 3.583 3.081 7.148 6.15 10.719 9.318l5.93 5.295c-2.003.277-4.029.513-6.027.818a222.31 222.31 0 00-10.143 1.766 1111.869 1111.869 0 00-17.025-15.724l.389.003zm27.356 16.238c2.602-.452 5.153-.728 7.737-1.051a1523.19 1523.19 0 0116.763 15.34 283.518 283.518 0 00-15.889 3.577 2187.568 2187.568 0 00-17.23-16.399 316.422 316.422 0 018.541-1.573l.078.106zm26.73 16.345a2414.115 2414.115 0 0117.079 16.073c-5.218 1.345-10.37 2.882-15.517 4.518a8491.615 8491.615 0 00-17.569-17.03c5.264-1.478 10.56-2.647 15.929-3.667l.078.106zm19.309 18.2a4573.59 4573.59 0 0117.565 16.79 280.657 280.657 0 00-15.094 5.355l-7.782-7.618-10.325-10.025c5.109-1.76 10.323-3.275 15.558-4.607l.078.105zm19.834 18.97l6.331 6.092c68.599 65.953 139.492 134.225 227.102 172.217 26.96 11.68 54.96 20.31 83.43 25.73-2.07.01-4.15.04-6.23 0-34.24-4.85-68.02-14.35-100.35-28.22-86.96-37.42-157.614-104.298-225.529-170.576 4.975-2.002 10.044-3.743 15.134-5.374l.112.131zm209.983 176.649c30.15 12.91 61.56 22.05 93.45 27.19l-4.89-.19c-38.09-4.18-75.8-14.1-111.75-29.4-83.65-35.664-152.415-98.265-217.694-162.401 4.908-2.194 9.85-4.291 14.841-6.209 67.88 66.254 138.713 133.34 225.933 170.88l.11.13zm105.54 27.94l4.77-.01 5.3.9-3.75-.14-6.32-.75zm24.01 1.96c1.29.01 2.61-.02 3.92-.05 1.55.29 3.1.59 4.61.8l-3.24-.16c-1.73-.16-3.52-.35-5.29-.59zm23.87 1.97l3.27.05c1.3.25 2.58.5 3.87.72-.81-.03-1.63-.04-2.5-.14-1.5-.08-3.05-.42-4.64-.63zm24.01 2.11l2.51-.05 3.49.64-1.96-.1c-1.34-.16-2.73-.33-4.04-.49zm48.18 4.37l1.52-.01 2.25.48-.8-.05-2.97-.42zm174.8 19.54l-2.91-.82-3.13-.98 5.78-.1c1.89.71 3.78 1.44 5.67 2.13l-5.41-.23zm-12.12-3.73l-7.06-2.36c2.39-.13 4.76-.3 7.11-.46l6.95 2.76-7 .06zm-11.88-4.05c-2.6-.9-5.17-1.85-7.77-2.82 2.82-.29 5.54-.44 8.26-.76l7.55 3.21c-2.72.18-5.38.3-8.04.37zm-11.53-4.21a478.8 478.8 0 01-8.61-3.37c2.92-.43 5.95-.76 8.92-1.17l8.33 3.78c-2.87.28-5.78.55-8.67.79l.03-.03zm-11.67-4.52c-2.92-1.19-5.83-2.44-8.75-3.67 3.11-.51 6.23-1.05 9.34-1.6 2.92 1.37 5.79 2.74 8.73 4.09-3.17.38-6.36.71-9.32 1.18zm-11.42-4.82a699.01 699.01 0 01-9.13-4.07c3.28-.62 6.54-1.27 9.79-1.96 3 1.51 6 2.99 8.99 4.45-3.3.48-6.5 1.03-9.73 1.52l.08.06zm-11.31-5.07c-3.11-1.42-6.21-2.91-9.25-4.47 3.31-.72 6.66-1.5 10.03-2.35 3.1 1.63 6.17 3.24 9.25 4.79-3.47.71-6.78 1.35-10.11 1.97l.08.06zm-22.27-10.85l-2.46-1.23-7.18-3.81c3.49-.98 6.95-1.98 10.39-3.02 3.21 1.83 6.43 3.6 9.66 5.37-3.48.93-7.01 1.76-10.49 2.63l.08.06zm-10.98-5.76a466.26 466.26 0 01-9.75-5.36c3.51-1.06 7-2.17 10.48-3.3 3.24 1.92 6.5 3.79 9.75 5.65-3.58.97-7.08 1.97-10.57 2.95l.09.06zm-10.85-5.98c-3.27-1.85-6.56-3.74-9.81-5.65 3.47-1.17 6.96-2.36 10.45-3.56 3.29 2.01 6.57 3.98 9.89 5.94-3.59 1.05-7.11 2.14-10.61 3.21l.08.06zm-10.74-6.19c-3.33-1.95-6.64-3.92-9.92-5.92 3.49-1.2 6.91-2.5 10.34-3.79 3.33 2.08 6.69 4.12 10.04 6.15-3.56 1.15-7.05 2.34-10.54 3.49l.08.07zm-10.68-6.37c-32.5-19.76-63.88-41.812-94.51-63.349-21.62-15.224-43.98-30.953-66.36-45.601a945.247 945.247 0 00-86.8-50.883l2.76 1.022a914.806 914.806 0 01114.33 62.376c22.1 13.983 44.28 28.892 65.73 43.324 24.53 16.5 49.58 33.311 75.17 49.201-3.49 1.33-6.94 2.61-10.41 3.85l.09.06zm-353.86-202.619l-3.03-.839c-1.42-.748-2.85-1.523-4.28-2.243l2.06.74 5.25 2.342zm-35.231-14.364l-3.939-1.086-3.287-1.721 5.36 1.948 1.866.859zm-33.361-13.62l-5.858-1.698-5.618-2.971c2.182.783 4.364 1.567 6.524 2.452l4.952 2.217zm-35.232-14.577l-6.702-1.966-6.394-3.403c2.335.825 4.658 1.665 7.003 2.545l6.093 2.824zm-35.535-14.802l-7.484-2.212-7.287-3.921c2.649.963 5.298 1.925 7.942 2.931 2.643 1.006 4.581 2.085 6.852 3.171l-.023.031zm-35.214-14.778c-2.819-.874-5.582-1.754-8.424-2.527-2.809-1.556-5.573-3.032-8.455-4.596a549.21 549.21 0 018.875 3.29l8.004 3.833zm-36.174-15.417a526.925 526.925 0 00-9.082-2.729 553.81 553.81 0 00-9.078-4.986 395.333 395.333 0 019.803 3.691c2.81 1.273 5.592 2.619 8.38 3.993l-.023.031zm-14.749-4.333c-4.204-1.186-8.403-2.273-12.579-3.32-4.145-2.498-8.267-4.956-12.418-7.34a419.879 419.879 0 0113.115 4.287c3.978 2.019 7.939 4.167 11.905 6.343l-.023.03zm-31.175-14.213a513.91 513.91 0 00-9.994-5.545 598.799 598.799 0 0110.759 4.09c3.052 1.475 6.137 2.974 9.251 4.471-3.309-1.022-6.544-1.967-9.943-3.009l-.073-.007zm-5.194-1.468a508.362 508.362 0 00-13.305-3.572c-4.302-2.638-8.614-5.261-12.922-7.785 4.574 1.46 9.187 2.973 13.777 4.588a431.15 431.15 0 0112.563 6.758l-.113.011zm-32.058-14.676c-3.566-2.046-7.15-4.105-10.712-6.053a419.79 419.79 0 0111.72 4.516c3.372 1.641 6.75 3.309 10.076 5.083-3.594-1.306-7.302-2.458-10.988-3.57l-.096.024zm-4.614-1.371a441.585 441.585 0 00-13.704-3.773c-4.587-2.85-9.17-5.601-13.747-8.325a604.636 604.636 0 0114.132 4.78 446.35 446.35 0 0113.415 7.294l-.096.024zm-32.449-15.062c-3.965-2.318-7.926-4.537-11.88-6.728a771.82 771.82 0 0112.124 4.744c3.821 1.879 7.643 3.757 11.509 5.787-3.853-1.378-7.752-2.624-11.657-3.827l-.096.024zm-4.254-1.294a488.604 488.604 0 00-14.395-4.071 827.033 827.033 0 00-14.319-8.82c5.033 1.65 10.06 3.39 15.081 5.221 4.624 2.449 9.168 5.006 13.695 7.621l-.062.049zm-33.449-15.683a809.223 809.223 0 00-12.289-7.127c4.235 1.638 8.514 3.285 12.776 5.061 3.973 1.991 7.934 4.068 11.912 6.157a418.06 418.06 0 00-12.337-4.14l-.062.049zm1.004 1.6a761.46 761.46 0 0115.162 9.23 378.698 378.698 0 00-8.589-2.127 184.92 184.92 0 00-7.105-1.598 714.716 714.716 0 00-15.729-10.435 389.871 389.871 0 0116.324 4.881l-.063.049zm6.356 8.417a476.77 476.77 0 0112.709 3.25A1078.014 1078.014 0 01695.806 695l-.495-.105a440.026 440.026 0 00-15.627-2.866 997.475 997.475 0 00-16.101-11.305c1.346.259 2.635.524 3.947.829l-.079.037zm27.67 14.758l4.059.889a879.177 879.177 0 0116.052 11.054 322.68 322.68 0 00-16.443-2.185l-16.411-12.154c4.336.69 8.577 1.475 12.805 2.347l-.062.049zm22.962 14.007a1043.207 1043.207 0 0116.283 11.868c-5.487-.543-10.987-1-16.471-1.303a1082.714 1082.714 0 00-16.525-12.879c5.589.547 11.165 1.393 16.775 2.265l-.062.049zm18.886 13.843c5.521 4.089 10.99 8.353 16.482 12.657-5.53-.241-11.015-.33-16.495-.321a1057.226 1057.226 0 00-16.779-13.733c5.67.297 11.271.758 16.855 1.348l-.063.049zm18.95 14.604a1033.59 1033.59 0 0116.651 13.449c-4.421.056-8.831.169-13.19.39-1.128.044-2.228.157-3.339.215a1051.638 1051.638 0 00-16.898-14.488c5.632-.039 11.297.159 16.838.385l-.062.049zm3.73 15.798c5.07-.265 10.173-.364 15.287-.407a950.46 950.46 0 0116.776 14.231c-1.692.103-3.401.193-5.088.324-3.819.336-7.65.758-11.447 1.205a1349.022 1349.022 0 00-17.051-15.267 14.413 14.413 0 011.585-.135l-.062.049zm27.339 16.226c2.319-.21 4.654-.337 6.972-.475 5.236 4.543 10.443 9.161 15.61 13.939l1.16 1.073a297.263 297.263 0 00-16.418 2.567 1219.724 1219.724 0 00-15.801-14.842l-1.362-1.223c3.374-.475 6.579-.861 9.901-1.088l-.062.049zm25.912 16.429a1338.36 1338.36 0 0117.025 15.724 306.7 306.7 0 00-16.12 3.572 1914.85 1914.85 0 00-17.407-16.792c5.504-1.062 11.057-1.874 16.564-2.553l-.062.049zm19.109 17.695a3002.414 3002.414 0 0117.28 16.436c-5.286 1.367-10.523 2.913-15.738 4.57-5.897-5.81-11.814-11.628-17.752-17.452 5.444-1.369 10.893-2.638 16.272-3.603l-.062.049zm19.392 18.476a6444.005 6444.005 0 0117.642 17.109 339.337 339.337 0 00-15.269 5.344l-3.68-3.653-14.469-14.354c5.248-1.632 10.519-3.153 15.838-4.495l-.062.049zm19.709 19.139l10.588 10.338 7.563 7.385c-4.974 1.931-9.888 4.025-14.796 6.219a55848.094 55848.094 0 01-18.731-18.629 347.843 347.843 0 0115.489-5.325l-.113.012zm199.74 186.925c-80.154-33.877-146.797-92.054-209.448-153.579 4.786-2.45 9.644-4.752 14.496-6.94 65.39 64.267 134.282 127.011 218.232 162.839 32.16 13.68 65.75 23.07 99.78 27.89-41.88-3.3-83.5-13.52-123.06-30.21zm487.84 70.43l-3.02-.36c-1.23-.34-2.45-.69-3.68-1.08 1.08.06 2.19.07 3.31.07l3.39 1.37zm-9.75-3.72l-5.38-.3-5.84-1.94c1.9 0 3.83 0 5.78-.03 1.74.72 3.55 1.48 5.44 2.27zm-10.37-4.3c-2.4 0-4.79-.01-7.16-.05-2.34-.8-4.69-1.64-7.05-2.51 2.44-.1 4.88-.22 7.31-.34 2.23.93 4.53 1.88 6.83 2.85l.07.05zm-10.81-4.75c-2.71.13-5.41.25-8.24.27-2.6-.99-5.19-1.96-7.81-3 2.76-.21 5.55-.45 8.34-.7l7.71 3.43zm-11.12-5.02c-2.92.21-5.9.5-8.85.69-2.75-1.1-5.5-2.21-8.28-3.39 3.04-.33 6.08-.7 9.11-1.11 2.62 1.35 5.27 2.63 7.98 3.87l.04-.06zm-10.89-5.04c-3.12.39-6.26.76-9.41 1.09-2.95-1.26-5.92-2.56-8.91-3.91 3.19-.47 6.4-.97 9.59-1.51 2.82 1.4 5.72 2.83 8.73 4.33zm-11.18-5.56c-3.3.54-6.58 1.04-9.86 1.53a318.52 318.52 0 01-8.97-4.26c3.29-.61 6.6-1.28 9.88-1.94 2.85 1.57 5.84 3.09 8.86 4.61l.09.06zm-11.14-5.72c-3.37.67-6.73 1.34-10.14 2.01-3.11-1.47-6.23-3-9.34-4.54 3.4-.75 6.78-1.52 10.15-2.29 3.03 1.53 6.14 3.15 9.24 4.76l.09.06zm-11.14-5.87c-3.42.8-6.86 1.56-10.31 2.28-3.14-1.56-6.3-3.18-9.47-4.82 3.45-.85 6.87-1.74 10.3-2.65 3.09 1.67 6.24 3.41 9.41 5.11l.07.08zm-11.12-6.09c-3.46.9-6.91 1.8-10.39 2.65l-3.77-1.94c-1.88-.98-3.85-2.13-5.76-3.17 3.35-1.01 6.95-1.99 10.35-2.92l9.57 5.38zm-11.03-6.22c-3.48.99-6.95 1.99-10.42 2.91-3.27-1.78-6.56-3.54-9.81-5.38 3.46-1.05 6.92-2.13 10.38-3.24 3.17 1.84 6.47 3.73 9.76 5.62l.09.09zm-11.07-6.42c-3.44 1.12-6.87 2.24-10.4 3.24-3.32-1.88-6.6-3.79-9.9-5.71 3.43-1.12 6.88-2.25 10.33-3.39 3.16 1.85 6.51 3.8 9.88 5.77l.09.09zm-11.08-6.54c-3.43 1.18-6.88 2.31-10.34 3.41-3.35-1.96-6.68-3.94-9.99-5.95 3.44-1.12 6.71-2.4 10.04-3.63l10.29 6.17zm-11.11-6.68c-3.34 1.24-6.72 2.45-10.07 3.63-3.39-2.03-6.8-4.08-10.18-6.16 3.32-1.25 6.63-2.51 9.91-3.79 3.37 2 6.84 4.18 10.25 6.23l.09.09zm-133.26-83.836c22.11 13.47 44.4 27.716 65.96 41.498 18.51 11.852 37.15 23.748 56.12 35.468-3.29 1.27-6.59 2.53-9.91 3.77-26.11-16.15-51.66-33.312-76.72-50.156-21.45-14.432-43.66-29.354-65.78-43.361-26.64-16.823-52.21-31.57-76.71-44.241a963.54 963.54 0 01107.04 57.022zM791.058 727.143l-.647-.217-.657-.344 1.304.561zm-35.198-15.361l-2.318-.812-2.439-1.283 4.757 2.095zm-35.501-15.728l-4.241-1.523-3.956-2.12a729.715 729.715 0 018.197 3.643zm-36.551-16.386l-4.837-1.774c-1.866-1.001-3.754-1.971-5.63-2.956 3.429 1.493 6.954 3.104 10.467 4.73zm-35.02-16.061c-2.474-.952-4.949-1.905-7.412-2.801-2.326-1.294-4.651-2.588-6.983-3.839 4.711 2.085 9.5 4.276 14.311 6.578l.084.062zm-37.052-17.257a620.134 620.134 0 00-8.34-3.274 791.36 791.36 0 00-8.342-4.608c5.475 2.461 11.028 5.098 16.598 7.819l.084.063zm-56.085-26.927c6.52 3.02 13.045 6.14 19.564 9.444-3.211-1.331-6.422-2.59-9.633-3.85a540.531 540.531 0 00-9.931-5.594zm14.868 8.465c4.842 1.944 9.705 3.999 14.597 6.051a630.008 630.008 0 0113.388 7.227c-4.562-1.689-9.146-3.347-13.708-4.894l-.152-.113c-4.757-2.761-9.418-5.547-14.114-8.287l-.011.016zm18.027 10.851a527.218 527.218 0 0115.962 5.827 880.22 880.22 0 0114.873 8.635c-2.318-.742-4.647-1.539-6.959-2.252-2.831-.859-5.667-1.675-8.565-2.512a810.52 810.52 0 00-15.3-9.713l-.011.015zm23.575 15.08l-5.041-3.329 5.16 1.443c3.827 1.168 7.646 2.451 11.483 3.745a685.32 685.32 0 0115.464 9.597 434.085 434.085 0 00-16.02-3.989c-3.733-2.456-7.353-4.923-11.08-7.421l.034-.046zm13.757 9.402c4.689 1.094 9.395 2.2 13.999 3.516l2.667.762a846.074 846.074 0 0116.128 10.635c-5.455-1.185-10.912-2.229-16.369-3.201a1387.31 1387.31 0 00-16.459-11.666l.034-.046zm18.877 13.504c5.654 1.023 11.363 2.254 16.926 3.471a854.034 854.034 0 0116.421 11.47c-5.559-.905-11.118-1.739-16.673-2.403a1272.908 1272.908 0 00-16.708-12.492l.034-.046zm18.997 14.329a387.838 387.838 0 0117.044 2.536 694.549 694.549 0 0116.596 12.29 411.755 411.755 0 00-16.758-1.443 1036.049 1036.049 0 00-16.916-13.337l.034-.046zm19.047 15.105c5.685.372 11.387.883 17.107 1.535a935.537 935.537 0 0116.761 13.054 350.577 350.577 0 00-11.713-.443l-5.153-.081c-5.674-4.725-11.343-9.423-17.036-14.019l.034-.046zm19.077 15.839l3.208-.003c4.622.093 9.284.31 13.928.585 5.631 4.503 11.255 9.12 16.896 13.821-1.223-.002-2.452-.032-3.67-.006-4.393.053-8.774.234-13.145.47-5.786-4.998-11.504-9.946-17.251-14.82l.034-.047zm19.195 16.594c3.79-.19 7.563-.322 11.38-.374 1.867-.021 3.772.01 5.655.001a1151.465 1151.465 0 0116.999 14.563c-5.517.41-11.191.823-16.721 1.462a2342.8 2342.8 0 00-17.381-15.56l.068-.092zm25.96 23.72l-6.781-6.329c5.642-.58 11.227-1.083 16.941-1.372a1355.072 1355.072 0 0117.134 15.33c-5.557.642-11.173 1.503-16.722 2.484-3.592-3.278-7.11-6.693-10.64-10.02l.068-.093zm12.483 11.933a324.374 324.374 0 0116.829-2.453l1.816 1.63a1512.13 1512.13 0 0115.364 14.447 303.681 303.681 0 00-16.379 3.57c-5.888-5.668-11.788-11.393-17.698-17.102l.068-.092zm19.585 19.094c5.467-1.328 10.972-2.532 16.498-3.554a1914.849 1914.849 0 0117.474 16.841c-5.371 1.376-10.709 2.918-16.025 4.571a4548.551 4548.551 0 01-18.015-17.766l.068-.092zm19.829 19.751a317.334 317.334 0 0116.138-4.511 5086.812 5086.812 0 0117.802 17.489 346.723 346.723 0 00-15.619 5.466c-6.117-6.029-12.228-12.171-18.389-18.352l.068-.092zm20.185 20.467a307.88 307.88 0 0115.687-5.416l14.737 14.625 3.451 3.435c-5.053 1.967-10.102 4.033-15.072 6.275a4184.75 4184.75 0 01-18.803-18.919z" fill="url(#paint0_linear)"/><g style="mix-blend-mode:screen" opacity=".7"><path style="mix-blend-mode:screen" opacity=".7" d="M-126.934 444.402l.37-.501c31.517 12.572 69.042 15.163 108.462 7.46 36.448-7.476 70.425-21.429 100.32-41.197 30.861-20.285 57.288-44.836 82.919-68.523 21.98-20.318 44.707-41.326 70.086-59.677 143.561-103.713 384.636-114.501 548.847-24.543 7.673 4.187 15.399 8.697 22.874 13.044 29.283 17.111 59.645 34.699 95.178 39.849 32.596 4.748 66.528-1.589 98.168-18.332 28.34-15.132 52.16-36.513 69.82-62.651 17.62-26.481 29.11-55.62 40.24-83.789 9.42-23.888 19.17-48.57 32.61-71.609 21.41-36.683 53.71-70.464 93.44-97.749 40.75-27.721 86.87-47.994 136.43-59.97 50.46-12.049 103.6-15.775 157.35-11.034 53.44 4.764 105.91 18.11 151.73 38.633l-.38.516c-45.67-20.437-98.01-33.737-151.35-38.495-53.65-4.736-106.68-1.018-157.04 11.007-49.46 11.94-95.48 32.15-136.14 59.79-39.65 27.206-71.9 60.954-93.27 97.548-13.39 22.935-23.15 47.676-32.58 71.536-11.12 28.197-22.62 57.378-40.28 83.877-17.72 26.269-41.65 47.753-70.12 62.948-31.783 16.797-65.902 23.136-98.713 18.392-35.76-5.201-66.157-22.885-95.536-39.975-7.424-4.308-15.145-8.932-22.862-13.058-163.916-89.785-404.578-79.018-547.857 24.529-25.356 18.32-48.117 39.373-70.024 59.628-25.585 23.769-52.148 48.218-82.991 68.586-29.99 19.831-64.076 33.823-100.643 41.31-39.663 7.711-77.381 5.093-109.058-7.55z" fill="url(#paint1_linear)"/><path style="mix-blend-mode:screen" opacity=".7" d="M-128.905 439.944l.423-.79c29.518 9.867 65.925 10.605 105.3 2.112 36.14-8.211 70.194-21.71 101.065-40.065a554.2 554.2 0 0011.595-7.103c25.595-16.173 48.133-34.272 69.963-51.769 23.006-18.338 46.734-37.476 73.45-53.589 40.586-24.576 90.668-41.232 134.303-54.281 55.37-16.57 100.993-26.281 143.45-30.693 64.455-6.583 129.095-2.246 186.953 12.545 24.186 6.015 47.993 14.221 71.09 24.507 12.033 5.415 23.885 11.614 36.431 18.164 11.33 5.902 22.966 11.963 34.801 17.466 16.099 7.753 32.945 13.492 50.09 17.063 31.493 6.145 62.947 3.005 93.473-9.33 28.528-11.615 53.238-29.603 72.338-52.655 17.85-21.943 30.33-46.408 42.42-70.057 10.52-20.917 21.59-42.391 36.3-62.445 22.57-30.785 55.28-58.946 94.55-81.52 43.63-24.608 91.83-41.898 142.84-51.236 52.25-9.432 106.5-11.454 161.16-6.007 54.68 5.49 108.89 18.337 156.63 37.362l-.54.728c-47.59-19.01-101.66-31.868-156.26-37.252-54.5-5.414-108.61-3.39-160.71 6.012-50.87 9.315-98.94 26.56-142.45 51.103-39.22 22.47-71.74 50.586-94.32 81.201-14.73 19.971-25.66 41.519-36.25 62.27-12.13 23.64-24.58 48.173-42.49 70.191-19.21 23.187-44.06 41.279-72.748 52.96-30.272 12.314-62.936 15.516-94.316 9.36-17.244-3.605-34.188-9.377-50.386-17.165-11.846-5.488-23.499-11.562-34.811-17.451-12.518-6.553-24.365-12.723-36.369-18.141-22.994-10.192-46.688-18.322-70.754-24.28-57.682-14.778-122.169-19.071-186.466-12.487-42.412 4.351-87.916 14.08-143.207 30.615-43.55 13.041-93.553 29.662-134.021 54.186-26.603 16.103-50.326 35.127-73.235 53.513-21.842 17.513-44.43 35.644-70.02 51.845a444.35 444.35 0 01-11.623 7.106c-31 18.424-65.204 31.956-101.506 40.159-39.707 8.55-76.376 7.806-106.143-2.152z" fill="url(#paint2_linear)"/><path style="mix-blend-mode:screen" opacity=".7" d="M-130.815 435.536l.369-1.11c61.211 16.012 145.583-11.304 204.058-42.132a636.936 636.936 0 0011.907-6.416c24.659-13.659 46.282-28.405 67.18-42.705 25.469-17.377 49.498-33.806 77.821-47.693 30.16-14.798 66.83-25.356 105.672-36.597 10.698-3.09 21.751-6.268 32.775-9.585 8.965-2.714 17.861-5.479 26.561-8.086 39.406-12.042 76.606-23.426 113.282-30.294 60.198-11.229 120.895-12.506 175.557-3.698 23.213 3.389 46.286 9.087 68.846 17.003 17.158 6.137 35.381 14.993 53.026 23.557 6.915 3.368 14.052 6.829 21.08 10.116 19.704 9.183 35.315 15.012 50.431 18.782 31.163 7.625 62.875 7.005 91.683-1.793 27.432-8.183 52.007-22.252 72.037-41.248 18.11-17.625 31.53-37.559 44.6-56.894 11.85-17.57 24.1-35.728 40.06-52.671 24.3-25.765 58.45-48.997 98.7-67.173 43.11-19.544 93.71-33.512 146.35-40.486 105.33-13.768 224.3-.983 326.48 35.093l-.59 1.044c-101.89-35.986-220.56-48.755-325.61-35.011-52.46 6.901-102.9 20.842-145.89 40.333-40.09 18.106-74.07 41.237-98.27 66.881-15.91 16.867-28.14 34.995-39.96 52.534-13.03 19.361-26.52 39.371-44.74 57.076-20.19 19.155-44.966 33.338-72.626 41.582-29.082 8.88-61.093 9.512-92.553 1.826-15.264-3.786-30.914-9.597-50.754-18.882-7.04-3.272-14.211-6.759-21.127-10.126-17.547-8.516-35.827-17.296-52.849-23.473-22.452-7.885-45.415-13.565-68.518-16.946-54.435-8.757-114.934-7.496-174.855 3.751-36.579 6.845-73.74 18.212-113.089 30.249a7062.579 7062.579 0 01-26.589 8.089c-11.024 3.317-22.078 6.495-32.776 9.585-38.752 11.191-75.377 21.759-105.429 36.519-28.228 13.865-52.234 30.264-77.652 47.607-20.926 14.303-42.606 29.054-67.3 42.758a715.161 715.161 0 01-11.9 6.444c-58.88 30.948-143.648 58.369-205.398 42.19z" fill="url(#paint3_linear)"/><path style="mix-blend-mode:screen" opacity=".7" d="M-132.696 431.155l.361-1.351c68.552 12.249 171.755-32.393 201.76-46.348a1544.44 1544.44 0 0012.183-5.756c22.986-11.04 43.017-22.45 62.531-33.447 27.564-15.633 53.631-30.456 84.166-41.973 21.954-8.241 47.66-14.392 75.093-20.734 21.892-5.142 44.529-10.434 67.468-17.355 24.653-7.451 47.551-15.716 69.699-23.718 23.124-8.356 44.99-16.263 66.512-22.338 55.597-15.684 112.355-22.57 164.139-19.949 19.483.995 40.667 2.554 66.628 9.548 22.922 6.163 47.949 17.976 72.13 29.394l4.895 2.332a368.533 368.533 0 0050.839 20.481c29.863 9.077 60.712 11.032 89.77 5.689 26.366-4.852 50.782-15.02 71.762-29.883 18.61-13.502 32.48-28.583 47.16-44.543 12.99-14.027 26.37-28.584 43.37-42.16 26.09-20.714 61.65-39.004 102.78-52.907 44.54-15.145 96.38-25.412 149.89-29.678 106.71-8.351 228.78 5.746 335.12 38.844l-.65 1.304c-105.99-32.958-227.86-47.115-334.25-38.763-53.39 4.213-104.97 14.487-149.35 29.562-40.93 13.842-76.28 32.03-102.28 52.58-16.95 13.472-30.29 27.984-43.18 42.016-14.74 16.007-28.66 31.15-47.4 44.747-21.2 15.027-45.889 25.305-72.547 30.207-29.364 5.434-60.548 3.488-90.742-5.663a370.328 370.328 0 01-51.158-20.694l-4.889-2.305c-24.119-11.395-49.055-23.187-71.779-29.296-25.745-6.928-46.811-8.468-66.197-9.415-51.541-2.628-108.038 4.265-163.41 19.858-21.448 6.083-43.264 13.958-66.388 22.313-22.148 8.003-45.086 16.285-69.795 23.741-23.006 6.941-45.655 12.248-67.592 17.38-27.292 6.401-53.066 12.43-74.833 20.669-30.434 11.523-56.406 26.252-83.822 41.9-19.474 11.051-39.63 22.486-62.65 33.5a1344.263 1344.263 0 01-12.194 5.772c-30.264 14.019-133.935 58.829-203.15 46.439z" fill="url(#paint4_linear)"/><path style="mix-blend-mode:screen" opacity=".7" d="M-134.514 426.827l.166-1.659c41.389 3.481 108.52-13.527 199.532-50.58l12.494-5.072c19.791-8.08 37.35-16.11 54.336-23.865 30.914-14.126 60.123-27.482 94.084-36.594 17.111-4.588 36.788-7.78 57.667-11.203 27.397-4.479 58.462-9.556 88.935-18.78 33.596-10.159 62.329-23.048 90.083-35.471 14.769-6.614 28.699-12.844 42.514-18.199 51.132-19.988 103.938-32.49 152.694-36.165 17.812-1.344 37.985-2.877 64.457 2.04 25.015 4.561 53.206 17.046 79.986 29.793a533.009 533.009 0 0051.241 22.22c28.762 10.414 58.777 14.905 87.99 13.166 25.336-1.702 49.567-7.993 71.475-18.557 19.32-9.557 34.38-20.833 50.32-32.767a408.475 408.475 0 0146.07-31.097c28.01-15.592 64.98-29.005 106.84-38.611 49.78-11.182 101.14-17.51 153.37-18.893 107.55-3.133 232.83 12.391 343.73 42.594l-.66 1.574c-110.65-30.139-235.64-45.632-342.94-42.52-52.04 1.388-103.22 7.7-152.83 18.847-41.7 9.607-78.42 22.883-106.24 38.375a401.483 401.483 0 00-45.83 30.949c-16.02 11.996-31.15 23.308-50.72 32.914-22.2 10.687-46.745 17.053-72.407 18.78-29.567 1.759-59.948-2.788-89.059-13.33a535.705 535.705 0 01-51.474-22.299c-26.638-12.689-54.669-25.032-79.357-29.606-26.147-4.747-46.151-3.229-63.75-1.959-48.546 3.713-101.104 16.166-151.966 36.003-13.696 5.373-27.609 11.616-42.356 18.2-27.736 12.506-56.594 25.349-90.364 35.565-30.637 9.267-61.78 14.379-89.262 18.865-20.801 3.388-40.433 6.59-57.43 11.169-33.764 9.024-62.918 22.304-93.702 36.434-17.065 7.718-34.567 15.815-54.459 23.96l-12.505 5.087c-91.362 37.169-158.86 54.208-200.673 50.692z" fill="url(#paint5_linear)"/><path style="mix-blend-mode:screen" opacity=".7" d="M-136.269 422.483l-.147-1.915c45.162-1.126 121.263-27.969 182.399-49.502l14.977-5.254c4.297-1.488 8.576-2.99 12.8-4.415 13.627-4.642 26.143-9.104 38.259-13.418 38.736-13.813 72.214-25.73 111.883-32.097 13.717-2.183 29.047-3.542 45.364-4.914 32.324-2.788 68.966-5.947 105.248-16.97 39.949-12.16 72.59-30.326 101.23-46.292 9.599-5.345 18.658-10.389 27.631-15.028 46.495-23.976 95.371-42.146 141.217-52.374l1.111-.251c17.464-3.895 35.502-7.923 61.217-5.226 21.423 2.243 48.569 11.351 82.973 27.858l10.457 5.07c14.167 6.849 27.523 13.328 41.153 18.933 30.169 12.25 59.198 19.198 86.246 20.661 24.472 1.313 48.535-1.183 71.274-7.393 20.687-5.688 37.507-13.395 55.287-21.527 14.3-6.514 29.06-13.266 46.96-19.508 30.02-10.457 68.34-18.835 110.84-24.311 51.51-6.507 103.89-9.25 156.73-8.208 107.63 1.987 236.05 18.873 352.33 46.34l-.67 1.843c-116.08-27.412-244.25-44.277-351.65-46.256-52.72-1.059-104.98 1.651-156.36 8.106-42.31 5.459-80.43 13.82-110.32 24.123-17.79 6.205-32.48 12.937-46.72 19.446-17.88 8.154-34.78 15.869-55.654 21.7-23.052 6.26-47.442 8.751-72.24 7.377-27.415-1.502-56.762-8.522-87.242-20.888-13.766-5.565-27.156-12.069-41.346-18.959L788.5 204.18c-34.086-16.365-60.898-25.388-81.982-27.59-25.2-2.642-42.991 1.337-60.206 5.182l-1.111.251c-45.616 10.166-94.266 28.246-140.553 52.119-8.944 4.637-17.993 9.665-27.552 14.993-28.826 16.038-61.522 34.28-101.77 46.522-36.342 11.283-73.233 14.421-105.704 17.194-16.21 1.406-31.534 2.721-45.138 4.895-39.421 6.317-72.763 18.194-111.342 31.937-12.145 4.316-24.672 8.793-38.316 13.422-4.196 1.424-8.464 2.91-12.771 4.413l-14.977 5.254c-61.367 21.666-137.71 48.586-183.347 49.711z" fill="url(#paint6_linear)"/><path style="mix-blend-mode:screen" opacity=".7" d="M-138.552 416.018c29.306-4.484 74.2-19.429 121.773-35.284 24.839-8.351 50.5-16.886 73.574-23.739 4.447-1.374 8.8-2.583 13.103-3.76l.377-.117c60.445-16.648 100.361-27.639 151.538-30.43 10.959-.53 22.735-.662 35.285-.734 36.504-.2 77.879-.451 119.261-13.069 45.029-13.766 78.287-36.722 107.641-56.963 6.059-4.204 11.81-8.168 17.511-11.958 40.48-26.961 83.927-49.892 129.781-68.496l2.07-.801c15.886-6.35 32.328-12.918 58.131-12.186 28.462.815 62.445 14.53 85.985 25.924 7.519 3.633 14.898 7.349 22.039 10.957 10.34 5.218 20.13 10.144 30.046 14.718 30.923 14.246 58.564 23.447 84.566 28.171 23.783 4.267 47.67 5.592 71.072 3.944 23.869-1.667 43.949-5.855 65.319-10.182 13.2-2.705 26.85-5.52 42.7-8.028 37.75-5.667 76.1-9.043 114.83-10.111 53.11-1.742 106.59-.866 160.24 2.623 107.1 6.858 235.26 24.644 360.86 50.058l-.64 2.123c-125.41-25.459-253.5-43.194-360.37-50-53.54-3.476-106.91-4.352-159.9-2.624-38.56 1.053-76.74 4.391-114.32 9.996-15.82 2.562-29.43 5.359-42.62 8.092-21.43 4.418-41.68 8.577-65.723 10.301-23.711 1.673-47.915.317-72.009-4.033-26.286-4.77-54.204-14.061-85.371-28.442-9.961-4.585-19.768-9.523-30.142-14.766-7.135-3.581-14.503-7.312-22.005-10.932-23.234-11.237-56.77-24.805-84.61-25.532-25.079-.709-41.207 5.718-56.772 11.956l-2.07.801c-45.653 18.545-88.904 41.402-129.196 68.276-5.69 3.775-11.43 7.724-17.478 11.912-29.527 20.369-62.971 43.469-108.382 57.396-41.866 12.772-83.552 12.979-120.259 13.239-12.511.054-24.326.133-35.099.732-50.879 2.568-90.683 13.549-150.907 30.149l-.366.103a299.964 299.964 0 00-13.053 3.726c-23.029 6.864-48.701 15.414-73.534 23.792-47.652 15.82-92.687 30.848-122.32 35.417l-.556-2.219z" fill="url(#paint7_linear)"/><path style="mix-blend-mode:screen" opacity=".7" d="M-140.758 411.561c14.716-4.378 34.475-11.51 57.44-19.696 41.195-14.678 92.414-32.921 135.942-43.637a422.295 422.295 0 0113.441-3.079c64.16-13.732 105.817-17.973 153.686-15.596 8.152.404 16.803 1.064 25.968 1.778 38.388 2.949 86.19 6.634 132.474-7.533 49.396-15.127 82.191-43.086 111.151-67.743 3.5-2.991 6.967-5.865 10.292-8.727 37.103-30.968 76.601-59.246 118.232-84.648l2.059-1.252c14.534-8.964 29.663-18.163 56.05-19.351 31.718-1.434 69.394 14.404 89.034 23.974 11.654 5.682 22.871 11.671 33.685 17.454 6.345 3.392 12.612 6.747 18.848 9.964 32.074 16.559 59.194 28.234 82.94 35.71 23.382 7.262 47.169 12.376 71.027 15.269 32.609 4.125 59.159 4.253 92.809 4.353 6.68.035 13.66.059 21.04.12 37.56.387 77.47 1.803 118.66 4.215 53.63 2.972 108.7 7.477 163.6 13.313 99.51 10.743 220.35 28.292 369.36 53.802l-.58 2.4c-148.97-25.456-269.71-43.043-369.12-53.766-54.9-5.765-109.82-10.325-163.46-13.325-41.12-2.403-80.96-3.812-118.41-4.166-7.35-.063-14.32-.102-21.03-.135-33.81-.128-60.46-.261-93.339-4.42-24.088-2.927-48.105-8.087-71.716-15.408-23.91-7.505-51.234-19.261-83.472-35.92-6.254-3.229-12.52-6.585-18.911-9.986-10.813-5.713-21.95-11.666-33.542-17.396-19.42-9.476-56.326-24.998-87.146-23.598-25.423 1.134-40.12 10.14-54.351 18.837l-2.07 1.267c-41.506 25.326-80.882 53.523-117.867 84.404-3.366 2.809-6.833 5.684-10.292 8.727-29.179 24.846-62.232 53.012-112.286 68.351-46.914 14.376-95.174 10.631-133.923 7.671-9.12-.704-17.743-1.366-25.838-1.775-47.502-2.337-88.883 1.851-152.67 15.509-4.27.919-8.746 1.94-13.318 3.055C10.29 361.263-40.85 379.47-81.948 394.126c-23.022 8.191-42.939 15.252-57.621 19.726l-1.189-2.291z" fill="url(#paint8_linear)"/><path style="mix-blend-mode:screen" opacity=".7" d="M-143.014 407.169c38.809-18.726 122.745-54.117 191.516-67.66 4.696-.927 9.245-1.798 13.746-2.425 65.626-10.245 108.192-7.799 155.506-.624 5.275.793 10.788 1.692 16.527 2.643 42.083 6.86 94.451 15.412 145.78-.355 53.353-16.437 86.258-50.958 112.705-78.727l5.011-5.255c31.461-32.741 65.41-64.776 106.752-100.714l1.611-1.398c12.736-11.111 27.15-23.711 54.392-26.827 24.295-2.807 57.86 5.223 92.012 21.975 16.159 7.938 31.014 16.498 45.399 24.801l7.598 4.371c32.007 18.338 58.083 32.727 81.264 43.204a610.655 610.655 0 0070.938 26.571c37.569 11.762 70.007 19.138 119.637 27.175 33.1 5.41 72.98 11.213 119.14 17.907l36.49 5.246c40.45 5.712 86.29 12.235 133.96 19.323 45.87 6.945 93.1 14.241 143.05 22.025 77.93 12.146 158.59 24.751 234.8 35.475l-.53 2.691c-76.35-10.711-156.96-23.392-234.87-35.497-49.95-7.784-97.13-15.14-143.08-21.952-47.6-7.037-93.47-13.585-133.9-19.328l-36.49-5.203c-46.09-6.756-86.02-12.57-119.19-17.945-49.88-8.172-82.428-15.538-120.195-27.353a621.809 621.809 0 01-71.407-26.758c-23.323-10.536-49.479-24.96-81.537-43.336l-7.597-4.371c-14.301-8.31-29.145-16.814-45.156-24.666-33.518-16.468-66.218-24.345-89.651-21.598-25.985 3.022-39.409 14.674-52.363 25.974l-1.612 1.398c-41.28 35.89-75.134 67.832-106.544 100.541l-5.011 5.255c-26.721 28.033-59.995 62.981-114.153 79.614-52.301 16.05-105.229 7.432-147.758.497a2780.2 2780.2 0 00-16.505-2.673c-46.895-7.098-89.033-9.481-154.152.649-4.365.658-8.977 1.436-13.583 2.383-68.474 13.39-152.028 48.55-190.667 67.261l-1.883-2.314z" fill="url(#paint9_linear)"/><path style="mix-blend-mode:screen" opacity=".7" d="M-145.285 402.865c32.948-23.207 117.169-61.166 189.669-72.04 4.78-.721 9.515-1.311 14.083-1.746 66.609-6.536 112.439 3.009 157.299 14.335l6.255 1.57c43.481 11.048 103.01 26.164 159.822 8.659 56.813-17.504 87.998-57.743 112.903-90.004l1.113-1.51c29.937-38.689 59.27-73.734 85.117-104.661l11.175-13.362c11.538-13.818 24.592-29.476 52.812-34.613 24.943-4.559 60.523 2.966 95.163 20.062a586.412 586.412 0 0153.444 30.912c12.599 7.956 24.106 15.426 35.25 22.672 15.783 10.257 30.681 19.925 44.359 28.099 25.825 15.42 50.303 27.801 70.837 37.877 40.537 20.361 82.564 37.051 125.494 49.832 33.56 10.187 74.91 20.839 126.37 32.545 46.56 10.487 102.3 21.841 170.4 34.735 152.04 29.014 278.44 48.97 386.31 61.21l-.46 2.953c-107.93-12.165-234.4-32.199-386.6-61.17-68.15-12.905-123.96-24.267-170.58-34.777-51.57-11.739-92.99-22.469-126.71-32.629-43.16-12.855-85.416-29.629-126.179-50.085-20.613-10.111-45.17-22.528-71.115-38.036-13.746-8.226-28.678-17.919-44.506-28.186-11.127-7.234-22.651-14.716-35.199-22.634a575.942 575.942 0 00-53.07-30.703c-33.769-16.704-68.236-24.057-92.2-19.681-26.767 4.885-38.851 19.372-50.562 33.388l-11.175 13.362c-25.853 30.9-55.164 65.914-85.05 104.571l-1.114 1.51c-25.216 32.683-56.539 73.287-114.746 91.18-58.207 17.893-118.409 2.581-162.439-8.689l-6.283-1.568c-44.47-11.246-89.758-20.738-155.691-14.26a279.553 279.553 0 00-13.83 1.724c-71.711 10.807-155.084 48.438-187.82 71.358l-2.546-2.2z" fill="url(#paint10_linear)"/><path d="M-147.531 398.664c30.626-30.077 115.283-68.876 187.823-76.485 4.881-.504 9.718-.876 14.404-1.08 67.247-2.972 113.917 13.406 159.04 29.379 40.006 14.08 106.993 37.591 169.88 18.188 60.476-18.674 89.297-65.035 110.349-98.899 14.494-23.223 28.604-45.423 42.258-66.864 14.777-23.177 28.748-45.083 41.608-65.947l.512-.694c10.255-16.654 21.893-35.505 51.173-42.738 25.861-6.46 62.623.365 98.244 18.101a439.528 439.528 0 0153.925 32.674c21.089 14.559 39.685 28.921 56.108 41.618 7.627 5.89 14.823 11.436 21.83 16.7 25.037 18.644 48.737 34.703 70.698 49.187 41.792 27.566 80.129 50.455 131.329 72.451 36 15.54 79.81 31.216 130.29 46.688 50.48 15.471 108.75 30.556 173.79 45.387 97.84 22.432 245.72 51.893 394.77 64.857l-.35 3.224c-149.34-13.109-297.53-42.642-395.48-65.079-65.17-14.862-123.75-30.175-174.14-45.512-50.39-15.338-94.64-31.245-130.81-46.841-51.52-22.139-90.047-45.124-132.043-72.843-22.012-14.521-45.819-30.542-70.885-49.325-7.047-5.247-14.254-10.848-21.915-16.763-16.366-12.632-34.928-26.969-55.921-41.479a436.803 436.803 0 00-53.37-32.355c-34.489-17.126-69.965-23.835-94.707-17.712-27.633 6.824-38.849 25.031-48.771 41.091l-.524.709c-12.769 20.884-26.841 42.785-41.629 65.977-13.655 21.441-27.787 43.601-42.264 66.836-21.33 34.312-50.528 81.328-112.471 100.452-64.522 19.94-132.51-3.966-173.121-18.263-44.726-15.724-90.973-31.997-157.126-29.006-4.573.194-9.315.544-14.009 1.117-69.528 7.28-155.101 45.818-185.192 75.312l-3.303-2.063z" fill="url(#paint11_linear)" style="mix-blend-mode:screen" opacity=".7"/><path style="mix-blend-mode:screen" opacity=".7" d="M-149.764 394.509c25.684-34.385 110.666-76.301 185.982-80.926 4.976-.314 9.948-.444 14.724-.416 63.765.42 107.589 20.224 153.975 41.164l6.906 3.109c48.953 22.033 112.946 44.937 173.691 26.122 58.622-18.154 85.779-64.432 106.641-106.356l8.633-17.312c23.202-46.49 45.132-90.398 63.849-131.489 8.918-19.553 19.016-41.709 49.428-51.099 31.513-9.739 73.027 1.942 101.402 16.177a353.28 353.28 0 0154.378 34.438c24.975 18.737 45.82 37.926 64.37 54.94 4.041 3.74 8.007 7.379 11.899 10.916 25.778 23.4 50.126 43.702 70.526 60.458 37.942 31.172 80.845 64.263 137.16 95.116 38.26 20.987 83.4 41.426 134.22 60.784 58.33 21.74 117.48 40.444 177.17 56.027 96.91 25.844 245.47 58.699 403.14 68.594l-.26 3.498c-158.18-9.993-307.16-42.953-404.29-68.849-59.88-15.629-119.21-34.388-177.71-56.192-51.02-19.44-96.4-40-134.85-61.084-56.673-31.006-99.764-64.236-137.837-95.623-20.451-16.793-44.833-37.121-70.657-60.602-3.918-3.548-7.871-7.193-11.944-10.926-18.386-16.915-39.259-36.102-64.03-54.687a349.481 349.481 0 00-53.681-33.989c-27.345-13.701-67.268-25.039-97.208-15.788-28.587 8.81-38.332 30.2-46.979 49.138-18.751 41.135-40.675 85.071-63.899 131.592l-8.548 17.374c-21.216 42.619-48.84 89.601-109.102 108.263-62.503 19.376-127.705-3.962-177.607-26.351l-6.906-3.109c-45.848-20.704-89.164-40.268-151.723-40.679-4.636-.04-9.478.093-14.342.397-73.987 4.54-157.389 45.6-182.528 79.245l-3.993-1.875z" fill="url(#paint12_linear)"/><path style="mix-blend-mode:screen" opacity=".7" d="M-151.947 390.4c23.817-43.242 111.563-83.934 184.148-85.333a198.73 198.73 0 0115.079.274c62.046 3.459 104.352 26.924 149.159 51.783 4.464 2.483 8.929 4.966 13.46 7.43 69.902 38.265 127.965 49.408 177.454 34.037 58.303-18.104 83.958-65.372 102.988-113.766 19.597-49.7 42.189-108.169 61.059-164.88 6.924-20.953 15.535-47.049 47.173-58.686 21.332-7.845 59.963-8.25 104.432 14.14a299.467 299.467 0 0154.937 36.231c26.782 21.76 48.376 45.124 67.525 65.803l7.067 7.597c20.547 22.14 42.282 44.278 70.326 71.719 37.414 36.379 83.699 78.803 143.04 117.706 40.27 26.407 86.75 51.603 138.17 74.85 58.97 26.203 119.3 48.487 180.53 66.684 139.27 42.156 281.55 67.167 411.53 72.281l-.14 3.753c-130.52-5.194-273.29-30.22-413.03-72.518-61.48-18.254-122.06-40.617-181.26-66.919-51.67-23.366-98.42-48.709-138.83-75.343-59.682-39.086-106.138-81.707-143.722-118.213-28.1-27.507-49.841-49.672-70.473-71.876l-7.084-7.609c-19.058-20.588-40.511-43.823-67.065-65.392a294.468 294.468 0 00-54.019-35.547C673.751 65.13 631.586 53.4 600.811 64.724c-29.657 10.916-37.978 36.084-44.656 56.31-18.965 56.733-41.579 115.232-61.148 165-19.377 49.257-45.552 97.445-105.73 116.091-51.196 15.828-110.695 4.597-182.068-34.46l-13.495-7.455c-44.218-24.515-86.004-47.685-146.698-51.119a191.39 191.39 0 00-14.589-.259c-70.963 1.414-156.732 41.034-179.946 83.207l-4.428-1.639z" fill="url(#paint13_linear)"/><path style="mix-blend-mode:screen" opacity=".7" d="M-154.105 386.343c19.509-48.493 106.379-91.348 182.175-89.863 5.189.105 10.38.422 15.398.937 61.188 6.293 104.613 34.91 146.509 62.529 5.939 3.907 11.86 7.802 17.775 11.598 46.94 30.277 116.564 62.037 181.275 41.895 60.738-18.897 84.291-71.871 99.337-121.166 21.05-68.958 37.328-128.096 49.771-180.822 5.16-22.088 12.272-52.317 44.91-66.25 33.529-14.25 78.872-2.363 107.511 12.142a264.165 264.165 0 0155.327 37.967c27.43 23.921 48.889 50.866 67.833 74.654l5.032 6.314c21.55 26.965 44.485 54.122 70.137 82.951 52.786 59.111 98.702 102.373 148.895 140.273 44.9 33.604 92.49 63.382 142.13 88.938 59.62 30.592 121.23 56.469 184.16 77.348 140.2 47.324 285.39 73.589 419.8 75.945l.02 4.033c-135.14-2.419-280.96-28.744-421.87-76.275-63.14-20.971-124.95-46.938-184.77-77.619-49.92-25.705-97.77-55.649-142.93-89.435-50.444-38.09-96.559-81.546-149.549-140.88-25.698-28.909-48.685-56.104-70.308-83.148l-5.038-6.341c-19.74-24.778-40.147-50.403-67.276-74.053a260.025 260.025 0 00-54.178-37.205c-27.434-13.888-70.658-25.364-102.203-11.948-30.638 12.971-37.393 42.181-42.369 63.52-12.47 52.8-28.776 112.01-49.842 181.026-15.352 50.281-39.492 104.335-102.351 123.894-67.056 20.822-138.476-11.644-186.615-42.509-6-3.86-11.955-7.78-17.893-11.687-41.314-27.232-84.054-55.385-143.789-61.578-4.878-.527-9.9-.858-14.846-.899-72.482-1.515-158.625 40.784-177.227 87.011l-4.941-1.297z" fill="url(#paint14_linear)"/><path style="mix-blend-mode:screen" opacity=".7" d="M-156.22 382.303c15.168-52.972 102.796-98.776 180.39-94.318 5.3.306 10.587.882 15.723 1.627 61.028 9.107 103.783 41.726 145.112 73.282 6.847 5.237 13.916 10.639 20.937 15.818 38.233 28.226 113.111 72.206 185.093 49.744 62.885-19.623 83.669-75.996 95.674-128.57 16.366-71.394 28.944-135.765 38.47-196.785 3.575-22.998 8.9-57.639 42.632-73.816 21.525-10.336 63.405-13.871 110.604 10.158a239.023 239.023 0 0155.784 39.751c27.689 25.929 47.87 54.97 67.39 83.052l3.756 5.431c22.072 31.685 45.607 63.386 70.038 94.121 52.193 65.838 101.367 117.579 154.727 162.826a1036.07 1036.07 0 00146.11 103.024c60.07 34.787 122.81 64.2 187.34 87.825 141.51 52.663 289.6 80.182 428.19 79.803l.16 4.288c-139.42.394-288.35-27.279-430.75-80.092-64.87-23.757-127.94-53.331-188.32-88.304a1039 1039 0 01-146.88-103.565c-53.628-45.45-102.989-97.4-155.392-163.489-24.405-30.878-47.98-62.631-70.098-94.397l-3.852-5.48c-19.366-27.897-39.421-56.751-66.736-82.331a234.474 234.474 0 00-54.539-38.871c-45.001-22.907-84.51-19.73-104.686-10.045-29.124 13.963-35.611 41.44-40.134 70.753-9.537 61.106-22.143 125.549-38.502 197.041-5.138 22.441-13.056 51.466-28.786 76.775-17.167 27.576-40.107 45.536-70.161 54.911-74.836 23.369-151.777-21.703-190.979-50.649-7.033-5.236-14.202-10.572-21.005-15.869-40.745-31.099-82.855-63.237-142.216-72.107a174.705 174.705 0 00-15.11-1.567c-75.066-4.35-159.954 39.879-174.642 91.132l-5.342-1.107z" fill="url(#paint15_linear)"/><path style="mix-blend-mode:screen" opacity=".7" d="M-158.315 378.314c11.254-58.413 97.968-106.356 178.417-98.653a162.788 162.788 0 0116.026 2.276c61.142 11.796 103.567 48.594 144.441 84.073 7.621 6.605 15.503 13.427 23.304 19.932 94.544 78.642 168.503 63.984 188.975 57.633 65.345-20.416 83.512-83.382 92.049-135.939 11.834-73.064 21.012-144.631 27.141-212.78 2.835-31.786 8.311-64.264 40.35-81.331 33.08-17.622 80.935-8.604 113.677 8.165a219.627 219.627 0 0156.202 41.48c27.403 27.388 46.87 59.22 65.73 89.949l3.681 6.027a1762.62 1762.62 0 0069.761 105.375c51.426 71.867 103.959 132.505 160.511 185.315a1085.097 1085.097 0 00150.07 117.078c60.58 38.967 124.56 71.985 190.84 98.488 143.29 57.689 294.21 86.535 436.59 83.261l.32 4.553c-143.44 3.323-295.34-25.693-439.54-83.826-66.61-26.633-130.92-59.816-191.82-98.981a1089.096 1089.096 0 01-150.8-117.622c-56.865-53.092-109.591-113.968-161.216-186.1-24.446-34.21-47.989-69.752-69.904-105.645l-3.709-6.024c-18.701-30.517-38.064-62.062-65.037-89.107a214.363 214.363 0 00-54.815-40.47C631.842 9.53 586.643.833 555.807 17.304c-29.986 15.96-35.164 47.285-37.913 77.992-6.139 68.235-15.282 139.899-27.178 213.01-8.723 53.77-27.461 118.223-95.552 139.509-31.913 9.982-67.465 8.069-105.588-5.828-38.124-13.897-70.025-36.475-89.868-52.898-7.852-6.543-15.751-13.378-23.378-20.01-40.369-35.058-82.148-71.164-141.454-82.667a152.97 152.97 0 00-15.412-2.145c-77.613-7.41-161.251 38.718-172.071 94.937l-5.708-.891z" fill="url(#paint16_linear)"/><path style="mix-blend-mode:screen" opacity=".7" d="M-160.442 374.407c3.817-32.921 28.336-63.322 67.182-83.528 38.845-20.205 84.692-26.207 125.721-16.526 61.459 14.422 103.599 55.263 144.349 94.744 8.21 7.973 16.708 16.231 25.152 24.029 74.946 69.285 148.686 79.217 192.709 65.427 68.115-21.349 83.057-91.96 88.431-143.341 7.86-75.694 13.219-152.667 15.834-228.7.535-15.189 1.538-32.755 6.801-48.898 5.887-18.056 16.118-31.131 31.265-39.966 33.871-19.736 82.987-11.144 116.725 6.204 61.989 31.872 92.177 87.443 121.376 141.184l3.046 5.598C885.18 347.193 1012.75 496.198 1168.12 606.253c188.79 133.501 421.67 204.963 638.99 195.935l.64 4.763c-219.04 9.147-453.67-62.686-643.66-197.084-156.14-110.483-284.246-260.075-391.632-457.294l-3.052-5.626C740.645 93.788 710.772 38.894 650.414 7.841c-31.858-16.369-78.078-24.716-109.651-6.275-30.814 17.981-34.521 51.964-35.7 85.265-2.636 76.134-7.915 153.213-15.859 228.985-11.409 109.678-58.004 136.605-92.171 147.267-70.206 22.007-149.219-20.18-199.83-66.858-8.495-7.836-17.027-16.119-25.254-24.105-40.055-38.964-81.526-79.214-141.166-93.285-39.182-9.191-83.126-3.38-120.473 16.006-37.347 19.387-60.91 48.565-64.567 80.092l-6.185-.526z" fill="url(#paint17_linear)"/></g><g style="mix-blend-mode:screen" opacity=".7"><path style="mix-blend-mode:screen" opacity=".7" d="M-84.314 135.291C-67.528 50.536 19.549 5.999 95.379-7.474c49.162-8.62 100.918-8.546 150.937-8.495 33.832.06 68.789.108 102.58-2.55 99.945-7.937 193.589-39.355 273.094-91.624 39.516-26.053 76.316-57.828 111.939-88.619 67.681-58.441 137.688-118.919 228.809-141.525l2.164 5.783c-89.88 22.328-159.436 82.411-226.638 140.455-35.702 30.826-72.677 62.801-112.43 88.961-80.276 52.76-174.821 84.474-275.726 92.49-33.937 2.785-69.099 2.655-103.045 2.605-49.775-.059-101.259-.142-149.74 8.492C23.07 11.566-62.003 54.862-78.228 137.02l-6.085-1.729z" fill="url(#paint18_linear)"/><path style="mix-blend-mode:screen" opacity=".7" d="M-39.398 175.76l-.807-1.354C55.559 128.416 122.77 45.639 187.775-34.4c50.265-61.89 102.247-125.89 167.486-173.446 122.582-89.408 292.049-117.521 453.301-75.195 16.217 4.261 32.695 9.282 48.651 14.148 45.902 13.985 93.38 28.461 139.776 26.259l.257 1.487c-46.736 2.161-94.282-12.296-140.338-26.324-15.961-4.824-32.35-9.966-48.559-14.127-160.827-42.221-329.817-14.178-452.078 74.975C291.172-159.15 239.258-95.24 189.027-33.397 123.932 46.763 56.626 129.634-39.398 175.76z" fill="url(#paint19_linear)"/><path style="mix-blend-mode:screen" opacity=".7" d="M-43.61 228.5l-.602-1.956c87.068-15.461 170.092-61.017 261.265-143.369 27.952-25.223 55.088-52.186 81.369-78.348 42.895-42.569 87.292-86.632 136.372-124.334 93.392-71.749 188.706-106.385 283.222-102.992 38.984 1.481 78.715 9.477 117.104 17.274 29.117 5.931 59.228 12.061 88.858 15.242 39.112 4.19 135.162 7.196 179.622-56.082l1.72 1.276c-45.02 64.023-141.831 61.083-181.357 56.844-29.694-3.276-59.929-9.31-89.068-15.281-38.276-7.807-77.877-15.871-116.713-17.265-94.079-3.374-188.98 31.169-282.051 102.663-48.973 37.593-93.296 81.665-136.168 124.274-26.27 26.076-53.428 53.069-81.386 78.336C127.168 167.31 43.872 213.018-43.61 228.5z" fill="url(#paint20_linear)"/><path style="mix-blend-mode:screen" opacity=".7" d="M-35.799 121.675l-1.209-1.065C26.338 51.53 117.47 11.647 217.961 9.023c28.752-.641 58.38 1.822 87.041 4.225 41.7 3.48 84.827 7.081 125.576 1.032C501.851 3.673 570.322-37.325 634.182-107.7c26.086-28.762 49.998-60.203 73.117-90.607 24.199-31.794 49.251-64.745 76.771-94.585 64.478-69.916 133.996-110.133 206.386-119.225l.372 1.48c-72.025 9.174-141.257 49.11-205.56 118.826-27.531 29.855-52.527 62.73-76.703 94.494-23.143 30.434-47.066 61.891-73.185 90.698C571.329-36.056 502.564 5.123 430.978 15.757c-40.93 6.08-84.132 2.47-125.923-1.03-28.593-2.424-58.215-4.86-86.882-4.225C118.071 13.124 27.298 52.86-35.799 121.675z" fill="url(#paint21_linear)"/></g><defs><linearGradient id="paint0_linear" x1="-482589" y1="222303" x2="-488354" y2="356286" gradientUnits="userSpaceOnUse"><stop stop-color="#D2DEFF"/><stop offset="1" stop-color="#FEFCFF"/></linearGradient><linearGradient id="paint1_linear" x1="-445941" y1="317583" x2="-420745" y2="434993" gradientUnits="userSpaceOnUse"><stop stop-color="#D2DEFF"/><stop offset="1" stop-color="#FEFCFF"/></linearGradient><linearGradient id="paint2_linear" x1="-442445" y1="302275" x2="-420869" y2="421276" gradientUnits="userSpaceOnUse"><stop stop-color="#D2DEFF"/><stop offset="1" stop-color="#FEFCFF"/></linearGradient><linearGradient id="paint3_linear" x1="-438992" y1="286943" x2="-421168" y2="407074" gradientUnits="userSpaceOnUse"><stop stop-color="#D2DEFF"/><stop offset="1" stop-color="#FEFCFF"/></linearGradient><linearGradient id="paint4_linear" x1="-435521" y1="271645" x2="-421508" y2="392407" gradientUnits="userSpaceOnUse"><stop stop-color="#D2DEFF"/><stop offset="1" stop-color="#FEFCFF"/></linearGradient><linearGradient id="paint5_linear" x1="-432068" y1="256327" x2="-421900" y2="377240" gradientUnits="userSpaceOnUse"><stop stop-color="#D2DEFF"/><stop offset="1" stop-color="#FEFCFF"/></linearGradient><linearGradient id="paint6_linear" x1="-428583" y1="241029" x2="-422226" y2="361600" gradientUnits="userSpaceOnUse"><stop stop-color="#D2DEFF"/><stop offset="1" stop-color="#FEFCFF"/></linearGradient><linearGradient id="paint7_linear" x1="-425159" y1="225712" x2="-422563" y2="345489" gradientUnits="userSpaceOnUse"><stop stop-color="#D2DEFF"/><stop offset="1" stop-color="#FEFCFF"/></linearGradient><linearGradient id="paint8_linear" x1="-421674" y1="210353" x2="-422735" y2="328862" gradientUnits="userSpaceOnUse"><stop stop-color="#D2DEFF"/><stop offset="1" stop-color="#FEFCFF"/></linearGradient><linearGradient id="paint9_linear" x1="-418197" y1="195007" x2="-422768" y2="311817" gradientUnits="userSpaceOnUse"><stop stop-color="#D2DEFF"/><stop offset="1" stop-color="#FEFCFF"/></linearGradient><linearGradient id="paint10_linear" x1="-414708" y1="179684" x2="-422600" y2="294382" gradientUnits="userSpaceOnUse"><stop stop-color="#D2DEFF"/><stop offset="1" stop-color="#FEFCFF"/></linearGradient><linearGradient id="paint11_linear" x1="-411286" y1="164404" x2="-422290" y2="276631" gradientUnits="userSpaceOnUse"><stop stop-color="#D2DEFF"/><stop offset="1" stop-color="#FEFCFF"/></linearGradient><linearGradient id="paint12_linear" x1="-407915" y1="149248" x2="-421776" y2="258682" gradientUnits="userSpaceOnUse"><stop stop-color="#D2DEFF"/><stop offset="1" stop-color="#FEFCFF"/></linearGradient><linearGradient id="paint13_linear" x1="-404610" y1="134055" x2="-421090" y2="240389" gradientUnits="userSpaceOnUse"><stop stop-color="#D2DEFF"/><stop offset="1" stop-color="#FEFCFF"/></linearGradient><linearGradient id="paint14_linear" x1="-401427" y1="118780" x2="-420282" y2="221737" gradientUnits="userSpaceOnUse"><stop stop-color="#D2DEFF"/><stop offset="1" stop-color="#FEFCFF"/></linearGradient><linearGradient id="paint15_linear" x1="-398329" y1="103446" x2="-419288" y2="202773" gradientUnits="userSpaceOnUse"><stop stop-color="#D2DEFF"/><stop offset="1" stop-color="#FEFCFF"/></linearGradient><linearGradient id="paint16_linear" x1="-395296" y1="88075.6" x2="-418071" y2="183550" gradientUnits="userSpaceOnUse"><stop stop-color="#D2DEFF"/><stop offset="1" stop-color="#FEFCFF"/></linearGradient><linearGradient id="paint17_linear" x1="-392334" y1="72632" x2="-416634" y2="164054" gradientUnits="userSpaceOnUse"><stop stop-color="#D2DEFF"/><stop offset="1" stop-color="#FEFCFF"/></linearGradient><linearGradient id="paint18_linear" x1="-278435" y1="233863" x2="-254852" y2="296683" gradientUnits="userSpaceOnUse"><stop stop-color="#D2DEFF"/><stop offset="1" stop-color="#FEFCFF"/></linearGradient><linearGradient id="paint19_linear" x1="-268559" y1="218349" x2="-247119" y2="281532" gradientUnits="userSpaceOnUse"><stop stop-color="#D2DEFF"/><stop offset="1" stop-color="#FEFCFF"/></linearGradient><linearGradient id="paint20_linear" x1="-298507" y1="244832" x2="-274278" y2="314343" gradientUnits="userSpaceOnUse"><stop stop-color="#D2DEFF"/><stop offset="1" stop-color="#FEFCFF"/></linearGradient><linearGradient id="paint21_linear" x1="-277582" y1="249449" x2="-251901" y2="305652" gradientUnits="userSpaceOnUse"><stop stop-color="#D2DEFF"/><stop offset="1" stop-color="#FEFCFF"/></linearGradient></defs></svg>