<svg width="52" height="52" fill="none" xmlns="http://www.w3.org/2000/svg"><path d="M26.5 44A18.5 18.5 0 1145 25.5 18.52 18.52 0 0126.5 44zm0-36.119A17.619 17.619 0 1044.119 25.5 17.638 17.638 0 0026.5 7.881z" fill="url(#paint0_linear)"/><path d="M33.372 17.003l-15.25.07a1.425 1.425 0 00-1.065.406 1.491 1.491 0 00-.331.489 1.55 1.55 0 00-.122.588l.469 15.85c.023.426.203.83.502 1.132.3.3.696.474 1.107.484l15.246-.07c.4-.018.774-.2 1.04-.504a1.58 1.58 0 00.378-1.126l-.469-15.85a1.52 1.52 0 00-.455-1.063 1.445 1.445 0 00-.487-.314 1.375 1.375 0 00-.563-.092zM22.692 32.85l-2.618.012-.25-8.44 2.618-.012.25 8.44zm-1.506-9.718h-.019c-.377 0-.742-.156-1.015-.433a1.542 1.542 0 01-.443-1.041c-.01-.39.13-.766.388-1.043.259-.277.616-.433.992-.435a1.44 1.44 0 011.018.426c.275.275.436.648.449 1.039a1.47 1.47 0 01-.381 1.045 1.362 1.362 0 01-.99.442zm11.073 9.674l-2.618.012-.136-4.615c-.033-1.105-.436-1.859-1.383-1.855a1.366 1.366 0 00-.817.284 1.43 1.43 0 00-.496.724 1.875 1.875 0 00-.07.668l.141 4.807-2.617.012-.25-8.44 2.618-.012.035 1.174c.225-.428.56-.783.968-1.026a2.531 2.531 0 011.352-.357c1.718-.008 3.053 1.161 3.128 3.693l.145 4.931z" fill="url(#paint1_linear)"/><defs><linearGradient id="paint0_linear" x1="7.563" y1="13.665" x2="49.514" y2="18.751" gradientUnits="userSpaceOnUse"><stop stop-color="#00A3FF"/><stop offset="1" stop-color="#8F00FF"/></linearGradient><linearGradient id="paint1_linear" x1="13.012" y1="23.004" x2="37.652" y2="18.001" gradientUnits="userSpaceOnUse"><stop stop-color="#00A3FF"/><stop offset="1" stop-color="#8F00FF"/></linearGradient></defs></svg>