<svg width="200" height="203" fill="none" xmlns="http://www.w3.org/2000/svg"><path d="M115.116 121.851s-58.69-6.407-58.69-59.09c0-17.852 7.509-41.893 50.493-41.893 24.59 0 38.605 15.395 38.605 39.093 0 20.34-12.044 31.287-25.215 31.287-18.77 0-29.282-9.05-29.282-28.488 0-21.21 32.567-25.533 37.823-.186 0 0 2.252-25.13-25.028-25.13a25.66 25.66 0 00-9.86 1.828 25.542 25.542 0 00-8.391 5.462 25.369 25.369 0 00-5.627 8.254 25.25 25.25 0 00-1.994 9.772c0 18.1 9.385 38.036 43.141 38.036 32.504 0 47.427-34.988 39.137-63.04C151.937 9.703 127.661 0 106.826 0 58.898 0 38 30.603 38 62.791c-.094 35.641 24.152 59.06 77.116 59.06zM89.87 44.38a24.856 24.856 0 0116.759-4.464 24.801 24.801 0 0115.588 7.574c-9.729-8.49-35.914-9.081-40.356 17.82-1.377-8.21.907-16.452 8.008-20.93zM85.645 78a2.42 2.42 0 01-1.35-.391 2.404 2.404 0 01-.9-1.074 2.382 2.382 0 01.516-2.624 2.414 2.414 0 012.64-.513c.44.185.816.497 1.079.896.262.398.399.865.393 1.342 0 .627-.25 1.228-.697 1.671a2.385 2.385 0 01-1.68.692zm4.224 7.183a1.57 1.57 0 01-1.107-.455 1.55 1.55 0 01-.458-1.1 1.545 1.545 0 01.447-1.12 1.563 1.563 0 011.118-.466 1.604 1.604 0 011.128.465 1.584 1.584 0 01.467 1.121 1.547 1.547 0 01-.47 1.111 1.565 1.565 0 01-1.126.444zm52.244 4.759c-.291 0-.575-.086-.817-.247a1.46 1.46 0 01.53-2.649 1.48 1.48 0 011.51.622 1.459 1.459 0 01-.216 1.88 1.468 1.468 0 01-1.101.394h.094zM109.078 3.639c18.771 0 40.325 8.49 47.677 32.5a47.035 47.035 0 011.711 18.864 47.096 47.096 0 01-5.872 18.02 53.43 53.43 0 00-.438-28.83c-8.196-26.84-32.504-36.356-53.183-36.356A94.064 94.064 0 0076.48 10.42a73.982 73.982 0 0132.598-6.78zM78.357 14.866a2.041 2.041 0 011.9 1.226 2.01 2.01 0 01-.42 2.213 2.038 2.038 0 01-2.22.453 2.014 2.014 0 01-1.263-1.87 1.98 1.98 0 01.576-1.428 2.003 2.003 0 011.427-.594zm-10.386.155a4.46 4.46 0 012.48.732 4.422 4.422 0 011.649 1.98 4.392 4.392 0 01-.957 4.827 4.467 4.467 0 01-4.856.951 4.436 4.436 0 01-1.992-1.64 4.398 4.398 0 01.566-5.556 4.455 4.455 0 013.11-1.294zM60.868 26.53a2.685 2.685 0 012.463 1.672 2.66 2.66 0 01-.603 2.904 2.704 2.704 0 01-4.13-.42 2.664 2.664 0 01.292-3.33 2.697 2.697 0 011.822-.826h.156zm-4.818-1.089c-31.41 59.153 18.77 86.521 18.77 86.521C15.915 86.147 51.297 29.203 55.896 25.44h.156zm-2.784 54.456a1.445 1.445 0 011.33.883 1.423 1.423 0 01-.313 1.56 1.441 1.441 0 01-1.568.31 1.437 1.437 0 01-.888-1.322 1.46 1.46 0 011.282-1.431h.157zm-2.378-4.26a2.89 2.89 0 01-1.599-.483 2.864 2.864 0 01-1.06-1.284 2.846 2.846 0 01.624-3.118 2.883 2.883 0 013.137-.62c.526.217.975.583 1.291 1.054a2.85 2.85 0 01.253 2.721 2.864 2.864 0 01-1.652 1.558 2.897 2.897 0 01-1.15.172h.156z" fill="url(#paint0_linear)"/><path d="M200 165.08H0v2.986h200v-2.986z" fill="#343A54"/><path d="M15.82 155.219H12v-24.598h5.956l6.83 15.449 6.83-15.449h5.923v24.598h-3.82v-19.214l-7.897 17.068h-2.137l-7.865-17.068v19.214zm31.508-4.927c1.035 1.127 2.341 1.69 3.916 1.69 1.576 0 2.87-.563 3.885-1.69 1.035-1.149 1.553-2.627 1.553-4.434 0-1.806-.518-3.272-1.553-4.399-1.014-1.149-2.31-1.724-3.885-1.724-1.575 0-2.88.575-3.916 1.724-1.015 1.127-1.522 2.593-1.522 4.399 0 1.807.508 3.285 1.522 4.434zm10.39 2.429c-1.726 1.853-3.884 2.78-6.474 2.78-2.59 0-4.747-.927-6.473-2.78-1.727-1.877-2.59-4.165-2.59-6.863 0-2.698.863-4.973 2.59-6.827 1.726-1.877 3.884-2.815 6.473-2.815 2.59 0 4.748.938 6.474 2.815 1.727 1.854 2.59 4.129 2.59 6.827 0 2.698-.863 4.986-2.59 6.863zm25.292-14.112c0 4.059-1.63 6.616-4.888 7.672l5.924 8.938H79.19l-5.406-8.27h-5.017v8.27h-3.82v-24.598h8.417c3.452 0 5.923.633 7.412 1.9 1.49 1.267 2.234 3.296 2.234 6.088zm-9.484 4.575c2.157 0 3.625-.364 4.402-1.091.777-.727 1.165-1.889 1.165-3.484 0-1.619-.4-2.721-1.198-3.308-.798-.61-2.222-.915-4.272-.915h-4.856v8.798h4.759zm18.467 7.108c1.036 1.127 2.342 1.69 3.917 1.69 1.575 0 2.87-.563 3.885-1.69 1.035-1.149 1.553-2.627 1.553-4.434 0-1.806-.518-3.272-1.553-4.399-1.015-1.149-2.31-1.724-3.885-1.724-1.575 0-2.88.575-3.916 1.724-1.015 1.127-1.522 2.593-1.522 4.399 0 1.807.507 3.285 1.522 4.434zm10.391 2.429c-1.726 1.853-3.884 2.78-6.474 2.78-2.59 0-4.747-.927-6.474-2.78-1.726-1.877-2.59-4.165-2.59-6.863 0-2.698.864-4.973 2.59-6.827 1.727-1.877 3.885-2.815 6.474-2.815 2.59 0 4.748.938 6.474 2.815 1.726 1.854 2.59 4.129 2.59 6.827 0 2.698-.864 4.986-2.59 6.863zm18.785-18.3h-12.753v-3.8h18.062v3.237l-13.142 17.42v.105h13.336v3.836h-18.677v-3.202l13.174-17.49v-.106zm13.783 15.871c1.036 1.127 2.342 1.69 3.917 1.69 1.575 0 2.87-.563 3.884-1.69 1.036-1.149 1.554-2.627 1.554-4.434 0-1.806-.518-3.272-1.554-4.399-1.014-1.149-2.309-1.724-3.884-1.724-1.575 0-2.881.575-3.917 1.724-1.014 1.127-1.521 2.593-1.521 4.399 0 1.807.507 3.285 1.521 4.434zm10.391 2.429c-1.727 1.853-3.885 2.78-6.474 2.78-2.59 0-4.748-.927-6.474-2.78-1.726-1.877-2.589-4.165-2.589-6.863 0-2.698.863-4.973 2.589-6.827 1.726-1.877 3.884-2.815 6.474-2.815 2.589 0 4.747.938 6.474 2.815 1.726 1.854 2.589 4.129 2.589 6.827 0 2.698-.863 4.986-2.589 6.863zm11.049-18.229v6.756h10.034v3.836h-10.034v10.135h-3.82v-24.598h15.084l-.032 3.871h-11.232zm19.535 0v6.756h10.035v3.836h-10.035v10.135h-3.819v-24.598h15.084l-.033 3.871h-11.232zM37.559 197l-.413-1.354h-.07c-.47.592-.941.997-1.416 1.213-.474.211-1.084.317-1.828.317-.955 0-1.702-.258-2.241-.774-.533-.515-.8-1.245-.8-2.188 0-1.002.372-1.758 1.116-2.268.744-.509 1.878-.788 3.402-.835l1.678-.052v-.519c0-.621-.146-1.084-.44-1.389-.286-.31-.734-.465-1.344-.465-.498 0-.976.073-1.433.219-.457.147-.896.32-1.318.519l-.668-1.477a7.091 7.091 0 011.732-.624 7.842 7.842 0 011.775-.219c1.236 0 2.168.269 2.795.808.633.539.95 1.386.95 2.54V197h-1.477zm-3.077-1.406c.75 0 1.351-.208 1.802-.624.457-.422.686-1.011.686-1.767v-.844l-1.248.053c-.973.035-1.682.199-2.127.492-.44.287-.66.73-.66 1.327 0 .434.13.771.387 1.011.258.235.645.352 1.16.352zM43.983 197h-2.065v-9.721h2.065V197zm-2.188-12.296c0-.369.1-.653.299-.852.205-.2.495-.299.87-.299.363 0 .644.099.844.299.205.199.307.483.307.852 0 .352-.102.63-.307.835-.2.199-.48.299-.844.299-.375 0-.665-.1-.87-.299-.2-.205-.3-.483-.3-.835zm10.081 2.4c.416 0 .759.029 1.028.087l-.202 1.925a3.92 3.92 0 00-.914-.105c-.826 0-1.497.269-2.013.808-.51.539-.764 1.24-.764 2.101V197h-2.066v-9.721h1.617l.273 1.714h.105c.323-.58.742-1.04 1.257-1.38a3.017 3.017 0 011.679-.509zm11.434 10.072c-1.47 0-2.59-.428-3.357-1.283-.762-.862-1.143-2.095-1.143-3.701 0-1.634.399-2.891 1.196-3.77.803-.879 1.96-1.318 3.471-1.318 1.026 0 1.949.19 2.77.571l-.625 1.661c-.873-.34-1.594-.51-2.162-.51-1.682 0-2.523 1.116-2.523 3.349 0 1.09.209 1.91.625 2.461.421.545 1.037.817 1.845.817.92 0 1.79-.228 2.61-.685v1.801a4.068 4.068 0 01-1.186.466c-.416.094-.923.141-1.52.141zm13.615-5.054c0 1.588-.407 2.827-1.222 3.718-.814.89-1.948 1.336-3.401 1.336-.908 0-1.711-.205-2.408-.615-.698-.411-1.234-.999-1.609-1.767-.375-.768-.562-1.658-.562-2.672 0-1.576.404-2.807 1.213-3.691.808-.885 1.948-1.327 3.418-1.327 1.407 0 2.52.454 3.34 1.362.82.902 1.23 2.121 1.23 3.656zm-7.075 0c0 2.244.829 3.366 2.487 3.366 1.64 0 2.46-1.122 2.46-3.366 0-2.221-.825-3.331-2.478-3.331-.867 0-1.497.287-1.89.861-.386.575-.58 1.398-.58 2.47zM87.858 197h-2.074v-5.977c0-.75-.152-1.309-.457-1.678-.299-.369-.776-.554-1.433-.554-.873 0-1.511.258-1.916.773-.404.516-.606 1.38-.606 2.593V197h-2.065v-9.721h1.617l.29 1.275h.105a2.877 2.877 0 011.248-1.073 4.181 4.181 0 011.793-.377c2.332 0 3.498 1.186 3.498 3.559V197zm6.153.176c-1.213 0-2.16-.44-2.84-1.319-.679-.878-1.019-2.112-1.019-3.7 0-1.594.343-2.833 1.029-3.718.691-.89 1.646-1.335 2.865-1.335 1.277 0 2.25.471 2.918 1.415h.105c-.1-.698-.15-1.248-.15-1.653v-3.542h2.075V197h-1.617l-.36-1.274h-.097c-.662.966-1.632 1.45-2.91 1.45zm.553-1.67c.85 0 1.468-.237 1.855-.712.387-.481.586-1.257.598-2.329v-.29c0-1.225-.2-2.095-.598-2.611-.398-.515-1.022-.773-1.872-.773-.727 0-1.286.296-1.679.888-.392.586-.589 1.424-.589 2.513 0 1.079.19 1.902.572 2.47.38.563.952.844 1.713.844zm9.449 1.494h-2.066v-9.721h2.066V197zm-2.189-12.296c0-.369.1-.653.299-.852.205-.2.495-.299.87-.299.363 0 .645.099.844.299.205.199.308.483.308.852 0 .352-.103.63-.308.835-.199.199-.481.299-.844.299-.375 0-.665-.1-.87-.299-.199-.205-.299-.483-.299-.835zm8.772 10.802a5.02 5.02 0 001.511-.237v1.555c-.228.1-.524.182-.887.246-.358.071-.73.106-1.116.106-1.958 0-2.936-1.031-2.936-3.094v-5.238h-1.327v-.914l1.424-.756.703-2.057h1.274v2.162h2.769v1.565h-2.769v5.203c0 .498.123.867.369 1.107.252.235.58.352.985.352zm5.528 1.494h-2.065v-9.721h2.065V197zm-2.188-12.296c0-.369.099-.653.298-.852.205-.2.495-.299.87-.299.364 0 .645.099.844.299.205.199.308.483.308.852 0 .352-.103.63-.308.835-.199.199-.48.299-.844.299-.375 0-.665-.1-.87-.299-.199-.205-.298-.483-.298-.835zm13.772 7.418c0 1.588-.407 2.827-1.222 3.718-.814.89-1.948 1.336-3.401 1.336-.908 0-1.711-.205-2.408-.615-.698-.411-1.234-.999-1.609-1.767-.375-.768-.562-1.658-.562-2.672 0-1.576.404-2.807 1.213-3.691.808-.885 1.948-1.327 3.419-1.327 1.406 0 2.519.454 3.34 1.362.82.902 1.23 2.121 1.23 3.656zm-7.075 0c0 2.244.829 3.366 2.487 3.366 1.641 0 2.461-1.122 2.461-3.366 0-2.221-.826-3.331-2.478-3.331-.868 0-1.498.287-1.89.861-.387.575-.58 1.398-.58 2.47zM138.642 197h-2.075v-5.977c0-.75-.152-1.309-.457-1.678-.298-.369-.776-.554-1.432-.554-.873 0-1.512.258-1.916.773-.405.516-.607 1.38-.607 2.593V197h-2.065v-9.721h1.617l.29 1.275h.106a2.877 2.877 0 011.248-1.073 4.179 4.179 0 011.793-.377c2.332 0 3.498 1.186 3.498 3.559V197zm4.939 0h-2.065v-9.721h2.065V197zm-2.188-12.296c0-.369.099-.653.298-.852.205-.2.496-.299.871-.299.363 0 .644.099.843.299.205.199.308.483.308.852 0 .352-.103.63-.308.835-.199.199-.48.299-.843.299-.375 0-.666-.1-.871-.299-.199-.205-.298-.483-.298-.835zM155.095 197h-2.074v-5.977c0-.75-.153-1.309-.458-1.678-.298-.369-.776-.554-1.432-.554-.873 0-1.512.258-1.916.773-.404.516-.607 1.38-.607 2.593V197h-2.065v-9.721h1.617l.29 1.275h.106a2.877 2.877 0 011.248-1.073 4.179 4.179 0 011.793-.377c2.332 0 3.498 1.186 3.498 3.559V197zm11.083-9.721v1.134l-1.661.308c.152.205.278.457.378.756.099.298.149.615.149.949 0 1.002-.346 1.79-1.037 2.364-.692.574-1.644.861-2.857.861-.31 0-.591-.023-.843-.07-.446.275-.668.598-.668.967 0 .223.102.39.307.501.211.111.595.167 1.152.167h1.696c1.072 0 1.887.228 2.443.685.557.457.835 1.117.835 1.978 0 1.101-.454 1.951-1.362 2.549-.908.597-2.221.896-3.938.896-1.324 0-2.334-.234-3.032-.703-.697-.469-1.046-1.137-1.046-2.004 0-.597.188-1.101.563-1.512.381-.404.911-.685 1.591-.843a1.588 1.588 0 01-.686-.563 1.465 1.465 0 01-.264-.826c0-.363.103-.671.308-.923.205-.252.51-.501.914-.747a2.735 2.735 0 01-1.23-1.055c-.311-.492-.466-1.066-.466-1.722 0-1.055.331-1.872.993-2.452.668-.58 1.617-.87 2.848-.87.275 0 .562.02.861.061.305.035.533.073.686.114h3.366zm-7.638 11.233c0 .445.199.788.598 1.028.404.24.969.36 1.696.36 1.125 0 1.963-.161 2.514-.483.55-.322.826-.75.826-1.283 0-.422-.153-.724-.457-.905-.299-.176-.859-.264-1.679-.264h-1.564c-.592 0-1.064.138-1.415.413-.346.281-.519.659-.519 1.134zm.888-8.086c0 .609.155 1.078.466 1.406.316.328.767.492 1.353.492 1.195 0 1.793-.638 1.793-1.916 0-.633-.149-1.119-.448-1.459-.293-.345-.741-.518-1.345-.518-.598 0-1.052.17-1.362.509-.305.34-.457.835-.457 1.486z" fill="#394855"/><defs><linearGradient id="paint0_linear" x1="36.53" y1="21.951" x2="177.579" y2="39.42" gradientUnits="userSpaceOnUse"><stop stop-color="#00A3FF"/><stop offset="1" stop-color="#8F00FF"/></linearGradient></defs></svg>