<svg width="17" height="17" fill="none" xmlns="http://www.w3.org/2000/svg"><path d="M11.75 11.405l-.488.733c-.098.146-.227.271-.396.316-.557.147-2.035.213-4.284-2.036-2.25-2.25-2.183-3.727-2.036-4.283.045-.17.17-.3.316-.397l.732-.488c.546-.364.693-1.1.33-1.646L4.54 1.529a1.187 1.187 0 00-1.455-.433l-.624.268a2.18 2.18 0 00-1.092 1.029c-.192.385-.342.791-.362 1.222-.064 1.356.234 4.699 3.957 8.421 3.722 3.723 7.065 4.02 8.421 3.957.43-.02.837-.17 1.222-.362a2.18 2.18 0 001.03-1.092l.267-.624a1.187 1.187 0 00-.433-1.455l-2.075-1.384a1.187 1.187 0 00-1.646.33z" stroke="#394855"/></svg>