<svg width="52" height="52" fill="none" xmlns="http://www.w3.org/2000/svg"><path d="M26.5 42A16.5 16.5 0 1143 25.5 16.519 16.519 0 0126.5 42zm0-32.214A15.714 15.714 0 1042.214 25.5 15.732 15.732 0 0026.5 9.786z" fill="url(#paint0_linear)"/><path d="M27.003 15c-2.527 0-4.976.83-6.937 2.35-1.961 1.52-3.314 3.637-3.832 5.997-.518 2.36-.17 4.817.987 6.96s3.052 3.84 5.366 4.808a8.882 8.882 0 01.191-2.409c.212-.853 1.415-5.722 1.415-5.722a3.85 3.85 0 01-.354-1.66c0-1.555.943-2.718 2.122-2.718 1.002 0 1.484.718 1.484 1.575 0 .961-.644 2.395-.973 3.726a1.55 1.55 0 00-.011.753 1.6 1.6 0 00.345.677c.17.196.385.352.629.455.244.102.51.149.776.135 2.082 0 3.487-2.554 3.487-5.582 0-2.3-1.626-4.02-4.578-4.02-3.335 0-5.417 2.375-5.417 5.028a2.939 2.939 0 00.727 2.057.51.51 0 01.178.269.49.49 0 01-.021.317c-.054.192-.172.656-.226.844a.352.352 0 01-.069.157.394.394 0 01-.482.106c-1.537-.6-2.254-2.203-2.254-4.012 0-2.981 2.638-6.557 7.864-6.557 4.2 0 6.965 2.9 6.965 6.013 0 4.12-2.402 7.194-5.938 7.194-1.19 0-2.304-.614-2.687-1.308 0 0-.639 2.419-.776 2.887a8.55 8.55 0 01-1.105 2.25 11.52 11.52 0 004.667.325 11.337 11.337 0 004.387-1.554 10.768 10.768 0 003.313-3.153 10.21 10.21 0 001.64-4.182 10.04 10.04 0 00-.329-4.454 10.365 10.365 0 00-2.239-3.921 10.976 10.976 0 00-3.744-2.679A11.45 11.45 0 0027.002 15z" fill="url(#paint1_linear)"/><defs><linearGradient id="paint0_linear" x1="9.61" y1="14.945" x2="47.026" y2="19.481" gradientUnits="userSpaceOnUse"><stop stop-color="#00A3FF"/><stop offset="1" stop-color="#8F00FF"/></linearGradient><linearGradient id="paint1_linear" x1="15.74" y1="18.783" x2="40.649" y2="21.947" gradientUnits="userSpaceOnUse"><stop stop-color="#00A3FF"/><stop offset="1" stop-color="#8F00FF"/></linearGradient></defs></svg>