<svg width="1952" height="1244" fill="none" xmlns="http://www.w3.org/2000/svg"><g opacity=".3"><path d="M1074.07 688.009c1.21 0 2.18-.977 2.18-2.182s-.97-2.181-2.18-2.181c-1.2 0-2.18.976-2.18 2.181s.98 2.182 2.18 2.182zm-85.054 3.518a2.181 2.181 0 10.001-4.363 2.181 2.181 0 00-.001 4.363zm-110.883 39.714a3.12 3.12 0 100-6.239 3.12 3.12 0 000 6.239zm-.048 28.196a3.424 3.424 0 10.001-6.849 3.424 3.424 0 00-.001 6.849zm72.062 21.417a2.181 2.181 0 11-4.363 0 2.181 2.181 0 014.363 0zm154.213 51.888c1.2 0 2.18-.977 2.18-2.182s-.98-2.181-2.18-2.181c-1.21 0-2.19.976-2.19 2.181s.98 2.182 2.19 2.182zm100.65 68.543c1.21 0 2.18-.977 2.18-2.182s-.97-2.182-2.18-2.182c-1.2 0-2.18.977-2.18 2.182s.98 2.182 2.18 2.182zm39.95 99.435c1.21 0 2.18-.976 2.18-2.181 0-1.204-.97-2.181-2.18-2.181-1.2 0-2.18.977-2.18 2.181 0 1.205.98 2.181 2.18 2.181zm-155.59 43.33a2.185 2.185 0 000-4.37c-1.21 0-2.18.98-2.18 2.19 0 1.2.97 2.18 2.18 2.18zM880.197 1047c1.205 0 2.181-.97 2.181-2.18 0-1.2-.976-2.18-2.181-2.18s-2.182.98-2.182 2.18c0 1.21.977 2.18 2.182 2.18zm-17.57 7.2c1.205 0 2.181-.97 2.181-2.18 0-1.2-.976-2.18-2.181-2.18s-2.182.98-2.182 2.18c0 1.21.977 2.18 2.182 2.18zm29.556-28a2.186 2.186 0 000-4.37 2.186 2.186 0 000 4.37zm149.237-135.143a3.238 3.238 0 100-6.474 3.238 3.238 0 100 6.474zm108.07 37.039c1.2 0 2.18-.976 2.18-2.181s-.98-2.182-2.18-2.182c-1.21 0-2.18.977-2.18 2.182s.97 2.181 2.18 2.181zm205.82 1.666c2.74 0 4.97-2.226 4.97-4.973a4.975 4.975 0 00-9.95 0 4.976 4.976 0 004.98 4.973zm200.65-25.428c1.21 0 2.18-.977 2.18-2.182 0-1.204-.97-2.181-2.18-2.181-1.2 0-2.18.977-2.18 2.181 0 1.205.98 2.182 2.18 2.182zm155.08-168.8c1.2 0 2.18-.977 2.18-2.182s-.98-2.181-2.18-2.181c-1.21 0-2.18.976-2.18 2.181s.97 2.182 2.18 2.182zm-69.18-40.934c1.21 0 2.18-.976 2.18-2.181s-.97-2.182-2.18-2.182c-1.2 0-2.18.977-2.18 2.182s.98 2.181 2.18 2.181zm2.86-77.738c0 .433-.12.856-.36 1.215-.25.359-.59.639-.99.803a2.186 2.186 0 01-2.38-.484c-.3-.307-.51-.698-.59-1.123-.08-.424-.03-.864.13-1.262.17-.398.46-.737.82-.974.36-.237.78-.361 1.22-.356.28 0 .56.056.83.166a2.174 2.174 0 011.17 1.182c.1.265.16.548.15.833zm-103.19 18.156a4.49 4.49 0 01-.74 2.464 4.445 4.445 0 01-1.99 1.632 4.425 4.425 0 01-4.83-.961 4.436 4.436 0 01-1.22-2.27c-.17-.86-.08-1.751.25-2.561.34-.81.91-1.503 1.64-1.99a4.42 4.42 0 012.46-.747c1.18 0 2.3.467 3.14 1.298.83.832 1.29 1.96 1.29 3.135zm-4.43 26.742a6.452 6.452 0 000-12.902 6.452 6.452 0 000 12.902zm-76.35-9.313c1.2 0 2.18-.976 2.18-2.181s-.98-2.182-2.18-2.182c-1.21 0-2.18.977-2.18 2.182s.97 2.181 2.18 2.181zm-56.77-99.155c1.2 0 2.18-.976 2.18-2.181s-.98-2.182-2.18-2.182c-1.2 0-2.18.977-2.18 2.182s.98 2.181 2.18 2.181zm-90.78-86.933c1.2 0 2.18-.977 2.18-2.182s-.98-2.181-2.18-2.181c-1.21 0-2.18.976-2.18 2.181s.97 2.182 2.18 2.182zm-99.53-34.272c1.2 0 2.18-.976 2.18-2.181s-.98-2.182-2.18-2.182c-1.21 0-2.18.977-2.18 2.182s.97 2.181 2.18 2.181zm-46.12-29.251c1.21 0 2.18-.977 2.18-2.182s-.97-2.181-2.18-2.181c-1.2 0-2.18.976-2.18 2.181s.98 2.182 2.18 2.182zm-298.918 94.346a2.181 2.181 0 100-4.363 2.181 2.181 0 000 4.363zm-116.209-34.529a2.182 2.182 0 100-4.364 2.182 2.182 0 000 4.364zm167.112-160.802a2.181 2.181 0 10.001-4.363 2.181 2.181 0 00-.001 4.363zm248.505-35.069c1.21 0 2.19-.976 2.19-2.181a2.186 2.186 0 00-4.37 0c0 1.205.98 2.181 2.18 2.181zm121.07-13.675c1.2 0 2.18-.977 2.18-2.182s-.98-2.182-2.18-2.182c-1.21 0-2.18.977-2.18 2.182s.97 2.182 2.18 2.182zm55.66-10.04c1.21 0 2.18-.977 2.18-2.182s-.97-2.181-2.18-2.181c-1.2 0-2.18.976-2.18 2.181s.98 2.182 2.18 2.182zm231.41-95.637c0 .432-.13.854-.37 1.212a2.177 2.177 0 01-3.35.331 2.122 2.122 0 01-.6-1.117c-.08-.423-.04-.862.12-1.26.17-.399.45-.74.81-.979.36-.24.78-.368 1.21-.368a2.164 2.164 0 011.55.632c.2.203.36.445.47.711.11.266.16.551.16.838zm-30.21 83.861a2.183 2.183 0 01-1.35 2.015 2.178 2.178 0 01-2.38-.472c-.3-.306-.51-.694-.59-1.117-.09-.424-.04-.862.12-1.261.17-.399.45-.739.8-.979.36-.24.79-.368 1.22-.368.28 0 .57.057.83.166.27.11.51.271.71.473a2.223 2.223 0 01.64 1.543zm-224.54 108.116c1.21 0 2.18-.977 2.18-2.182s-.97-2.181-2.18-2.181c-1.2 0-2.18.976-2.18 2.181s.98 2.182 2.18 2.182zm-360.657 87.825a2.182 2.182 0 100-4.364 2.182 2.182 0 000 4.364zm29.088 83.039a2.18 2.18 0 100-4.363 2.182 2.182 0 000 4.363zm-56.557 49.66a5.372 5.372 0 11-5.372-5.372 5.395 5.395 0 015.372 5.372zm-179.543 60.333a2.182 2.182 0 10-.002-4.364 2.182 2.182 0 00.002 4.364zm-192.61 17.945a2.181 2.181 0 100-4.363 2.181 2.181 0 000 4.363zm-80.811 94.557a3.724 3.724 0 01-2.292 3.464 3.724 3.724 0 01-4.075-.804 3.726 3.726 0 01.58-5.748 3.73 3.73 0 015.787 3.088zm-7.343 42.247a4.223 4.223 0 100-8.447 4.223 4.223 0 000 8.447zm-59.37 58.198a2.181 2.181 0 100-4.363 2.181 2.181 0 000 4.363zm-40.863 104.245a2.182 2.182 0 10-.001-4.363 2.182 2.182 0 00.001 4.363zm23.527-36.429a2.182 2.182 0 100-4.364 2.182 2.182 0 000 4.364zm-12.784 18.484a2.181 2.181 0 100-4.363 2.181 2.181 0 000 4.363zm53.906 8.257a2.182 2.182 0 10-.001-4.363 2.182 2.182 0 00.001 4.363zm-21.746-51.536a2.182 2.182 0 100-4.364 2.182 2.182 0 000 4.364zm-14.426-8.867a2.182 2.182 0 100-4.364 2.182 2.182 0 000 4.364zM628.85 1053.43c1.204 0 2.181-.98 2.181-2.18 0-1.21-.977-2.18-2.181-2.18-1.205 0-2.182.97-2.182 2.18 0 1.2.977 2.18 2.182 2.18zm82.875 37.7a3.308 3.308 0 003.307-3.31 3.308 3.308 0 10-6.615 0c0 1.83 1.481 3.31 3.308 3.31zm41.238 16.91a2.769 2.769 0 002.768-2.77 2.769 2.769 0 10-5.536 0c0 1.53 1.239 2.77 2.768 2.77zm-7.131-88.2a6.005 6.005 0 100-12.01 6.005 6.005 0 000 12.01zm-11.494-59.489a2.181 2.181 0 11-4.363 0 2.181 2.181 0 014.363 0zm53.272 34.248a4.058 4.058 0 100-8.116 4.058 4.058 0 000 8.116zm137.789 86.531c1.205 0 2.182-.97 2.182-2.18 0-1.2-.977-2.18-2.182-2.18s-2.181.98-2.181 2.18c0 1.21.976 2.18 2.181 2.18zm-224.183 20.83c1.205 0 2.181-.97 2.181-2.18 0-1.2-.976-2.18-2.181-2.18s-2.182.98-2.182 2.18c0 1.21.977 2.18 2.182 2.18zm-123.176 25.76a3.031 3.031 0 01-.795 2.34c-.288.32-.638.57-1.028.74-.39.17-.812.26-1.238.26-.426 0-.847-.09-1.237-.26a2.978 2.978 0 01-1.029-.74 3.046 3.046 0 01-.795-2.34c.067-.77.419-1.48.985-2 .567-.52 1.308-.8 2.076-.8a3.062 3.062 0 013.061 2.8zm-36.664-17.36c1.205 0 2.182-.98 2.182-2.18 0-1.2-.977-2.18-2.182-2.18-1.204 0-2.181.98-2.181 2.18 0 1.2.977 2.18 2.181 2.18zm-45.812 10.35c0 .85-.254 1.68-.728 2.39a4.27 4.27 0 01-1.937 1.59c-.789.33-1.656.42-2.494.25a4.37 4.37 0 01-2.21-1.18 4.338 4.338 0 01-1.181-2.21 4.338 4.338 0 01.246-2.5 4.32 4.32 0 011.589-1.93c.71-.48 1.545-.73 2.398-.73a4.309 4.309 0 014.317 4.32zm337.459-13.28c1.205 0 2.182-.98 2.182-2.18 0-1.21-.977-2.18-2.182-2.18s-2.181.97-2.181 2.18c0 1.2.976 2.18 2.181 2.18zm81.257-11.85c1.205 0 2.182-.97 2.182-2.18 0-1.2-.977-2.18-2.182-2.18s-2.181.98-2.181 2.18c0 1.21.976 2.18 2.181 2.18zm114.33 39.29c1.21 0 2.18-.97 2.18-2.18 0-1.2-.97-2.18-2.18-2.18-1.2 0-2.18.98-2.18 2.18 0 1.21.98 2.18 2.18 2.18zm108.84-63.52c1.21 0 2.19-.98 2.19-2.18a2.185 2.185 0 00-4.37 0c0 1.2.98 2.18 2.18 2.18zm-2.88 36.95a2.185 2.185 0 000-4.37c-1.21 0-2.18.98-2.18 2.19 0 1.2.97 2.18 2.18 2.18zm-36.62-43.73c1.21 0 2.18-.97 2.18-2.18 0-1.2-.97-2.18-2.18-2.18-1.2 0-2.18.98-2.18 2.18 0 1.21.98 2.18 2.18 2.18zm5.21 27.89c1.2 0 2.18-.97 2.18-2.18 0-1.2-.98-2.18-2.18-2.18-1.2 0-2.18.98-2.18 2.18 0 1.21.98 2.18 2.18 2.18zm90.71 3.78c1.21 0 2.18-.98 2.18-2.18 0-1.21-.97-2.18-2.18-2.18-1.2 0-2.18.97-2.18 2.18 0 1.2.98 2.18 2.18 2.18zm314.99 37.65a2.182 2.182 0 01-1.35 2.01c-.4.17-.84.21-1.26.13-.42-.09-.81-.29-1.12-.6-.3-.3-.51-.69-.59-1.12-.09-.42-.04-.86.12-1.26.17-.39.45-.73.8-.97.36-.24.79-.37 1.22-.37.58 0 1.13.23 1.54.64.41.41.64.96.64 1.54zm44.87-.31c1.21 0 2.18-.97 2.18-2.18 0-1.2-.97-2.18-2.18-2.18-1.2 0-2.18.98-2.18 2.18 0 1.21.98 2.18 2.18 2.18zm88.41 2.68c0 .43-.12.85-.36 1.21s-.58.64-.98.8c-.4.17-.84.21-1.26.13-.43-.09-.82-.29-1.12-.6-.31-.3-.51-.69-.6-1.12-.08-.42-.04-.86.13-1.26.16-.39.44-.74.8-.98.36-.24.78-.36 1.21-.36.58 0 1.14.23 1.54.64.41.41.64.96.64 1.54zm-132.23-73.17c1.21 0 2.19-.97 2.19-2.18a2.185 2.185 0 00-4.37 0c0 1.21.98 2.18 2.18 2.18zm-185.45-341.56c1.2 0 2.18-.977 2.18-2.182s-.98-2.181-2.18-2.181c-1.21 0-2.18.976-2.18 2.181s.97 2.182 2.18 2.182zm-51.3 52.779c1.2 0 2.18-.977 2.18-2.181 0-1.205-.98-2.182-2.18-2.182-1.21 0-2.18.977-2.18 2.182 0 1.204.97 2.181 2.18 2.181zm-19.45-134.576c1.21 0 2.18-.976 2.18-2.181s-.97-2.182-2.18-2.182c-1.2 0-2.18.977-2.18 2.182s.98 2.181 2.18 2.181zm8.63-31.456c1.21 0 2.18-.977 2.18-2.182s-.97-2.181-2.18-2.181c-1.2 0-2.18.976-2.18 2.181s.98 2.182 2.18 2.182zm-44.31-7.249c1.21 0 2.18-.976 2.18-2.181s-.97-2.182-2.18-2.182c-1.2 0-2.18.977-2.18 2.182s.98 2.181 2.18 2.181zm243.49-225.215c4.02 0 7.27-3.256 7.27-7.272a7.268 7.268 0 00-7.27-7.272 7.268 7.268 0 00-7.27 7.272 7.268 7.268 0 007.27 7.272zm-7.22-60.99c1.37 0 2.48-1.113 2.48-2.486a2.486 2.486 0 10-2.48 2.486zm28.03 1.314c0 .464-.14.917-.4 1.303a2.345 2.345 0 01-4.25-.846c-.09-.455-.04-.926.13-1.355.18-.429.48-.795.87-1.053.38-.257.84-.395 1.3-.395a2.352 2.352 0 012.35 2.346zm56.04-17.148c1.44 0 2.6-1.165 2.6-2.603a2.599 2.599 0 00-2.6-2.604 2.607 2.607 0 00-2.61 2.604 2.607 2.607 0 002.61 2.603zm-3.97-15.904c1.21 0 2.18-.976 2.18-2.181s-.97-2.182-2.18-2.182c-1.2 0-2.18.977-2.18 2.182s.98 2.181 2.18 2.181zm-18.36-8.82c1.2 0 2.18-.977 2.18-2.181a2.186 2.186 0 00-4.37 0c0 1.204.98 2.181 2.19 2.181zm-1.97 10.603c1.2 0 2.18-.977 2.18-2.182a2.186 2.186 0 00-4.37 0c0 1.205.98 2.182 2.19 2.182zm35.7 130.142c1.2 0 2.18-.976 2.18-2.181s-.98-2.182-2.18-2.182c-1.21 0-2.18.977-2.18 2.182s.97 2.181 2.18 2.181zm42.95 67.159c1.2 0 2.18-.976 2.18-2.181s-.98-2.182-2.18-2.182c-1.21 0-2.18.977-2.18 2.182s.97 2.181 2.18 2.181zm125.85-6.075c1.2 0 2.18-.977 2.18-2.182s-.98-2.182-2.18-2.182c-1.21 0-2.18.977-2.18 2.182s.97 2.182 2.18 2.182zm-792.983-145.32a2.18 2.18 0 01-4.321.426 2.178 2.178 0 012.139-2.607 2.182 2.182 0 012.182 2.181zM751.532 254.35a6.287 6.287 0 100-12.575 6.287 6.287 0 000 12.575zm-50.551-40.558a3.308 3.308 0 100-6.616 3.308 3.308 0 000 6.616zm-70.443 19.986a2.182 2.182 0 100-4.364 2.182 2.182 0 000 4.364zm-31.644-57.495a2.18 2.18 0 100-4.363 2.182 2.182 0 000 4.363zm50.434-34.295a2.181 2.181 0 100-4.362 2.181 2.181 0 000 4.362zm-94.229-3.823a2.182 2.182 0 100-4.364 2.182 2.182 0 000 4.364zm-9.36-49.167a2.182 2.182 0 100-4.364 2.182 2.182 0 000 4.364zm-3.542 58.761a2.182 2.182 0 100-4.364 2.182 2.182 0 000 4.364zm74.173 203.752a2.182 2.182 0 100-4.364 2.182 2.182 0 000 4.364zm-44.616-34.858a2.181 2.181 0 100-4.363 2.181 2.181 0 000 4.363zm-97.49-57.448a2.181 2.181 0 10.001-4.363 2.181 2.181 0 00-.001 4.363zm27.047 41.028a2.181 2.181 0 100-4.363 2.181 2.181 0 000 4.363zm45.648 96.668a2.181 2.181 0 100-4.362 2.181 2.181 0 000 4.362zm-157.728 40.018a2.18 2.18 0 100-4.363 2.182 2.182 0 000 4.363zM937.034 118.46a2.181 2.181 0 10.001-4.363 2.181 2.181 0 00-.001 4.363zm5.137-65.563a2.182 2.182 0 100-4.364 2.182 2.182 0 000 4.364zm-13.018-21.98a2.181 2.181 0 100-4.362 2.181 2.181 0 000 4.362zM882.355 20.76a2.181 2.181 0 100-4.362 2.181 2.181 0 000 4.362zm-528.03 292.867a2.178 2.178 0 01-1.352 2.018 2.184 2.184 0 01-2.38-.484 2.182 2.182 0 113.732-1.534zm-86.792-152.474a2.179 2.179 0 01-1.347 2.016 2.182 2.182 0 111.347-2.016zm40.394-11.471a2.179 2.179 0 01-2.593 2.166 2.183 2.183 0 01-1.606-2.971 2.176 2.176 0 012.017-1.353 2.157 2.157 0 012.182 2.158zm18.672-58.573a2.18 2.18 0 01-3.79 1.686 2.186 2.186 0 01-.55-1.686 2.182 2.182 0 014.34 0zm-122.167 20.22a2.177 2.177 0 01-1.336 2.035 2.179 2.179 0 01-2.856-2.857 2.186 2.186 0 012.034-1.336 2.18 2.18 0 012.158 2.158zm-15.036.094a2.177 2.177 0 01-1.336 2.034 2.175 2.175 0 01-2.388-.468 2.178 2.178 0 01-.468-2.388 2.18 2.18 0 012.034-1.336 2.158 2.158 0 012.158 2.158zm-62.608 166.854a2.185 2.185 0 01-2.17 1.955 2.18 2.18 0 112.17-1.955zm46.915-58.879c0 .433-.129.855-.369 1.215a2.188 2.188 0 01-2.247.923 2.181 2.181 0 112.616-2.138zm9.383 32.512a2.18 2.18 0 01-4.321.426 2.178 2.178 0 012.139-2.607 2.182 2.182 0 012.182 2.181zm132.746-33.028c0 .433-.129.855-.369 1.215a2.188 2.188 0 01-2.247.923 2.181 2.181 0 112.616-2.138zm80.225-54.304a2.179 2.179 0 01-1.347 2.016 2.182 2.182 0 111.347-2.016zm23.363-29.017a2.183 2.183 0 11-4.197-.835 2.18 2.18 0 012.016-1.347 2.182 2.182 0 012.181 2.182zm-47.923-61.459a2.187 2.187 0 01-1.352 2.018 2.183 2.183 0 111.352-2.018zM249.682 15.787a2.174 2.174 0 01-.639 1.543 2.183 2.183 0 01-3.724-1.543 2.182 2.182 0 014.363 0zm-62.773 6.638a2.181 2.181 0 11-4.363 0 2.183 2.183 0 013.716-1.527c.409.404.641.953.647 1.527zm4.129-18.789a2.182 2.182 0 01-2.182 2.181 2.181 2.181 0 010-4.363 2.182 2.182 0 012.182 2.182zM272.6 42.153a2.18 2.18 0 01-2.607 2.14 2.182 2.182 0 112.607-2.14zM437.013 52.85a2.179 2.179 0 01-2.607 2.14 2.183 2.183 0 112.607-2.14zm75.815-15.06a2.18 2.18 0 01-2.607 2.14 2.182 2.182 0 112.607-2.14zM185.69 422.493a2.185 2.185 0 01-2.602 2.165 2.18 2.18 0 01-1.721-1.721 2.187 2.187 0 01.944-2.244 2.185 2.185 0 011.221-.358c.572 0 1.121.228 1.526.632.404.405.632.954.632 1.526zM171.17 479.8a2.186 2.186 0 01-2.602 2.164 2.18 2.18 0 01-1.721-1.721 2.183 2.183 0 012.165-2.601 2.158 2.158 0 012.158 2.158zm19.727 54.562a2.179 2.179 0 01-2.592 2.166 2.175 2.175 0 01-1.727-1.708 2.187 2.187 0 01.923-2.247 2.182 2.182 0 013.396 1.789zm-38.799 67.605a2.165 2.165 0 01-.549 1.686 2.167 2.167 0 01-1.62.721 2.183 2.183 0 01-2.17-2.407 2.18 2.18 0 014.339 0zm-36.288 62.139a2.181 2.181 0 11-4.362.046 2.181 2.181 0 014.362-.046zm-11.237 37.884a2.178 2.178 0 01-1.33 2.032 2.184 2.184 0 01-2.066-3.821 2.182 2.182 0 013.396 1.789zm156.932-94.651a2.184 2.184 0 01-2.602 2.164 2.186 2.186 0 01-1.721-1.721 2.187 2.187 0 01.944-2.244 2.175 2.175 0 011.22-.357 2.155 2.155 0 012.159 2.158zm15.81-19.306a2.187 2.187 0 01-1.331 2.032 2.182 2.182 0 11-.851-4.19 2.16 2.16 0 012.182 2.158zm71.381-.141c0 .432-.128.854-.368 1.212a2.174 2.174 0 01-2.239.928 2.181 2.181 0 112.607-2.14zm10.063-24.161a2.178 2.178 0 01-2.592 2.166 2.17 2.17 0 01-1.123-.592 2.174 2.174 0 01-.484-2.38 2.184 2.184 0 013.552-.721c.409.404.641.953.647 1.527zm-41.473-55.594a2.178 2.178 0 01-2.615 2.137 2.183 2.183 0 01-1.575-2.988 2.181 2.181 0 014.19.851zm38.353 10.743a2.176 2.176 0 01-1.346 2.016 2.186 2.186 0 01-2.378-.473 2.181 2.181 0 113.724-1.543zm53.835 19.963a2.182 2.182 0 11-4.34-.455 2.182 2.182 0 014.34.455zm20.174 30.26a2.183 2.183 0 11-4.197-.835 2.18 2.18 0 012.016-1.347 2.182 2.182 0 012.181 2.182zm-69.786 40.839a2.18 2.18 0 01-2.616 2.138 2.18 2.18 0 01-.76-3.963 2.178 2.178 0 012.745.291c.405.409.631.96.631 1.534zm-200.375 69.364a2.176 2.176 0 01-1.335 2.034 2.179 2.179 0 01-2.389-.468 2.186 2.186 0 01-.468-2.388 2.176 2.176 0 012.034-1.336 2.154 2.154 0 012.158 2.158zm-17.804 80.201a2.18 2.18 0 01-2.615 2.138 2.183 2.183 0 01-1.575-2.989 2.184 2.184 0 013.56-.683c.404.408.63.96.63 1.534zm78.512-7.013a2.178 2.178 0 01-1.33 2.032 2.184 2.184 0 01-2.869-2.838 2.184 2.184 0 012.018-1.352 2.145 2.145 0 011.541.623 2.165 2.165 0 01.64 1.535zm82.642-76.097a2.188 2.188 0 01-1.331 2.033 2.182 2.182 0 11-.851-4.191 2.16 2.16 0 012.182 2.158zm3.988 20.549a2.179 2.179 0 01-1.347 2.016 2.185 2.185 0 01-2.378-.473 2.189 2.189 0 01-.473-2.378 2.188 2.188 0 013.559-.707 2.176 2.176 0 01.639 1.542zm-83.627 88.013a2.185 2.185 0 01-2.17 1.955 2.18 2.18 0 112.17-1.955zM181.186 930.56a2.181 2.181 0 11-4.363 0 2.181 2.181 0 014.363 0zm-63.453 62.514a2.183 2.183 0 11-4.197-.835 2.18 2.18 0 012.016-1.347 2.182 2.182 0 012.181 2.182zm99.695 13.816c0 .43-.128.85-.368 1.21s-.581.64-.979.81c-.399.16-.837.2-1.261.12a2.126 2.126 0 01-1.117-.6 2.16 2.16 0 01-.472-2.37 2.183 2.183 0 012.015-1.35 2.18 2.18 0 012.182 2.18zm123.879 11.87c0 .43-.129.86-.369 1.21a2.23 2.23 0 01-.983.81c-.4.16-.84.2-1.264.12-.424-.09-.812-.3-1.116-.61a2.173 2.173 0 01-.458-2.38c.168-.4.452-.74.814-.98.361-.23.785-.36 1.218-.35.574 0 1.123.24 1.527.65.404.4.631.96.631 1.53zm-4.598-160.872a2.178 2.178 0 01-2.592 2.166 2.175 2.175 0 01-1.727-1.708 2.187 2.187 0 01.923-2.247c.359-.24.782-.369 1.215-.369a2.164 2.164 0 012.015 1.327c.11.263.166.546.166.831zm52.803 83.274a2.179 2.179 0 01-2.593 2.166 2.183 2.183 0 01-1.606-2.972 2.18 2.18 0 012.017-1.352 2.157 2.157 0 012.182 2.158zm-10.603 55.243a2.178 2.178 0 01-1.352 2.017 2.176 2.176 0 01-2.38-.483 2.188 2.188 0 01-.592-1.123 2.19 2.19 0 01.948-2.237 2.183 2.183 0 013.376 1.826zm13.207 93.035a2.18 2.18 0 01-1.347 2.01c-.398.17-.837.21-1.26.13a2.193 2.193 0 01-1.714-1.72 2.186 2.186 0 01.927-2.24 2.212 2.212 0 012.755.27c.409.41.639.97.639 1.55zm-71.569 57.09c0 .43-.128.86-.368 1.22-.24.35-.58.63-.979.8-.399.16-.837.21-1.26.12a2.174 2.174 0 01-1.117-.59c-.306-.31-.513-.7-.597-1.12a2.178 2.178 0 01.927-2.24 2.179 2.179 0 012.755.27c.409.41.639.96.639 1.54zm-98.357 42.27c0 .43-.128.86-.368 1.22-.24.35-.58.63-.979.8-.399.16-.837.21-1.26.12a2.174 2.174 0 01-1.117-.59c-.305-.31-.513-.7-.597-1.12a2.178 2.178 0 01.927-2.24 2.179 2.179 0 012.755.27c.409.41.639.96.639 1.54zm66.924-247.145a2.179 2.179 0 01-1.347 2.016 2.182 2.182 0 111.347-2.016zm159.042-659.907a2.177 2.177 0 01-1.336 2.035c-.399.168-.84.213-1.265.129a2.171 2.171 0 01-1.123-.598 2.172 2.172 0 01-.598-1.122 2.18 2.18 0 012.164-2.602 2.158 2.158 0 012.158 2.158zm11.259 38.189a2.183 2.183 0 11-4.197-.835 2.18 2.18 0 012.016-1.347 2.182 2.182 0 012.181 2.182zm3.589 18.367a2.177 2.177 0 01-1.336 2.035c-.399.168-.84.213-1.265.129a2.175 2.175 0 01-1.721-1.721 2.18 2.18 0 012.164-2.601 2.158 2.158 0 012.158 2.158zm-183.742-32.77a2.184 2.184 0 01-3.716 1.574 2.18 2.18 0 01.32-3.363 2.186 2.186 0 012.749.262c.408.404.641.953.647 1.527zM622.656 27.985A2.16 2.16 0 01621.329 30c-.263.11-.546.166-.831.166a2.156 2.156 0 01-2.181-2.181 2.156 2.156 0 012.181-2.158 2.16 2.16 0 012.158 2.158zm65.564-5.044a2.157 2.157 0 01-2.181 2.159 2.155 2.155 0 01-2.159-2.159 2.161 2.161 0 012.159-2.181 2.156 2.156 0 012.181 2.181zM920.919 2.182a2.182 2.182 0 11-4.364-.001 2.182 2.182 0 014.364 0zm619.611 34.06c.03.304-.01.61-.1.901-.09.29-.25.558-.45.785a2.25 2.25 0 01-.74.533 2.172 2.172 0 01-2.5-.533 2.194 2.194 0 01-.46-.785c-.09-.29-.13-.597-.09-.901.05-.537.3-1.034.71-1.395a2.178 2.178 0 012.92 0c.4.361.65.858.71 1.395zm170.84 1.36a2.206 2.206 0 01-.71 1.395 2.178 2.178 0 01-2.92 0c-.4-.361-.66-.858-.71-1.395-.03-.303 0-.61.09-.901.1-.29.25-.558.46-.785.2-.227.45-.408.73-.532a2.184 2.184 0 012.51.532c.2.227.36.494.45.785.1.29.13.598.1.901zm115.83-9.406a2.18 2.18 0 01-.64 1.543 2.175 2.175 0 01-3.08 0 2.18 2.18 0 01-.64-1.543c0-.29.07-.577.19-.843.11-.265.28-.504.5-.703a2.168 2.168 0 011.58-.589 2.183 2.183 0 012.09 2.135zm-59.44 50.621a2.182 2.182 0 01-1.35 2.016 2.184 2.184 0 01-2.38-.473c-.3-.305-.51-.694-.59-1.117-.09-.423-.04-.862.12-1.26.17-.4.45-.74.8-.98.36-.24.79-.367 1.22-.367.58 0 1.13.23 1.54.639.41.409.64.964.64 1.542zm-6.59 61.881a2.179 2.179 0 01-3.63 1.395c-.4-.361-.66-.858-.71-1.395-.03-.304 0-.611.09-.901.1-.291.25-.558.46-.785.2-.227.45-.409.73-.533a2.187 2.187 0 012.51.533c.2.227.36.494.45.785.1.29.13.597.1.901zm10.46 23.903c0 .432-.13.854-.37 1.212a2.177 2.177 0 01-2.24.928 2.222 2.222 0 01-1.12-.597c-.3-.305-.51-.694-.59-1.117-.09-.423-.04-.862.12-1.26.17-.399.45-.74.81-.979a2.175 2.175 0 012.75.271c.41.409.64.964.64 1.542zm87.07 99.109a2.187 2.187 0 01-1.35 2.017 2.192 2.192 0 01-2.38-.483c-.3-.308-.51-.699-.59-1.123-.08-.425-.04-.865.13-1.263.17-.398.46-.737.82-.974.36-.237.78-.361 1.22-.356.57.006 1.12.239 1.52.647.41.409.63.96.63 1.535zm3.24 32.981a2.187 2.187 0 01-1.35 2.017c-.4.165-.84.207-1.27.12a2.162 2.162 0 01-1.11-.603 2.13 2.13 0 01-.59-1.123c-.09-.425-.04-.864.13-1.263.17-.398.45-.737.81-.974a2.216 2.216 0 012.76.285c.2.202.36.443.46.708.11.264.16.547.16.833zm-148.18-73.798c0 .433-.12.857-.36 1.219-.23.362-.57.645-.97.814-.4.168-.84.215-1.26.133a2.188 2.188 0 01-1.13-.591 2.183 2.183 0 01-.48-2.38 2.182 2.182 0 013.55-.722c.41.404.64.953.65 1.527zm-77.22-50.269a2.183 2.183 0 01-1.35 2.015 2.178 2.178 0 01-2.38-.472c-.3-.306-.51-.694-.59-1.117-.09-.424-.04-.862.12-1.261.17-.399.45-.739.8-.979a2.188 2.188 0 013.4 1.814zm36.75-16.069c0 .433-.12.856-.36 1.215-.25.359-.59.639-.99.803-.4.164-.84.206-1.26.12a2.232 2.232 0 01-1.12-.603c-.3-.308-.51-.699-.59-1.124-.08-.424-.03-.864.13-1.262.17-.398.46-.737.82-.974.36-.237.78-.361 1.22-.356.57.006 1.12.239 1.52.647.41.409.63.96.63 1.534zm188.18-43.326c0 .432-.13.854-.37 1.212a2.177 2.177 0 01-3.35.331 2.122 2.122 0 01-.6-1.117c-.08-.423-.04-.862.12-1.26.17-.399.45-.74.81-.979a2.175 2.175 0 012.75.271c.41.409.64.964.64 1.542zm32.94-10.016a2.183 2.183 0 01-3.73 1.543 2.27 2.27 0 01-.6-1.117 2.18 2.18 0 01.13-1.261 2.18 2.18 0 012.01-1.347 2.18 2.18 0 012.19 2.182zm-.78-15.599a2.181 2.181 0 01-1.35 2.015 2.168 2.168 0 01-2.37-.473 2.122 2.122 0 01-.6-1.117 2.26 2.26 0 01.12-1.26c.17-.398.45-.74.81-.979a2.175 2.175 0 012.75.271c.41.41.64.964.64 1.543zm17.76 153.412c0 .432-.12.856-.36 1.218-.23.362-.57.645-.97.814a2.197 2.197 0 01-2.39-.458c-.3-.304-.51-.693-.6-1.116a2.187 2.187 0 01.92-2.247 2.18 2.18 0 011.22-.369 2.148 2.148 0 012.01 1.327c.11.263.17.546.17.831zm21.18 132.207c.01.432-.12.856-.36 1.218-.23.362-.57.645-.97.814a2.181 2.181 0 01-2.38-.458 2.202 2.202 0 01-.61-1.117 2.27 2.27 0 01.12-1.263c.17-.4.45-.742.81-.983a2.165 2.165 0 012.74.261c.41.404.64.953.65 1.528zm-16.94 20.478c0 .432-.12.853-.36 1.212a2.183 2.183 0 01-3.36.331 2.27 2.27 0 01-.6-1.117 2.18 2.18 0 01.13-1.261c.16-.398.44-.739.8-.979a2.197 2.197 0 012.76.271c.4.41.63.964.63 1.543zm-54.06-78.067c0 .433-.12.857-.36 1.219-.24.362-.58.645-.98.814-.39.168-.83.215-1.26.133a2.197 2.197 0 01-1.12-.591 2.115 2.115 0 01-.6-1.117c-.09-.424-.05-.863.12-1.263a2.174 2.174 0 012.01-1.353 2.189 2.189 0 012.19 2.158zm14.05 99.179a2.183 2.183 0 01-2.61 2.139 2.222 2.222 0 01-1.12-.597 2.27 2.27 0 01-.6-1.117c-.08-.423-.04-.862.13-1.26a2.18 2.18 0 012.01-1.347c.58 0 1.14.23 1.55.639.41.409.64.964.64 1.543zm71.12 126.342a2.183 2.183 0 01-1.35 2.015c-.4.166-.83.209-1.26.125a2.23 2.23 0 01-1.12-.597c-.3-.306-.51-.694-.59-1.117-.09-.424-.04-.862.12-1.261.17-.399.45-.739.81-.979a2.175 2.175 0 012.75.271c.41.409.64.964.64 1.543zM1229.29 27.727c0 .286-.06.57-.17.835-.1.264-.27.505-.47.707-.2.203-.44.364-.71.473a2.175 2.175 0 01-2.37-.473 2.179 2.179 0 010-3.085 2.175 2.175 0 013.08 0c.41.41.64.964.64 1.543zm180.08 11.564c.04.304 0 .611-.09.902-.1.29-.25.558-.45.785-.21.227-.46.408-.74.532a2.184 2.184 0 01-2.51-.532c-.2-.227-.35-.495-.45-.785-.09-.29-.13-.598-.09-.902.05-.536.3-1.033.7-1.394.41-.361.93-.561 1.46-.561.54 0 1.06.2 1.47.56.4.362.65.859.7 1.395zm-132.93 36.312a2.206 2.206 0 01-.71 1.395 2.178 2.178 0 01-2.92 0c-.4-.361-.65-.858-.71-1.395-.03-.303 0-.61.1-.901a2.17 2.17 0 012.96-1.318c.28.125.53.306.73.533.21.227.36.494.45.785.1.29.13.598.1.901zm179.85 14.802a2.188 2.188 0 01-1.35 2.018c-.4.164-.84.206-1.27.12a2.16 2.16 0 01-1.11-.604 2.126 2.126 0 01-.59-1.123c-.09-.424-.04-.864.13-1.262s.45-.737.81-.974c.36-.237.79-.36 1.22-.356.29 0 .57.056.83.166.27.11.5.271.71.474a2.2 2.2 0 01.62 1.541zm-255.83 64.673a2.187 2.187 0 01-1.35 2.017c-.4.165-.84.207-1.26.12a2.153 2.153 0 01-1.12-.603c-.3-.308-.51-.699-.59-1.123-.08-.425-.04-.864.13-1.263.17-.398.45-.737.82-.974a2.171 2.171 0 012.74.291c.41.409.63.96.63 1.535zm177.2 29.72c0 .432-.13.854-.37 1.212a2.177 2.177 0 01-3.35.331 2.122 2.122 0 01-.6-1.117c-.09-.423-.04-.862.12-1.261.17-.398.45-.739.81-.979a2.175 2.175 0 012.75.272c.41.409.64.964.64 1.542zM506.541 601.005a2.186 2.186 0 01-1.346 2.016 2.186 2.186 0 01-2.378-.473 2.181 2.181 0 113.724-1.543zM1737.31 276.541a2.183 2.183 0 01-2.61 2.139 2.153 2.153 0 01-1.11-.597 2.122 2.122 0 01-.6-1.117c-.08-.423-.04-.862.12-1.26.17-.399.45-.739.81-.979a2.18 2.18 0 012.04-.202c.27.11.51.271.71.473a2.223 2.223 0 01.64 1.543zm110.44 104.573c0 .433-.12.857-.36 1.219-.23.362-.57.645-.97.814-.4.168-.84.215-1.26.133a2.188 2.188 0 01-1.13-.591c-.3-.304-.51-.693-.6-1.117a2.187 2.187 0 01.92-2.246 2.182 2.182 0 012.75.261c.41.404.64.953.65 1.527zm9.73 117.546c.01.433-.12.858-.35 1.221a2.196 2.196 0 01-2.25.943 2.209 2.209 0 01-1.12-.598 2.14 2.14 0 01-.6-1.123 2.192 2.192 0 01.94-2.243c.37-.238.79-.363 1.22-.358.58 0 1.13.227 1.53.632.41.405.63.954.63 1.526zm94.42 118.742a2.205 2.205 0 01-.71 1.394c-.4.362-.92.561-1.46.561-.54 0-1.06-.199-1.46-.561-.4-.361-.65-.858-.71-1.394-.03-.304 0-.611.1-.902a2.177 2.177 0 011.18-1.317 2.188 2.188 0 012.51.532c.21.227.36.495.45.785.1.291.13.598.1.902zM248.439 1082.07c.004.43-.12.86-.357 1.22-.236.36-.575.65-.974.81-.398.17-.837.22-1.262.14a2.196 2.196 0 01-1.123-.59c-.307-.31-.518-.7-.604-1.12a2.197 2.197 0 01.924-2.25c.359-.24.782-.37 1.214-.37.575 0 1.126.23 1.534.63.409.41.641.96.648 1.53zM4.34 1241.58c0 .58-.23 1.14-.64 1.55-.408.4-.963.63-1.542.63-.574 0-1.123-.23-1.527-.64a2.182 2.182 0 010-3.07c.404-.41.953-.64 1.527-.65.579 0 1.134.23 1.543.64.409.41.639.96.639 1.54zm160.543-125.94c.005.43-.119.86-.356 1.22s-.576.64-.974.81c-.399.17-.838.22-1.263.14a2.22 2.22 0 01-1.123-.6c-.307-.3-.517-.69-.603-1.11-.086-.43-.045-.87.12-1.27a2.187 2.187 0 012.017-1.35 2.2 2.2 0 011.535.63c.408.41.641.95.647 1.53zm-35.515 95.78a2.18 2.18 0 01-1.347 2.01c-.398.17-.837.21-1.26.13a2.27 2.27 0 01-1.117-.6 2.182 2.182 0 01-.473-2.38 2.181 2.181 0 014.197.84zm20.385-53.56c0 .43-.128.86-.368 1.22-.24.35-.58.63-.979.8-.399.16-.837.21-1.26.12a2.174 2.174 0 01-1.117-.59c-.305-.31-.513-.7-.597-1.12a2.178 2.178 0 01.927-2.24 2.179 2.179 0 012.755.27c.409.41.639.96.639 1.54zm63.828 69.58a2.18 2.18 0 01-1.347 2.01c-.398.17-.837.21-1.26.13a2.193 2.193 0 01-1.714-1.72 2.186 2.186 0 01.927-2.24c.359-.24.781-.36 1.212-.36.579 0 1.134.23 1.543.64.409.4.639.96.639 1.54z" fill="#FEF" opacity=".55"/><g opacity=".5" stroke-width=".25" stroke-miterlimit="10"><path style="mix-blend-mode:color-dodge" opacity=".5" d="M96.293 283.25s449.352 291.201 839.615 351.065" stroke="url(#paint0_linear)"/><path style="mix-blend-mode:color-dodge" opacity=".5" d="M96.293 308.349s443.91 286.416 839.615 326.06" stroke="url(#paint1_linear)"/><path style="mix-blend-mode:color-dodge" opacity=".5" d="M96.293 333.355s438.468 281.701 839.615 300.96" stroke="url(#paint2_linear)"/><path style="mix-blend-mode:color-dodge" opacity=".5" d="M96.293 358.548s433.026 276.799 839.615 275.767" stroke="url(#paint3_linear)"/><path style="mix-blend-mode:color-dodge" opacity=".5" d="M96.293 383.648S523.9 655.755 935.908 634.315" stroke="url(#paint4_linear)"/><path style="mix-blend-mode:color-dodge" opacity=".5" d="M96.293 408.747s422.235 267.228 839.615 225.568" stroke="url(#paint5_linear)"/><path style="mix-blend-mode:color-dodge" opacity=".5" d="M96.293 433.847s416.723 262.442 839.615 200.468" stroke="url(#paint6_linear)"/><path style="mix-blend-mode:color-dodge" opacity=".5" d="M96.293 458.946s411.281 257.658 839.615 175.369" stroke="url(#paint7_linear)"/><path style="mix-blend-mode:color-dodge" opacity=".5" d="M96.293 484.046s405.815 252.778 839.615 150.269" stroke="url(#paint8_linear)"/><path style="mix-blend-mode:color-dodge" opacity=".5" d="M96.293 509.286s400.42 247.923 839.615 125.029" stroke="url(#paint9_linear)"/><path style="mix-blend-mode:color-dodge" opacity=".5" d="M96.293 534.268s394.978 243.255 839.615 100.047" stroke="url(#paint10_linear)"/><path style="mix-blend-mode:color-dodge" opacity=".5" d="M96.293 559.368s389.535 238.446 839.615 74.947" stroke="url(#paint11_linear)"/><path style="mix-blend-mode:color-dodge" opacity=".5" d="M96.293 584.468s384.093 233.66 839.615 49.847" stroke="url(#paint12_linear)"/><path style="mix-blend-mode:color-dodge" opacity=".5" d="M96.293 609.567s378.651 228.875 839.615 24.748" stroke="url(#paint13_linear)"/><path style="mix-blend-mode:color-dodge" opacity=".5" d="M96.293 634.667s373.232 224.136 839.615-.352" stroke="url(#paint14_linear)"/><path style="mix-blend-mode:color-dodge" opacity=".5" d="M96.293 659.766s367.79 219.281 839.615-25.451" stroke="url(#paint15_linear)"/><path style="mix-blend-mode:color-dodge" opacity=".5" d="M96.293 684.866s362.348 214.495 839.615-50.551" stroke="url(#paint16_linear)"/></g><g style="mix-blend-mode:color-dodge" opacity=".3" stroke-width=".25" stroke-miterlimit="10"><path style="mix-blend-mode:color-dodge" opacity=".3" d="M1182.89 497.417s213.09-397.183 672.72-190.006" stroke="url(#paint17_linear)"/><path style="mix-blend-mode:color-dodge" opacity=".3" d="M1182.89 497.417s55.55-91.837 169.2-158.198c111.78-65.329 280.67-107.717 503.52-18.226" stroke="url(#paint18_linear)"/><path style="mix-blend-mode:color-dodge" opacity=".3" d="M1182.89 497.417s56.96-82.782 171.69-141.918c112.57-58.292 283.39-97.208 501.03-20.924" stroke="url(#paint19_linear)"/><path style="mix-blend-mode:color-dodge" opacity=".3" d="M1182.89 497.417s58.36-73.704 174.17-125.662c113.49-51.231 286.05-86.605 498.55-23.575" stroke="url(#paint20_linear)"/><path style="mix-blend-mode:color-dodge" opacity=".3" d="M1182.89 497.417s59.77-64.649 176.66-109.383c114.4-44.194 288.72-76.049 496.06-26.272" stroke="url(#paint21_linear)"/><path style="mix-blend-mode:color-dodge" opacity=".3" d="M1182.89 497.417s61.2-55.571 179.15-93.103c115.31-37.157 291.39-65.494 493.57-28.97" stroke="url(#paint22_linear)"/><path style="mix-blend-mode:color-dodge" opacity=".3" d="M1182.89 497.417s62.66-46.259 181.63-76.824c116.31-29.885 294.04-54.937 491.09-31.667" stroke="url(#paint23_linear)"/><path style="mix-blend-mode:color-dodge" opacity=".3" d="M1182.89 497.417s64.06-37.181 184.12-60.568c117.29-22.8 296.71-44.358 488.6-34.342" stroke="url(#paint24_linear)"/><path style="mix-blend-mode:color-dodge" opacity=".3" d="M1182.89 497.417s65.45-28.149 186.61-44.288c118.08-15.764 299.38-33.803 486.11-37.04" stroke="url(#paint25_linear)"/><path style="mix-blend-mode:color-dodge" opacity=".3" d="M1182.89 497.417s66.86-19.048 189.09-28.009c119-8.726 302.07-23.246 483.63-39.737" stroke="url(#paint26_linear)"/><path style="mix-blend-mode:color-dodge" opacity=".3" d="M1182.89 497.417s68.24-9.993 191.58-11.729c119.89-1.713 304.71-12.691 481.14-42.435" stroke="url(#paint27_linear)"/><path style="mix-blend-mode:color-dodge" opacity=".3" d="M1182.89 497.416s69.65-1.172 194.07 4.528c120.8 5.113 307.29-2.135 478.53-45.109" stroke="url(#paint28_linear)"/><path style="mix-blend-mode:color-dodge" opacity=".3" d="M1182.89 497.417s71.05 7.905 196.55 20.806c121.72 12.151 310.06 8.422 476.19-47.806" stroke="url(#paint29_linear)"/><path style="mix-blend-mode:color-dodge" opacity=".3" d="M1182.89 497.416s72.46 16.96 199.04 37.087c122.64 19.188 312.73 18.977 473.68-50.504" stroke="url(#paint30_linear)"/><path style="mix-blend-mode:color-dodge" opacity=".3" d="M1182.89 497.417s73.87 26.037 201.53 53.365c123.55 26.226 315.38 29.533 471.19-53.225" stroke="url(#paint31_linear)"/><path style="mix-blend-mode:color-dodge" opacity=".3" d="M1182.89 497.417s75.3 35.186 204.08 69.645c124.47 33.263 318.06 40.089 468.71-55.876" stroke="url(#paint32_linear)"/><path style="mix-blend-mode:color-dodge" opacity=".3" d="M1182.89 497.417s76.71 44.17 206.43 85.901c125.45 40.323 320.85 50.668 466.29-58.55" stroke="url(#paint33_linear)"/></g><g style="mix-blend-mode:color-dodge" opacity=".8" stroke-width=".5" stroke-miterlimit="10"><path style="mix-blend-mode:color-dodge" opacity=".8" d="M96.293 465.936s209.593-114.402 669.9 120.455c245.997 125.497 365.677-15.975 484.027-15.67 178.27.446 276 182.218 605.39-24.208" stroke="url(#paint34_linear)"/><path style="mix-blend-mode:color-dodge" opacity=".8" d="M96.293 486.274s222.612-144.357 678.767 85.503c255.24 127.327 364.25 12.55 487.92 11.846 179.92-.563 283.83 160.262 592.53-33.263" stroke="url(#paint35_linear)"/><path style="mix-blend-mode:color-dodge" opacity=".8" d="M96.293 506.612S331.15 333.965 783.95 557.163c263.97 130.119 362.79 40.769 491.95 39.362 181.61-1.971 291.48 138.399 579.71-42.224" stroke="url(#paint36_linear)"/><path style="mix-blend-mode:color-dodge" opacity=".8" d="M96.293 526.926s247.617-201.993 696.524 15.623c273.023 132.347 361.413 69.176 495.943 66.877 183.25-3.12 299.22 116.373 566.85-51.348" stroke="url(#paint37_linear)"/><path style="mix-blend-mode:color-dodge" opacity=".8" d="M96.293 547.264s260.378-231.503 705.391-19.212c282.096 134.505 359.956 97.583 499.926 94.393 184.92-4.222 306.97 94.44 554-60.38" stroke="url(#paint38_linear)"/><path style="mix-blend-mode:color-dodge" opacity=".8" d="M96.293 567.601s273.35-261.152 714.258-54.28C1101.78 649.937 1169.08 639.358 1314.47 635.3c186.58-5.302 314.68 72.484 541.14-69.434" stroke="url(#paint39_linear)"/><path style="mix-blend-mode:color-dodge" opacity=".8" d="M96.293 587.916s286.322-290.873 723.125-89.139c300.372 138.681 357.092 154.491 507.902 149.425 188.15-6.404 322.42 50.48 528.29-78.536" stroke="url(#paint40_linear)"/><path style="mix-blend-mode:color-dodge" opacity=".8" d="M96.293 608.253s299.341-320.758 731.992-124.16c309.635 140.745 355.665 182.968 511.885 176.94 190.01-7.343 330.17 28.594 515.44-87.52" stroke="url(#paint41_linear)"/><path style="mix-blend-mode:color-dodge" opacity=".8" d="M96.293 628.591s312.431-350.737 740.882-159.183C1155.94 611.96 1191.38 680.901 1353.03 673.864c191.53-8.28 337.88 6.662 502.58-96.551" stroke="url(#paint42_linear)"/><path style="mix-blend-mode:color-dodge" opacity=".8" d="M96.293 648.905s325.543-380.786 749.749-194.04C1174.05 599.246 1198.8 694.882 1365.88 686.836c193.2-9.383 345.63-15.294 489.73-105.559" stroke="url(#paint43_linear)"/><path style="mix-blend-mode:color-dodge" opacity=".8" d="M96.293 669.243s338.703-410.952 758.616-228.992c337.291 146.14 351.371 268.565 523.831 259.487 194.86-10.251 353.34-37.227 476.87-114.637" stroke="url(#paint44_linear)"/><path style="mix-blend-mode:color-dodge" opacity=".8" d="M96.293 689.58s351.863-441.188 767.483-263.943c346.604 147.782 349.964 297.136 527.794 287.002 196.62-11.189 361.11-59.183 464.04-123.597" stroke="url(#paint45_linear)"/><path style="mix-blend-mode:color-dodge" opacity=".8" d="M96.293 709.895s365.093-471.496 776.444-298.872c355.873 149.401 348.433 325.801 531.713 314.518 198.17-12.174 368.82-81.116 451.16-132.723" stroke="url(#paint46_linear)"/><path style="mix-blend-mode:color-dodge" opacity=".8" d="M96.293 730.233S474.616 228.242 881.51 396.409c365.35 150.902 347.17 354.677 535.79 342.034 199.86-12.62 376.54-103.073 438.31-141.778" stroke="url(#paint47_linear)"/><path style="mix-blend-mode:color-dodge" opacity=".8" d="M96.293 750.57s391.6-532.368 794.107-368.775c374.73 152.309 345.69 383.178 539.73 369.549 201.55-13.629 384.31-125.005 425.48-150.808" stroke="url(#paint48_linear)"/><path style="mix-blend-mode:color-dodge" opacity=".8" d="M96.293 770.884s405.135-563.52 802.974-403.704c384.443 152.99 344.283 411.703 543.723 397.066 203.21-14.638 392.02-147.055 412.62-159.863" stroke="url(#paint49_linear)"/><path style="mix-blend-mode:color-dodge" opacity=".8" d="M96.293 791.222S514.47 197.747 908.134 352.566c393.666 154.82 342.856 440.228 547.706 424.581 204.86-15.646 399.77-168.894 399.77-168.894" stroke="url(#paint50_linear)"/></g><g style="mix-blend-mode:color-dodge" opacity=".8" stroke-width=".25" stroke-miterlimit="10"><path style="mix-blend-mode:color-dodge" opacity=".8" d="M96.293 470.253s209.593-114.403 669.9 120.431c245.997 125.497 365.677-15.951 484.027-15.647 178.27.446 276 182.195 605.39-24.231" stroke="url(#paint51_linear)"/><path style="mix-blend-mode:color-dodge" opacity=".8" d="M96.293 490.52s222.612-144.357 678.767 85.479c255.24 127.351 364.25 12.574 487.92 11.87 179.92-.563 283.83 160.262 592.53-33.263" stroke="url(#paint52_linear)"/><path style="mix-blend-mode:color-dodge" opacity=".8" d="M96.293 510.928S331.15 338.281 783.95 561.479c263.97 130.119 362.79 40.769 491.95 39.291 181.61-1.97 291.48 138.4 579.71-42.223" stroke="url(#paint53_linear)"/><path style="mix-blend-mode:color-dodge" opacity=".8" d="M96.293 531.242S343.91 329.25 792.817 546.818c273.023 132.394 361.413 69.223 495.943 66.924 183.25-3.119 299.22 116.373 566.85-51.348" stroke="url(#paint54_linear)"/><path style="mix-blend-mode:color-dodge" opacity=".8" d="M96.293 551.51s260.378-231.503 705.391-19.329c282.166 134.575 359.956 97.653 499.926 94.393 184.92-4.223 306.97 94.44 554-60.38" stroke="url(#paint55_linear)"/><path style="mix-blend-mode:color-dodge" opacity=".8" d="M96.293 571.918s273.35-261.153 714.258-54.281c291.229 136.617 358.529 126.037 503.919 121.979 186.58-5.301 314.68 72.484 541.14-69.434" stroke="url(#paint56_linear)"/><path style="mix-blend-mode:color-dodge" opacity=".8" d="M96.293 592.232s286.322-290.873 723.125-89.139c300.372 138.611 357.092 154.421 507.902 149.284 188.15-6.263 322.42 50.621 528.29-78.395" stroke="url(#paint57_linear)"/><path style="mix-blend-mode:color-dodge" opacity=".8" d="M96.293 612.499s299.341-320.688 731.992-124.09c309.635 140.745 355.665 182.968 511.885 176.94 190.01-7.342 330.17 28.595 515.44-87.52" stroke="url(#paint58_linear)"/><path style="mix-blend-mode:color-dodge" opacity=".8" d="M96.293 632.907S408.724 282.17 837.175 473.795C1155.94 616.346 1191.41 685.217 1353.03 678.18c191.53-8.351 337.79 6.662 502.58-96.551" stroke="url(#paint59_linear)"/><path style="mix-blend-mode:color-dodge" opacity=".8" d="M96.293 653.221s325.543-380.856 749.749-194.04C1174.05 603.562 1198.8 699.292 1365.88 691.152c193.2-9.383 345.63-15.294 489.73-105.559" stroke="url(#paint60_linear)"/><path style="mix-blend-mode:color-dodge" opacity=".8" d="M96.293 673.489s338.703-410.882 758.616-228.922c337.291 146.14 351.371 268.565 523.831 259.416 194.86-10.274 353.34-37.227 476.87-114.636" stroke="url(#paint61_linear)"/><path style="mix-blend-mode:color-dodge" opacity=".8" d="M96.293 693.897s351.863-441.189 767.483-263.944c346.604 147.782 349.964 297.136 527.794 287.002 196.62-11.189 361.11-59.183 464.04-123.691" stroke="url(#paint62_linear)"/><path style="mix-blend-mode:color-dodge" opacity=".8" d="M96.293 714.211s365.093-471.496 776.444-298.755c355.873 149.284 348.433 325.59 531.713 314.331 198.17-12.104 368.82-81.116 451.16-132.723" stroke="url(#paint63_linear)"/><path style="mix-blend-mode:color-dodge" opacity=".8" d="M96.293 734.478S474.616 232.487 881.51 400.654c365.35 150.902 347.17 354.678 535.79 342.034 199.86-12.62 376.54-103.072 438.31-141.777" stroke="url(#paint64_linear)"/><path style="mix-blend-mode:color-dodge" opacity=".8" d="M96.293 754.886s391.6-532.368 794.107-368.775c374.73 152.309 345.69 383.202 539.73 369.479 201.55-13.629 384.31-125.005 425.48-150.808" stroke="url(#paint65_linear)"/><path style="mix-blend-mode:color-dodge" opacity=".8" d="M96.293 775.2s405.135-563.519 802.974-403.703C1283.71 524.487 1243.55 783.2 1442.99 768.562c203.21-14.637 392.02-146.961 412.62-159.863" stroke="url(#paint66_linear)"/><path style="mix-blend-mode:color-dodge" opacity=".8" d="M96.293 795.468S514.47 201.993 908.134 356.812C1301.8 511.632 1250.99 797.11 1455.84 781.393c204.86-15.716 399.77-168.894 399.77-168.894" stroke="url(#paint67_linear)"/></g><path style="mix-blend-mode:color-dodge" d="M96.293 397.159s228.898 326.06 552.612 332.276c319.703 6.193 747.125-558.289 1206.705-269.761" stroke="url(#paint68_linear)" stroke-miterlimit="10"/><path style="mix-blend-mode:color-dodge" d="M96.293 827.605s296.151-522.704 648.553-538.538c378.674-16.983 497.304 371.239 709.894 437.154 239.99 74.408 400.87-3.002 400.87-3.002" stroke="url(#paint69_linear)" stroke-miterlimit="10"/><path style="mix-blend-mode:color-dodge" d="M96.293 352.59s159.323-72.718 336.803-33.615c162.209 35.726 518.669 362.794 693.214 422.236 196.46 66.877 509.78 9.383 729.3-387.847" stroke="url(#paint70_linear)" stroke-miterlimit="10"/><path style="mix-blend-mode:color-dodge" d="M96.293 692.419s198.028 103.213 443.159 61.294c210.227-35.866 476.958-341.776 722.488-341.447 236.15.328 389.59 99.812 593.67 369.597" stroke="url(#paint71_linear)" stroke-miterlimit="10"/><path style="mix-blend-mode:color-dodge" d="M1855.61 411.14s-420.08-325.192-946.28-14.215C497.651 640.203 411.21 709.473 96.293 522.07" stroke="url(#paint72_linear)" stroke-miterlimit="10"/><path style="mix-blend-mode:color-dodge" d="M1855.61 418.74s-420.08-325.191-946.28-14.215C497.651 647.803 411.21 717.073 96.293 529.671" stroke="url(#paint73_linear)" stroke-width=".25" stroke-miterlimit="10"/></g><defs><linearGradient id="paint0_linear" x1="96.129" y1="458.806" x2="935.955" y2="458.806" gradientUnits="userSpaceOnUse"><stop stop-color="#87888A"/><stop offset=".5" stop-color="#E5E5E5"/><stop offset="1" stop-color="#7D7E80"/></linearGradient><linearGradient id="paint1_linear" x1="37.52" y1="60900" x2="300636" y2="60900" gradientUnits="userSpaceOnUse"><stop stop-color="#87888A"/><stop offset=".5" stop-color="#E5E5E5"/><stop offset="1" stop-color="#7D7E80"/></linearGradient><linearGradient id="paint2_linear" x1="37.52" y1="57870.9" x2="300628" y2="57870.9" gradientUnits="userSpaceOnUse"><stop stop-color="#87888A"/><stop offset=".5" stop-color="#E5E5E5"/><stop offset="1" stop-color="#7D7E80"/></linearGradient><linearGradient id="paint3_linear" x1="37.52" y1="54555.5" x2="300628" y2="54555.5" gradientUnits="userSpaceOnUse"><stop stop-color="#87888A"/><stop offset=".5" stop-color="#E5E5E5"/><stop offset="1" stop-color="#7D7E80"/></linearGradient><linearGradient id="paint4_linear" x1="37.52" y1="51296.8" x2="300628" y2="51296.8" gradientUnits="userSpaceOnUse"><stop stop-color="#87888A"/><stop offset=".5" stop-color="#E5E5E5"/><stop offset="1" stop-color="#7D7E80"/></linearGradient><linearGradient id="paint5_linear" x1="37.52" y1="48283.2" x2="300636" y2="48283.2" gradientUnits="userSpaceOnUse"><stop stop-color="#87888A"/><stop offset=".5" stop-color="#E5E5E5"/><stop offset="1" stop-color="#7D7E80"/></linearGradient><linearGradient id="paint6_linear" x1="37.52" y1="45486.9" x2="300636" y2="45486.9" gradientUnits="userSpaceOnUse"><stop stop-color="#87888A"/><stop offset=".5" stop-color="#E5E5E5"/><stop offset="1" stop-color="#7D7E80"/></linearGradient><linearGradient id="paint7_linear" x1="37.52" y1="42873.9" x2="300645" y2="42873.9" gradientUnits="userSpaceOnUse"><stop stop-color="#87888A"/><stop offset=".5" stop-color="#E5E5E5"/><stop offset="1" stop-color="#7D7E80"/></linearGradient><linearGradient id="paint8_linear" x1="37.52" y1="40410.8" x2="300645" y2="40410.8" gradientUnits="userSpaceOnUse"><stop stop-color="#87888A"/><stop offset=".5" stop-color="#E5E5E5"/><stop offset="1" stop-color="#7D7E80"/></linearGradient><linearGradient id="paint9_linear" x1="37.52" y1="38072.1" x2="300653" y2="38072.1" gradientUnits="userSpaceOnUse"><stop stop-color="#87888A"/><stop offset=".5" stop-color="#E5E5E5"/><stop offset="1" stop-color="#7D7E80"/></linearGradient><linearGradient id="paint10_linear" x1="37.52" y1="35905.2" x2="300653" y2="35905.2" gradientUnits="userSpaceOnUse"><stop stop-color="#87888A"/><stop offset=".5" stop-color="#E5E5E5"/><stop offset="1" stop-color="#7D7E80"/></linearGradient><linearGradient id="paint11_linear" x1="37.52" y1="33822.5" x2="300662" y2="33822.5" gradientUnits="userSpaceOnUse"><stop stop-color="#87888A"/><stop offset=".5" stop-color="#E5E5E5"/><stop offset="1" stop-color="#7D7E80"/></linearGradient><linearGradient id="paint12_linear" x1="45.916" y1="31842.6" x2="300662" y2="31842.6" gradientUnits="userSpaceOnUse"><stop stop-color="#87888A"/><stop offset=".5" stop-color="#E5E5E5"/><stop offset="1" stop-color="#7D7E80"/></linearGradient><linearGradient id="paint13_linear" x1="45.916" y1="29957.7" x2="300670" y2="29957.7" gradientUnits="userSpaceOnUse"><stop stop-color="#87888A"/><stop offset=".5" stop-color="#E5E5E5"/><stop offset="1" stop-color="#7D7E80"/></linearGradient><linearGradient id="paint14_linear" x1="45.916" y1="28255.7" x2="300670" y2="28255.7" gradientUnits="userSpaceOnUse"><stop stop-color="#87888A"/><stop offset=".5" stop-color="#E5E5E5"/><stop offset="1" stop-color="#7D7E80"/></linearGradient><linearGradient id="paint15_linear" x1="45.916" y1="33052.8" x2="300670" y2="33052.8" gradientUnits="userSpaceOnUse"><stop stop-color="#87888A"/><stop offset=".5" stop-color="#E5E5E5"/><stop offset="1" stop-color="#7D7E80"/></linearGradient><linearGradient id="paint16_linear" x1="45.916" y1="38205" x2="300678" y2="38205" gradientUnits="userSpaceOnUse"><stop stop-color="#87888A"/><stop offset=".5" stop-color="#E5E5E5"/><stop offset="1" stop-color="#7D7E80"/></linearGradient><linearGradient id="paint17_linear" x1="312724" y1="36139.6" x2="505753" y2="36139.6" gradientUnits="userSpaceOnUse"><stop stop-color="#87888A"/><stop offset=".5" stop-color="#E5E5E5"/><stop offset="1" stop-color="#7D7E80"/></linearGradient><linearGradient id="paint18_linear" x1="312730" y1="34035.5" x2="505753" y2="34035.5" gradientUnits="userSpaceOnUse"><stop stop-color="#87888A"/><stop offset=".5" stop-color="#E5E5E5"/><stop offset="1" stop-color="#7D7E80"/></linearGradient><linearGradient id="paint19_linear" x1="312731" y1="31726.1" x2="505746" y2="31726.1" gradientUnits="userSpaceOnUse"><stop stop-color="#87888A"/><stop offset=".5" stop-color="#E5E5E5"/><stop offset="1" stop-color="#7D7E80"/></linearGradient><linearGradient id="paint20_linear" x1="312731" y1="29210.8" x2="505746" y2="29210.8" gradientUnits="userSpaceOnUse"><stop stop-color="#87888A"/><stop offset=".5" stop-color="#E5E5E5"/><stop offset="1" stop-color="#7D7E80"/></linearGradient><linearGradient id="paint21_linear" x1="312737" y1="26503.4" x2="505739" y2="26503.4" gradientUnits="userSpaceOnUse"><stop stop-color="#87888A"/><stop offset=".5" stop-color="#E5E5E5"/><stop offset="1" stop-color="#7D7E80"/></linearGradient><linearGradient id="paint22_linear" x1="312744" y1="23619.6" x2="505732" y2="23619.6" gradientUnits="userSpaceOnUse"><stop stop-color="#87888A"/><stop offset=".5" stop-color="#E5E5E5"/><stop offset="1" stop-color="#7D7E80"/></linearGradient><linearGradient id="paint23_linear" x1="312751" y1="20594.5" x2="505726" y2="20594.5" gradientUnits="userSpaceOnUse"><stop stop-color="#87888A"/><stop offset=".5" stop-color="#E5E5E5"/><stop offset="1" stop-color="#7D7E80"/></linearGradient><linearGradient id="paint24_linear" x1="312757" y1="17563.2" x2="505726" y2="17563.2" gradientUnits="userSpaceOnUse"><stop stop-color="#87888A"/><stop offset=".5" stop-color="#E5E5E5"/><stop offset="1" stop-color="#7D7E80"/></linearGradient><linearGradient id="paint25_linear" x1="312764" y1="15022.5" x2="505719" y2="15022.5" gradientUnits="userSpaceOnUse"><stop stop-color="#87888A"/><stop offset=".5" stop-color="#E5E5E5"/><stop offset="1" stop-color="#7D7E80"/></linearGradient><linearGradient id="paint26_linear" x1="312778" y1="12793.2" x2="505726" y2="12793.2" gradientUnits="userSpaceOnUse"><stop stop-color="#87888A"/><stop offset=".5" stop-color="#E5E5E5"/><stop offset="1" stop-color="#7D7E80"/></linearGradient><linearGradient id="paint27_linear" x1="312784" y1="10485.1" x2="505732" y2="10485.1" gradientUnits="userSpaceOnUse"><stop stop-color="#87888A"/><stop offset=".5" stop-color="#E5E5E5"/><stop offset="1" stop-color="#7D7E80"/></linearGradient><linearGradient id="paint28_linear" x1="312743" y1="9277.58" x2="505651" y2="9277.58" gradientUnits="userSpaceOnUse"><stop stop-color="#87888A"/><stop offset=".5" stop-color="#E5E5E5"/><stop offset="1" stop-color="#7D7E80"/></linearGradient><linearGradient id="paint29_linear" x1="312802" y1="10996.6" x2="505763" y2="10996.6" gradientUnits="userSpaceOnUse"><stop stop-color="#87888A"/><stop offset=".5" stop-color="#E5E5E5"/><stop offset="1" stop-color="#7D7E80"/></linearGradient><linearGradient id="paint30_linear" x1="312778" y1="13026.5" x2="505753" y2="13026.5" gradientUnits="userSpaceOnUse"><stop stop-color="#87888A"/><stop offset=".5" stop-color="#E5E5E5"/><stop offset="1" stop-color="#7D7E80"/></linearGradient><linearGradient id="paint31_linear" x1="312771" y1="15299" x2="505759" y2="15299" gradientUnits="userSpaceOnUse"><stop stop-color="#87888A"/><stop offset=".5" stop-color="#E5E5E5"/><stop offset="1" stop-color="#7D7E80"/></linearGradient><linearGradient id="paint32_linear" x1="312797" y1="20416.7" x2="505819" y2="20416.7" gradientUnits="userSpaceOnUse"><stop stop-color="#87888A"/><stop offset=".5" stop-color="#E5E5E5"/><stop offset="1" stop-color="#7D7E80"/></linearGradient><linearGradient id="paint33_linear" x1="312757" y1="25771.4" x2="505773" y2="25771.4" gradientUnits="userSpaceOnUse"><stop stop-color="#87888A"/><stop offset=".5" stop-color="#E5E5E5"/><stop offset="1" stop-color="#7D7E80"/></linearGradient><linearGradient id="paint34_linear" x1="-114.825" y1="45106.4" x2="1319810" y2="45106.4" gradientUnits="userSpaceOnUse"><stop stop-color="#87888A"/><stop offset=".5" stop-color="#E5E5E5"/><stop offset="1" stop-color="#7D7E80"/></linearGradient><linearGradient id="paint35_linear" x1="-149.998" y1="44693" x2="1319740" y2="44693" gradientUnits="userSpaceOnUse"><stop stop-color="#87888A"/><stop offset=".5" stop-color="#E5E5E5"/><stop offset="1" stop-color="#7D7E80"/></linearGradient><linearGradient id="paint36_linear" x1="-167.604" y1="44676.5" x2="1319810" y2="44676.5" gradientUnits="userSpaceOnUse"><stop stop-color="#87888A"/><stop offset=".5" stop-color="#E5E5E5"/><stop offset="1" stop-color="#7D7E80"/></linearGradient><linearGradient id="paint37_linear" x1="-185.197" y1="45203" x2="1319810" y2="45203" gradientUnits="userSpaceOnUse"><stop stop-color="#87888A"/><stop offset=".5" stop-color="#E5E5E5"/><stop offset="1" stop-color="#7D7E80"/></linearGradient><linearGradient id="paint38_linear" x1="-202.79" y1="46202.9" x2="1319810" y2="46202.9" gradientUnits="userSpaceOnUse"><stop stop-color="#87888A"/><stop offset=".5" stop-color="#E5E5E5"/><stop offset="1" stop-color="#7D7E80"/></linearGradient><linearGradient id="paint39_linear" x1="-202.79" y1="47630.3" x2="1319810" y2="47630.3" gradientUnits="userSpaceOnUse"><stop stop-color="#87888A"/><stop offset=".5" stop-color="#E5E5E5"/><stop offset="1" stop-color="#7D7E80"/></linearGradient><linearGradient id="paint40_linear" x1="-220.383" y1="49550.5" x2="1319810" y2="49550.5" gradientUnits="userSpaceOnUse"><stop stop-color="#87888A"/><stop offset=".5" stop-color="#E5E5E5"/><stop offset="1" stop-color="#7D7E80"/></linearGradient><linearGradient id="paint41_linear" x1="-220.383" y1="52411.6" x2="1319810" y2="52411.6" gradientUnits="userSpaceOnUse"><stop stop-color="#87888A"/><stop offset=".5" stop-color="#E5E5E5"/><stop offset="1" stop-color="#7D7E80"/></linearGradient><linearGradient id="paint42_linear" x1="-237.977" y1="57174.7" x2="1319810" y2="57174.7" gradientUnits="userSpaceOnUse"><stop stop-color="#87888A"/><stop offset=".5" stop-color="#E5E5E5"/><stop offset="1" stop-color="#7D7E80"/></linearGradient><linearGradient id="paint43_linear" x1="-237.977" y1="62130" x2="1319810" y2="62130" gradientUnits="userSpaceOnUse"><stop stop-color="#87888A"/><stop offset=".5" stop-color="#E5E5E5"/><stop offset="1" stop-color="#7D7E80"/></linearGradient><linearGradient id="paint44_linear" x1="-237.977" y1="67220.3" x2="1319810" y2="67220.3" gradientUnits="userSpaceOnUse"><stop stop-color="#87888A"/><stop offset=".5" stop-color="#E5E5E5"/><stop offset="1" stop-color="#7D7E80"/></linearGradient><linearGradient id="paint45_linear" x1="-255.57" y1="72431.8" x2="1319810" y2="72431.8" gradientUnits="userSpaceOnUse"><stop stop-color="#87888A"/><stop offset=".5" stop-color="#E5E5E5"/><stop offset="1" stop-color="#7D7E80"/></linearGradient><linearGradient id="paint46_linear" x1="-255.57" y1="77743.7" x2="1319810" y2="77743.7" gradientUnits="userSpaceOnUse"><stop stop-color="#87888A"/><stop offset=".5" stop-color="#E5E5E5"/><stop offset="1" stop-color="#7D7E80"/></linearGradient><linearGradient id="paint47_linear" x1="-255.57" y1="83151.8" x2="1319810" y2="83151.8" gradientUnits="userSpaceOnUse"><stop stop-color="#87888A"/><stop offset=".5" stop-color="#E5E5E5"/><stop offset="1" stop-color="#7D7E80"/></linearGradient><linearGradient id="paint48_linear" x1="-255.57" y1="88605.1" x2="1319810" y2="88605.1" gradientUnits="userSpaceOnUse"><stop stop-color="#87888A"/><stop offset=".5" stop-color="#E5E5E5"/><stop offset="1" stop-color="#7D7E80"/></linearGradient><linearGradient id="paint49_linear" x1="-255.57" y1="96011.3" x2="1319810" y2="96011.3" gradientUnits="userSpaceOnUse"><stop stop-color="#87888A"/><stop offset=".5" stop-color="#E5E5E5"/><stop offset="1" stop-color="#7D7E80"/></linearGradient><linearGradient id="paint50_linear" x1="-255.57" y1="103962" x2="1319850" y2="103962" gradientUnits="userSpaceOnUse"><stop stop-color="#87888A"/><stop offset=".5" stop-color="#E5E5E5"/><stop offset="1" stop-color="#7D7E80"/></linearGradient><linearGradient id="paint51_linear" x1="-9.266" y1="45488.6" x2="1319700" y2="45488.6" gradientUnits="userSpaceOnUse"><stop stop-color="#87888A"/><stop offset=".5" stop-color="#E5E5E5"/><stop offset="1" stop-color="#7D7E80"/></linearGradient><linearGradient id="paint52_linear" x1="-26.852" y1="45074" x2="1319630" y2="45074" gradientUnits="userSpaceOnUse"><stop stop-color="#87888A"/><stop offset=".5" stop-color="#E5E5E5"/><stop offset="1" stop-color="#7D7E80"/></linearGradient><linearGradient id="paint53_linear" x1="-26.859" y1="45040.3" x2="1319700" y2="45040.3" gradientUnits="userSpaceOnUse"><stop stop-color="#87888A"/><stop offset=".5" stop-color="#E5E5E5"/><stop offset="1" stop-color="#7D7E80"/></linearGradient><linearGradient id="paint54_linear" x1="-44.452" y1="45587.4" x2="1319700" y2="45587.4" gradientUnits="userSpaceOnUse"><stop stop-color="#87888A"/><stop offset=".5" stop-color="#E5E5E5"/><stop offset="1" stop-color="#7D7E80"/></linearGradient><linearGradient id="paint55_linear" x1="-44.452" y1="46578.3" x2="1319700" y2="46578.3" gradientUnits="userSpaceOnUse"><stop stop-color="#87888A"/><stop offset=".5" stop-color="#E5E5E5"/><stop offset="1" stop-color="#7D7E80"/></linearGradient><linearGradient id="paint56_linear" x1="-62.045" y1="48034" x2="1319700" y2="48034" gradientUnits="userSpaceOnUse"><stop stop-color="#87888A"/><stop offset=".5" stop-color="#E5E5E5"/><stop offset="1" stop-color="#7D7E80"/></linearGradient><linearGradient id="paint57_linear" x1="-62.045" y1="49968.8" x2="1319700" y2="49968.8" gradientUnits="userSpaceOnUse"><stop stop-color="#87888A"/><stop offset=".5" stop-color="#E5E5E5"/><stop offset="1" stop-color="#7D7E80"/></linearGradient><linearGradient id="paint58_linear" x1="-62.045" y1="52861.9" x2="1319700" y2="52861.9" gradientUnits="userSpaceOnUse"><stop stop-color="#87888A"/><stop offset=".5" stop-color="#E5E5E5"/><stop offset="1" stop-color="#7D7E80"/></linearGradient><linearGradient id="paint59_linear" x1="-62.045" y1="57654.1" x2="1319700" y2="57654.1" gradientUnits="userSpaceOnUse"><stop stop-color="#87888A"/><stop offset=".5" stop-color="#E5E5E5"/><stop offset="1" stop-color="#7D7E80"/></linearGradient><linearGradient id="paint60_linear" x1="-79.638" y1="62665" x2="1319700" y2="62665" gradientUnits="userSpaceOnUse"><stop stop-color="#87888A"/><stop offset=".5" stop-color="#E5E5E5"/><stop offset="1" stop-color="#7D7E80"/></linearGradient><linearGradient id="paint61_linear" x1="-79.638" y1="67775.9" x2="1319700" y2="67775.9" gradientUnits="userSpaceOnUse"><stop stop-color="#87888A"/><stop offset=".5" stop-color="#E5E5E5"/><stop offset="1" stop-color="#7D7E80"/></linearGradient><linearGradient id="paint62_linear" x1="-79.638" y1="73042.3" x2="1319700" y2="73042.3" gradientUnits="userSpaceOnUse"><stop stop-color="#87888A"/><stop offset=".5" stop-color="#E5E5E5"/><stop offset="1" stop-color="#7D7E80"/></linearGradient><linearGradient id="paint63_linear" x1="-79.638" y1="78366" x2="1319700" y2="78366" gradientUnits="userSpaceOnUse"><stop stop-color="#87888A"/><stop offset=".5" stop-color="#E5E5E5"/><stop offset="1" stop-color="#7D7E80"/></linearGradient><linearGradient id="paint64_linear" x1="-79.638" y1="83849.8" x2="1319700" y2="83849.8" gradientUnits="userSpaceOnUse"><stop stop-color="#87888A"/><stop offset=".5" stop-color="#E5E5E5"/><stop offset="1" stop-color="#7D7E80"/></linearGradient><linearGradient id="paint65_linear" x1="-79.638" y1="89334" x2="1319700" y2="89334" gradientUnits="userSpaceOnUse"><stop stop-color="#87888A"/><stop offset=".5" stop-color="#E5E5E5"/><stop offset="1" stop-color="#7D7E80"/></linearGradient><linearGradient id="paint66_linear" x1="-79.638" y1="96819.6" x2="1319700" y2="96819.6" gradientUnits="userSpaceOnUse"><stop stop-color="#87888A"/><stop offset=".5" stop-color="#E5E5E5"/><stop offset="1" stop-color="#7D7E80"/></linearGradient><linearGradient id="paint67_linear" x1="-79.638" y1="104830" x2="1319720" y2="104830" gradientUnits="userSpaceOnUse"><stop stop-color="#87888A"/><stop offset=".5" stop-color="#E5E5E5"/><stop offset="1" stop-color="#7D7E80"/></linearGradient><linearGradient id="paint68_linear" x1="-625.026" y1="78112.5" x2="1320060" y2="78112.5" gradientUnits="userSpaceOnUse"><stop stop-color="#87888A"/><stop offset=".5" stop-color="#E5E5E5"/><stop offset="1" stop-color="#7D7E80"/></linearGradient><linearGradient id="paint69_linear" x1="-677.805" y1="120325" x2="1319970" y2="120325" gradientUnits="userSpaceOnUse"><stop stop-color="#87888A"/><stop offset=".5" stop-color="#E5E5E5"/><stop offset="1" stop-color="#7D7E80"/></linearGradient><linearGradient id="paint70_linear" x1="-273.163" y1="97993" x2="1320360" y2="97993" gradientUnits="userSpaceOnUse"><stop stop-color="#87888A"/><stop offset=".5" stop-color="#E5E5E5"/><stop offset="1" stop-color="#7D7E80"/></linearGradient><linearGradient id="paint71_linear" x1="-308.349" y1="88864.2" x2="1320290" y2="88864.2" gradientUnits="userSpaceOnUse"><stop stop-color="#87888A"/><stop offset=".5" stop-color="#E5E5E5"/><stop offset="1" stop-color="#7D7E80"/></linearGradient><linearGradient id="paint72_linear" x1="-361.129" y1="64417.5" x2="1320130" y2="64417.5" gradientUnits="userSpaceOnUse"><stop stop-color="#87888A"/><stop offset=".5" stop-color="#E5E5E5"/><stop offset="1" stop-color="#7D7E80"/></linearGradient><linearGradient id="paint73_linear" x1="-9.266" y1="65613.6" x2="1319720" y2="65613.6" gradientUnits="userSpaceOnUse"><stop stop-color="#87888A"/><stop offset=".5" stop-color="#E5E5E5"/><stop offset="1" stop-color="#7D7E80"/></linearGradient></defs></svg>