<svg width="61" height="61" fill="none" xmlns="http://www.w3.org/2000/svg"><path d="M59.572 29.046a1.421 1.421 0 00-1.211.673h-1.25l.925-1.082a.765.765 0 00-1.163-.994L55.1 29.72h-1.361l1.827-2.14a.765.765 0 00-1.147-.995l-2.676 3.135H49.77l2.906-3.406a.764.764 0 10-1.147-.99l-3.755 4.396h-1.911l3.984-4.668a.766.766 0 10-1.147-.994l-4.833 5.662H40.94l5.666-5.115a.765.765 0 00-.55-1.331l-7.624.382 2.21-2.21 7.34.578h.061a.765.765 0 00.061-1.53l-6.086-.45 1.353-1.354 5.685.447h.065a.765.765 0 10.058-1.53l-4.382-.343 1.392-1.396 4.03.317h.05a.765.765 0 00.06-1.529l-2.73-.214.964-.964 2.642.21h.061a.765.765 0 00.061-1.529l-1.342-.107.742-.741a1.437 1.437 0 10-1.078-1.082l-.818.818-.119-1.499a.767.767 0 00-1.53.119l.223 2.802-.96.964-.226-2.887a.766.766 0 10-1.529.119l.33 4.205-1.392 1.396-.36-4.546a.767.767 0 10-1.53.122l.463 5.842-1.353 1.354-.49-6.198a.768.768 0 00-1.529.118l.593 7.502-2.137 2.137.382-7.624a.764.764 0 00-1.33-.55l-5.115 5.666v-3.223l5.688-4.852a.765.765 0 00-.994-1.147l-4.668 3.984v-1.912l4.397-3.754a.765.765 0 10-.99-1.147l-3.407 2.906v-1.99l3.135-2.676a.765.765 0 10-.994-1.147l-2.14 1.828V5.597l2.075-1.77a.764.764 0 00-.994-1.147l-1.082.925V2.65A1.434 1.434 0 0030.483 0a1.434 1.434 0 00-.765 2.65v.955l-1.082-.925a.765.765 0 00-.994 1.147l2.076 1.77V6.96l-2.14-1.828a.765.765 0 10-.99 1.147l3.13 2.676v1.973l-3.402-2.905a.765.765 0 00-.994 1.147l4.396 3.754v1.912l-4.683-3.969a.765.765 0 10-.994 1.147l5.662 4.833v3.223l-5.115-5.666a.764.764 0 00-1.33.55l.382 7.624-2.233-2.233.6-7.612a.768.768 0 00-1.53-.122l-.496 6.312-1.354-1.35.501-5.941a.768.768 0 00-1.529-.119l-.382 4.657-1.357-1.41.34-4.302a.766.766 0 10-1.53-.122l-.236 3.001-.964-.963.23-2.914a.767.767 0 10-1.53-.118l-.13 1.61-.718-.723a1.438 1.438 0 10-1.082 1.082l.543.542-1.228.1a.765.765 0 10.062 1.53h.06l2.528-.2.963.964-2.615.207a.765.765 0 10.061 1.529h.061l3.915-.31 1.396 1.396-4.27.336a.765.765 0 00.057 1.53h.06l5.556-.456 1.35 1.354-5.926.466a.765.765 0 10.06 1.53h.062l7.225-.57 2.409 2.409-7.623-.383a.765.765 0 00-.55 1.331l5.669 5.104H17.09v-.027l-5.055-5.93a.766.766 0 10-1.146.994l4.24 4.97h-1.912V29.7l-4.045-4.687a.764.764 0 00-1.147.99l3.158 3.701H9.207a.069.069 0 00-.019-.027l-2.901-3.403a.765.765 0 10-1.147.994l2.076 2.436H5.85l-.02-.027-1.999-2.343a.764.764 0 10-1.147.994l1.174 1.376H2.655a1.438 1.438 0 100 1.53h.703l-.673.787a.765.765 0 001.147.994l1.53-1.782h1.322L5.11 33.08a.766.766 0 101.147.99l2.424-2.837h1.973l-2.657 3.109a.764.764 0 001.162.994l3.506-4.103h1.911l-3.735 4.374a.765.765 0 001.147.994l4.588-5.352h3.49l-5.658 5.115a.765.765 0 00.55 1.33l7.623-.382-1.964 1.966h-.108l-7.772-.612a.765.765 0 00-.642 1.264.767.767 0 00.524.265l6.583.494-1.361 1.36-.103-.018-6.117-.482a.767.767 0 10-.122 1.53l4.927.382-1.403 1.403-.103-.02-4.461-.332a.767.767 0 10-.119 1.53l3.273.255-.975.976-.104-.02-3.058-.24a.767.767 0 10-.118 1.529l1.884.145-.994.994a1.438 1.438 0 101.082 1.082l.566-.566.073.956a.764.764 0 00.764.704h.062a.764.764 0 00.703-.822l-.18-2.256.964-.964.183 2.344a.765.765 0 00.765.704h.06a.764.764 0 00.7-.822l-.286-3.644 1.395-1.392.314 3.996a.765.765 0 00.764.703h.062a.764.764 0 00.7-.822l-.418-5.3 1.354-1.353.443 5.655a.765.765 0 00.765.704h.061a.764.764 0 00.703-.822l-.546-6.959 2.385-2.386-.382 7.624a.765.765 0 001.33.55l5.116-5.666v2.677h-.027l-5.926 5.066a.764.764 0 00.99 1.162l4.97-4.236v1.912l-.026.019-4.695 3.968a.768.768 0 00.148 1.266.767.767 0 00.846-.1l3.697-3.158v1.977H29.7l-3.4 2.906a.765.765 0 00.497 1.346.733.733 0 00.494-.184l2.435-2.076v4.871a1.438 1.438 0 101.529 0V53.99l1.847 1.575a.764.764 0 10.994-1.147l-2.841-2.424v-1.972l3.112 2.657a.766.766 0 001.176-.933.764.764 0 00-.186-.233l-4.102-3.503V46.1l4.374 3.735a.765.765 0 00.994-1.147L31.27 44.1v-3.177l5.116 5.666a.763.763 0 001.33-.55l-.382-7.624 1.938 1.934-.63 7.605a.766.766 0 00.703.822h.06a.765.765 0 00.765-.707l.497-6.313 1.354 1.354-.47 5.957a.765.765 0 00.688.799h.057a.764.764 0 00.765-.704l.363-4.657 1.395 1.396-.336 4.301a.765.765 0 00.7.822h.06a.764.764 0 00.765-.703l.233-2.998.964.964-.23 2.913a.764.764 0 00.704.822h.061a.764.764 0 00.765-.703l.126-1.614 1.017 1.017a1.434 1.434 0 101.078-1.082l-.841-.822 1.227-.095a.767.767 0 00-.119-1.53l-2.53.199-.949-.967 2.612-.207a.767.767 0 10-.119-1.53l-3.915.307-1.395-1.396 4.27-.336a.768.768 0 00-.122-1.53l-5.57.44-1.354-1.353 5.926-.467a.767.767 0 10-.118-1.53l-7.23.57-2.114-2.114 7.623.383a.765.765 0 00.55-1.331l-5.665-5.116h2.928l4.833 5.659a.764.764 0 00.993.15.765.765 0 00.169-1.14l-3.984-4.634h1.912l3.754 4.396a.765.765 0 001.147-.994L49.74 31.25h1.972l2.676 3.131a.765.765 0 00.992.146.765.765 0 00.17-1.136l-1.827-2.141h1.361l1.774 2.072a.765.765 0 001.342-.433.764.764 0 00-.18-.557l-.925-1.082h1.25a1.437 1.437 0 101.212-2.203h.015zM17.03 24.91l7.165.383 4.442 4.443H22.36l-5.33-4.826zm7.165 10.782l-7.165.383 5.33-4.825h6.281l-4.446 4.442zm5.524 2.921l-4.81 5.326.383-7.165 4.442-4.442-.015 6.281zm0-9.975l-4.442-4.442-.383-7.17 4.825 5.311v6.301zm1.53-6.285l4.809-5.326-.383 7.169-4.442 4.442.015-6.285zm0 16.26v-6.281l4.442 4.442.382 7.165-4.825-5.326zM43.94 36.06l-7.168-.383-4.443-4.443h6.285l5.326 4.826zm-5.326-6.34H32.33l4.443-4.443 7.168-.382-5.326 4.825z" fill="url(#paint0_linear)"/><defs><linearGradient id="paint0_linear" x1="25269.3" y1="17213.6" x2="25269.3" y2="26273.9" gradientUnits="userSpaceOnUse"><stop stop-color="#F6F9FA"/><stop offset="1" stop-color="#E2E6E7"/></linearGradient></defs></svg>