<svg width="52" height="52" fill="none" xmlns="http://www.w3.org/2000/svg"><path d="M26.5 44A18.5 18.5 0 1145 25.5 18.52 18.52 0 0126.5 44zm0-36.119A17.619 17.619 0 1044.119 25.5 17.639 17.639 0 0026.5 7.881z" fill="url(#paint0_linear)"/><path d="M37.7 20.073l2.3-.44s-1.932 2.064-2.3 2.196a8.44 8.44 0 000 1.317C33.284 41.23 17 33.242 17 33.242c5.934.132 6.44-2.195 6.44-2.195-3.45-.483-4.14-2.634-4.14-2.634.31.156.668.198 1.008.117.34-.081.636-.28.832-.556-3.726-.922-3.22-4.39-3.22-4.39a4.92 4.92 0 002.254.835c-.414-.483-3.91-4.478-1.794-6.541 0 0 2.576 4.39 9.338 4.785l.46-.088a3.294 3.294 0 01-.092-.966c0-1.222.509-2.395 1.415-3.259A4.95 4.95 0 0132.916 17c3.22 0 3.91 1.756 3.91 1.756l2.3-1.317c-.046 0-.276 2.195-1.426 2.634z" fill="url(#paint1_linear)"/><defs><linearGradient id="paint0_linear" x1="7.563" y1="13.665" x2="49.514" y2="18.751" gradientUnits="userSpaceOnUse"><stop stop-color="#00A3FF"/><stop offset="1" stop-color="#8F00FF"/></linearGradient><linearGradient id="paint1_linear" x1="16.729" y1="20.243" x2="42.569" y2="24.245" gradientUnits="userSpaceOnUse"><stop stop-color="#00A3FF"/><stop offset="1" stop-color="#8F00FF"/></linearGradient></defs></svg>