<svg width="154" height="154" viewBox="0 0 154 154" fill="none" xmlns="http://www.w3.org/2000/svg">
<circle cx="75.3847" cy="73.3844" r="39.6154" fill="url(#paint0_linear)"/>
<g filter="url(#filter0_d)">
<circle cx="75" cy="73" r="58.5" stroke="white" stroke-width="3"/>
</g>
<path d="M74.196 68.7002C74.2173 68.7789 74.2221 68.8612 74.2102 68.9419C74.1983 69.0225 74.1699 69.0999 74.1268 69.1691C74.0837 69.2383 74.0268 69.2979 73.9596 69.3442C73.8925 69.3905 73.8165 69.4224 73.7364 69.438C73.6564 69.4536 73.574 69.4525 73.4944 69.4349C73.4147 69.4172 73.3396 69.3834 73.2737 69.3354C73.2077 69.2875 73.1523 69.2264 73.111 69.1561C73.0697 69.0858 73.0432 69.0078 73.0334 68.9268C72.97 68.605 73.3416 67.4333 73.3416 67.4333C73.3416 67.4333 74.1393 68.3716 74.196 68.7002Z" fill="#394855"/>
<path d="M70.7422 70.0613C70.8346 70.181 70.8778 70.3315 70.863 70.4821C70.8482 70.6326 70.7766 70.7718 70.6626 70.8713C70.5487 70.9708 70.4011 71.023 70.2499 71.0174C70.0988 71.0117 69.9555 70.9486 69.8493 70.8409C69.634 70.5961 69.3711 69.395 69.3711 69.395C69.3711 69.395 70.5269 69.8143 70.7422 70.0613Z" fill="#394855"/>
<path d="M68.4238 72.9678C68.5741 73.0186 68.698 73.127 68.7684 73.2691C68.8387 73.4113 68.8497 73.5756 68.7989 73.7258C68.7481 73.8761 68.6397 74 68.4975 74.0704C68.3554 74.1407 68.1911 74.1517 68.0408 74.1009C67.7326 73.9944 66.9077 73.0856 66.9077 73.0856C66.9077 73.0856 68.1156 72.8635 68.4238 72.9678Z" fill="#394855"/>
<path d="M67.8733 76.6447C67.9496 76.6298 68.0281 76.6302 68.1043 76.6456C68.1806 76.6611 68.253 76.6914 68.3175 76.7349C68.382 76.7783 68.4373 76.8341 68.4803 76.8989C68.5232 76.9637 68.553 77.0364 68.5679 77.1127C68.5827 77.189 68.5824 77.2676 68.567 77.3438C68.5515 77.42 68.5212 77.4924 68.4777 77.5569C68.4343 77.6214 68.3785 77.6767 68.3137 77.7197C68.2489 77.7627 68.1762 77.7924 68.0999 77.8073C67.7804 77.873 66.6064 77.4991 66.6064 77.4991C66.6064 77.4991 67.5515 76.7082 67.8733 76.6447Z" fill="#394855"/>
<path d="M69.2329 80.1043C69.2906 80.0474 69.3593 80.0029 69.4348 79.9736C69.5103 79.9443 69.591 79.9307 69.672 79.9338C69.7529 79.9368 69.8324 79.9563 69.9055 79.9912C69.9786 80.0261 70.0438 80.0756 70.097 80.1366C70.1503 80.1976 70.1905 80.2689 70.2152 80.346C70.2399 80.4232 70.2486 80.5045 70.2407 80.5851C70.2327 80.6657 70.2084 80.7439 70.1692 80.8147C70.1299 80.8856 70.0766 80.9477 70.0125 80.9972C69.7678 81.2125 68.5667 81.4776 68.5667 81.4776C68.5667 81.4776 68.9836 80.3218 69.2329 80.1043Z" fill="#394855"/>
<path d="M72.1404 82.417C72.1912 82.2668 72.2996 82.1429 72.4417 82.0725C72.5839 82.0022 72.7482 81.9912 72.8984 82.042C73.0487 82.0928 73.1726 82.2012 73.243 82.3433C73.3133 82.4855 73.3243 82.6498 73.2735 82.8C73.167 83.1082 72.2582 83.9332 72.2582 83.9332C72.2582 83.9332 72.0361 82.7321 72.1404 82.417Z" fill="#394855"/>
<path d="M75.8186 82.9748C75.8005 82.8971 75.7982 82.8165 75.8119 82.7378C75.8256 82.6592 75.8551 82.5841 75.8985 82.5171C75.9419 82.4501 75.9983 82.3925 76.0645 82.3479C76.1306 82.3032 76.2051 82.2723 76.2835 82.257C76.3618 82.2418 76.4425 82.2425 76.5205 82.2591C76.5986 82.2757 76.6725 82.308 76.7379 82.3538C76.8032 82.3997 76.8587 82.4582 76.9009 82.526C76.9431 82.5938 76.9712 82.6693 76.9835 82.7482C77.0469 83.07 76.673 84.2417 76.673 84.2417C76.673 84.2417 75.8821 83.2966 75.8186 82.9748Z" fill="#394855"/>
<path d="M79.2792 81.6129C79.2223 81.5552 79.1779 81.4865 79.1485 81.411C79.1192 81.3355 79.1057 81.2548 79.1087 81.1738C79.1117 81.0929 79.1313 81.0134 79.1662 80.9403C79.201 80.8672 79.2505 80.8021 79.3115 80.7488C79.3725 80.6955 79.4438 80.6553 79.5209 80.6306C79.5981 80.6059 79.6795 80.5972 79.7601 80.6051C79.8407 80.6131 79.9188 80.6374 79.9897 80.6766C80.0605 80.7159 80.1226 80.7692 80.1721 80.8333C80.3987 81.0803 80.6525 82.2792 80.6525 82.2792C80.6525 82.2792 79.4967 81.8599 79.2792 81.6129Z" fill="#394855"/>
<path d="M81.5975 78.7063C81.5231 78.6812 81.4543 78.6416 81.3952 78.5899C81.3361 78.5382 81.2878 78.4754 81.2529 78.405C81.2181 78.3346 81.1975 78.258 81.1923 78.1797C81.187 78.1013 81.1973 78.0227 81.2224 77.9483C81.2476 77.8739 81.2871 77.8052 81.3388 77.7461C81.3905 77.6869 81.4534 77.6386 81.5238 77.6038C81.5941 77.5689 81.6707 77.5483 81.7491 77.5431C81.8274 77.5378 81.9061 77.5481 81.9805 77.5732C82.2909 77.6797 83.1136 78.5885 83.1136 78.5885C83.1136 78.5885 81.9011 78.8106 81.5975 78.7063Z" fill="#394855"/>
<path d="M82.1505 75.0297C82.0014 75.0478 81.8511 75.0088 81.7297 74.9205C81.6083 74.8322 81.5248 74.7013 81.4961 74.5539C81.4674 74.4066 81.4955 74.2538 81.5749 74.1264C81.6542 73.999 81.7789 73.9063 81.9238 73.8672C82.2456 73.8037 83.4173 74.1754 83.4173 74.1754C83.4173 74.1754 82.4723 74.9663 82.1505 75.0297Z" fill="#394855"/>
<path d="M80.7907 71.5706C80.6715 71.6681 80.5191 71.7154 80.3656 71.7026C80.2122 71.6898 80.0697 71.6179 79.9682 71.5021C79.8668 71.3862 79.8143 71.2355 79.8219 71.0817C79.8295 70.9279 79.8965 70.783 80.0089 70.6777C80.2559 70.4624 81.4547 70.1973 81.4547 70.1973C81.4547 70.1973 81.0355 71.3553 80.7907 71.5706Z" fill="#394855"/>
<path d="M77.8809 69.2531C77.8304 69.4019 77.7229 69.5245 77.582 69.594C77.4411 69.6634 77.2784 69.6741 77.1296 69.6236C76.9809 69.5731 76.8582 69.4656 76.7888 69.3247C76.7193 69.1839 76.7086 69.0211 76.7591 68.8724C76.8633 68.5596 77.7721 67.7393 77.7721 67.7393C77.7721 67.7393 77.9874 68.9449 77.8809 69.2531Z" fill="#394855"/>
<path d="M75.9091 68.736C75.9031 68.8195 75.8726 68.8993 75.8214 68.9654C75.7701 69.0315 75.7005 69.0809 75.6212 69.1075C75.5419 69.1341 75.4565 69.1367 75.3758 69.1149C75.295 69.093 75.2226 69.0478 75.1675 68.9848C75.1124 68.9219 75.0772 68.8441 75.0663 68.7611C75.0553 68.6782 75.0692 68.5939 75.1061 68.5188C75.143 68.4438 75.2012 68.3813 75.2736 68.3393C75.3459 68.2973 75.429 68.2776 75.5125 68.2828C75.5684 68.2862 75.6231 68.3007 75.6733 68.3254C75.7236 68.3501 75.7685 68.3846 75.8053 68.4267C75.8422 68.4689 75.8704 68.5179 75.8882 68.571C75.906 68.6241 75.9131 68.6802 75.9091 68.736Z" fill="#394855"/>
<path d="M72.2357 69.2389C72.2729 69.3141 72.2869 69.3986 72.276 69.4818C72.2651 69.565 72.2298 69.643 72.1745 69.7061C72.1192 69.7692 72.0464 69.8144 71.9654 69.8361C71.8844 69.8578 71.7988 69.855 71.7194 69.828C71.64 69.801 71.5704 69.751 71.5194 69.6844C71.4684 69.6179 71.4383 69.5376 71.4329 69.4539C71.4275 69.3702 71.4471 69.2868 71.4891 69.2143C71.5312 69.1417 71.5938 69.0832 71.6691 69.0463C71.7189 69.0215 71.7732 69.0069 71.8287 69.0031C71.8842 68.9994 71.9398 69.0067 71.9925 69.0246C72.0452 69.0425 72.0938 69.0707 72.1355 69.1075C72.1773 69.1442 72.2113 69.1889 72.2357 69.2389Z" fill="#394855"/>
<path d="M69.3078 71.5087C69.3776 71.5553 69.4319 71.6216 69.464 71.6991C69.496 71.7766 69.5044 71.8619 69.4879 71.9441C69.4715 72.0264 69.431 72.1019 69.3716 72.1611C69.3122 72.2204 69.2365 72.2606 69.1542 72.2768C69.0719 72.293 68.9867 72.2845 68.9092 72.2522C68.8318 72.2199 68.7657 72.1654 68.7193 72.0955C68.6729 72.0256 68.6483 71.9435 68.6486 71.8596C68.6488 71.7758 68.674 71.6938 68.7209 71.6243C68.7835 71.5313 68.8805 71.4669 68.9905 71.4452C69.1005 71.4236 69.2146 71.4464 69.3078 71.5087Z" fill="#394855"/>
<path d="M67.9072 74.941C67.99 74.9474 68.0691 74.9782 68.1345 75.0294C68.1999 75.0806 68.2488 75.1501 68.2748 75.229C68.3009 75.3078 68.3031 75.3927 68.2811 75.4728C68.2592 75.5529 68.214 75.6248 68.1513 75.6793C68.0886 75.7338 68.0112 75.7686 67.9288 75.7793C67.8464 75.79 67.7627 75.7761 67.6882 75.7393C67.6137 75.7026 67.5517 75.6446 67.51 75.5728C67.4683 75.5009 67.4488 75.4183 67.4539 75.3354C67.4577 75.2797 67.4724 75.2252 67.4972 75.1752C67.522 75.1252 67.5565 75.0806 67.5986 75.044C67.6407 75.0074 67.6897 74.9794 67.7426 74.9617C67.7956 74.9441 67.8515 74.937 67.9072 74.941Z" fill="#394855"/>
<path d="M68.4102 78.6111C68.4852 78.575 68.5691 78.5619 68.6515 78.5734C68.7339 78.5849 68.811 78.6205 68.8732 78.6758C68.9354 78.731 68.9798 78.8035 69.0009 78.8839C69.022 78.9644 69.0189 79.0493 68.9918 79.128C68.9647 79.2066 68.915 79.2755 68.8489 79.326C68.7827 79.3764 68.7031 79.4062 68.6201 79.4115C68.5371 79.4168 68.4544 79.3975 68.3824 79.3558C68.3103 79.3142 68.2522 79.2522 68.2153 79.1777C68.1667 79.0766 68.1599 78.9604 68.1964 78.8543C68.2329 78.7483 68.3097 78.6609 68.4102 78.6111Z" fill="#394855"/>
<path d="M70.681 81.5383C70.7279 81.4689 70.7942 81.4149 70.8717 81.3832C70.9492 81.3514 71.0344 81.3434 71.1165 81.36C71.1986 81.3766 71.2739 81.4172 71.3329 81.4766C71.3919 81.536 71.432 81.6116 71.4482 81.6938C71.4643 81.776 71.4557 81.8611 71.4235 81.9384C71.3913 82.0157 71.3369 82.0817 71.2671 82.1281C71.1974 82.1745 71.1155 82.1992 71.0318 82.1991C70.948 82.199 70.8662 82.1741 70.7966 82.1275C70.7502 82.0965 70.7105 82.0566 70.6795 82.0102C70.6486 81.9637 70.6272 81.9117 70.6164 81.8569C70.6057 81.8022 70.6059 81.7459 70.617 81.6912C70.628 81.6365 70.6498 81.5846 70.681 81.5383Z" fill="#394855"/>
<path d="M74.112 82.9383C74.118 82.8548 74.1486 82.7749 74.2 82.7088C74.2514 82.6427 74.3211 82.5932 74.4006 82.5667C74.48 82.5402 74.5655 82.5378 74.6463 82.5599C74.727 82.5819 74.7995 82.6274 74.8544 82.6906C74.9094 82.7537 74.9444 82.8318 74.9551 82.9148C74.9657 82.9979 74.9515 83.0822 74.9143 83.1572C74.877 83.2322 74.8184 83.2945 74.7458 83.3362C74.6732 83.3779 74.5899 83.3971 74.5063 83.3915C74.3941 83.3834 74.2896 83.3312 74.2157 83.2463C74.1418 83.1613 74.1045 83.0506 74.112 82.9383Z" fill="#394855"/>
<path d="M77.7857 82.4375C77.7485 82.3624 77.7345 82.2778 77.7454 82.1947C77.7563 82.1115 77.7916 82.0335 77.8469 81.9704C77.9022 81.9073 77.975 81.8621 78.056 81.8404C78.137 81.8187 78.2226 81.8215 78.302 81.8485C78.3814 81.8755 78.451 81.9254 78.502 81.992C78.553 82.0586 78.5831 82.1388 78.5885 82.2225C78.5939 82.3062 78.5743 82.3896 78.5323 82.4622C78.4902 82.5348 78.4276 82.5932 78.3523 82.6302C78.2515 82.679 78.1355 82.6861 78.0295 82.6501C77.9235 82.614 77.8359 82.5377 77.7857 82.4375Z" fill="#394855"/>
<path d="M80.7137 80.1655C80.644 80.1189 80.5896 80.0527 80.5576 79.9752C80.5255 79.8976 80.5172 79.8124 80.5336 79.7301C80.5501 79.6478 80.5906 79.5723 80.65 79.5131C80.7094 79.4539 80.785 79.4136 80.8673 79.3974C80.9496 79.3812 81.0349 79.3898 81.1123 79.4221C81.1897 79.4543 81.2558 79.5089 81.3022 79.5788C81.3486 79.6486 81.3732 79.7307 81.373 79.8146C81.3727 79.8985 81.3475 79.9804 81.3007 80.05C81.238 80.1429 81.1411 80.2073 81.031 80.229C80.921 80.2507 80.8069 80.2278 80.7137 80.1655Z" fill="#394855"/>
<path d="M82.1142 76.7356C82.0307 76.7296 81.9508 76.699 81.8847 76.6477C81.8186 76.5963 81.7691 76.5265 81.7426 76.4471C81.7161 76.3677 81.7137 76.2822 81.7358 76.2014C81.7578 76.1206 81.8033 76.0482 81.8665 75.9932C81.9296 75.9383 82.0077 75.9033 82.0907 75.8926C82.1738 75.882 82.2581 75.8961 82.3331 75.9334C82.4081 75.9706 82.4704 76.0292 82.5121 76.1018C82.5538 76.1744 82.573 76.2578 82.5674 76.3413C82.5637 76.397 82.549 76.4514 82.5242 76.5014C82.4993 76.5514 82.4649 76.596 82.4228 76.6327C82.3807 76.6693 82.3317 76.6973 82.2788 76.7149C82.2258 76.7326 82.1699 76.7396 82.1142 76.7356Z" fill="#394855"/>
<path d="M81.6134 73.0632C81.5383 73.1004 81.4537 73.1144 81.3706 73.1035C81.2874 73.0926 81.2094 73.0573 81.1463 73.002C81.0832 72.9467 81.038 72.874 81.0163 72.7929C80.9946 72.7119 80.9974 72.6263 81.0244 72.5469C81.0514 72.4675 81.1013 72.3979 81.1679 72.3469C81.2345 72.2959 81.3147 72.2658 81.3984 72.2604C81.4821 72.255 81.5655 72.2746 81.6381 72.3166C81.7107 72.3587 81.7691 72.4213 81.8061 72.4966C81.8555 72.5973 81.863 72.7135 81.8268 72.8197C81.7907 72.9259 81.714 73.0135 81.6134 73.0632Z" fill="#394855"/>
<path d="M79.3403 70.1363C79.2937 70.2061 79.2275 70.2604 79.15 70.2924C79.0724 70.3245 78.9871 70.3328 78.9049 70.3164C78.8226 70.2999 78.7471 70.2595 78.6879 70.2001C78.6287 70.1407 78.5884 70.065 78.5722 69.9827C78.556 69.9004 78.5646 69.8151 78.5969 69.7377C78.6291 69.6603 78.6837 69.5942 78.7536 69.5478C78.8234 69.5014 78.9055 69.4768 78.9894 69.4771C79.0733 69.4773 79.1552 69.5025 79.2248 69.5494C79.271 69.5802 79.3108 69.6198 79.3417 69.6661C79.3725 69.7123 79.394 69.7642 79.4047 69.8188C79.4155 69.8733 79.4153 69.9295 79.4043 69.984C79.3932 70.0385 79.3715 70.0902 79.3403 70.1363Z" fill="#394855"/>
<path d="M81.1464 76.2457C81.0657 77.4592 80.6269 78.6215 79.8853 79.5856C79.1438 80.5497 78.1329 81.2723 76.9805 81.662C75.8281 82.0517 74.586 82.0911 73.4112 81.7751C72.2364 81.459 71.1818 80.8019 70.3807 79.8866C69.5796 78.9714 69.068 77.8392 68.9106 76.6333C68.7532 75.4274 68.9571 74.2019 69.4965 73.1118C70.0359 72.0218 70.8865 71.1161 71.9408 70.5093C72.9952 69.9026 74.2058 69.622 75.4197 69.7031C77.0467 69.8125 78.5637 70.563 79.6375 71.7897C80.7113 73.0165 81.254 74.6192 81.1464 76.2457ZM77.9352 75.1674C77.9352 75.6454 77.6406 76.2843 77.1873 76.5267C77.5227 76.137 77.8423 74.6214 76.8043 73.3279C76.8001 74.0139 76.619 74.6872 76.2786 75.2829C76.5052 74.08 75.4061 72.8725 75.78 72.0094C74.1936 72.7728 74.6809 74.3473 74.2594 75.113C74.0781 74.4198 73.6135 73.6269 73.3529 73.5272C73.516 74.7007 72.5642 75.07 72.9608 76.4723C72.6578 75.9602 72.501 75.3749 72.5076 74.78C71.098 76.6331 72.2288 79.0413 73.5886 79.5827C73.4811 79.3162 73.443 79.0267 73.4779 78.7415C73.5128 78.4562 73.6195 78.1845 73.788 77.9516C73.7848 78.2473 73.8632 78.5381 74.0146 78.7921C73.8175 78.1011 74.2888 77.9154 74.2095 77.3332C74.3364 77.3807 74.5698 77.7727 74.6628 78.1193C74.8735 77.7387 74.6333 76.9548 75.4197 76.5765C75.2338 77.0047 75.7777 77.605 75.6667 78.2031C75.8356 77.9069 75.9254 77.5722 75.9273 77.2312C76.444 77.8746 76.2854 78.6267 76.1177 78.817C76.2311 78.7434 76.3245 78.6428 76.3894 78.5241C76.4542 78.4055 76.4886 78.2726 76.4893 78.1374C76.589 78.3625 76.643 78.6051 76.6485 78.8512C76.6539 79.0973 76.6106 79.3421 76.5211 79.5714C77.8785 79.2701 78.7669 76.9231 77.9352 75.1674Z" fill="#394855"/>
<path d="M87.202 87.0001H62.8196V68.4937L75.0119 62.531L87.202 68.4937V87.0001ZM85.7108 85.5094V69.4247L75.0119 64.1916L64.3108 69.4247V85.5094H85.7108Z" fill="#394855"/>
<path d="M75.0118 61.7019L61.6909 68.2151C61.5294 68.2935 61.3435 68.3048 61.1737 68.2467C61.0038 68.1885 60.8639 68.0656 60.7844 67.9047L60.0683 66.4435C59.9899 66.2821 59.9785 66.0962 60.0367 65.9264C60.0948 65.7567 60.2178 65.6168 60.3788 65.5373L75.0095 58.3831L89.6381 65.5373C89.799 65.6168 89.922 65.7567 89.9801 65.9264C90.0383 66.0962 90.0269 66.2821 89.9485 66.4435L89.2324 67.9047C89.1529 68.0656 89.013 68.1885 88.8431 68.2467C88.6733 68.3048 88.4874 68.2935 88.3259 68.2151L75.0118 61.7019Z" fill="#394855"/>
<path d="M82.6264 61.6747L79.6917 60.2883V58.7727H82.6264V61.6747Z" fill="#394855"/>
<path d="M83.1386 58H79.1818V58.7864H83.1386V58Z" fill="#394855"/>
<defs>
<filter id="filter0_d" x="0" y="0" width="154" height="154" filterUnits="userSpaceOnUse" color-interpolation-filters="sRGB">
<feFlood flood-opacity="0" result="BackgroundImageFix"/>
<feColorMatrix in="SourceAlpha" type="matrix" values="0 0 0 0 0 0 0 0 0 0 0 0 0 0 0 0 0 0 127 0"/>
<feMorphology radius="2" operator="dilate" in="SourceAlpha" result="effect1_dropShadow"/>
<feOffset dx="2" dy="4"/>
<feGaussianBlur stdDeviation="7.5"/>
<feColorMatrix type="matrix" values="0 0 0 0 0.7475 0 0 0 0 0.832619 0 0 0 0 0.866667 0 0 0 1 0"/>
<feBlend mode="normal" in2="BackgroundImageFix" result="effect1_dropShadow"/>
<feBlend mode="normal" in="SourceGraphic" in2="effect1_dropShadow" result="shape"/>
</filter>
<linearGradient id="paint0_linear" x1="75.3847" y1="33.769" x2="75.3847" y2="113" gradientUnits="userSpaceOnUse">
<stop stop-color="#40F4FF" stop-opacity="0.71"/>
<stop offset="0.659546" stop-color="#2D8AFF" stop-opacity="0.432991"/>
<stop offset="1" stop-color="#2353FF" stop-opacity="0.29"/>
</linearGradient>
</defs>
</svg>
