<svg width="154" height="154" viewBox="0 0 154 154" fill="none" xmlns="http://www.w3.org/2000/svg">
<circle cx="75.3847" cy="73.3844" r="39.6154" fill="url(#paint0_linear)"/>
<g filter="url(#filter0_d)">
<circle cx="75" cy="73" r="58.5" stroke="white" stroke-width="3"/>
</g>
<path d="M82.8779 86.6428H64.1271L65.3867 81.755L66.0771 79.0815H80.9279L81.6146 81.7513L82.8779 86.6428Z" fill="#394855"/>
<path opacity="0.1" d="M81.6073 81.7513C79.3627 83.7198 76.479 84.8052 73.4934 84.8052C70.5078 84.8052 67.6241 83.7198 65.3795 81.7513L66.0772 79.0999H80.9243L81.6073 81.7513Z" fill="white"/>
<path d="M82.8743 85.6255H64.1236V86.6427H82.8743V85.6255Z" fill="#394855"/>
<path d="M97.5891 67.7989L73.4988 70.1538V62.2473H97.5891V67.7989Z" fill="#394855"/>
<path opacity="0.1" d="M73.5 64.9353V69.5L97.5903 67.7924V64.9353H73.5Z" fill="#394855"/>
<path d="M80.75 79.75C84.7541 75.7459 84.7541 69.2541 80.75 65.25C76.7459 61.2459 70.2541 61.2459 66.25 65.25C62.2459 69.2541 62.2459 75.7459 66.25 79.75C70.2541 83.7541 76.7459 83.7541 80.75 79.75Z" fill="#394855"/>
<path d="M78.5298 77.5298C81.3077 74.7519 81.3077 70.2481 78.5298 67.4702C75.7519 64.6923 71.2481 64.6923 68.4702 67.4702C65.6923 70.2481 65.6923 74.7519 68.4702 77.5298C71.2481 80.3077 75.7519 80.3077 78.5298 77.5298Z" fill="#394855"/>
<path d="M74.0167 71.4686L73.4989 72.5005L72.7534 71.6228L72.2356 64.4582L72.8048 64.3884L74.0167 71.4686Z" fill="#E0E0E0"/>
<path d="M74.5308 73.0184L73.4988 72.5006L74.3802 71.7514L81.5412 71.2373L81.6109 71.8065L74.5308 73.0184Z" fill="#E0E0E0"/>
<path d="M72.9848 73.5326L73.4989 72.5007L74.2481 73.3784L74.7659 80.5431L74.1967 80.6128L72.9848 73.5326Z" fill="#E0E0E0"/>
<path d="M72.467 71.9827L73.4989 72.5005L72.6213 73.2496L65.4603 73.7637L65.3905 73.1945L72.467 71.9827Z" fill="#E0E0E0"/>
<path d="M74.5969 72.1371L73.4988 72.5007L73.5906 71.3512L78.2912 65.9199L78.7429 66.2761L74.5969 72.1371Z" fill="#E0E0E0"/>
<path d="M73.8624 73.5951L73.4988 72.5007L74.6519 72.5925L80.0796 77.2931L79.7271 77.7448L73.8624 73.5951Z" fill="#E0E0E0"/>
<path d="M72.4046 72.8643L73.4989 72.5007L73.4108 73.6502L68.7066 79.0815L68.2549 78.7289L72.4046 72.8643Z" fill="#E0E0E0"/>
<path d="M73.1353 71.4063L73.4988 72.5006L72.3494 72.4088L66.9181 67.7083L67.2743 67.2566L73.1353 71.4063Z" fill="#E0E0E0"/>
<path d="M73.4989 73.8188C73.2386 73.8188 72.9841 73.7418 72.7676 73.5974C72.551 73.453 72.382 73.2478 72.2819 73.0075C72.1818 72.7673 72.1551 72.5027 72.2051 72.2473C72.2551 71.9919 72.3795 71.757 72.5628 71.5722C72.7461 71.3873 72.98 71.2609 73.235 71.2088C73.49 71.1567 73.7547 71.1813 73.9958 71.2793C74.2369 71.3774 74.4435 71.5447 74.5897 71.7601C74.7359 71.9754 74.815 72.2292 74.8172 72.4895C74.8187 72.6635 74.7856 72.8361 74.72 72.9974C74.6544 73.1586 74.5576 73.3052 74.435 73.4288C74.3124 73.5524 74.1666 73.6505 74.0059 73.7174C73.8452 73.7844 73.6729 73.8188 73.4989 73.8188ZM73.4989 71.4172C73.2841 71.4172 73.0742 71.481 72.8959 71.6005C72.7175 71.7201 72.5786 71.8899 72.497 72.0885C72.4153 72.2871 72.3945 72.5055 72.4372 72.7159C72.4799 72.9264 72.5842 73.1194 72.7368 73.2704C72.8894 73.4215 73.0835 73.5238 73.2943 73.5643C73.5052 73.6049 73.7234 73.5818 73.9211 73.4981C74.1189 73.4145 74.2873 73.2739 74.405 73.0943C74.5227 72.9147 74.5844 72.7042 74.5822 72.4895C74.5793 72.2041 74.4639 71.9313 74.261 71.7305C74.0582 71.5298 73.7843 71.4171 73.4989 71.4172Z" fill="white"/>
<path d="M73.499 80.866C71.8449 80.866 70.228 80.3756 68.8525 79.4569C67.477 78.5382 66.4048 77.2323 65.7713 75.7044C65.1378 74.1764 64.9715 72.495 65.2934 70.8725C65.6153 69.2501 66.411 67.7595 67.5798 66.5891C68.7486 65.4187 70.2382 64.6211 71.8602 64.2971C73.4822 63.9731 75.1639 64.1372 76.6927 64.7686C78.2215 65.4001 79.5287 66.4706 80.4493 67.8449C81.3698 69.2191 81.8623 70.8354 81.8645 72.4895C81.8645 74.7092 80.9835 76.8381 79.4149 78.4087C77.8464 79.9793 75.7186 80.8631 73.499 80.866ZM73.499 65.6223C72.1381 65.6223 70.8079 66.026 69.6765 66.7823C68.5451 67.5385 67.6636 68.6134 67.1433 69.8709C66.623 71.1283 66.4874 72.5119 66.7537 73.8464C67.02 75.181 67.6762 76.4065 68.6392 77.368C69.6023 78.3295 70.8289 78.9837 72.1639 79.2479C73.4988 79.512 74.8822 79.3743 76.1388 78.852C77.3954 78.3297 78.4689 77.4464 79.2234 76.3138C79.9778 75.1812 80.3794 73.8503 80.3772 72.4895C80.3723 70.6678 79.6457 68.9222 78.3566 67.6351C77.0674 66.348 75.3207 65.6242 73.499 65.6223Z" fill="#7B90A3"/>
<path d="M89 68.6678C89 68.7559 88.9473 68.8404 88.8536 68.9027C88.7598 68.965 88.6326 69 88.5 69C88.3674 69 88.2402 68.965 88.1464 68.9027C88.0527 68.8404 88 68.7559 88 68.6678V62.3322C88 62.2441 88.0527 62.1596 88.1464 62.0973C88.2402 62.035 88.3674 62 88.5 62C88.6326 62 88.7598 62.035 88.8536 62.0973C88.9473 62.1596 89 62.2441 89 62.3322V68.6678Z" fill="#35424E"/>
<path d="M98 67.7152C98 67.7908 97.9473 67.8632 97.8536 67.9166C97.7598 67.97 97.6326 68 97.5 68C97.3674 68 97.2402 67.97 97.1464 67.9166C97.0527 67.8632 97 67.7908 97 67.7152V62.2848C97 62.2092 97.0527 62.1368 97.1464 62.0834C97.2402 62.03 97.3674 62 97.5 62C97.6326 62 97.7598 62.03 97.8536 62.0834C97.9473 62.1368 98 62.2092 98 62.2848V67.7152Z" fill="#35424E"/>
<path opacity="0.1" d="M63.4185 74.3662C63.8539 76.7223 65.1008 78.8515 66.9426 80.3841C68.7844 81.9167 71.1047 82.7558 73.5007 82.7558C75.8968 82.7558 78.2171 81.9167 80.0589 80.3841C81.9007 78.8515 83.1476 76.7223 83.583 74.3662C79.6757 80.8662 66.9182 81.3032 63.4185 74.3662Z" fill="#394855"/>
<defs>
<filter id="filter0_d" x="0" y="0" width="154" height="154" filterUnits="userSpaceOnUse" color-interpolation-filters="sRGB">
<feFlood flood-opacity="0" result="BackgroundImageFix"/>
<feColorMatrix in="SourceAlpha" type="matrix" values="0 0 0 0 0 0 0 0 0 0 0 0 0 0 0 0 0 0 127 0"/>
<feMorphology radius="2" operator="dilate" in="SourceAlpha" result="effect1_dropShadow"/>
<feOffset dx="2" dy="4"/>
<feGaussianBlur stdDeviation="7.5"/>
<feColorMatrix type="matrix" values="0 0 0 0 0.7475 0 0 0 0 0.832619 0 0 0 0 0.866667 0 0 0 1 0"/>
<feBlend mode="normal" in2="BackgroundImageFix" result="effect1_dropShadow"/>
<feBlend mode="normal" in="SourceGraphic" in2="effect1_dropShadow" result="shape"/>
</filter>
<linearGradient id="paint0_linear" x1="75.3847" y1="33.769" x2="75.3847" y2="113" gradientUnits="userSpaceOnUse">
<stop stop-color="#40F4FF" stop-opacity="0.71"/>
<stop offset="0.659546" stop-color="#2D8AFF" stop-opacity="0.432991"/>
<stop offset="1" stop-color="#2353FF" stop-opacity="0.29"/>
</linearGradient>
</defs>
</svg>
