<svg width="154" height="154" viewBox="0 0 154 154" fill="none" xmlns="http://www.w3.org/2000/svg">
<circle cx="75.3847" cy="73.3844" r="39.6154" fill="url(#paint0_linear)"/>
<g filter="url(#filter0_d)">
<circle cx="75" cy="73" r="58.5" stroke="white" stroke-width="3"/>
</g>
<path d="M99.8115 87H51.1885C50.8733 87 50.571 86.8779 50.3481 86.6607C50.1252 86.4434 50 86.1487 50 85.8414V62.1586C50 61.8513 50.1252 61.5566 50.3481 61.3393C50.571 61.1221 50.8733 61 51.1885 61H99.8115C100.127 61 100.429 61.1221 100.652 61.3393C100.875 61.5566 101 61.8513 101 62.1586V85.8414C101 86.1487 100.875 86.4434 100.652 86.6607C100.429 86.8779 100.127 87 99.8115 87ZM98.4835 86.7994V81.5178H52.5032V86.7994H98.4835ZM63.8173 61.9061H52.9281V62.2621H63.8173V61.9061ZM63.8173 62.6311H52.9281V63.2395H63.8173V62.6311ZM75.1647 61.9061H64.4614V62.2621H75.178L75.1647 61.9061ZM75.1647 62.6311H64.4614V63.2395H75.178L75.1647 62.6311ZM86.5187 61.9061H75.8154V62.2621H86.532L86.5187 61.9061ZM86.5187 62.6311H75.8154V63.2395H86.532L86.5187 62.6311ZM98.0453 61.9061H87.1561V62.2621H98.0453V61.9061ZM98.0453 62.6311H87.1561V63.2395H98.0453V62.6311ZM79.6465 74.0227H71.3335C71.2649 74.0227 71.199 74.0492 71.1504 74.0966C71.1019 74.1439 71.0746 74.2081 71.0746 74.2751V77.2589C71.0746 77.3265 71.1016 77.3913 71.15 77.4397C71.1984 77.4881 71.2643 77.5161 71.3335 77.5178H79.6465C79.717 77.5178 79.7845 77.4905 79.8343 77.442C79.8841 77.3934 79.9121 77.3276 79.9121 77.2589V74.2621C79.9087 74.1963 79.879 74.1344 79.8293 74.0897C79.7797 74.0449 79.7141 74.0209 79.6465 74.0227ZM99.9443 61.3948C99.2634 65.6213 98.9237 69.8933 98.9284 74.1715C98.9284 75.2589 98.9284 76.3398 99.0081 77.4078C79.5536 79.3883 71.4132 79.3883 51.9654 77.4078C52.0118 76.3592 52.0384 75.2783 52.0384 74.1715C52.0431 69.8933 51.7034 65.6213 51.0225 61.3948C50.7202 61.7609 50.5603 62.2194 50.571 62.6893V85.343C50.5604 85.7968 50.7105 86.2402 50.996 86.5987C51.4448 83.8844 51.7507 81.1494 51.9122 78.4045C71.4199 80.3916 79.5536 80.3916 99.0546 78.4045C99.2471 81.6408 99.6256 84.5599 99.9642 86.5987C100.252 86.2408 100.404 85.7975 100.396 85.343V62.6893C100.42 62.2138 100.264 61.7462 99.9576 61.3754L99.9443 61.3948Z" fill="#394855"/>
<defs>
<filter id="filter0_d" x="0" y="0" width="154" height="154" filterUnits="userSpaceOnUse" color-interpolation-filters="sRGB">
<feFlood flood-opacity="0" result="BackgroundImageFix"/>
<feColorMatrix in="SourceAlpha" type="matrix" values="0 0 0 0 0 0 0 0 0 0 0 0 0 0 0 0 0 0 127 0"/>
<feMorphology radius="2" operator="dilate" in="SourceAlpha" result="effect1_dropShadow"/>
<feOffset dx="2" dy="4"/>
<feGaussianBlur stdDeviation="7.5"/>
<feColorMatrix type="matrix" values="0 0 0 0 0.7475 0 0 0 0 0.832619 0 0 0 0 0.866667 0 0 0 1 0"/>
<feBlend mode="normal" in2="BackgroundImageFix" result="effect1_dropShadow"/>
<feBlend mode="normal" in="SourceGraphic" in2="effect1_dropShadow" result="shape"/>
</filter>
<linearGradient id="paint0_linear" x1="75.3847" y1="33.769" x2="75.3847" y2="113" gradientUnits="userSpaceOnUse">
<stop stop-color="#40F4FF" stop-opacity="0.71"/>
<stop offset="0.659546" stop-color="#2D8AFF" stop-opacity="0.432991"/>
<stop offset="1" stop-color="#2353FF" stop-opacity="0.29"/>
</linearGradient>
</defs>
</svg>
