<svg width="52" height="52" viewBox="0 0 52 52" fill="none" xmlns="http://www.w3.org/2000/svg">
<path d="M26.5 44C22.8411 44 19.2643 42.915 16.222 40.8822C13.1796 38.8494 10.8085 35.9601 9.40823 32.5796C8.00801 29.1992 7.64166 25.4795 8.35548 21.8908C9.06931 18.3022 10.8313 15.0058 13.4185 12.4185C16.0058 9.83126 19.3022 8.06931 22.8908 7.35548C26.4795 6.64165 30.1992 7.00802 33.5796 8.40824C36.9601 9.80846 39.8494 12.1797 41.8822 15.222C43.915 18.2643 45 21.8411 45 25.5C44.9944 30.4048 43.0436 35.1071 39.5753 38.5753C36.1071 42.0436 31.4048 43.9944 26.5 44ZM26.5 7.88096C23.0153 7.88096 19.6088 8.9143 16.7114 10.8503C13.814 12.7863 11.5557 15.538 10.2221 18.7575C8.88858 21.9769 8.53967 25.5196 9.2195 28.9373C9.89934 32.3551 11.5774 35.4945 14.0415 37.9585C16.5055 40.4226 19.6449 42.1007 23.0627 42.7805C26.4805 43.4603 30.0231 43.1114 33.2425 41.7779C36.462 40.4443 39.2137 38.1861 41.1497 35.2886C43.0857 32.3912 44.119 28.9847 44.119 25.5C44.1138 20.8288 42.2558 16.3504 38.9527 13.0473C35.6496 9.74423 31.1712 7.88624 26.5 7.88096Z" fill="url(#paint0_linear)"/>
<path fill-rule="evenodd" clip-rule="evenodd" d="M39 26.0714C38.9996 23.7642 38.3421 21.5054 37.1054 19.5624C35.8687 17.6194 34.1046 16.0737 32.0219 15.1081C29.9392 14.1426 27.6251 13.7976 25.3537 14.1142C23.0822 14.4307 20.9484 15.3955 19.2049 16.8942C17.4615 18.393 16.1813 20.363 15.5161 22.571C14.8508 24.779 14.8283 27.1326 15.4511 29.353C16.074 31.5735 17.3162 33.568 19.0306 35.1002C20.7451 36.6325 22.86 37.6384 25.125 37.9989V29.5625H22.0773V26.0714H25.125V23.4109C25.125 20.3855 26.917 18.713 29.6577 18.713C30.5577 18.7256 31.4557 18.8045 32.3443 18.949V21.9206H30.8303C29.3405 21.9206 28.8745 22.8509 28.8745 23.807V26.0719H32.2023L31.6709 29.563H28.8745V38C31.6974 37.5502 34.2681 36.1016 36.1242 33.915C37.9804 31.7283 39.0001 28.947 39 26.0714L39 26.0714Z" fill="url(#paint1_linear)"/>
<defs>
<linearGradient id="paint0_linear" x1="7.5632" y1="13.6654" x2="49.514" y2="18.7512" gradientUnits="userSpaceOnUse">
<stop stop-color="#00A3FF"/>
<stop offset="1" stop-color="#8F00FF"/>
</linearGradient>
<linearGradient id="paint1_linear" x1="14.7167" y1="18.3235" x2="41.928" y2="21.6224" gradientUnits="userSpaceOnUse">
<stop stop-color="#00A3FF"/>
<stop offset="1" stop-color="#8F00FF"/>
</linearGradient>
</defs>
</svg>
