<svg width="500" height="500" viewBox="0 0 500 500" fill="none" xmlns="http://www.w3.org/2000/svg">
<path d="M500 0H0V500H500V0Z" fill="white"/>
<path d="M231.99 451.8V472.9L478.75 329.92V308.82L231.99 451.8Z" fill="#BCBEC0"/>
<path d="M232.1 451.8V472.9L18.75 348.52V327.55L232.1 451.8Z" fill="#E6E7E8"/>
<path d="M232.02 451.8V456.38L473.56 316.45V311.87L232.02 451.8Z" fill="#C28D60"/>
<path d="M232.1 451.8V456.38L18.75 332V327.55L232.1 451.8Z" fill="#A7A9AC"/>
<path d="M18.75 327.55L232.1 451.8L478.75 308.82L265.16 184.44L18.75 327.55Z" fill="#F1B98A"/>
<path d="M231.99 451.8V456.38L289.91 423V418.41L231.99 451.8Z" fill="#808285"/>
<path d="M18.75 327.55L232.1 451.8L289.91 418.41L76.32 294.03L18.75 327.55Z" fill="#BCBEC0"/>
<path style="mix-blend-mode:multiply" opacity="0.5" d="M423 299.49L437.66 291.1L437.22 290.39L422.22 299.01L372 269.76L386.65 261.37L386.22 260.67L371.22 269.28L320.87 240L335.52 231.61L335.09 230.9L320.09 239.52L269.87 210.28L284.52 201.88L284.09 201.18L269 209.84L245.13 195.93L244.7 196.64L295.83 226.41L281.35 234.71L229.92 204.71L229.49 205.41L264.3 225.69L249.82 234L214.72 213.56L214.28 214.26L235.16 226.42L220.74 234.68L221.21 235.02L199.51 222.39L199.08 223.09L247.73 251.43L233.25 259.72L184.3 231.24L183.87 231.95L213.65 249.29L199.17 257.59L169.1 240.07L168.66 240.78L183.89 249.65L169.41 257.94L153.89 248.94L153.46 249.65L196.46 274.65L182 283L138.69 257.78L138.26 258.48L162.4 272.54L147.92 280.83L123.49 266.61L123.05 267.31L165.25 291.89L150.77 300.18L124.7 285L124.47 284.63L124.26 284.75L108.26 275.43L107.83 276.14L123.42 285.22L108.92 293.5L93.05 284.26L92.62 284.97L123.26 302.81L107.58 311.81L108.36 312.38H108.3L124.09 303.38L174.3 332.62L158.62 341.62L159.4 342.19L175.18 333.19L225.39 362.44L209.71 371.44L210.49 372.01L226.27 363.01L276.49 392.25L260.8 401.25L261.58 401.82H261.53L277.31 392.82L306.01 409.54H305.96V414.13L306.74 413.56V408.97L262.88 383.1L277.38 374.82L321.13 400.3H321.08V404.88L321.86 404.31V399.72L304.71 389.72L319.19 381.43L336.33 391.43H336.28V396.01L337.06 395.44V390.86L301.86 370.36L316.33 362.07L351.54 382.58H351.49V387.17L352.27 386.59V382.01L335.94 372.5L350.39 364.22V364.16L366.79 373.71H366.73V378.3L367.52 377.73V373.14L323.4 347.45L337.88 339.16L382 365H381.95V369.59L382.73 369.02V364.43L353.17 347.22L367.61 339L397.16 356.21H397.11V360.79L397.89 360.22V355.63L387.2 349.4L401.68 341.11L412.37 347.33H412.31V352L413.09 351.43V346.8L374.63 324.4L389.11 316.1L427.57 338.5H427.52V343.08L428.3 342.51V338L403.77 323.71L418.25 315.42L442.78 329.7V334.29L443.56 333.71V329.13L435.35 324.35L449.83 316.06L458.04 320.84H457.98V325.43L458.76 324.86V320.27L423 299.49ZM333.26 264.91L347.74 256.62L397.96 285.86L383.48 294.15L333.26 264.91ZM301.73 264.23L316.22 255.94L366.43 285.18L351.95 293.48L301.73 264.23ZM285.12 290L299.6 281.71L349.82 310.95L335.34 319.25L285.12 290ZM251 287.79L265.48 279.5L315.7 308.74L301.26 317L251 287.79ZM233.81 313.15L248.26 304.87V304.82L298.54 334.1L284.06 342.39L233.81 313.15ZM226.74 344.4L226.51 344.03L226.31 344.15L202.59 330.33L217.11 322L267.33 351.24L252.85 359.54L226.74 344.4ZM225.48 344.62L211 352.9L160.8 323.66L175.3 315.38L225.48 344.62ZM199.77 311L214.25 302.71L264.48 331.96L250 340.23L199.77 311ZM221.28 288.15L235.76 279.86L286 309.09L271.52 317.39L221.28 288.15ZM272.54 265L287.03 256.7L337.24 285.95L322.82 294.21L323.27 294.54L272.54 265ZM296.65 226.94L346.87 256.19L332.39 264.48L282.17 235.24L296.65 226.94ZM265.12 226.27L315.34 255.51L300.86 263.8L250.64 234.56L265.12 226.27ZM235.98 226.98L286.2 256.22L271.78 264.48L272.24 264.82L221.5 235.22L235.98 226.98ZM248.56 251.98L298.77 281.22L284.29 289.51L234.07 260.27L248.56 251.98ZM214.48 249.81L264.7 279L250.22 287.29L200 258.07L214.48 249.81ZM184.72 250.17L234.94 279.41L220.45 287.7L170.24 258.46L184.72 250.17ZM197.23 275.17L247.51 304.46L233 312.67L182.78 283.42L197.23 275.15V275.17ZM163.23 273.05L213.46 302.29L199 310.51L148.78 281.26L163.21 273L163.23 273.05ZM166.1 292.4L216.31 321.64L201.83 329.93L175.77 314.75L175.54 314.38L175.33 314.5L151.61 300.69L166.1 292.4ZM124.29 285.73L174.5 314.98L160 323.18L109.78 293.93L124.29 285.73ZM262.09 382.73L211.87 353.49L226.37 345.21L276.59 374.45L262.09 382.73ZM303.92 389.41L277.85 374.23L277.62 373.86L277.42 373.98L253.7 360.17L268.18 351.87L318.37 381L303.92 389.41ZM301 370L250.78 340.75L265.25 332.46L315.48 361.71L301 370ZM335.07 372.16L284.85 342.91L299.3 334.64V334.58L349.58 363.86L335.07 372.16ZM322.5 347.16L272.28 317.92L286.76 309.63L337 338.82L322.5 347.16ZM352.26 346.81L302.04 317.57L316.52 309.27L366.74 338.52L352.26 346.81ZM386.34 348.97L336.12 319.73L350.6 311.43L400.82 340.68L386.34 348.97ZM374.27 324.26L323.55 294.72L338.03 286.43L388.25 315.67L373.82 323.93L374.27 324.26ZM402.91 323.26L352.73 294L367.21 285.71L417.43 314.95L402.91 323.26ZM434.43 323.94L384.21 294.69L398.7 286.4L449 315.59L434.43 323.94Z" fill="url(#paint0_linear)"/>
<path opacity="0.01" d="M189.42 361.63L285.45 418.27L418.25 341.57L280.81 259.95L189.42 361.63Z" fill="#FEDEB4"/>
<path opacity="0.02" d="M189.64 361.77L285.45 418.27L416.19 342.64L279.7 261.7L189.64 361.77Z" fill="#FEDEB4"/>
<path opacity="0.03" d="M189.85 361.9L285.45 418.27L414.12 343.72L278.59 263.44L189.85 361.9Z" fill="#FEDEB4"/>
<path opacity="0.04" d="M190.07 362.04L285.45 418.27L412.06 344.79L277.48 265.19L190.07 362.04Z" fill="#FEDEB4"/>
<path opacity="0.05" d="M190.28 362.17L285.45 418.27L409.99 345.86L276.37 266.93L190.28 362.17Z" fill="#FEDEB4"/>
<path opacity="0.06" d="M190.49 362.31L285.45 418.27L407.93 346.93L275.26 268.68L190.49 362.31Z" fill="#FEDEB4"/>
<path opacity="0.07" d="M190.71 362.44L285.45 418.27L405.86 348L274.15 270.42L190.71 362.44Z" fill="#FEDEB4"/>
<path opacity="0.08" d="M190.92 362.58L285.45 418.27L403.8 349.07L273.04 272.17L190.92 362.58Z" fill="#FEDEB4"/>
<path opacity="0.09" d="M191.14 362.71L285.45 418.27L401.73 350.14L271.93 273.92L191.14 362.71Z" fill="#FEDEB4"/>
<path opacity="0.1" d="M191.35 362.85L285.45 418.27L399.67 351.21L270.82 275.66L191.35 362.85Z" fill="#FEDEB4"/>
<path opacity="0.11" d="M191.56 362.98L285.45 418.27L397.6 352.28L269.71 277.41L191.56 362.98Z" fill="#FEDEB4"/>
<path opacity="0.12" d="M191.78 363.12L285.45 418.27L395.54 353.35L268.6 279.15L191.78 363.12Z" fill="#FEDEB4"/>
<path opacity="0.13" d="M191.99 363.25L285.45 418.27L393.47 354.42L267.49 280.9L191.99 363.25Z" fill="#FEDEB4"/>
<path opacity="0.14" d="M192.21 363.39L285.45 418.27L391.41 355.49L266.38 282.64L192.21 363.39Z" fill="#FEDEB4"/>
<path opacity="0.15" d="M192.42 363.52L285.45 418.27L389.34 356.56L265.27 284.39L192.42 363.52Z" fill="#FEDEB4"/>
<path opacity="0.16" d="M192.63 363.66L285.45 418.27L387.28 357.63L264.16 286.13L192.63 363.66Z" fill="#FEDEB4"/>
<path opacity="0.17" d="M192.85 363.8L285.45 418.27L385.21 358.7L263.05 287.88L192.85 363.8Z" fill="#FEDEB4"/>
<path opacity="0.18" d="M193.06 363.93L285.45 418.27L383.15 359.77L261.94 289.62L193.06 363.93Z" fill="#FEDEB4"/>
<path opacity="0.19" d="M193.28 364.06L285.45 418.27L381.08 360.84L260.83 291.37L193.28 364.06Z" fill="#FEDEB4"/>
<path opacity="0.2" d="M193.49 364.2L285.45 418.27L379.02 361.91L259.73 293.12L193.49 364.2Z" fill="#FEDEB4"/>
<path opacity="0.21" d="M193.71 364.33L285.45 418.27L376.95 362.98L258.62 294.86L193.71 364.33Z" fill="#FEDEB4"/>
<path opacity="0.22" d="M193.92 364.47L285.45 418.27L374.89 364.05L257.5 296.61L193.92 364.47Z" fill="#FEDEB4"/>
<path opacity="0.23" d="M194.13 364.61L285.45 418.27L372.82 365.12L256.39 298.35L194.13 364.61Z" fill="#FEDEB4"/>
<path opacity="0.24" d="M194.35 364.74L285.45 418.27L370.76 366.19L255.28 300.1L194.35 364.74Z" fill="#FEDEB4"/>
<path opacity="0.25" d="M194.56 364.88L285.45 418.27L368.69 367.26L254.18 301.84L194.56 364.88Z" fill="#FEDEB4"/>
<path opacity="0.25" d="M194.78 365.01L285.45 418.27L366.63 368.33L253.07 303.59L194.78 365.01Z" fill="#FEDEB4"/>
<path opacity="0.26" d="M194.99 365.14L285.45 418.27L364.57 369.4L251.96 305.33L194.99 365.14Z" fill="#FEDEB4"/>
<path opacity="0.27" d="M195.2 365.28L285.45 418.27L362.5 370.47L250.85 307.08L195.2 365.28Z" fill="#FEDEB4"/>
<path opacity="0.28" d="M195.42 365.42L285.45 418.27L360.44 371.54L249.74 308.82L195.42 365.42Z" fill="#FEDEB4"/>
<path opacity="0.29" d="M195.63 365.55L285.45 418.27L358.37 372.61L248.63 310.57L195.63 365.55Z" fill="#FEDEB4"/>
<path opacity="0.3" d="M195.84 365.69L285.45 418.27L356.31 373.68L247.52 312.31L195.84 365.69Z" fill="#FEDEB4"/>
<path opacity="0.31" d="M196.06 365.82L285.45 418.27L354.24 374.75L246.41 314.06L196.06 365.82Z" fill="#FEDEB4"/>
<path opacity="0.32" d="M196.27 365.95L285.45 418.27L352.18 375.82L245.3 315.81L196.27 365.95Z" fill="#FEDEB4"/>
<path opacity="0.33" d="M196.49 366.09L285.45 418.27L350.11 376.89L244.19 317.55L196.49 366.09Z" fill="#FEDEB4"/>
<path opacity="0.34" d="M196.7 366.23L285.45 418.27L348.05 377.97L243.08 319.3L196.7 366.23Z" fill="#FEDEB4"/>
<path opacity="0.35" d="M196.92 366.36L285.45 418.27L345.98 379.04L241.97 321.04L196.92 366.36Z" fill="#FEDEB4"/>
<path opacity="0.36" d="M197.13 366.5L285.45 418.27L343.92 380.11L240.86 322.79L197.13 366.5Z" fill="#FEDEB4"/>
<path opacity="0.37" d="M197.34 366.63L285.45 418.27L341.85 381.18L239.75 324.53L197.34 366.63Z" fill="#FEDEB4"/>
<path opacity="0.38" d="M197.56 366.76L285.45 418.27L339.79 382.25L238.64 326.28L197.56 366.76Z" fill="#FEDEB4"/>
<path opacity="0.39" d="M197.77 366.9L285.45 418.27L337.72 383.32L237.53 328.02L197.77 366.9Z" fill="#FEDEB4"/>
<path opacity="0.4" d="M197.99 367.04L285.45 418.27L335.66 384.39L236.42 329.77L197.99 367.04Z" fill="#FEDEB4"/>
<path opacity="0.41" d="M198.2 367.17L285.45 418.27L333.59 385.46L235.31 331.51L198.2 367.17Z" fill="#FEDEB4"/>
<path opacity="0.42" d="M198.41 367.31L285.45 418.27L331.53 386.53L234.2 333.26L198.41 367.31Z" fill="#FEDEB4"/>
<path opacity="0.43" d="M198.63 367.44L285.45 418.27L329.46 387.6L233.09 335L198.63 367.44Z" fill="#FEDEB4"/>
<path opacity="0.44" d="M198.84 367.57L285.45 418.27L327.4 388.67L231.98 336.75L198.84 367.57Z" fill="#FEDEB4"/>
<path opacity="0.45" d="M199.06 367.71L285.45 418.27L325.33 389.74L230.87 338.5L199.06 367.71Z" fill="#FEDEB4"/>
<path opacity="0.46" d="M199.27 367.85L285.45 418.27L323.27 390.81L229.76 340.24L199.27 367.85Z" fill="#FEDEB4"/>
<path opacity="0.47" d="M199.48 367.98L285.45 418.27L321.2 391.88L228.65 341.99L199.48 367.98Z" fill="#FEDEB4"/>
<path opacity="0.48" d="M199.7 368.12L285.45 418.27L319.14 392.95L227.54 343.73L199.7 368.12Z" fill="#FEDEB4"/>
<path opacity="0.49" d="M199.91 368.25L285.45 418.27L317.07 394.02L226.43 345.48L199.91 368.25Z" fill="#FEDEB4"/>
<path opacity="0.5" d="M200.13 368.38L285.45 418.27L315.01 395.09L225.32 347.22L200.13 368.38Z" fill="#FEDEB4"/>
<path d="M473.28 160.67V312.15L478.75 309.12V157.63L473.28 160.67Z" fill="#BCBEC0"/>
<path d="M473.4 160.67V312.15L260.04 187.78V36.4299L473.4 160.67Z" fill="#D1EBFF"/>
<path d="M260.04 36.43L473.4 160.67L478.75 157.63L265.16 33.26L260.04 36.43Z" fill="#F1F2F2"/>
<path d="M469.75 308.79V314.25L473.56 312.13V302.31C472.404 302.951 471.441 303.891 470.771 305.03C470.101 306.17 469.748 307.468 469.75 308.79Z" fill="#B56F65"/>
<path d="M259.92 178C258.831 178.678 257.933 179.622 257.31 180.744C256.687 181.865 256.36 183.127 256.36 184.41V189.94L469.83 314.25V308.72C469.83 307.417 470.175 306.138 470.83 305.012C471.485 303.886 472.427 302.953 473.56 302.31L259.92 178Z" fill="url(#paint1_linear)"/>
<path d="M82.33 145.91V297.39L76.87 294.35V142.87L82.33 145.91Z" fill="#E6E7E8"/>
<path d="M82.22 145.91V297.39L265.15 190.96V39.6101L82.22 145.91Z" fill="#A8CFF0"/>
<path d="M265.15 39.6099L82.22 145.91L76.87 142.87L260.03 36.4399L265.15 39.6099Z" fill="#F1F2F2"/>
<path d="M85.8701 294V299.47L82.0601 297.35V287.52C83.2146 288.163 84.1766 289.103 84.8464 290.242C85.5162 291.381 85.8696 292.678 85.8701 294Z" fill="#B56F65"/>
<path d="M265.18 195.24V181.24L82.0601 287.54C83.1989 288.189 84.1445 289.13 84.8 290.265C85.4554 291.4 85.7971 292.689 85.7901 294V299.54L265.18 195.24Z" fill="url(#paint2_linear)"/>
<path style="mix-blend-mode:multiply" opacity="0.2" d="M305 297.42V280.02L334.8 278L305 297.42Z" fill="url(#paint3_linear)"/>
<path d="M245.86 242.79L232.18 253.66L245.98 257.76V242.82L245.86 242.79Z" fill="#BA9267"/>
<path style="mix-blend-mode:multiply" opacity="0.3" d="M484.17 382.78L370.56 349L357.89 360.01L470.46 393.64L484.17 382.78Z" fill="url(#paint4_linear)"/>
<g style="mix-blend-mode:multiply">
<g style="mix-blend-mode:multiply" opacity="0.01">
<path d="M76.45 147.54L73.4 295.31L166.29 351.59L240.17 254.12L258.73 195.7L153.22 166.38L76.45 147.54Z" fill="#C49A6C"/>
</g>
<g style="mix-blend-mode:multiply" opacity="0.02">
<path d="M76.6599 148.84L73.6799 295.49L165.93 351.35L238.92 254.35L256.73 196.95L152.66 167.94L76.6599 148.84Z" fill="#C49A6C"/>
</g>
<g style="mix-blend-mode:multiply" opacity="0.03">
<path d="M76.87 150.14L73.97 295.67L165.58 351.12L237.66 254.58L254.73 198.19L152.11 169.5L76.87 150.14Z" fill="#C49A6C"/>
</g>
<g style="mix-blend-mode:multiply" opacity="0.04">
<path d="M77.08 151.44L74.25 295.85L165.22 350.88L236.41 254.81L252.73 199.44L151.56 171.07L77.08 151.44Z" fill="#C49A6C"/>
</g>
<g style="mix-blend-mode:multiply" opacity="0.05">
<path d="M77.29 152.74L74.54 296.02L164.87 350.64L235.15 255.04L250.73 200.69L151 172.63L77.29 152.74Z" fill="#C49A6C"/>
</g>
<g style="mix-blend-mode:multiply" opacity="0.06">
<path d="M77.4999 154.04L74.8199 296.2L164.51 350.41L233.9 255.27L248.73 201.93L150.45 174.19L77.4999 154.04Z" fill="#C49A6C"/>
</g>
<g style="mix-blend-mode:multiply" opacity="0.07">
<path d="M77.71 155.34L75.11 296.38L164.16 350.17L232.65 255.5L246.73 203.18L149.9 175.75L77.71 155.34Z" fill="#C49A6C"/>
</g>
<g style="mix-blend-mode:multiply" opacity="0.08">
<path d="M77.92 156.64L75.39 296.56L163.81 349.93L231.39 255.73L244.73 204.42L149.34 177.31L77.92 156.64Z" fill="#C49A6C"/>
</g>
<g style="mix-blend-mode:multiply" opacity="0.09">
<path d="M78.1299 157.94L75.6699 296.74L163.45 349.7L230.14 255.96L242.74 205.67L148.79 178.87L78.1299 157.94Z" fill="#C49A6C"/>
</g>
<g style="mix-blend-mode:multiply" opacity="0.1">
<path d="M78.34 159.24L75.96 296.92L163.1 349.46L228.88 256.19L240.74 206.91L148.24 180.43L78.34 159.24Z" fill="#C49A6C"/>
</g>
<g style="mix-blend-mode:multiply" opacity="0.11">
<path d="M78.55 160.54L76.24 297.1L162.74 349.22L227.63 256.42L238.74 208.16L147.69 181.99L78.55 160.54Z" fill="#C49A6C"/>
</g>
<g style="mix-blend-mode:multiply" opacity="0.12">
<path d="M78.76 161.84L76.53 297.28L162.39 348.99L226.37 256.65L236.74 209.41L147.13 183.55L78.76 161.84Z" fill="#C49A6C"/>
</g>
<g style="mix-blend-mode:multiply" opacity="0.13">
<path d="M78.9699 163.14L76.8099 297.46L162.03 348.75L225.12 256.88L234.74 210.65L146.58 185.12L78.9699 163.14Z" fill="#C49A6C"/>
</g>
<g style="mix-blend-mode:multiply" opacity="0.14">
<path d="M79.18 164.44L77.1 297.64L161.68 348.51L223.87 257.11L232.74 211.9L146.03 186.68L79.18 164.44Z" fill="#C49A6C"/>
</g>
<g style="mix-blend-mode:multiply" opacity="0.15">
<path d="M79.39 165.74L77.38 297.82L161.32 348.28L222.61 257.33L230.74 213.14L145.47 188.24L79.39 165.74Z" fill="#C49A6C"/>
</g>
<g style="mix-blend-mode:multiply" opacity="0.16">
<path d="M79.5999 167.04L77.6699 298L160.97 348.04L221.36 257.56L228.74 214.39L144.92 189.8L79.5999 167.04Z" fill="#C49A6C"/>
</g>
<g style="mix-blend-mode:multiply" opacity="0.17">
<path d="M79.81 168.34L77.95 298.18L160.61 347.81L220.1 257.79L226.74 215.63L144.37 191.36L79.81 168.34Z" fill="#C49A6C"/>
</g>
<g style="mix-blend-mode:multiply" opacity="0.18">
<path d="M80.02 169.64L78.24 298.36L160.26 347.57L218.85 258.02L224.74 216.88L143.81 192.92L80.02 169.64Z" fill="#C49A6C"/>
</g>
<g style="mix-blend-mode:multiply" opacity="0.19">
<path d="M80.23 170.94L78.52 298.54L159.91 347.33L217.59 258.25L222.75 218.12L143.26 194.48L80.23 170.94Z" fill="#C49A6C"/>
</g>
<g style="mix-blend-mode:multiply" opacity="0.2">
<path d="M80.4399 172.24L78.8099 298.72L159.55 347.1L216.34 258.48L220.75 219.37L142.71 196.04L80.4399 172.24Z" fill="#C49A6C"/>
</g>
<g style="mix-blend-mode:multiply" opacity="0.21">
<path d="M80.65 173.54L79.09 298.9L159.2 346.86L215.08 258.71L218.75 220.62L142.15 197.6L80.65 173.54Z" fill="#C49A6C"/>
</g>
<g style="mix-blend-mode:multiply" opacity="0.22">
<path d="M80.86 174.84L79.37 299.08L158.84 346.62L213.83 258.94L216.75 221.86L141.6 199.16L80.86 174.84Z" fill="#C49A6C"/>
</g>
<g style="mix-blend-mode:multiply" opacity="0.23">
<path d="M81.07 176.14L79.66 299.25L158.49 346.39L212.57 259.17L214.75 223.11L141.05 200.73L81.07 176.14Z" fill="#C49A6C"/>
</g>
<g style="mix-blend-mode:multiply" opacity="0.24">
<path d="M81.2799 177.44L79.9399 299.43L158.13 346.15L211.32 259.4L212.75 224.35L140.49 202.29L81.2799 177.44Z" fill="#C49A6C"/>
</g>
<g style="mix-blend-mode:multiply" opacity="0.25">
<path d="M81.49 178.74L80.23 299.61L157.78 345.92L210.07 259.63L210.75 225.6L139.94 203.85L81.49 178.74Z" fill="#C49A6C"/>
</g>
<g style="mix-blend-mode:multiply" opacity="0.25">
<path d="M81.7 180.04L80.51 299.79L157.42 345.68L208.81 259.86L208.75 226.84L139.39 205.41L81.7 180.04Z" fill="#C49A6C"/>
</g>
<g style="mix-blend-mode:multiply" opacity="0.26">
<path d="M81.91 181.34L80.8 299.97L157.07 345.44L207.56 260.09L206.75 228.09L138.83 206.97L81.91 181.34Z" fill="#C49A6C"/>
</g>
<g style="mix-blend-mode:multiply" opacity="0.27">
<path d="M82.12 182.64L81.08 300.15L156.72 345.21L206.3 260.32L204.75 229.33L138.28 208.53L82.12 182.64Z" fill="#C49A6C"/>
</g>
<g style="mix-blend-mode:multiply" opacity="0.28">
<path d="M82.33 183.94L81.36 300.33L156.36 344.97L205.05 260.55L202.75 230.58L137.73 210.09L82.33 183.94Z" fill="#C49A6C"/>
</g>
<g style="mix-blend-mode:multiply" opacity="0.29">
<path d="M82.54 185.24L81.65 300.51L156.01 344.73L203.79 260.78L200.76 231.82L137.17 211.65L82.54 185.24Z" fill="#C49A6C"/>
</g>
<g style="mix-blend-mode:multiply" opacity="0.3">
<path d="M82.7499 186.54L81.9299 300.69L155.65 344.5L202.54 261.01L198.76 233.07L136.62 213.21L82.7499 186.54Z" fill="#C49A6C"/>
</g>
<g style="mix-blend-mode:multiply" opacity="0.31">
<path d="M82.96 187.84L82.22 300.87L155.3 344.26L201.29 261.24L196.76 234.32L136.07 214.78L82.96 187.84Z" fill="#C49A6C"/>
</g>
<g style="mix-blend-mode:multiply" opacity="0.32">
<path d="M83.17 189.14L82.5 301.05L154.94 344.02L200.03 261.46L194.76 235.56L135.51 216.34L83.17 189.14Z" fill="#C49A6C"/>
</g>
<g style="mix-blend-mode:multiply" opacity="0.33">
<path d="M83.38 190.44L82.79 301.23L154.59 343.79L198.78 261.69L192.76 236.81L134.96 217.9L83.38 190.44Z" fill="#C49A6C"/>
</g>
<g style="mix-blend-mode:multiply" opacity="0.34">
<path d="M83.5899 191.74L83.0699 301.41L154.23 343.55L197.52 261.92L190.76 238.05L134.41 219.46L83.5899 191.74Z" fill="#C49A6C"/>
</g>
<g style="mix-blend-mode:multiply" opacity="0.35">
<path d="M83.8 193.04L83.36 301.59L153.88 343.32L196.27 262.15L188.76 239.3L133.85 221.02L83.8 193.04Z" fill="#C49A6C"/>
</g>
<g style="mix-blend-mode:multiply" opacity="0.36">
<path d="M84.01 194.34L83.64 301.77L153.52 343.08L195.01 262.38L186.76 240.54L133.3 222.58L84.01 194.34Z" fill="#C49A6C"/>
</g>
<g style="mix-blend-mode:multiply" opacity="0.37">
<path d="M84.2199 195.64L83.9199 301.95L153.17 342.84L193.76 262.61L184.76 241.79L132.75 224.14L84.2199 195.64Z" fill="#C49A6C"/>
</g>
<g style="mix-blend-mode:multiply" opacity="0.38">
<path d="M84.43 196.94L84.21 302.13L152.81 342.61L192.5 262.84L182.76 243.03L132.19 225.7L84.43 196.94Z" fill="#C49A6C"/>
</g>
<g style="mix-blend-mode:multiply" opacity="0.39">
<path d="M84.64 198.24L84.49 302.31L152.46 342.37L191.25 263.07L180.77 244.28L131.64 227.26L84.64 198.24Z" fill="#C49A6C"/>
</g>
<g style="mix-blend-mode:multiply" opacity="0.4">
<path d="M84.85 199.54L84.78 302.49L152.11 342.13L190 263.3L178.77 245.53L131.09 228.82L84.85 199.54Z" fill="#C49A6C"/>
</g>
<g style="mix-blend-mode:multiply" opacity="0.41">
<path d="M85.0599 200.84V302.67L151.75 341.9L188.74 263.53L176.77 246.77L130.53 230.38L85.0599 200.84Z" fill="#C49A6C"/>
</g>
<g style="mix-blend-mode:multiply" opacity="0.42">
<path d="M85.27 202.14L85.35 302.84L151.4 341.66L187.49 263.76L174.77 248.02L129.98 231.95L85.27 202.14Z" fill="#C49A6C"/>
</g>
<g style="mix-blend-mode:multiply" opacity="0.43">
<path d="M85.48 203.44L85.63 303.02L151.04 341.43L186.23 263.99L172.77 249.26L129.43 233.51L85.48 203.44Z" fill="#C49A6C"/>
</g>
<g style="mix-blend-mode:multiply" opacity="0.44">
<path d="M85.6899 204.74L85.9199 303.2L150.69 341.19L184.98 264.22L170.77 250.51L128.87 235.07L85.6899 204.74Z" fill="#C49A6C"/>
</g>
<g style="mix-blend-mode:multiply" opacity="0.45">
<path d="M85.9 206.04L86.2 303.38L150.33 340.95L183.72 264.45L168.77 251.75L128.32 236.63L85.9 206.04Z" fill="#C49A6C"/>
</g>
<g style="mix-blend-mode:multiply" opacity="0.46">
<path d="M86.11 207.34L86.49 303.56L149.98 340.72L182.47 264.68L166.77 253L127.77 238.19L86.11 207.34Z" fill="#C49A6C"/>
</g>
<g style="mix-blend-mode:multiply" opacity="0.47">
<path d="M86.3199 208.64L86.7699 303.74L149.62 340.48L181.22 264.91L164.77 254.24L127.21 239.75L86.3199 208.64Z" fill="#C49A6C"/>
</g>
<g style="mix-blend-mode:multiply" opacity="0.48">
<path d="M86.53 209.94L87.06 303.92L149.27 340.24L179.96 265.14L162.78 255.49L126.66 241.31L86.53 209.94Z" fill="#C49A6C"/>
</g>
<g style="mix-blend-mode:multiply" opacity="0.49">
<path d="M86.74 211.24L87.34 304.1L148.91 340.01L178.71 265.37L160.78 256.74L126.11 242.87L86.74 211.24Z" fill="#C49A6C"/>
</g>
<g style="mix-blend-mode:multiply" opacity="0.5">
<path d="M87.62 304.28L148.56 339.77L177.45 265.6L125.55 244.43L86.95 212.54L87.62 304.28Z" fill="#C49A6C"/>
</g>
</g>
<path d="M154.2 194.04V345.52L159.67 342.49V191L154.2 194.04Z" fill="#BCBEC0"/>
<path d="M154.32 194.04V345.52L71.84 297.32V145.97L154.32 194.04Z" fill="#FFD6B5"/>
<path d="M71.84 145.97L154.32 194.04L159.67 191L76.96 142.8L71.84 145.97Z" fill="#F1F2F2"/>
<path style="mix-blend-mode:multiply" opacity="0.1" d="M449.7 239.81V250.47L440.36 245.06V234.42L449.7 239.81Z" fill="url(#paint5_linear)"/>
<path d="M448.44 239.77V249.58L449.53 248.97V239.16L448.44 239.77Z" fill="#E6E7E8"/>
<path d="M448.46 239.77V249.58L439.87 244.6V234.81L448.46 239.77Z" fill="#F1F2F2"/>
<path d="M447.29 240.35L446.43 247.91L447.25 247.46L447.29 240.35Z" fill="#E6E7E8"/>
<path d="M447.31 240.35L446.44 247.91L440.02 244.19L440.88 236.64L447.31 240.35Z" fill="url(#paint6_linear)"/>
<path d="M439.87 234.81L448.46 239.77L449.53 239.16L440.89 234.18L439.87 234.81Z" fill="white"/>
<path d="M436.01 290.61L432.91 292.5V153.42L436.01 151.54V290.61Z" fill="#E6E7E8"/>
<path d="M377.61 257.18L374.58 258.85V119.77L377.61 118.1V257.18Z" fill="#E6E7E8"/>
<path d="M372.42 114.84L369.32 116.73L432.91 153.42L436.01 151.54L372.42 114.84Z" fill="white"/>
<path d="M426.75 156.8V289.34L374.88 259.39V126.85L426.75 156.8Z" fill="#F1F2F2"/>
<path opacity="0.5" d="M420.61 164.17L381.03 141.3V147.97L420.61 170.84V164.17Z" fill="#E6E7E8"/>
<path d="M382.24 142V147.27L381.03 147.97V141.3L382.24 142Z" fill="#E6E7E8"/>
<path d="M382.24 147.27L420.61 169.44V170.84L381.03 147.97L382.24 147.27Z" fill="white"/>
<path opacity="0.5" d="M420.61 179.37L381.03 156.5V163.17L420.61 186.03V179.37Z" fill="#E6E7E8"/>
<path d="M382.24 157.2V162.47L381.03 163.17V156.5L382.24 157.2Z" fill="#E6E7E8"/>
<path d="M382.24 162.47L420.61 184.64V186.03L381.03 163.17L382.24 162.47Z" fill="white"/>
<path opacity="0.5" d="M420.61 194.57L381.03 171.7V178.37L420.61 201.23V194.57Z" fill="#E6E7E8"/>
<path d="M382.24 172.4V177.67L381.03 178.37V171.7L382.24 172.4Z" fill="#E6E7E8"/>
<path d="M382.24 177.67L420.61 199.84V201.23L381.03 178.37L382.24 177.67Z" fill="white"/>
<path opacity="0.5" d="M420.61 209.77L381.03 186.9V193.57L420.61 216.43V209.77Z" fill="#E6E7E8"/>
<path d="M382.24 187.6V192.87L381.03 193.57V186.9L382.24 187.6Z" fill="#E6E7E8"/>
<path d="M382.24 192.87L420.61 215.04V216.43L381.03 193.57L382.24 192.87Z" fill="white"/>
<path opacity="0.5" d="M420.61 224.97L381.03 202.1V208.77L420.61 231.63V224.97Z" fill="#E6E7E8"/>
<path d="M382.24 202.8V208.07L381.03 208.77V202.1L382.24 202.8Z" fill="#E6E7E8"/>
<path d="M382.24 208.07L420.61 230.24V231.63L381.03 208.77L382.24 208.07Z" fill="white"/>
<path opacity="0.5" d="M420.61 240.17L381.03 217.3V223.97L420.61 246.83V240.17Z" fill="#E6E7E8"/>
<path d="M382.24 218V223.27L381.03 223.97V217.3L382.24 218Z" fill="#E6E7E8"/>
<path d="M382.24 223.27L420.61 245.44V246.83L381.03 223.97L382.24 223.27Z" fill="white"/>
<path opacity="0.5" d="M420.61 255.37L381.03 232.5V239.17L420.61 262.03V255.37Z" fill="#E6E7E8"/>
<path d="M382.24 233.19V238.47L381.03 239.17V232.5L382.24 233.19Z" fill="#E6E7E8"/>
<path d="M382.24 238.47L420.61 260.64V262.03L381.03 239.17L382.24 238.47Z" fill="white"/>
<path opacity="0.5" d="M420.61 270.56L381.03 247.7V254.37L420.61 277.23V270.56Z" fill="#E6E7E8"/>
<path d="M382.24 248.39V253.67L381.03 254.37V247.7L382.24 248.39Z" fill="#E6E7E8"/>
<path d="M382.24 253.67L420.61 275.84V277.23L381.03 254.37L382.24 253.67Z" fill="white"/>
<path d="M426.74 156.8V289.34L429.5 287.64V155.11L426.74 156.8Z" fill="#E6E7E8"/>
<path d="M429.5 155.11L426.74 156.8L374.88 126.85L377.67 125.15L429.5 155.11Z" fill="white"/>
<path d="M429.5 155.11L426.74 156.8L374.88 126.85L426.52 155.53L429.5 155.11Z" fill="white"/>
<path d="M425.15 217.09V230.79L420.98 228.35V214.66L425.15 217.09Z" fill="#BCBEC0"/>
<path d="M425.15 217.09V230.79L425.78 230.43V216.73L425.15 217.09Z" fill="#A7A9AC"/>
<path d="M425.78 216.73L425.15 217.09L420.98 214.66L421.61 214.29L425.78 216.73Z" fill="#F0F8FF"/>
<path d="M422.13 225.14C422.13 224.63 422.49 224.42 422.94 224.68C423.177 224.833 423.374 225.039 423.517 225.282C423.659 225.525 423.742 225.799 423.76 226.08C423.76 226.49 423.53 226.7 423.21 226.64V228.15L422.68 227.84V226.34C422.352 226.023 422.156 225.595 422.13 225.14Z" fill="#808285"/>
<path d="M423.19 221.15C421.79 221.15 417.86 219.5 416.19 217.88C414.52 216.26 414.55 214.79 414.19 215.38C413.83 215.97 415.27 219.26 417.19 220.59C420.02 222.5 422.19 223.03 423.05 222.97C424.28 222.88 424.13 221.12 423.19 221.15Z" fill="#E6E7E8"/>
<path d="M414.18 215.38C414.26 215.26 414.33 215.23 414.39 215.27C414.39 216.27 415.71 219.03 417.48 220.27C420.3 222.19 422.48 222.72 423.34 222.66C423.524 222.645 423.701 222.579 423.85 222.47C423.785 222.625 423.677 222.759 423.539 222.854C423.401 222.95 423.238 223.004 423.07 223.01C422.24 223.07 420.07 222.54 417.21 220.63C415.26 219.26 413.8 216 414.18 215.38Z" fill="#A7A9AC"/>
<path d="M369.26 116.72V255.79L374.59 258.86V125.9L427.59 156.46V289.43L432.91 292.5V153.42L369.26 116.72Z" fill="#F1F2F2"/>
<g style="mix-blend-mode:multiply" opacity="0.5">
<g style="mix-blend-mode:multiply" opacity="0.09">
<path d="M93.5901 179.29L150.16 211.9L150.85 275.3L141.21 271.47L94.2601 247.43L93.5901 179.29Z" fill="#C49A6C"/>
</g>
<g style="mix-blend-mode:multiply" opacity="0.18">
<path d="M94.65 180.19L149.78 211.98L150.46 272.75L141 270.11L95.32 246.6L94.65 180.19Z" fill="#C49A6C"/>
</g>
<g style="mix-blend-mode:multiply" opacity="0.27">
<path d="M95.7101 181.09L149.41 212.05L150.07 270.19L140.8 268.74L96.3901 245.77L95.7101 181.09Z" fill="#C49A6C"/>
</g>
<g style="mix-blend-mode:multiply" opacity="0.36">
<path d="M96.77 181.99L149.03 212.13L149.68 267.64L140.6 267.37L97.44 244.94L96.77 181.99Z" fill="#C49A6C"/>
</g>
<g style="mix-blend-mode:multiply" opacity="0.45">
<path d="M97.8301 182.89L148.66 212.2L149.29 265.08L140.4 266.01L98.5001 244.12L97.8301 182.89Z" fill="#C49A6C"/>
</g>
<g style="mix-blend-mode:multiply" opacity="0.55">
<path d="M98.89 183.79L148.28 212.27L148.9 262.53L140.2 264.64L99.56 243.29L98.89 183.79Z" fill="#C49A6C"/>
</g>
<g style="mix-blend-mode:multiply" opacity="0.64">
<path d="M99.9501 184.69L147.91 212.35L148.51 259.98L139.99 263.28L100.63 242.46L99.9501 184.69Z" fill="#C49A6C"/>
</g>
<g style="mix-blend-mode:multiply" opacity="0.73">
<path d="M101.01 185.59L147.53 212.42L148.11 257.42L139.79 261.91L101.69 241.64L101.01 185.59Z" fill="#C49A6C"/>
</g>
<g style="mix-blend-mode:multiply" opacity="0.82">
<path d="M102.07 186.5L147.16 212.5L147.72 254.87L139.59 260.55L102.75 240.81L102.07 186.5Z" fill="#C49A6C"/>
</g>
<g style="mix-blend-mode:multiply" opacity="0.91">
<path d="M103.13 187.4L146.78 212.57L147.33 252.31L139.39 259.18L103.81 239.98L103.13 187.4Z" fill="#C49A6C"/>
</g>
<g style="mix-blend-mode:multiply" opacity="0.5">
<path d="M104.19 188.3L146.41 212.64L146.94 249.76L139.19 257.81L104.87 239.16L104.19 188.3Z" fill="#C49A6C"/>
</g>
</g>
<path d="M83.95 240V241.75L107.83 227.99V226.24L83.95 240Z" fill="#808285"/>
<path d="M83.96 240V241.75L80.98 240.08V238.34L83.96 240Z" fill="#939598"/>
<path d="M80.98 238.34L83.96 240L107.83 226.24L104.84 224.57L80.98 238.34Z" fill="#A7A9AC"/>
<path d="M122.59 262.25V264L146.47 250.24V248.49L122.59 262.25Z" fill="#808285"/>
<path d="M122.6 262.25V264L119.62 262.33V260.59L122.6 262.25Z" fill="#939598"/>
<path d="M119.62 260.59L122.6 262.25L146.47 248.49L143.47 246.82L119.62 260.59Z" fill="#A7A9AC"/>
<path d="M131.66 222.93V266.75L148.74 256.63V212.81L131.66 222.93Z" fill="#E6E7E8"/>
<path d="M75.28 190.4L131.68 222.93L148.74 212.81L92.3 180.26L75.28 190.4Z" fill="white"/>
<path d="M75.28 190.4V234.2L131.68 266.75V222.93L75.28 190.4Z" fill="#F1F2F2"/>
<g style="mix-blend-mode:multiply">
<path d="M114.87 213.16L115.36 213.3L132.42 203.18L131.9 203.03L114.87 213.16Z" fill="#F1F2F2"/>
</g>
<g style="mix-blend-mode:multiply">
<path d="M114.87 213.16V256.97L115.36 257.12V213.3L114.87 213.16Z" fill="#F1F2F2"/>
</g>
<path d="M144.83 226.4L135.35 231.86C135.207 231.947 135.088 232.069 135.004 232.214C134.92 232.359 134.874 232.523 134.87 232.69V232.91C134.871 232.979 134.89 233.046 134.925 233.105C134.96 233.163 135.01 233.212 135.07 233.246C135.129 233.279 135.197 233.296 135.266 233.295C135.334 233.294 135.401 233.275 135.46 233.24L144.93 227.79C145.073 227.703 145.192 227.581 145.276 227.436C145.36 227.291 145.406 227.127 145.41 226.96V226.74C145.41 226.672 145.392 226.605 145.358 226.546C145.324 226.488 145.276 226.438 145.217 226.404C145.159 226.37 145.092 226.351 145.024 226.351C144.956 226.35 144.889 226.367 144.83 226.4Z" fill="#A7A9AC"/>
<path d="M145 226.35C145.046 226.414 145.07 226.491 145.07 226.57V226.78C145.066 226.948 145.02 227.111 144.936 227.256C144.852 227.401 144.733 227.523 144.59 227.61L135.11 233.07C135.058 233.099 135 233.116 134.94 233.12C134.995 233.202 135.08 233.261 135.176 233.283C135.273 233.305 135.374 233.29 135.46 233.24L144.93 227.79C145.073 227.703 145.192 227.581 145.276 227.436C145.36 227.291 145.406 227.128 145.41 226.96V226.74C145.41 226.687 145.399 226.635 145.378 226.586C145.358 226.537 145.327 226.494 145.289 226.457C145.25 226.421 145.205 226.392 145.155 226.374C145.106 226.355 145.053 226.347 145 226.35Z" fill="white"/>
<path d="M144.83 228.76L135.35 234.22C135.207 234.307 135.088 234.429 135.004 234.574C134.92 234.719 134.874 234.883 134.87 235.05V235.27C134.869 235.339 134.887 235.408 134.921 235.468C134.955 235.528 135.005 235.579 135.065 235.613C135.125 235.648 135.194 235.666 135.263 235.665C135.332 235.665 135.4 235.646 135.46 235.61L144.93 230.15C145.073 230.063 145.192 229.941 145.276 229.796C145.36 229.651 145.406 229.488 145.41 229.32V229.1C145.41 229.032 145.392 228.965 145.358 228.907C145.324 228.848 145.276 228.799 145.217 228.764C145.159 228.73 145.092 228.711 145.024 228.711C144.956 228.71 144.889 228.727 144.83 228.76Z" fill="#A7A9AC"/>
<path d="M145 228.71C145.044 228.775 145.068 228.851 145.07 228.93V229.14C145.066 229.307 145.02 229.471 144.936 229.616C144.852 229.761 144.733 229.883 144.59 229.97L135.11 235.43C135.054 235.446 134.995 235.446 134.94 235.43C134.992 235.516 135.076 235.578 135.173 235.602C135.271 235.627 135.374 235.611 135.46 235.56L144.93 230.1C145.073 230.013 145.192 229.891 145.276 229.746C145.36 229.601 145.406 229.437 145.41 229.27V229.05C145.397 228.952 145.348 228.862 145.272 228.799C145.196 228.736 145.099 228.704 145 228.71Z" fill="white"/>
<path d="M144.83 231.13L135.35 236.59C135.203 236.672 135.081 236.793 134.996 236.939C134.912 237.085 134.868 237.251 134.87 237.42V237.63C134.869 237.699 134.887 237.768 134.921 237.828C134.955 237.888 135.005 237.938 135.065 237.973C135.125 238.008 135.194 238.026 135.263 238.025C135.332 238.025 135.4 238.006 135.46 237.97L144.93 232.51C145.073 232.423 145.192 232.301 145.276 232.156C145.36 232.011 145.406 231.847 145.41 231.68V231.46C145.411 231.392 145.394 231.324 145.36 231.265C145.326 231.206 145.277 231.156 145.218 231.123C145.159 231.089 145.091 231.072 145.023 231.073C144.955 231.074 144.888 231.094 144.83 231.13Z" fill="#A7A9AC"/>
<path d="M145 231.08C145.044 231.142 145.068 231.215 145.07 231.29V231.51C145.066 231.678 145.02 231.841 144.936 231.986C144.852 232.131 144.733 232.253 144.59 232.34L135.11 237.8C135.054 237.808 134.996 237.808 134.94 237.8C134.995 237.882 135.08 237.941 135.176 237.963C135.273 237.985 135.374 237.97 135.46 237.92L144.93 232.46C145.073 232.373 145.192 232.251 145.276 232.106C145.36 231.961 145.406 231.798 145.41 231.63V231.41C145.397 231.313 145.348 231.224 145.271 231.163C145.195 231.101 145.098 231.072 145 231.08Z" fill="white"/>
<path d="M144.83 233.49L135.35 239C135.203 239.082 135.081 239.203 134.996 239.349C134.912 239.495 134.868 239.661 134.87 239.83V240C134.869 240.069 134.887 240.138 134.921 240.198C134.955 240.258 135.005 240.308 135.065 240.343C135.125 240.378 135.194 240.396 135.263 240.395C135.332 240.395 135.4 240.375 135.46 240.34L144.93 234.88C145.073 234.793 145.192 234.671 145.276 234.526C145.36 234.381 145.406 234.217 145.41 234.05V233.84C145.412 233.771 145.395 233.703 145.362 233.643C145.329 233.583 145.28 233.532 145.222 233.497C145.163 233.461 145.095 233.442 145.027 233.44C144.958 233.439 144.89 233.456 144.83 233.49Z" fill="#A7A9AC"/>
<path d="M145 233.44C145.044 233.501 145.068 233.575 145.07 233.65V233.87C145.066 234.037 145.02 234.201 144.936 234.346C144.852 234.491 144.733 234.613 144.59 234.7L135.11 240.16C135.056 240.184 134.999 240.201 134.94 240.21C134.995 240.292 135.08 240.351 135.176 240.373C135.273 240.395 135.374 240.38 135.46 240.33L144.93 234.87C145.073 234.783 145.192 234.661 145.276 234.516C145.36 234.371 145.406 234.207 145.41 234.04V233.83C145.41 233.777 145.399 233.725 145.378 233.676C145.358 233.627 145.327 233.583 145.289 233.547C145.25 233.51 145.205 233.482 145.155 233.464C145.106 233.445 145.053 233.437 145 233.44Z" fill="white"/>
<path d="M144.83 235.85L135.35 241.31C135.207 241.397 135.088 241.519 135.004 241.664C134.92 241.809 134.874 241.972 134.87 242.14V242.35C134.869 242.419 134.887 242.488 134.921 242.548C134.955 242.608 135.005 242.658 135.065 242.693C135.125 242.728 135.194 242.746 135.263 242.745C135.332 242.745 135.4 242.726 135.46 242.69L144.93 237.23C145.077 237.147 145.199 237.027 145.284 236.881C145.368 236.735 145.412 236.569 145.41 236.4V236.19C145.41 236.122 145.392 236.055 145.358 235.996C145.324 235.937 145.276 235.888 145.217 235.854C145.159 235.82 145.092 235.801 145.024 235.801C144.956 235.8 144.889 235.817 144.83 235.85Z" fill="#A7A9AC"/>
<path d="M145 235.8C145.046 235.864 145.07 235.941 145.07 236.02V236.23C145.066 236.397 145.02 236.561 144.936 236.706C144.852 236.851 144.733 236.973 144.59 237.06L135.11 242.52C135.054 242.532 134.996 242.532 134.94 242.52C134.995 242.602 135.08 242.661 135.176 242.683C135.273 242.705 135.374 242.69 135.46 242.64L144.93 237.18C145.077 237.097 145.199 236.977 145.284 236.831C145.368 236.685 145.412 236.519 145.41 236.35V236.14C145.397 236.042 145.348 235.952 145.272 235.889C145.196 235.826 145.099 235.794 145 235.8Z" fill="white"/>
<path d="M144.83 238.21L135.35 243.67C135.207 243.757 135.088 243.879 135.004 244.024C134.92 244.169 134.874 244.333 134.87 244.5V244.72C134.869 244.789 134.887 244.858 134.921 244.918C134.955 244.978 135.005 245.029 135.065 245.063C135.125 245.098 135.194 245.116 135.263 245.115C135.332 245.115 135.4 245.096 135.46 245.06L144.93 239.6C145.073 239.513 145.192 239.391 145.276 239.246C145.36 239.101 145.406 238.938 145.41 238.77V238.55C145.41 238.482 145.392 238.415 145.358 238.356C145.324 238.298 145.276 238.249 145.217 238.214C145.159 238.18 145.092 238.161 145.024 238.161C144.956 238.16 144.889 238.177 144.83 238.21Z" fill="#A7A9AC"/>
<path d="M145 238.16C145.044 238.225 145.068 238.301 145.07 238.38V238.59C145.066 238.757 145.02 238.921 144.936 239.066C144.852 239.211 144.733 239.333 144.59 239.42L135.11 244.88C135.058 244.909 135 244.926 134.94 244.93C134.995 245.012 135.079 245.071 135.175 245.095C135.271 245.119 135.373 245.106 135.46 245.06L144.93 239.6C145.073 239.513 145.192 239.391 145.276 239.246C145.36 239.101 145.406 238.937 145.41 238.77V238.55C145.41 238.497 145.399 238.445 145.378 238.396C145.358 238.347 145.327 238.303 145.289 238.267C145.25 238.23 145.205 238.202 145.155 238.184C145.106 238.165 145.053 238.157 145 238.16Z" fill="white"/>
<path d="M144.83 240.57L135.35 246C135.207 246.087 135.088 246.209 135.004 246.354C134.92 246.499 134.874 246.663 134.87 246.83V247.05C134.869 247.119 134.887 247.188 134.921 247.248C134.955 247.308 135.005 247.359 135.065 247.393C135.125 247.428 135.194 247.446 135.263 247.445C135.332 247.445 135.4 247.426 135.46 247.39L144.93 241.93C145.073 241.843 145.192 241.721 145.276 241.576C145.36 241.431 145.406 241.268 145.41 241.1V240.88C145.405 240.815 145.384 240.752 145.348 240.697C145.312 240.642 145.263 240.597 145.205 240.566C145.147 240.535 145.083 240.519 145.017 240.52C144.951 240.521 144.887 240.538 144.83 240.57Z" fill="#A7A9AC"/>
<path d="M145 240.52C145.042 240.586 145.067 240.662 145.07 240.74V241C145.066 241.168 145.02 241.331 144.936 241.476C144.852 241.621 144.733 241.743 144.59 241.83L135.11 247.28C135.054 247.296 134.995 247.296 134.94 247.28C134.992 247.366 135.076 247.428 135.173 247.452C135.271 247.477 135.374 247.462 135.46 247.41L144.93 241.95C145.073 241.863 145.192 241.741 145.276 241.596C145.36 241.451 145.406 241.288 145.41 241.12V240.9C145.409 240.848 145.397 240.797 145.376 240.749C145.354 240.702 145.323 240.659 145.285 240.623C145.247 240.588 145.202 240.561 145.153 240.543C145.104 240.525 145.052 240.517 145 240.52Z" fill="white"/>
<path d="M144.83 242.94L135.35 248.4C135.203 248.482 135.081 248.603 134.996 248.749C134.912 248.895 134.868 249.061 134.87 249.23V249.44C134.869 249.509 134.887 249.578 134.921 249.638C134.955 249.698 135.005 249.748 135.065 249.783C135.125 249.818 135.194 249.836 135.263 249.835C135.332 249.835 135.4 249.816 135.46 249.78L144.93 244.32C145.073 244.233 145.192 244.111 145.276 243.966C145.36 243.821 145.406 243.657 145.41 243.49V243.28C145.413 243.211 145.397 243.142 145.364 243.081C145.331 243.021 145.282 242.97 145.222 242.935C145.163 242.9 145.095 242.882 145.026 242.883C144.956 242.884 144.889 242.903 144.83 242.94Z" fill="#A7A9AC"/>
<path d="M145 242.89C145.044 242.952 145.068 243.025 145.07 243.1V243.32C145.066 243.488 145.02 243.651 144.936 243.796C144.852 243.941 144.733 244.063 144.59 244.15L135.11 249.61C135.054 249.618 134.996 249.618 134.94 249.61C134.995 249.692 135.08 249.751 135.176 249.773C135.273 249.795 135.374 249.78 135.46 249.73L144.93 244.27C145.073 244.183 145.192 244.061 145.276 243.916C145.36 243.771 145.406 243.608 145.41 243.44V243.23C145.397 243.132 145.348 243.042 145.272 242.979C145.196 242.916 145.099 242.884 145 242.89Z" fill="white"/>
<path d="M144.83 245.3L135.35 250.76C135.207 250.847 135.088 250.969 135.004 251.114C134.92 251.259 134.874 251.422 134.87 251.59V251.8C134.869 251.869 134.887 251.938 134.921 251.998C134.955 252.058 135.005 252.108 135.065 252.143C135.125 252.178 135.194 252.196 135.263 252.195C135.332 252.195 135.4 252.175 135.46 252.14L144.93 246.68C145.077 246.597 145.199 246.477 145.284 246.331C145.368 246.185 145.412 246.019 145.41 245.85V245.64C145.41 245.572 145.392 245.505 145.358 245.446C145.324 245.387 145.276 245.338 145.217 245.304C145.159 245.27 145.092 245.251 145.024 245.251C144.956 245.25 144.889 245.267 144.83 245.3Z" fill="#A7A9AC"/>
<path d="M145 245.25C145.044 245.312 145.068 245.385 145.07 245.46V245.68C145.066 245.848 145.02 246.011 144.936 246.156C144.852 246.301 144.733 246.423 144.59 246.51L135.11 252C135.058 252.029 135 252.046 134.94 252.05C134.995 252.132 135.08 252.191 135.176 252.213C135.273 252.235 135.374 252.22 135.46 252.17L144.93 246.71C145.077 246.628 145.199 246.507 145.284 246.361C145.368 246.215 145.412 246.049 145.41 245.88V245.67C145.414 245.615 145.407 245.559 145.388 245.507C145.369 245.454 145.339 245.407 145.3 245.367C145.261 245.327 145.215 245.296 145.163 245.276C145.111 245.256 145.055 245.247 145 245.25Z" fill="white"/>
<path d="M144.83 247.66L135.35 253.12C135.207 253.207 135.088 253.329 135.004 253.474C134.92 253.619 134.874 253.783 134.87 253.95V254.17C134.871 254.239 134.89 254.306 134.925 254.365C134.96 254.423 135.01 254.472 135.07 254.506C135.129 254.539 135.197 254.556 135.266 254.555C135.334 254.554 135.401 254.535 135.46 254.5L144.93 249.04C145.077 248.957 145.199 248.837 145.284 248.691C145.368 248.545 145.412 248.379 145.41 248.21V248C145.41 247.932 145.392 247.865 145.358 247.806C145.324 247.748 145.276 247.698 145.217 247.664C145.159 247.63 145.092 247.611 145.024 247.611C144.956 247.61 144.889 247.627 144.83 247.66Z" fill="#A7A9AC"/>
<path d="M145 247.61C145.046 247.674 145.07 247.751 145.07 247.83V248C145.066 248.167 145.02 248.331 144.936 248.476C144.852 248.621 144.733 248.743 144.59 248.83L135.11 254.29C135.054 254.302 134.996 254.302 134.94 254.29C134.995 254.372 135.08 254.43 135.176 254.453C135.273 254.475 135.374 254.46 135.46 254.41L144.93 248.95C145.077 248.867 145.199 248.747 145.284 248.601C145.368 248.455 145.412 248.289 145.41 248.12V248C145.41 247.947 145.399 247.895 145.378 247.846C145.358 247.797 145.327 247.753 145.289 247.717C145.25 247.68 145.205 247.652 145.155 247.634C145.106 247.615 145.053 247.607 145 247.61Z" fill="white"/>
<path d="M144.83 250L135.35 255.46C135.207 255.547 135.088 255.669 135.004 255.814C134.92 255.959 134.874 256.123 134.87 256.29V256.51C134.869 256.579 134.887 256.648 134.921 256.708C134.955 256.769 135.005 256.819 135.065 256.853C135.125 256.888 135.194 256.906 135.263 256.905C135.332 256.905 135.4 256.886 135.46 256.85L144.93 251.39C145.073 251.303 145.192 251.181 145.276 251.036C145.36 250.891 145.406 250.728 145.41 250.56V250.34C145.41 250.272 145.392 250.205 145.358 250.147C145.324 250.088 145.276 250.039 145.217 250.004C145.159 249.97 145.092 249.951 145.024 249.951C144.956 249.95 144.889 249.967 144.83 250Z" fill="#A7A9AC"/>
<path d="M145 250C145.044 250.065 145.068 250.142 145.07 250.22V250.43C145.066 250.597 145.02 250.761 144.936 250.906C144.852 251.051 144.733 251.173 144.59 251.26L135.11 256.72C135.06 256.753 135 256.771 134.94 256.77C134.994 256.854 135.077 256.914 135.174 256.939C135.271 256.963 135.373 256.949 135.46 256.9L144.93 251.44C145.073 251.353 145.192 251.231 145.276 251.086C145.36 250.941 145.406 250.778 145.41 250.61V250.39C145.41 250.337 145.399 250.285 145.378 250.236C145.358 250.187 145.327 250.143 145.289 250.107C145.25 250.07 145.205 250.042 145.155 250.024C145.106 250.005 145.053 249.997 145 250Z" fill="white"/>
<path d="M144.83 252.39L135.35 257.84C135.207 257.927 135.088 258.049 135.004 258.194C134.92 258.339 134.874 258.502 134.87 258.67V258.89C134.869 258.959 134.887 259.028 134.921 259.088C134.955 259.148 135.005 259.198 135.065 259.233C135.125 259.268 135.194 259.286 135.263 259.285C135.332 259.285 135.4 259.266 135.46 259.23L144.93 253.77C145.073 253.683 145.192 253.561 145.276 253.416C145.36 253.271 145.406 253.107 145.41 252.94V252.72C145.411 252.652 145.394 252.584 145.36 252.525C145.327 252.466 145.277 252.416 145.218 252.383C145.159 252.349 145.091 252.332 145.023 252.333C144.955 252.334 144.888 252.354 144.83 252.39Z" fill="#A7A9AC"/>
<path d="M145 252.34C145.044 252.402 145.068 252.475 145.07 252.55V252.77C145.066 252.938 145.02 253.101 144.936 253.246C144.852 253.391 144.733 253.513 144.59 253.6L135.11 259.06C135.056 259.085 134.999 259.101 134.94 259.11C134.995 259.192 135.08 259.251 135.176 259.273C135.273 259.295 135.374 259.28 135.46 259.23L144.93 253.77C145.073 253.683 145.192 253.561 145.276 253.416C145.36 253.271 145.406 253.108 145.41 252.94V252.72C145.41 252.668 145.399 252.616 145.378 252.567C145.357 252.519 145.327 252.476 145.288 252.44C145.25 252.404 145.204 252.377 145.155 252.36C145.105 252.343 145.052 252.336 145 252.34Z" fill="white"/>
<g style="mix-blend-mode:multiply">
<path d="M133.83 263.36C133.612 263.357 133.403 263.269 133.25 263.113C133.096 262.958 133.01 262.748 133.01 262.53V230.91C133.009 230.537 133.107 230.171 133.293 229.848C133.479 229.525 133.747 229.256 134.07 229.07L146.29 222.07C146.413 221.993 146.555 221.951 146.7 221.95C146.809 221.95 146.917 221.971 147.018 222.013C147.118 222.055 147.21 222.116 147.287 222.193C147.364 222.27 147.425 222.362 147.467 222.462C147.509 222.563 147.53 222.671 147.53 222.78V254.4C147.529 254.774 147.429 255.14 147.241 255.463C147.054 255.786 146.784 256.054 146.46 256.24L134.24 263.24C134.115 263.313 133.975 263.355 133.83 263.36ZM146.7 222.43C146.641 222.417 146.579 222.417 146.52 222.43L134.3 229.43C134.045 229.575 133.834 229.784 133.686 230.037C133.539 230.29 133.461 230.577 133.46 230.87V262.49C133.461 262.554 133.478 262.617 133.51 262.673C133.542 262.728 133.588 262.774 133.644 262.807C133.699 262.839 133.762 262.856 133.827 262.857C133.891 262.857 133.954 262.841 134.01 262.81L146.23 255.81C146.485 255.664 146.698 255.453 146.845 255.198C146.993 254.943 147.07 254.654 147.07 254.36V222.8C147.07 222.702 147.031 222.608 146.962 222.538C146.892 222.469 146.798 222.43 146.7 222.43Z" fill="#E6E7E8"/>
</g>
<path d="M133.83 263.36C133.686 263.358 133.546 263.32 133.42 263.25L133.65 262.85C133.704 262.885 133.766 262.903 133.83 262.903C133.894 262.903 133.956 262.885 134.01 262.85L146.23 255.85C146.485 255.704 146.698 255.493 146.845 255.238C146.993 254.983 147.07 254.694 147.07 254.4V222.8C147.071 222.727 147.049 222.655 147.008 222.594C146.967 222.533 146.908 222.486 146.84 222.46L147 222C147.153 222.063 147.284 222.17 147.376 222.307C147.469 222.444 147.519 222.605 147.52 222.77V254.39C147.519 254.764 147.419 255.13 147.231 255.453C147.044 255.776 146.774 256.044 146.45 256.23L134.23 263.23C134.109 263.305 133.972 263.35 133.83 263.36Z" fill="#F1F2F2"/>
<path d="M95.15 205.49C86.52 200.49 79.52 204.49 79.52 214.4C79.52 224.31 86.52 236.4 95.15 241.35C103.78 246.3 110.77 242.35 110.77 232.44C110.77 222.53 103.77 210.47 95.15 205.49ZM95.15 239.36C87.47 234.93 81.26 224.21 81.26 215.36C81.26 206.51 87.47 203.02 95.15 207.44C102.83 211.86 109.03 222.6 109.03 231.44C109.03 240.28 102.82 243.79 95.15 239.36Z" fill="#E6E7E8"/>
<path d="M105.673 242.613C111.738 239.068 111.677 227.679 105.537 217.175C99.3963 206.671 89.5021 201.03 83.4373 204.576C77.3725 208.121 77.4338 219.51 83.5741 230.014C89.7145 240.518 99.6087 246.159 105.673 242.613Z" fill="#414042"/>
<path d="M94.5601 205.66C85.9301 200.66 78.9301 204.66 78.9301 214.57C78.9301 224.48 85.9301 236.57 94.5601 241.57C103.19 246.57 110.18 242.57 110.18 232.66C110.18 222.75 103.19 210.64 94.5601 205.66ZM94.5601 239.53C86.8901 235.1 80.6701 224.37 80.6701 215.53C80.6701 206.69 86.8901 203.18 94.5601 207.61C102.23 212.04 108.45 222.77 108.45 231.61C108.45 240.45 102.23 244 94.5601 239.53Z" fill="#E6E7E8"/>
<path d="M94.56 210.64C88.33 207.04 83.27 209.92 83.27 217.07C83.27 224.22 88.33 232.94 94.56 236.54C100.79 240.14 105.84 237.26 105.84 230.11C105.84 222.96 100.79 214.24 94.56 210.64ZM94.56 234.55C89.29 231.5 85 224.13 85 218.08C85 212.03 89.28 209.59 94.55 212.63C99.82 215.67 104.1 223.05 104.1 229.1C104.1 235.15 99.83 237.59 94.56 234.55Z" fill="#E6E7E8"/>
<path d="M94.5601 215.62C90.7201 213.41 87.5601 215.18 87.5601 219.62C87.6964 222.031 88.4018 224.375 89.6185 226.461C90.8352 228.547 92.5286 230.315 94.5601 231.62C98.3901 233.83 101.5 232.06 101.5 227.62C101.367 225.215 100.67 222.876 99.4639 220.791C98.2582 218.706 96.5782 216.934 94.5601 215.62ZM94.5601 229.57C93.0446 228.586 91.7829 227.258 90.8775 225.694C89.9722 224.13 89.4489 222.374 89.3501 220.57C89.3501 217.27 91.6801 215.94 94.5601 217.57C96.0755 218.554 97.3373 219.882 98.2426 221.446C99.1479 223.01 99.6713 224.766 99.7701 226.57C99.7701 229.9 97.4401 231.23 94.5601 229.57Z" fill="#E6E7E8"/>
<path d="M96.1603 226.34C97.0376 225.827 97.0303 224.182 96.1439 222.666C95.2576 221.15 93.8278 220.336 92.9505 220.849C92.0732 221.362 92.0806 223.007 92.9669 224.523C93.8533 226.039 95.283 226.853 96.1603 226.34Z" fill="#E6E7E8"/>
<path d="M94.88 221.53L94.23 221.16V207.27L94.88 207.64V221.53Z" fill="#E6E7E8"/>
<path d="M94.88 239.91L94.23 239.54V225.65L94.88 226.02V239.91Z" fill="#E6E7E8"/>
<path d="M92.78 222.19V222.93L80.5 215.84V215.1L92.78 222.19Z" fill="#E6E7E8"/>
<path d="M108.62 231.34V232.08L96.34 224.99V224.25L108.62 231.34Z" fill="#E6E7E8"/>
<path d="M93.41 221.07L92.95 221.34L84.39 206.57L84.84 206.31L93.41 221.07Z" fill="#E6E7E8"/>
<path d="M104.73 240.61L104.27 240.87L95.71 226.11L96.17 225.84L104.73 240.61Z" fill="#E6E7E8"/>
<path d="M93.07 223.91L93.53 224.7L84.84 229.66L84.39 228.87L93.07 223.91Z" fill="#E6E7E8"/>
<path d="M104.27 217.53L104.73 218.31L96.05 223.27L95.59 222.48L104.27 217.53Z" fill="#E6E7E8"/>
<path d="M94.22 205.91C85.59 200.91 78.6 204.91 78.6 214.82C78.6 224.73 85.6 236.82 94.22 241.82C102.84 246.82 109.85 242.82 109.85 232.91C109.85 223 102.85 210.89 94.22 205.91ZM94.22 239.78C86.55 235.35 80.33 224.62 80.33 215.78C80.33 206.94 86.55 203.43 94.22 207.86C101.89 212.29 108.11 223.02 108.11 231.86C108.11 240.7 101.9 244.21 94.22 239.78Z" fill="white"/>
<path d="M94.2199 210.89C87.9899 207.29 82.9399 210.17 82.9399 217.33C82.9399 224.49 87.9399 233.19 94.2199 236.79C100.5 240.39 105.51 237.51 105.51 230.36C105.51 223.21 100.46 214.49 94.2199 210.89ZM94.2199 234.8C88.9499 231.75 84.6799 224.38 84.6799 218.33C84.6799 212.28 88.9499 209.84 94.2199 212.88C99.4899 215.92 103.77 223.3 103.77 229.35C103.77 235.4 99.4999 237.84 94.2199 234.8Z" fill="white"/>
<path d="M94.22 215.87C90.39 213.66 87.28 215.43 87.28 219.87C87.4113 222.275 88.1082 224.615 89.3141 226.7C90.52 228.786 92.2008 230.557 94.22 231.87C98.06 234.08 101.22 232.31 101.22 227.87C101.082 225.459 100.376 223.116 99.1595 221.03C97.9429 218.945 96.2504 217.177 94.22 215.87ZM94.22 229.82C92.7064 228.835 91.4466 227.506 90.5431 225.942C89.6395 224.378 89.1177 222.623 89.02 220.82C89.02 217.52 91.35 216.19 94.22 217.82C95.7344 218.805 96.9953 220.134 97.9005 221.697C98.8056 223.261 99.3296 225.016 99.43 226.82C99.43 230.15 97.1 231.48 94.22 229.82Z" fill="white"/>
<path d="M96.48 225.14C96.48 226.57 95.48 227.14 94.22 226.43C93.573 225.999 93.0354 225.423 92.6501 224.748C92.2647 224.072 92.0421 223.316 92 222.54C92 221.11 93 220.54 94.25 221.25C94.8989 221.68 95.4384 222.256 95.8255 222.931C96.2126 223.606 96.4368 224.363 96.48 225.14Z" fill="white"/>
<path d="M94.55 221.78L93.9 221.41V207.52L94.55 207.89V221.78Z" fill="white"/>
<path d="M94.55 240.17L93.9 239.79V225.9L94.55 226.27V240.17Z" fill="white"/>
<path d="M92.44 222.44V223.18L80.16 216.09V215.35L92.44 222.44Z" fill="white"/>
<path d="M108.29 231.59V232.33L96.01 225.24V224.5L108.29 231.59Z" fill="white"/>
<path d="M93.07 221.32L92.61 221.59L84.05 206.82L84.51 206.56L93.07 221.32Z" fill="white"/>
<path d="M104.4 240.86L103.94 241.12L95.38 226.36L95.84 226.1L104.4 240.86Z" fill="white"/>
<path d="M92.73 224.16L93.19 224.96L84.51 229.91L84.05 229.12L92.73 224.16Z" fill="white"/>
<path d="M103.94 217.78L104.4 218.57L95.71 223.52L95.26 222.73L103.94 217.78Z" fill="white"/>
<g style="mix-blend-mode:multiply">
<path d="M128.68 230.34L119.76 225.19C119.385 224.923 119.078 224.57 118.864 224.162C118.65 223.754 118.536 223.301 118.53 222.84V221.84C118.53 220.93 119.08 220.52 119.76 220.91L128.68 226.06C129.055 226.327 129.362 226.679 129.576 227.088C129.79 227.496 129.904 227.949 129.91 228.41V229.41C129.91 230.32 129.36 230.73 128.68 230.34Z" fill="#E6E7E8"/>
</g>
<path d="M128.39 230.34L119.47 225.19C119.095 224.923 118.788 224.57 118.574 224.162C118.36 223.754 118.246 223.301 118.24 222.84V221.84C118.24 220.93 118.79 220.52 119.47 220.91L128.39 226.06C128.765 226.327 129.072 226.679 129.286 227.088C129.5 227.496 129.614 227.949 129.62 228.41V229.41C129.62 230.32 129.07 230.73 128.39 230.34Z" fill="white"/>
<path style="mix-blend-mode:multiply" opacity="0.1" d="M302.56 197.28L319.52 207.05L329.12 201.49L312.14 191.71L302.56 197.28Z" fill="url(#paint7_linear)"/>
<path d="M345.95 310.93V312.43L352.96 308.28V306.78L345.95 310.93Z" fill="#E6E7E8"/>
<path d="M329 301.15L345.96 310.93L352.96 306.78L335.98 297L329 301.15Z" fill="white"/>
<path d="M331.47 301.14L335.99 298.45L340.89 301.3L336.36 303.99L331.47 301.14Z" fill="#A8CFF0"/>
<path d="M345.13 309.06L349.65 306.37L350.59 306.87L346.06 309.56L345.13 309.06Z" fill="#939598"/>
<g style="mix-blend-mode:multiply">
<path d="M335.99 298.8L340.59 301.48L340.89 301.3L335.99 298.45L331.47 301.14L331.77 301.31L335.99 298.8Z" fill="#A8CFF0"/>
</g>
<path d="M329 301.15V302.65L345.96 312.43V310.93L329 301.15Z" fill="#F1F2F2"/>
<path d="M340.12 304.45L339.52 304.1C339.26 303.95 339.29 303.69 339.6 303.51L340.03 303.26C340.186 303.186 340.357 303.148 340.53 303.148C340.703 303.148 340.874 303.186 341.03 303.26L341.62 303.6C341.88 303.75 341.85 304.02 341.55 304.19L341.11 304.44C340.957 304.517 340.788 304.559 340.616 304.56C340.445 304.562 340.275 304.524 340.12 304.45Z" fill="#E6E7E8"/>
<path d="M340.12 304.23L339.52 303.89C339.26 303.74 339.29 303.47 339.6 303.3L340.03 303.05C340.182 302.966 340.351 302.918 340.524 302.909C340.698 302.9 340.871 302.931 341.03 303L341.62 303.35C341.88 303.5 341.85 303.76 341.55 303.94L341.11 304.19C340.958 304.27 340.791 304.315 340.62 304.322C340.448 304.329 340.278 304.297 340.12 304.23Z" fill="#F1F2F2"/>
<path d="M343.76 306.58L343.16 306.24C342.9 306.08 342.93 305.82 343.24 305.65L343.67 305.39C343.826 305.315 343.997 305.275 344.17 305.275C344.343 305.275 344.514 305.315 344.67 305.39L345.27 305.73C345.53 305.89 345.5 306.15 345.19 306.32L344.76 306.58C344.604 306.655 344.433 306.694 344.26 306.694C344.087 306.694 343.916 306.655 343.76 306.58Z" fill="#E6E7E8"/>
<path d="M343.76 306.36L343.16 306.02C342.9 305.87 342.93 305.61 343.24 305.43L343.67 305.18C343.825 305.102 343.996 305.062 344.17 305.062C344.344 305.062 344.515 305.102 344.67 305.18L345.27 305.52C345.53 305.67 345.5 305.93 345.19 306.11L344.76 306.36C344.605 306.437 344.434 306.478 344.26 306.478C344.086 306.478 343.915 306.437 343.76 306.36Z" fill="#F1F2F2"/>
<path d="M340.51 306.39L339.92 306.05C339.66 305.9 339.69 305.63 339.99 305.46L340.43 305.2C340.586 305.125 340.757 305.085 340.93 305.085C341.103 305.085 341.274 305.125 341.43 305.2L342.02 305.54C342.29 305.7 342.25 305.96 341.95 306.13L341.51 306.39C341.354 306.465 341.183 306.504 341.01 306.504C340.837 306.504 340.666 306.465 340.51 306.39Z" fill="#E6E7E8"/>
<path d="M340.51 306.17L339.92 305.83C339.66 305.68 339.69 305.42 339.99 305.24L340.43 304.99C340.585 304.912 340.756 304.872 340.93 304.872C341.104 304.872 341.275 304.912 341.43 304.99L342.02 305.33C342.29 305.48 342.25 305.74 341.95 305.92L341.51 306.17C341.355 306.247 341.184 306.288 341.01 306.288C340.836 306.288 340.665 306.247 340.51 306.17Z" fill="#F1F2F2"/>
<path d="M343.44 304.56L342.85 304.22C342.59 304.07 342.62 303.81 342.92 303.63L343.36 303.38C343.515 303.303 343.686 303.262 343.86 303.262C344.034 303.262 344.205 303.303 344.36 303.38L344.96 303.72C345.22 303.87 345.18 304.13 344.88 304.31L344.45 304.56C344.293 304.638 344.12 304.678 343.945 304.678C343.77 304.678 343.597 304.638 343.44 304.56Z" fill="#E6E7E8"/>
<path d="M343.44 304.35L342.85 304.01C342.59 303.85 342.62 303.59 342.92 303.42L343.36 303.16C343.516 303.085 343.687 303.045 343.86 303.045C344.033 303.045 344.204 303.085 344.36 303.16L344.96 303.5C345.22 303.66 345.18 303.92 344.88 304.09L344.45 304.35C344.292 304.425 344.12 304.464 343.945 304.464C343.77 304.464 343.598 304.425 343.44 304.35Z" fill="#F1F2F2"/>
<path d="M344.78 306.03L343.49 305.78L344.35 305.28L344.78 306.03Z" fill="#939598"/>
<path d="M340.11 303.35L341.4 303.59L340.54 304.09L340.11 303.35Z" fill="#939598"/>
<path d="M340.52 305.86L340.94 305.11L341.81 305.62L340.52 305.86Z" fill="#939598"/>
<path d="M344.34 303.4L343.91 304.15L343.05 303.64L344.34 303.4Z" fill="#939598"/>
<path style="mix-blend-mode:multiply" opacity="0.2" d="M260.18 425.68L53.79 306.16L52.79 306.96L51.79 307.01L26 327.8L28.86 329.44L35.34 324.23L100.46 361.74L94.2 366.74L97.07 368.39L103.26 363.39L168.38 400.9L162.38 405.71L165.24 407.36L171.24 402.54L236.36 440.05L230.59 444.68L233.46 446.33L258.54 426.16L259.12 426.49L260.18 425.68ZM180.67 395L245.79 432.51L241.79 435.73L176.64 398.25L180.67 395ZM181.36 394.45L185.36 391.21L250.48 428.72L246.48 431.94L181.36 394.45ZM112.68 355.86L177.8 393.37L173.8 396.59L108.65 359.1L112.68 355.86ZM113.36 355.31L117.36 352.07L182.48 389.58L178.48 392.8L113.36 355.31ZM118.07 351.52L122.64 347.85L187.73 385.38L183.22 389L118.07 351.52ZM119.78 346.2L115.3 349.8L50.15 312.31L54.69 308.66L119.78 346.2ZM44.78 316.66L109.9 354.17L105.9 357.39L40.72 319.89L44.78 316.66ZM45.46 316.11L49.46 312.87L114.58 350.37L110.58 353.6L45.46 316.11ZM36 323.69L40 320.44L105.15 358L101.15 361.22L36 323.69ZM103.93 362.89L107.93 359.64L173.05 397.15L169.05 400.37L103.93 362.89ZM171.93 402.03L175.93 398.78L241.05 436.29L237.05 439.51L171.93 402.03ZM251.23 428.14L186.08 390.65L190.6 387.02L255.69 424.55L251.23 428.14Z" fill="url(#paint8_linear)"/>
<path d="M469.79 308.85V314.25L473.56 312.16V302.45C472.417 303.083 471.465 304.01 470.802 305.135C470.139 306.261 469.789 307.544 469.79 308.85Z" fill="#C28D60"/>
<path d="M435.88 280.36C434.8 281.026 433.909 281.957 433.291 283.065C432.673 284.173 432.349 285.421 432.35 286.69V292.16L469.87 314.25V308.78C469.87 307.493 470.211 306.228 470.859 305.116C471.508 304.004 472.44 303.084 473.56 302.45L435.88 280.36Z" fill="url(#paint9_linear)"/>
<g style="mix-blend-mode:multiply">
<g style="mix-blend-mode:multiply" opacity="0.09">
<path d="M248.83 88.75C248.93 82.01 239.96 77.24 234.21 80.75L195.16 105.13L189.83 108.46L145.45 136.18L144.7 143.93L144.35 153.04V155.59L153.91 170.94L201.15 143.63L248.39 116.31L248.83 88.75Z" fill="#D1EBFF"/>
</g>
<g style="mix-blend-mode:multiply" opacity="0.18">
<path d="M247.79 88.1001C247.89 82.0401 238.43 78.5901 233.24 81.7301L195 105.58L189.78 108.83L146.32 135.93L145.1 143.24L144.73 152.16L144.83 154.63L154.12 169.7L200.72 142.7L247.33 115.7L247.79 88.1001Z" fill="#D1EBFF"/>
</g>
<g style="mix-blend-mode:multiply" opacity="0.27">
<path d="M246.76 87.4501C246.84 82.0701 236.89 79.9401 232.28 82.7401L194.85 106L189.74 109.18L147.19 135.7L145.5 142.57L145.12 151.3L145.31 153.69L154.31 168.48L200.31 141.71L246.31 114.94L246.76 87.4501Z" fill="#D1EBFF"/>
</g>
<g style="mix-blend-mode:multiply" opacity="0.36">
<path d="M245.72 86.8102C245.79 82.0902 235.35 81.2902 231.32 83.7402L194.69 106.5L189.69 109.61L148.05 135.48L145.9 141.9L145.5 150.43L145.78 152.75L154.52 167.27L199.87 140.76L245.21 114.26L245.72 86.8102Z" fill="#D1EBFF"/>
</g>
<g style="mix-blend-mode:multiply" opacity="0.45">
<path d="M244.68 86.1601C244.74 82.1601 233.81 82.6501 230.36 84.7401L194.53 107L189.65 110L148.92 135.26L146.3 141.26L145.88 149.6L146.26 151.84L154.72 166.08L199.44 139.84L244.15 113.61L244.68 86.1601Z" fill="#D1EBFF"/>
</g>
<g style="mix-blend-mode:multiply" opacity="0.55">
<path d="M243.65 85.51C243.65 82.14 232.27 84 229.4 85.75L194.4 107.42L189.63 110.42L149.78 135L146.71 140.53L146.27 148.69L146.74 150.84L154.92 164.84L199.01 138.84L243.09 112.84L243.65 85.51Z" fill="#D1EBFF"/>
</g>
<g style="mix-blend-mode:multiply" opacity="0.64">
<path d="M242.61 84.8601C242.61 82.1701 230.74 85.3501 228.43 86.7501L194.22 107.89L189.55 110.77L150.65 134.77L147.11 139.85L146.65 147.85L147.22 149.92L155.13 163.61L198.58 137.92L242 112.22L242.61 84.8601Z" fill="#D1EBFF"/>
</g>
<g style="mix-blend-mode:multiply" opacity="0.73">
<path d="M241.57 84.2099C241.57 82.2099 229.2 86.7099 227.47 87.7499L194.06 108.35L189.51 111.16L151.51 134.57L147.51 139.21L147 147L147.67 149L155.3 162.42L198.15 137L241 111.54L241.57 84.2099Z" fill="#D1EBFF"/>
</g>
<g style="mix-blend-mode:multiply" opacity="0.82">
<path d="M240.54 83.57C240.54 82.22 227.66 88.06 226.54 88.76L193.93 108.76L189.49 111.49L152.41 134.3L147.94 138.49L147.44 146.08L148.2 147.99L155.56 161.13L197.72 136L239.91 110.84L240.54 83.57Z" fill="#D1EBFF"/>
</g>
<g style="mix-blend-mode:multiply" opacity="0.91">
<path d="M239.5 82.92C239.5 82.24 226.12 89.41 225.55 89.76L193.75 109.27L189.41 111.93L153.25 134.12L148.31 137.87L147.8 145.26L148.65 147.1L155.73 160L197.29 135.11L238.85 110.22L239.5 82.92Z" fill="#D1EBFF"/>
</g>
<g style="mix-blend-mode:multiply">
<path d="M238.46 82.27L193.59 109.73L148.71 137.2L148.18 144.4L155.93 158.74L196.86 134.13L237.79 109.51L238.46 82.27Z" fill="#D1EBFF"/>
</g>
</g>
<path d="M151.16 161.87C152.125 162.406 153.209 162.692 154.312 162.703C155.416 162.713 156.505 162.448 157.48 161.93L158.09 161.61L153.39 157.22L151.16 161.87Z" fill="url(#paint10_linear)"/>
<path d="M154.62 149V159.79C154.613 160.192 154.503 160.586 154.299 160.933C154.095 161.28 153.805 161.568 153.456 161.77C153.108 161.971 152.713 162.079 152.311 162.082C151.908 162.086 151.512 161.985 151.16 161.79L144.33 157.99V131.56C147.442 133.288 150.036 135.816 151.845 138.882C153.654 141.947 154.612 145.44 154.62 149Z" fill="#F1F2F2"/>
<path d="M234.59 78.9299C237.536 80.7524 239.968 83.2972 241.655 86.3231C243.342 89.3489 244.229 92.7555 244.23 96.2199V107.28C244.227 108.461 243.917 109.62 243.33 110.644C242.742 111.669 241.898 112.522 240.88 113.12L157.4 162C157.097 162.175 156.753 162.267 156.403 162.268C156.053 162.268 155.709 162.177 155.405 162.003C155.101 161.829 154.849 161.578 154.672 161.276C154.496 160.973 154.402 160.63 154.4 160.28V148.85C154.402 145.335 153.471 141.882 151.701 138.844C149.932 135.806 147.388 133.293 144.33 131.56L234.59 78.9299Z" fill="url(#paint11_linear)"/>
<path style="mix-blend-mode:multiply" d="M163.33 150.42C162.919 150.417 162.516 150.306 162.16 150.1C161.805 149.9 161.509 149.609 161.302 149.258C161.095 148.907 160.984 148.508 160.98 148.1V144.96C160.98 141.507 160.065 138.115 158.33 135.129C156.595 132.143 154.1 129.67 151.1 127.96L151.46 127.33C154.57 129.101 157.156 131.662 158.956 134.755C160.756 137.848 161.706 141.362 161.71 144.94V148.08C161.709 148.366 161.784 148.646 161.927 148.894C162.07 149.141 162.276 149.346 162.524 149.488C162.771 149.63 163.052 149.704 163.338 149.703C163.624 149.701 163.904 149.625 164.15 149.48L237.15 106.64C238.115 106.075 238.915 105.267 239.471 104.297C240.027 103.327 240.32 102.228 240.32 101.11V98.37C240.333 94.9631 239.47 91.6101 237.813 88.633C236.156 85.656 233.762 83.1549 230.86 81.37L231.25 80.75C234.249 82.6056 236.72 85.2006 238.427 88.286C240.135 91.3714 241.021 94.8438 241 98.37V101.09C240.999 102.335 240.673 103.559 240.054 104.639C239.434 105.72 238.544 106.62 237.47 107.25L164.47 150.09C164.125 150.297 163.732 150.411 163.33 150.42Z" fill="url(#paint12_linear)"/>
<path d="M239.71 108.4V109C239.713 109.878 239.484 110.742 239.047 111.504C238.61 112.266 237.98 112.899 237.22 113.34L163.7 156.74C163.475 156.872 163.219 156.943 162.958 156.944C162.697 156.945 162.44 156.878 162.213 156.748C161.987 156.618 161.799 156.43 161.668 156.204C161.538 155.978 161.469 155.721 161.47 155.46V154.52L239.71 108.4Z" fill="#5F6371"/>
<g style="mix-blend-mode:multiply">
<path d="M167.61 141.76V143.12L235.51 103.81V102.47L167.61 141.76Z" fill="#E6E7E8"/>
</g>
<g style="mix-blend-mode:multiply">
<path d="M167.61 139.56V140.92L235.51 101.61V100.27L167.61 139.56Z" fill="#E6E7E8"/>
</g>
<g style="mix-blend-mode:multiply">
<path d="M167.61 137.37V138.72L235.51 99.4101V98.0801L167.61 137.37Z" fill="#E6E7E8"/>
</g>
<path d="M288.44 418.63L285.06 420.69V268.79L288.44 266.73V418.63Z" fill="#E6E7E8"/>
<path d="M164.4 347.15L161.09 348.98V197.08L164.4 195.25V347.15Z" fill="#E6E7E8"/>
<path d="M158.74 191.69L155.35 193.75L285.06 268.79L288.44 266.73L158.74 191.69Z" fill="white"/>
<path d="M215.85 376.16L165.89 347.01L167.98 345.91L217.48 374.87L215.85 376.16Z" fill="white"/>
<path d="M165.89 211.93V347.01L167.98 345.91V212.54L165.89 211.93Z" fill="#E6E7E8"/>
<path d="M161.87 205V349.33L219.87 383.12V238.76L161.87 205ZM215.87 376.19L165.87 347.04V211.93L215.87 241.08V376.19Z" fill="#F1F2F2"/>
<path opacity="0.3" d="M216.97 375.49L167 346.34V211.26L216.97 240.41V375.49Z" fill="white"/>
<path d="M219.86 238.76V383.12L222.87 381.27V236.92L219.86 238.76Z" fill="#E6E7E8"/>
<path d="M222.87 236.92L219.86 238.76L161.87 204.97L164.91 203.12L222.87 236.92Z" fill="white"/>
<path d="M274.58 410.35L224.62 381.19L226.71 380.09L276.21 409.06L274.58 410.35Z" fill="white"/>
<path d="M224.62 246.11V381.19L226.71 380.09V246.72L224.62 246.11Z" fill="#E6E7E8"/>
<path d="M220.6 239.15V383.51L278.6 417.31V273L220.6 239.15ZM274.6 410.35L224.6 381.19V246.11L274.6 275.27V410.35Z" fill="#F1F2F2"/>
<path opacity="0.3" d="M275.7 409.68L225.73 380.52V245.44L275.7 274.6V409.68Z" fill="white"/>
<path style="mix-blend-mode:screen" opacity="0.3" d="M275.7 409.68L232.5 249L275.7 274.6V409.68Z" fill="url(#paint13_linear)"/>
<path d="M278.59 272.95V417.31L281.6 415.45V271.11L278.59 272.95Z" fill="#E6E7E8"/>
<path d="M281.6 271.11L278.59 272.95L220.6 239.16L223.64 237.3L281.6 271.11Z" fill="white"/>
<path d="M155.29 193.74V345.64L161.1 349V203.77L279.24 272.1V417.33L285.06 420.69V268.79L155.29 193.74Z" fill="#F1F2F2"/>
<path d="M29.3399 293.63V294.91L27.1899 293.72V292.44L29.3399 293.63Z" fill="#E6E7E8"/>
<path d="M29.29 293.63V294.91L79.2 265.94V264.71L29.29 293.63Z" fill="#BCBEC0"/>
<path d="M79.1999 264.71L29.2899 293.63L27.1899 292.44L77.1899 263.46L79.1999 264.71Z" fill="#F1F2F2"/>
<path d="M29.3399 302.11V303.39L27.1899 302.2V300.92L29.3399 302.11Z" fill="#E6E7E8"/>
<path d="M29.29 302.11V303.39L79.2 274.42V273.19L29.29 302.11Z" fill="#BCBEC0"/>
<path d="M79.1999 273.19L29.2899 302.11L27.1899 300.92L77.1899 271.95L79.1999 273.19Z" fill="#F1F2F2"/>
<path d="M29.3399 310.6V311.88L27.1899 310.68V309.4L29.3399 310.6Z" fill="#E6E7E8"/>
<path d="M29.29 310.6V311.88L79.2 282.9V281.68L29.29 310.6Z" fill="#BCBEC0"/>
<path d="M79.1999 281.68L29.2899 310.6L27.1899 309.4L77.1899 280.43L79.1999 281.68Z" fill="#F1F2F2"/>
<path d="M29.3399 319.08V320.36L27.1899 319.16V317.88L29.3399 319.08Z" fill="#E6E7E8"/>
<path d="M29.29 319.08V320.36L79.2 291.38V290.16L29.29 319.08Z" fill="#BCBEC0"/>
<path d="M79.1999 290.16L29.2899 319.08L27.1899 317.88L77.1899 288.91L79.1999 290.16Z" fill="#F1F2F2"/>
<path d="M27.55 283.28V329.95L30.3701 328.39V281.72L27.55 283.28Z" fill="#BCBEC0"/>
<path d="M27.61 283.28V329.96L24.75 328.29V281.68L27.61 283.28Z" fill="#E6E7E8"/>
<path d="M24.75 281.68L27.61 283.28L30.37 281.72L27.39 280.05L24.75 281.68Z" fill="#F1F2F2"/>
<path d="M94.33 334.14V335.42L96.48 334.23V332.95L94.33 334.14Z" fill="#BCBEC0"/>
<path d="M94.38 334.14V335.42L28.08 296.83V295.6L94.38 334.14Z" fill="#E6E7E8"/>
<path d="M28.08 295.6L94.38 334.14L96.48 332.95L30.09 294.35L28.08 295.6Z" fill="#F1F2F2"/>
<path d="M94.33 342.63V343.91L96.48 342.71V341.43L94.33 342.63Z" fill="#BCBEC0"/>
<path d="M94.38 342.63V343.91L28.08 305.31V304.08L94.38 342.63Z" fill="#E6E7E8"/>
<path d="M28.08 304.08L94.38 342.63L96.48 341.43L30.09 302.84L28.08 304.08Z" fill="#F1F2F2"/>
<path d="M94.33 351.11V352.39L96.48 351.19V349.91L94.33 351.11Z" fill="#BCBEC0"/>
<path d="M94.38 351.11V352.39L28.08 313.79V312.56L94.38 351.11Z" fill="#E6E7E8"/>
<path d="M28.08 312.56L94.38 351.11L96.48 349.91L30.09 311.32L28.08 312.56Z" fill="#F1F2F2"/>
<path d="M94.33 359.59V360.87L96.48 359.68V358.4L94.33 359.59Z" fill="#BCBEC0"/>
<path d="M94.38 359.59V360.87L28.08 322.27V321.05L94.38 359.59Z" fill="#E6E7E8"/>
<path d="M28.08 321.05L94.38 359.59L96.48 358.4L30.09 319.8L28.08 321.05Z" fill="#F1F2F2"/>
<path d="M95.64 322.51V369.19L98.45 367.62V320.95L95.64 322.51Z" fill="#BCBEC0"/>
<path d="M95.7 322.51V369.19L92.83 367.52V320.91L95.7 322.51Z" fill="#E6E7E8"/>
<path d="M92.83 320.91L95.7 322.51L98.45 320.95L95.47 319.28L92.83 320.91Z" fill="#F1F2F2"/>
<path d="M162.41 373.88V375.16L164.56 373.96V372.68L162.41 373.88Z" fill="#BCBEC0"/>
<path d="M162.46 373.88V375.16L96.16 336.56V335.33L162.46 373.88Z" fill="#E6E7E8"/>
<path d="M96.16 335.33L162.46 373.88L164.56 372.68L98.17 334.09L96.16 335.33Z" fill="#F1F2F2"/>
<path d="M162.41 382.36V383.64L164.56 382.44V381.16L162.41 382.36Z" fill="#BCBEC0"/>
<path d="M162.46 382.36V383.64L96.16 345.04V343.81L162.46 382.36Z" fill="#E6E7E8"/>
<path d="M96.16 343.81L162.46 382.36L164.56 381.16L98.17 342.57L96.16 343.81Z" fill="#F1F2F2"/>
<path d="M162.41 390.84V392.12L164.56 390.93V389.65L162.41 390.84Z" fill="#BCBEC0"/>
<path d="M162.46 390.84V392.12L96.16 353.52V352.3L162.46 390.84Z" fill="#E6E7E8"/>
<path d="M96.16 352.3L162.46 390.84L164.56 389.65L98.17 351.05L96.16 352.3Z" fill="#F1F2F2"/>
<path d="M162.41 399.32V400.6L164.56 399.41V398.13L162.41 399.32Z" fill="#BCBEC0"/>
<path d="M162.46 399.32V400.6L96.16 362.01V360.78L162.46 399.32Z" fill="#E6E7E8"/>
<path d="M96.16 360.78L162.46 399.32L164.56 398.13L98.17 359.53L96.16 360.78Z" fill="#F1F2F2"/>
<path d="M163.72 361.74V408.42L166.53 406.85V360.18L163.72 361.74Z" fill="#BCBEC0"/>
<path d="M163.78 361.74V408.42L160.91 406.75V360.14L163.78 361.74Z" fill="#E6E7E8"/>
<path d="M160.91 360.14L163.78 361.74L166.53 360.18L163.55 358.51L160.91 360.14Z" fill="#F1F2F2"/>
<path d="M230.72 413.61V414.89L232.87 413.69V412.41L230.72 413.61Z" fill="#BCBEC0"/>
<path d="M230.76 413.61V414.89L164.46 376.29V375.06L230.76 413.61Z" fill="#E6E7E8"/>
<path d="M164.46 375.06L230.76 413.61L232.87 412.41L166.48 373.82L164.46 375.06Z" fill="#F1F2F2"/>
<path d="M230.72 422.09V423.37L232.87 422.18V420.9L230.72 422.09Z" fill="#BCBEC0"/>
<path d="M230.76 422.09V423.37L164.46 384.77V383.55L230.76 422.09Z" fill="#E6E7E8"/>
<path d="M164.46 383.55L230.76 422.09L232.87 420.9L166.48 382.3L164.46 383.55Z" fill="#F1F2F2"/>
<path d="M230.72 430.57V431.85L232.87 430.66V429.38L230.72 430.57Z" fill="#BCBEC0"/>
<path d="M230.76 430.57V431.85L164.46 393.26V392.03L230.76 430.57Z" fill="#E6E7E8"/>
<path d="M164.46 392.03L230.76 430.57L232.87 429.38L166.48 390.78L164.46 392.03Z" fill="#F1F2F2"/>
<path d="M230.72 439.06V440.33L232.87 439.14V437.86L230.72 439.06Z" fill="#BCBEC0"/>
<path d="M230.76 439.06V440.33L164.46 401.74V400.51L230.76 439.06Z" fill="#E6E7E8"/>
<path d="M164.46 400.51L230.76 439.06L232.87 437.86L166.48 399.26L164.46 400.51Z" fill="#F1F2F2"/>
<path d="M231.79 400.97V447.64L234.61 446.08V399.41L231.79 400.97Z" fill="#BCBEC0"/>
<path d="M231.86 400.97V447.64L228.99 445.98V399.37L231.86 400.97Z" fill="#E6E7E8"/>
<path d="M228.99 399.37L231.86 400.97L234.61 399.41L231.63 397.74L228.99 399.37Z" fill="#F1F2F2"/>
<path d="M82.44 250.74V252.05L31.36 281.32V279.98L82.44 250.74Z" fill="#BCBEC0"/>
<path d="M232.1 404.81V406.72L18.75 282.34V280.56L232.1 404.81Z" fill="#E6E7E8"/>
<path d="M231.99 404.81V406.72L238.69 402.72V400.82L231.99 404.81Z" fill="#BCBEC0"/>
<path d="M31.28 280.36L82.44 250.74L76.32 247.05L18.75 280.56L232.1 404.81L238.56 400.94L31.28 280.36Z" fill="#F1F2F2"/>
<defs>
<linearGradient id="paint0_linear" x1="92.63" y1="304.84" x2="458.71" y2="304.84" gradientUnits="userSpaceOnUse">
<stop stop-color="#F1B98A"/>
<stop offset="1" stop-color="#E0A069"/>
</linearGradient>
<linearGradient id="paint1_linear" x1="80031.8" y1="33034.7" x2="79405.2" y2="34735.3" gradientUnits="userSpaceOnUse">
<stop stop-color="#F1B98A"/>
<stop offset="1" stop-color="#E0A069"/>
</linearGradient>
<linearGradient id="paint2_linear" x1="172.72" y1="235.66" x2="178.74" y2="245.88" gradientUnits="userSpaceOnUse">
<stop stop-color="#E0A069"/>
<stop offset="1" stop-color="#C28D60"/>
</linearGradient>
<linearGradient id="paint3_linear" x1="9995.37" y1="5440.81" x2="9776.26" y2="5998.81" gradientUnits="userSpaceOnUse">
<stop stop-color="white"/>
<stop offset="1"/>
</linearGradient>
<linearGradient id="paint4_linear" x1="37768.3" y1="12216.5" x2="37651.4" y2="13290" gradientUnits="userSpaceOnUse">
<stop stop-color="white"/>
<stop offset="1"/>
</linearGradient>
<linearGradient id="paint5_linear" x1="4553.33" y1="4125.74" x2="4640.57" y2="4125.74" gradientUnits="userSpaceOnUse">
<stop stop-color="white"/>
<stop offset="1"/>
</linearGradient>
<linearGradient id="paint6_linear" x1="440.39" y1="244" x2="447.6" y2="240.2" gradientUnits="userSpaceOnUse">
<stop stop-color="white"/>
<stop offset="1" stop-color="#F1F2F2"/>
</linearGradient>
<linearGradient id="paint7_linear" x1="8741.47" y1="3192.21" x2="8700.68" y2="3333.45" gradientUnits="userSpaceOnUse">
<stop stop-color="white"/>
<stop offset="1"/>
</linearGradient>
<linearGradient id="paint8_linear" x1="41473.5" y1="44923.7" x2="37148" y2="57375.5" gradientUnits="userSpaceOnUse">
<stop stop-color="white"/>
<stop offset="1"/>
</linearGradient>
<linearGradient id="paint9_linear" x1="19215.5" y1="10173.5" x2="19017.4" y2="10558.3" gradientUnits="userSpaceOnUse">
<stop stop-color="#F1B98A"/>
<stop offset="1" stop-color="#E0A069"/>
</linearGradient>
<linearGradient id="paint10_linear" x1="156.01" y1="158.95" x2="153.62" y2="163.08" gradientUnits="userSpaceOnUse">
<stop stop-color="white"/>
<stop offset="0.23" stop-color="#FCFCFC"/>
<stop offset="0.4" stop-color="#F2F3F3"/>
<stop offset="0.52" stop-color="#E6E7E8"/>
</linearGradient>
<linearGradient id="paint11_linear" x1="148051" y1="8996.93" x2="149217" y2="11415.3" gradientUnits="userSpaceOnUse">
<stop stop-color="white"/>
<stop offset="0.23" stop-color="#FCFCFC"/>
<stop offset="0.4" stop-color="#F2F3F3"/>
<stop offset="0.52" stop-color="#E6E7E8"/>
</linearGradient>
<linearGradient id="paint12_linear" x1="17343.6" y1="7315.28" x2="18144.4" y2="9104.78" gradientUnits="userSpaceOnUse">
<stop stop-color="white"/>
<stop offset="0.23" stop-color="#FCFCFC"/>
<stop offset="0.4" stop-color="#F2F3F3"/>
<stop offset="0.52" stop-color="#E6E7E8"/>
</linearGradient>
<linearGradient id="paint13_linear" x1="11280.5" y1="52979.4" x2="13345.1" y2="52582.8" gradientUnits="userSpaceOnUse">
<stop stop-color="white"/>
<stop offset="1"/>
</linearGradient>
</defs>
</svg>
