<svg width="52" height="52" viewBox="0 0 52 52" fill="none" xmlns="http://www.w3.org/2000/svg">
<path d="M26.5 44C22.8411 44 19.2643 42.915 16.222 40.8822C13.1797 38.8494 10.8085 35.9601 9.40825 32.5796C8.00803 29.1992 7.64165 25.4795 8.35548 21.8908C9.0693 18.3022 10.8313 15.0058 13.4185 12.4185C16.0058 9.83126 19.3022 8.06931 22.8908 7.35548C26.4795 6.64165 30.1992 7.00802 33.5796 8.40824C36.9601 9.80846 39.8494 12.1796 41.8822 15.222C43.915 18.2643 45 21.8411 45 25.5C44.9944 30.4048 43.0436 35.1071 39.5753 38.5753C36.1071 42.0436 31.4048 43.9944 26.5 44ZM26.5 7.88096C23.0153 7.88096 19.6088 8.9143 16.7114 10.8503C13.8139 12.7863 11.5557 15.538 10.2221 18.7575C8.88858 21.9769 8.53968 25.5196 9.21952 28.9373C9.89935 32.3551 11.5774 35.4945 14.0414 37.9585C16.5055 40.4226 19.645 42.1007 23.0627 42.7805C26.4805 43.4603 30.0231 43.1114 33.2425 41.7779C36.462 40.4443 39.2137 38.1861 41.1497 35.2886C43.0857 32.3912 44.119 28.9847 44.119 25.5C44.1138 20.8288 42.2558 16.3503 38.9527 13.0473C35.6497 9.74421 31.1712 7.88623 26.5 7.88096Z" fill="url(#paint0_linear)"/>
<path d="M31.5832 15.9165C32.7977 15.9203 33.9615 16.4264 34.8203 17.3242C35.6791 18.2221 36.1632 19.4387 36.1668 20.7085V30.2915C36.1632 31.5613 35.6791 32.7779 34.8203 33.6758C33.9615 34.5736 32.7977 35.0797 31.5832 35.0835H22.4168C21.2023 35.0797 20.0385 34.5736 19.1797 33.6758C18.3209 32.7779 17.8368 31.5613 17.8332 30.2915V20.7085C17.8368 19.4387 18.3209 18.2221 19.1797 17.3242C20.0385 16.4264 21.2023 15.9203 22.4168 15.9165H31.5832ZM31.5832 14H22.4168C20.7165 14.0052 19.0872 14.7136 17.8849 15.9706C16.6826 17.2276 16.005 18.9309 16 20.7085V30.2915C16.005 32.0691 16.6826 33.7724 17.8849 35.0294C19.0872 36.2864 20.7165 36.9948 22.4168 37H31.5832C33.2835 36.9948 34.9128 36.2864 36.1151 35.0294C37.3174 33.7724 37.995 32.0691 38 30.2915V20.7085C37.995 18.9309 37.3174 17.2276 36.1151 15.9706C34.9128 14.7136 33.2835 14.0052 31.5832 14Z" fill="url(#paint1_linear)"/>
<path d="M32.4968 21C32.0992 20.9991 31.7183 20.8405 31.4376 20.559C31.157 20.2774 30.9996 19.8959 31 19.4984C31.0004 19.1008 31.1587 18.7197 31.4399 18.4388C31.7212 18.1578 32.1024 18 32.5 18C32.8975 18 33.2788 18.1578 33.5601 18.4388C33.8413 18.7197 33.9996 19.1008 34 19.4984C34.0004 19.8959 33.843 20.2774 33.5624 20.559C33.2817 20.8405 32.9008 20.9991 32.5032 21C32.5011 21 32.4989 21 32.4968 21Z" fill="url(#paint2_linear)"/>
<path d="M27 21.1665C27.7912 21.1665 28.5646 21.4206 29.2224 21.8968C29.8802 22.373 30.3929 23.0498 30.6957 23.8416C30.9985 24.6335 31.0777 25.5048 30.9233 26.3454C30.769 27.1861 30.388 27.9582 29.8286 28.5643C29.2691 29.1703 28.5564 29.5831 27.7804 29.7503C27.0045 29.9175 26.2002 29.8316 25.4692 29.5037C24.7383 29.1757 24.1135 28.6202 23.674 27.9076C23.2345 27.1949 22.9998 26.3571 22.9998 25.5C22.9998 24.3507 23.4213 23.2484 24.1715 22.4357C24.9216 21.623 25.9391 21.1665 27 21.1665ZM27 19C25.8133 19 24.6533 19.3812 23.6666 20.0954C22.6799 20.8097 21.9109 21.8248 21.4567 23.0125C21.0026 24.2003 20.8838 25.5072 21.1153 26.7681C21.3468 28.0289 21.9182 29.1871 22.7573 30.0962C23.5965 31.0052 24.6656 31.6243 25.8294 31.8751C26.9933 32.1259 28.1997 31.9972 29.2961 31.5052C30.3925 31.0132 31.3295 30.1801 31.9888 29.1112C32.6481 28.0423 33 26.7856 33 25.5C33 23.7761 32.3679 22.1228 31.2426 20.9038C30.1174 19.6848 28.5913 19 27 19V19Z" fill="url(#paint3_linear)"/>
<defs>
<linearGradient id="paint0_linear" x1="7.5632" y1="13.6654" x2="49.514" y2="18.7512" gradientUnits="userSpaceOnUse">
<stop stop-color="#00A3FF"/>
<stop offset="1" stop-color="#8F00FF"/>
</linearGradient>
<linearGradient id="paint1_linear" x1="15.7403" y1="18.1434" x2="40.7148" y2="21.0394" gradientUnits="userSpaceOnUse">
<stop stop-color="#00A3FF"/>
<stop offset="1" stop-color="#8F00FF"/>
</linearGradient>
<linearGradient id="paint2_linear" x1="30.9646" y1="18.5404" x2="34.366" y2="18.9528" gradientUnits="userSpaceOnUse">
<stop stop-color="#00A3FF"/>
<stop offset="1" stop-color="#8F00FF"/>
</linearGradient>
<linearGradient id="paint3_linear" x1="20.8583" y1="21.3419" x2="34.4932" y2="22.8677" gradientUnits="userSpaceOnUse">
<stop stop-color="#00A3FF"/>
<stop offset="1" stop-color="#8F00FF"/>
</linearGradient>
</defs>
</svg>
