<svg width="1440" height="1613" viewBox="0 0 1440 1613" fill="none" xmlns="http://www.w3.org/2000/svg">
<g style="mix-blend-mode:screen" opacity="0.7">
<path style="mix-blend-mode:screen" opacity="0.7" d="M-126.933 444.402L-126.564 443.901C-95.0466 456.473 -57.5211 459.064 -18.1019 451.361C18.3463 443.885 52.3238 429.932 82.2194 410.164C113.08 389.879 139.507 365.328 165.137 341.641C187.117 321.322 209.844 300.315 235.224 281.964C378.784 178.251 619.86 167.463 784.071 257.421C791.743 261.608 799.469 266.118 806.945 270.465C836.227 287.576 866.59 305.164 902.123 310.314C934.718 315.062 968.651 308.725 1000.29 291.983C1028.63 276.85 1052.45 255.469 1070.11 229.331C1087.73 202.85 1099.22 173.711 1110.35 145.542C1119.77 121.654 1129.52 96.9714 1142.96 73.933C1164.37 37.2503 1196.67 3.46901 1236.4 -23.8159C1277.15 -51.5371 1323.27 -71.8102 1372.83 -83.7867C1423.29 -95.8349 1476.43 -99.5612 1530.18 -94.82C1583.62 -90.0563 1636.09 -76.7109 1681.91 -56.1869L1681.53 -55.6711C1635.86 -76.1083 1583.52 -89.4076 1530.18 -94.1658C1476.54 -98.9016 1423.5 -95.1843 1373.14 -83.1593C1323.68 -71.2196 1277.67 -51.0082 1237 -23.3699C1197.35 3.83674 1165.1 37.5853 1143.73 74.1794C1130.34 97.114 1120.58 121.855 1111.15 145.715C1100.03 173.912 1088.53 203.093 1070.87 229.592C1053.15 255.861 1029.22 277.345 1000.75 292.54C968.968 309.337 934.848 315.676 902.038 310.932C866.278 305.731 835.88 288.047 806.502 270.957C799.078 266.649 791.356 262.025 783.639 257.899C619.724 168.114 379.062 178.881 235.783 282.428C210.426 300.748 187.665 321.801 165.758 342.056C140.174 365.825 113.61 390.274 82.7674 410.643C52.7784 430.473 18.691 444.465 -17.8756 451.952C-57.5383 459.663 -95.2565 457.045 -126.933 444.402Z" fill="url(#paint0_linear)"/>
<path style="mix-blend-mode:screen" opacity="0.7" d="M-128.905 439.944L-128.482 439.154C-98.964 449.021 -62.5562 449.759 -23.182 441.266C12.9594 433.055 47.012 419.556 77.8834 401.201C81.6665 398.944 85.5672 396.564 89.4785 394.098C115.074 377.925 137.611 359.826 159.442 342.329C182.447 323.991 206.175 304.853 232.892 288.74C273.477 264.164 323.56 247.508 367.194 234.459C422.564 217.889 468.188 208.178 510.644 203.766C575.1 197.183 639.739 201.52 697.598 216.311C721.783 222.326 745.59 230.532 768.688 240.818C780.72 246.233 792.573 252.432 805.119 258.982C816.448 264.884 828.084 270.945 839.919 276.448C856.018 284.201 872.865 289.94 890.01 293.511C921.503 299.656 952.956 296.516 983.482 284.181C1012.01 272.566 1036.72 254.578 1055.82 231.526C1073.67 209.583 1086.15 185.118 1098.24 161.469C1108.76 140.552 1119.83 119.078 1134.54 99.0242C1157.11 68.2393 1189.82 40.0778 1229.09 17.5039C1272.72 -7.10367 1320.92 -24.3935 1371.93 -33.7315C1424.18 -43.1639 1478.43 -45.1864 1533.09 -39.7391C1587.77 -34.2483 1641.98 -21.4023 1689.72 -2.37681L1689.18 -1.64894C1641.59 -20.6587 1587.52 -33.5168 1532.92 -38.9008C1478.42 -44.3145 1424.31 -42.2907 1372.21 -32.889C1321.34 -23.5741 1273.27 -6.32916 1229.76 18.2135C1190.54 40.6837 1158.02 68.8003 1135.44 99.4153C1120.71 119.386 1109.78 140.934 1099.19 161.685C1087.06 185.325 1074.61 209.858 1056.7 231.876C1037.49 255.063 1012.64 273.155 983.953 284.836C953.681 297.15 921.017 300.352 889.637 294.196C872.393 290.591 855.449 284.819 839.251 277.031C827.405 271.543 815.751 265.469 804.439 259.58C791.921 253.027 780.075 246.857 768.071 241.439C745.076 231.247 721.383 223.117 697.317 217.159C639.634 202.381 575.147 198.088 510.851 204.672C468.439 209.023 422.934 218.752 367.643 235.287C324.094 248.328 274.09 264.949 233.623 289.473C207.02 305.576 183.296 324.6 160.387 342.986C138.546 360.499 115.957 378.63 90.3683 394.831C86.4458 397.313 82.5449 399.693 78.7448 401.936C47.7444 420.361 13.5409 433.893 -22.7612 442.096C-62.4689 450.646 -99.1371 449.902 -128.905 439.944Z" fill="url(#paint1_linear)"/>
<path style="mix-blend-mode:screen" opacity="0.7" d="M-130.814 435.536L-130.445 434.426C-69.2344 450.438 15.1376 423.122 73.6124 392.294C77.4974 390.257 81.5 388.096 85.519 385.878C110.179 372.219 131.802 357.473 152.699 343.172C178.168 325.796 202.197 309.367 230.521 295.48C260.68 280.682 297.35 270.124 336.192 258.883C346.89 255.793 357.944 252.615 368.968 249.298C377.933 246.584 386.829 243.819 395.529 241.212C434.935 229.17 472.135 217.786 508.81 210.918C569.009 199.689 629.705 198.412 684.367 207.22C707.58 210.609 730.654 216.307 753.213 224.223C770.371 230.36 788.595 239.216 806.239 247.78C813.155 251.148 820.292 254.609 827.32 257.896C847.023 267.079 862.634 272.908 877.751 276.678C908.913 284.303 940.626 283.683 969.433 274.885C996.866 266.702 1021.44 252.633 1041.47 233.637C1059.58 216.012 1073.01 196.078 1086.07 176.743C1097.92 159.173 1110.17 141.015 1126.13 124.072C1150.43 98.3074 1184.58 75.075 1224.83 56.8987C1267.94 37.3553 1318.54 23.3874 1371.18 16.4131C1476.51 2.64452 1595.48 15.43 1697.66 51.5057L1697.07 52.5496C1595.18 16.5635 1476.51 3.79446 1371.46 17.5388C1319.01 24.4403 1268.56 38.3809 1225.57 57.8716C1185.48 75.9776 1151.5 99.1093 1127.3 124.753C1111.39 141.62 1099.16 159.748 1087.34 177.287C1074.31 196.648 1060.82 216.658 1042.6 234.363C1022.41 253.518 997.634 267.701 969.975 275.946C940.893 284.825 908.881 285.457 877.421 277.771C862.157 273.985 846.507 268.174 826.667 258.889C819.628 255.617 812.457 252.13 805.541 248.763C787.993 240.247 769.714 231.467 752.691 225.29C730.24 217.405 707.277 211.725 684.174 208.344C629.739 199.587 569.24 200.848 509.319 212.095C472.739 218.94 435.579 230.307 396.229 242.344C387.473 245.027 378.611 247.723 369.64 250.433C358.616 253.75 347.563 256.928 336.865 260.018C298.113 271.209 261.488 281.777 231.436 296.537C203.208 310.402 179.201 326.801 153.783 344.144C132.857 358.447 111.178 373.198 86.4844 386.902C82.4542 389.136 78.4516 391.297 74.5838 393.346C15.7027 424.294 -69.0643 451.715 -130.814 435.536Z" fill="url(#paint2_linear)"/>
<path style="mix-blend-mode:screen" opacity="0.7" d="M-132.695 431.155L-132.335 429.804C-63.7823 442.053 39.4204 397.411 69.425 383.456C73.5427 381.532 77.6037 379.614 81.6084 377.7C104.594 366.66 124.625 355.25 144.14 344.253C171.703 328.62 197.77 313.797 228.306 302.28C250.26 294.039 275.965 287.888 303.399 281.546C325.291 276.404 347.928 271.112 370.866 264.191C395.519 256.74 418.417 248.475 440.566 240.473C463.689 232.117 485.556 224.21 507.077 218.135C562.675 202.451 619.433 195.565 671.217 198.186C690.699 199.181 711.883 200.74 737.844 207.734C760.767 213.896 785.794 225.71 809.974 237.128L814.87 239.46C831.369 247.574 848.373 254.424 865.708 259.941C895.572 269.018 926.421 270.973 955.478 265.63C981.844 260.778 1006.26 250.61 1027.24 235.747C1045.85 222.245 1059.72 207.164 1074.4 191.204C1087.39 177.177 1100.77 162.62 1117.77 149.044C1143.87 128.33 1179.42 110.04 1220.56 96.1371C1265.09 80.9917 1316.93 70.7245 1370.44 66.4585C1477.15 58.1076 1599.22 72.2046 1705.56 105.303L1704.91 106.606C1598.92 73.649 1477.05 59.492 1370.66 67.8441C1317.27 72.0574 1265.69 82.3307 1221.31 97.4058C1180.38 111.248 1145.03 129.436 1119.03 149.986C1102.08 163.458 1088.74 177.97 1075.85 192.002C1061.11 208.009 1047.19 223.152 1028.46 236.749C1007.25 251.776 982.561 262.054 955.903 266.956C926.539 272.39 895.355 270.444 865.161 261.294C847.714 255.716 830.603 248.794 814.004 240.599L809.114 238.294C784.996 226.899 760.06 215.106 737.336 208.998C711.59 202.07 690.525 200.53 671.139 199.583C619.598 196.955 563.1 203.848 507.728 219.441C486.28 225.524 464.464 233.399 441.341 241.754C419.192 249.757 396.255 258.039 371.545 265.495C348.539 272.436 325.891 277.743 303.954 282.875C276.662 289.276 250.888 295.305 229.12 303.544C198.686 315.067 172.715 329.796 145.298 345.444C125.824 356.495 105.669 367.93 82.6489 378.944C78.6368 380.868 74.5719 382.792 70.4543 384.715C40.1901 398.735 -63.4803 443.545 -132.695 431.155Z" fill="url(#paint3_linear)"/>
<path style="mix-blend-mode:screen" opacity="0.7" d="M-134.514 426.827L-134.348 425.168C-92.9586 428.649 -25.8277 411.641 65.1841 374.588L77.6784 369.516C97.4695 361.436 115.029 353.406 132.014 345.651C162.929 331.525 192.138 318.169 226.099 309.057C243.209 304.469 262.887 301.277 283.766 297.854C311.163 293.375 342.228 288.298 372.701 279.074C406.297 268.915 435.029 256.026 462.783 243.603C477.552 236.989 491.483 230.759 505.297 225.404C556.43 205.416 609.236 192.914 657.991 189.239C675.804 187.895 695.977 186.362 722.448 191.279C747.464 195.84 775.654 208.325 802.434 221.072C819.171 229.393 836.281 236.813 853.676 243.292C882.438 253.706 912.453 258.197 941.665 256.458C967.001 254.756 991.232 248.465 1013.14 237.901C1032.46 228.344 1047.52 217.067 1063.46 205.134C1078.03 193.779 1093.42 183.393 1109.54 174.037C1137.54 158.445 1174.51 145.032 1216.37 135.426C1266.15 124.244 1317.51 117.916 1369.74 116.533C1477.29 113.4 1602.58 128.924 1713.47 159.127L1712.81 160.701C1602.16 130.562 1477.17 115.069 1369.87 118.181C1317.83 119.569 1266.65 125.881 1217.04 137.028C1175.34 146.635 1138.62 159.911 1110.8 175.403C1094.76 184.702 1079.45 195.039 1064.97 206.352C1048.95 218.348 1033.82 229.66 1014.25 239.266C992.05 249.953 967.506 256.319 941.844 258.046C912.276 259.805 881.896 255.258 852.785 244.716C835.311 238.214 818.124 230.768 801.311 222.417C774.672 209.728 746.641 197.385 721.954 192.811C695.806 188.064 675.802 189.582 658.204 190.852C609.658 194.565 557.1 207.018 506.237 226.855C492.542 232.228 478.628 238.471 463.882 245.055C436.146 257.561 407.288 270.404 373.518 280.62C342.881 289.887 311.737 294.999 284.255 299.485C263.455 302.873 243.823 306.075 226.825 310.654C193.061 319.678 163.908 332.958 133.124 347.087C116.059 354.806 98.5567 362.903 78.6645 371.048L66.159 376.135C-25.2021 413.304 -92.7002 430.343 -134.514 426.827Z" fill="url(#paint4_linear)"/>
<path style="mix-blend-mode:screen" opacity="0.7" d="M-136.268 422.483L-136.416 420.568C-91.2539 419.442 -15.1524 392.599 45.9835 371.066L60.9608 365.812C65.2571 364.324 69.5364 362.822 73.7599 361.397C87.3872 356.755 99.9033 352.293 112.02 347.979C150.756 334.166 184.234 322.249 223.902 315.882C237.62 313.699 252.949 312.34 269.267 310.968C301.591 308.18 338.233 305.02 374.515 293.998C414.464 281.838 447.105 263.672 475.744 247.706C485.343 242.361 494.403 237.317 503.376 232.678C549.871 208.702 598.746 190.532 644.593 180.304L645.703 180.053C663.167 176.158 681.206 172.13 706.92 174.827C728.344 177.07 755.489 186.178 789.893 202.685L800.35 207.755C814.517 214.604 827.873 221.083 841.504 226.688C871.672 238.938 900.702 245.886 927.749 247.349C952.222 248.662 976.285 246.166 999.024 239.956C1019.71 234.268 1036.53 226.56 1054.31 218.429C1068.61 211.915 1083.37 205.163 1101.27 198.921C1131.29 188.464 1169.61 180.086 1212.11 174.61C1263.62 168.103 1316 165.36 1368.84 166.402C1476.47 168.39 1604.89 185.275 1721.17 212.741L1720.5 214.585C1604.42 187.173 1476.25 170.308 1368.85 168.329C1316.13 167.27 1263.87 169.98 1212.49 176.435C1170.18 181.894 1132.06 190.255 1102.17 200.558C1084.38 206.763 1069.69 213.495 1055.45 220.004C1037.57 228.158 1020.67 235.873 999.797 241.704C976.744 247.964 952.355 250.455 927.556 249.081C900.141 247.579 870.794 240.559 840.314 228.193C826.549 222.628 813.159 216.124 798.968 209.234L788.501 204.18C754.414 187.815 727.602 178.792 706.519 176.59C681.319 173.948 663.528 177.927 646.312 181.772L645.202 182.023C599.586 192.189 550.936 210.269 504.649 234.142C495.704 238.779 486.656 243.807 477.096 249.135C448.271 265.173 415.574 283.415 375.326 295.657C338.985 306.94 302.094 310.078 269.623 312.851C253.413 314.257 238.089 315.572 224.484 317.746C185.064 324.063 151.721 335.94 113.142 349.682C100.998 353.999 88.4704 358.476 74.8262 363.105C70.6309 364.529 66.3628 366.015 62.0554 367.518L47.0781 372.772C-14.2883 394.438 -90.632 421.358 -136.268 422.483Z" fill="url(#paint5_linear)"/>
<path style="mix-blend-mode:screen" opacity="0.7" d="M-138.552 416.018C-109.246 411.534 -64.3515 396.589 -16.7782 380.734C8.0604 372.383 33.7216 363.848 56.7954 356.995C61.243 355.621 65.5961 354.412 69.8987 353.235L70.2759 353.118C130.72 336.47 170.637 325.479 221.813 322.688C232.772 322.158 244.548 322.026 257.098 321.954C293.602 321.754 334.978 321.503 376.359 308.885C421.388 295.119 454.647 272.163 484.001 251.922C490.06 247.718 495.81 243.754 501.512 239.964C541.992 213.003 585.439 190.072 631.292 171.468L633.363 170.667C649.248 164.317 665.691 157.749 691.493 158.481C719.956 159.296 753.939 173.011 777.478 184.405C784.998 188.038 792.377 191.754 799.518 195.362C809.858 200.58 819.648 205.506 829.564 210.08C860.486 224.326 888.127 233.527 914.13 238.251C937.912 242.518 961.799 243.843 985.201 242.195C1009.07 240.528 1029.15 236.34 1050.52 232.013C1063.72 229.308 1077.37 226.493 1093.22 223.985C1130.97 218.318 1169.32 214.942 1208.05 213.874C1261.16 212.132 1314.64 213.008 1368.29 216.497C1475.39 223.355 1603.55 241.141 1729.15 266.555L1728.51 268.679C1603.1 243.219 1475.01 225.484 1368.14 218.678C1314.6 215.202 1261.23 214.326 1208.24 216.054C1169.68 217.107 1131.5 220.445 1093.92 226.05C1078.1 228.612 1064.49 231.409 1051.3 234.142C1029.87 238.56 1009.62 242.719 985.577 244.443C961.867 246.116 937.663 244.76 913.568 240.41C887.283 235.64 859.364 226.349 828.198 211.968C818.236 207.383 808.43 202.445 798.056 197.202C790.921 193.621 783.553 189.89 776.05 186.27C752.817 175.033 719.281 161.465 691.441 160.738C666.361 160.029 650.233 166.456 634.668 172.694L632.598 173.495C586.946 192.04 543.695 214.897 503.403 241.771C497.712 245.546 491.973 249.495 485.925 253.683C456.397 274.052 422.954 297.152 377.542 311.079C335.677 323.851 293.99 324.058 257.284 324.318C244.773 324.372 232.957 324.451 222.185 325.05C171.306 327.618 131.502 338.599 71.2773 355.199L70.9112 355.302C66.5481 356.441 62.1971 357.683 57.8584 359.028C34.8298 365.892 9.15752 374.442 -15.6751 382.82C-63.3278 398.64 -108.362 413.668 -137.995 418.237L-138.552 416.018Z" fill="url(#paint6_linear)"/>
<path style="mix-blend-mode:screen" opacity="0.7" d="M-140.758 411.561C-126.041 407.183 -106.283 400.051 -83.3171 391.865C-42.122 377.187 9.0963 358.944 52.6243 348.228C57.2356 347.097 61.7518 346.058 66.0661 345.149C130.225 331.417 171.883 327.176 219.751 329.553C227.904 329.957 236.555 330.617 245.72 331.331C284.108 334.28 331.909 337.965 378.193 323.798C427.589 308.671 460.385 280.712 489.345 256.055C492.844 253.064 496.311 250.19 499.637 247.328C536.74 216.36 576.237 188.082 617.868 162.68L619.928 161.428C634.461 152.464 649.591 143.265 675.978 142.077C707.695 140.643 745.372 156.481 765.012 166.051C776.666 171.733 787.882 177.722 798.696 183.505C805.042 186.897 811.308 190.252 817.545 193.469C849.618 210.028 876.738 221.703 900.484 229.179C923.866 236.441 947.654 241.555 971.511 244.449C1004.12 248.573 1030.67 248.701 1064.32 248.801C1071 248.836 1077.98 248.86 1085.36 248.921C1122.92 249.308 1162.83 250.724 1204.02 253.136C1257.65 256.108 1312.72 260.613 1367.62 266.449C1467.13 277.192 1587.97 294.741 1736.98 320.251L1736.4 322.651C1587.43 297.195 1466.69 279.608 1367.28 268.885C1312.38 263.12 1257.46 258.56 1203.82 255.56C1162.7 253.157 1122.86 251.748 1085.41 251.394C1078.06 251.331 1071.09 251.292 1064.38 251.259C1030.57 251.131 1003.92 250.998 971.042 246.839C946.954 243.912 922.936 238.752 899.326 231.431C875.415 223.926 848.092 212.17 815.854 195.511C809.6 192.282 803.334 188.926 796.943 185.525C786.13 179.812 774.992 173.859 763.4 168.129C743.981 158.653 707.075 143.131 676.254 144.531C650.832 145.665 636.135 154.671 621.904 163.367L619.833 164.635C578.328 189.961 538.952 218.158 501.966 249.039C498.6 251.848 495.134 254.723 491.674 257.766C462.496 282.612 429.442 310.778 379.388 326.117C332.474 340.493 284.215 336.749 245.466 333.788C236.346 333.084 227.723 332.422 219.627 332.013C172.126 329.676 130.744 333.864 66.9567 347.522C62.6877 348.441 58.211 349.462 53.639 350.577C10.2913 361.263 -40.8484 379.47 -81.9477 394.126C-104.97 402.317 -124.887 409.378 -139.569 413.852L-140.758 411.561Z" fill="url(#paint7_linear)"/>
<path style="mix-blend-mode:screen" opacity="0.7" d="M-143.013 407.169C-104.205 388.443 -20.2689 353.052 48.5026 339.509C53.1981 338.582 57.7474 337.711 62.2482 337.084C127.874 326.839 170.441 329.285 217.754 336.46C223.03 337.253 228.543 338.152 234.282 339.103C276.364 345.963 328.733 354.515 380.061 338.748C433.414 322.311 466.32 287.79 492.767 260.021L497.778 254.766C529.239 222.025 563.188 189.99 604.529 154.052L606.141 152.654C618.876 141.543 633.291 128.943 660.532 125.827C684.827 123.02 718.392 131.05 752.545 147.802C768.703 155.74 783.559 164.3 797.944 172.603L805.542 176.974C837.548 195.312 863.625 209.701 886.806 220.178C909.987 230.535 933.688 239.413 957.743 246.749C995.313 258.511 1027.75 265.887 1077.38 273.924C1110.48 279.334 1150.36 285.137 1196.52 291.831L1233.01 297.077C1273.46 302.789 1319.3 309.312 1366.97 316.4C1412.84 323.345 1460.07 330.641 1510.02 338.425C1587.95 350.571 1668.61 363.176 1744.82 373.9L1744.29 376.591C1667.94 365.88 1587.33 353.199 1509.42 341.094C1459.47 333.31 1412.29 325.954 1366.34 319.142C1318.74 312.105 1272.87 305.557 1232.44 299.814L1195.95 294.611C1149.86 287.855 1109.93 282.041 1076.76 276.666C1026.88 268.494 994.333 261.128 956.565 249.313C932.355 241.907 908.498 232.967 885.158 222.555C861.835 212.019 835.68 197.595 803.622 179.219L796.024 174.848C781.724 166.538 766.88 158.034 750.869 150.182C717.351 133.714 684.65 125.837 661.218 128.584C635.233 131.606 621.808 143.258 608.854 154.558L607.243 155.956C565.963 191.846 532.109 223.788 500.698 256.497L495.687 261.752C468.966 289.785 435.692 324.733 381.535 341.366C329.233 357.416 276.306 348.798 233.777 341.863C228.083 340.922 222.587 340.036 217.272 339.19C170.376 332.092 128.239 329.709 63.1194 339.839C58.7542 340.497 54.142 341.275 49.537 342.222C-18.937 355.612 -102.491 390.772 -141.131 409.483L-143.013 407.169Z" fill="url(#paint8_linear)"/>
<path style="mix-blend-mode:screen" opacity="0.7" d="M-145.284 402.865C-112.337 379.658 -28.1157 341.699 44.3844 330.825C49.164 330.104 53.8998 329.514 58.4678 329.079C125.077 322.543 170.907 332.088 215.766 343.414L222.021 344.984C265.503 356.032 325.032 371.148 381.844 353.643C438.656 336.139 469.842 295.9 494.746 263.639L495.86 262.129C525.797 223.44 555.129 188.395 580.977 157.468L592.152 144.106C603.69 130.288 616.744 114.63 644.963 109.493C669.907 104.934 705.486 112.459 740.127 129.555C758.434 138.892 776.28 149.214 793.571 160.467C806.17 168.423 817.677 175.893 828.821 183.139C844.603 193.396 859.501 203.064 873.179 211.238C899.005 226.658 923.483 239.039 944.017 249.115C984.553 269.476 1026.58 286.166 1069.51 298.947C1103.07 309.134 1144.42 319.786 1195.89 331.492C1242.45 341.979 1298.18 353.333 1366.29 366.227C1518.32 395.241 1644.72 415.197 1752.6 427.437L1752.13 430.39C1644.2 418.225 1517.73 398.191 1365.53 369.22C1297.38 356.315 1241.57 344.953 1194.95 334.443C1143.38 322.704 1101.96 311.974 1068.24 301.814C1025.08 288.959 982.824 272.185 942.062 251.729C921.449 241.618 896.891 229.201 870.947 213.693C857.201 205.467 842.269 195.774 826.441 185.507C815.314 178.273 803.79 170.791 791.242 162.873C774.078 151.686 756.357 141.433 738.172 132.17C704.403 115.466 669.936 108.113 645.972 112.489C619.204 117.374 607.12 131.861 595.41 145.877L584.234 159.239C558.381 190.139 529.071 225.153 499.185 263.81L498.071 265.32C472.854 298.003 441.531 338.607 383.325 356.5C325.118 374.393 264.916 359.081 220.886 347.811L214.602 346.243C170.133 334.997 124.845 325.505 58.9115 331.983C54.4168 332.425 49.7656 333.008 45.0816 333.707C-26.6299 344.514 -110.003 382.145 -142.739 405.065L-145.284 402.865Z" fill="url(#paint9_linear)"/>
<g opacity="0.7">
<path d="M-147.531 398.664C-116.905 368.587 -32.2475 329.789 40.2927 322.179C45.1734 321.675 50.0103 321.303 54.6966 321.099C121.943 318.127 168.613 334.505 213.736 350.478C253.742 364.558 320.729 388.069 383.616 368.666C444.093 349.992 472.913 303.631 493.965 269.767C508.46 246.544 522.569 224.344 536.224 202.903C551 179.726 564.972 157.82 577.831 136.956L578.343 136.262C588.598 119.608 600.237 100.757 629.516 93.5239C655.377 87.0645 692.139 93.8893 727.761 111.625C746.449 121.183 764.482 132.111 781.685 144.299C802.774 158.858 821.371 173.22 837.794 185.917C845.421 191.807 852.616 197.353 859.623 202.617C884.66 221.261 908.36 237.32 930.322 251.804C972.113 279.37 1010.45 302.259 1061.65 324.255C1097.65 339.795 1141.46 355.471 1191.94 370.943C1242.42 386.414 1300.69 401.499 1365.73 416.33C1463.57 438.762 1611.45 468.223 1760.5 481.187L1760.15 484.411C1610.81 471.302 1462.62 441.769 1364.67 419.332C1299.5 404.47 1240.92 389.157 1190.53 373.82C1140.14 358.482 1095.89 342.575 1059.72 326.979C1008.2 304.84 969.673 281.855 927.678 254.136C905.665 239.615 881.858 223.594 856.792 204.811C849.746 199.564 842.539 193.963 834.877 188.048C818.511 175.416 799.949 161.079 778.956 146.569C761.928 134.505 744.08 123.685 725.587 114.214C691.098 97.0883 655.622 90.3793 630.879 96.5025C603.246 103.326 592.031 121.533 582.108 137.593L581.585 138.302C568.816 159.186 554.743 181.087 539.955 204.279C526.301 225.72 512.168 247.88 497.691 271.115C476.361 305.427 447.163 352.443 385.22 371.567C320.699 391.507 252.711 367.601 212.1 353.304C167.374 337.58 121.127 321.307 54.9737 324.298C50.4 324.492 45.6588 324.842 40.9646 325.415C-28.564 332.695 -114.137 371.233 -144.227 400.727L-147.531 398.664Z" fill="url(#paint10_linear)" style="mix-blend-mode:screen"/>
</g>
<path style="mix-blend-mode:screen" opacity="0.7" d="M-149.764 394.509C-124.08 360.124 -39.0971 318.208 36.2184 313.583C41.1943 313.269 46.1663 313.139 50.9426 313.167C114.708 313.587 158.532 333.391 204.918 354.331L211.823 357.44C260.776 379.473 324.769 402.377 385.514 383.562C444.136 365.408 471.294 319.13 492.155 277.206L500.789 259.894C523.991 213.404 545.921 169.496 564.638 128.405C573.555 108.852 583.654 86.6962 614.066 77.3061C645.579 67.5673 687.093 79.2483 715.468 93.4834C734.551 103.251 752.774 114.791 769.845 127.921C794.821 146.658 815.666 165.847 834.216 182.861C838.256 186.601 842.223 190.24 846.115 193.777C871.893 217.177 896.24 237.479 916.641 254.235C954.582 285.407 997.486 318.498 1053.8 349.351C1092.06 370.338 1137.2 390.777 1188.02 410.135C1246.35 431.875 1305.5 450.579 1365.19 466.162C1462.1 492.006 1610.66 524.861 1768.33 534.756L1768.07 538.254C1609.89 528.261 1460.91 495.301 1363.78 469.406C1303.9 453.776 1244.57 435.017 1186.07 413.213C1135.05 393.773 1089.67 373.213 1051.22 352.129C994.547 321.123 951.457 287.893 913.384 256.506C892.932 239.713 868.551 219.385 842.727 195.904C838.808 192.356 834.855 188.711 830.783 184.978C812.397 168.063 791.523 148.876 766.753 130.291C749.897 117.335 731.909 105.946 713.072 96.3024C685.727 82.6005 645.804 71.2633 615.864 80.5141C587.277 89.3238 577.531 110.714 568.885 129.652C550.134 170.787 528.21 214.723 504.986 261.244L496.437 278.618C475.222 321.237 447.598 368.219 387.336 386.881C324.833 406.257 259.631 382.919 209.728 360.53L202.823 357.421C156.974 336.717 113.659 317.153 51.0992 316.742C46.4636 316.702 41.6212 316.835 36.7578 317.139C-37.2293 321.679 -120.632 362.739 -145.77 396.384L-149.764 394.509Z" fill="url(#paint11_linear)"/>
<path style="mix-blend-mode:screen" opacity="0.7" d="M-151.947 390.4C-128.129 347.158 -40.3832 306.466 32.2018 305.067C37.2787 304.971 42.3516 305.058 47.28 305.341C109.326 308.8 151.632 332.265 196.439 357.124C200.904 359.607 205.368 362.09 209.9 364.554C279.802 402.819 337.865 413.962 387.354 398.591C445.656 380.487 471.311 333.219 490.341 284.825C509.939 235.125 532.53 176.656 551.4 119.945C558.324 98.9921 566.935 72.896 598.573 61.2588C619.905 53.4142 658.536 53.0085 703.006 75.398C722.537 85.3837 740.991 97.5545 757.943 111.63C784.724 133.39 806.318 156.754 825.467 177.433L832.534 185.03C853.082 207.17 874.817 229.308 902.86 256.749C940.274 293.128 986.559 335.552 1045.9 374.455C1086.17 400.862 1132.65 426.058 1184.07 449.305C1243.04 475.508 1303.37 497.792 1364.6 515.989C1503.87 558.145 1646.15 583.156 1776.13 588.27L1775.99 592.023C1645.47 586.829 1502.7 561.803 1362.96 519.505C1301.48 501.251 1240.91 478.888 1181.71 452.586C1130.03 429.22 1083.28 403.877 1042.87 377.243C983.188 338.157 936.733 295.536 899.149 259.03C871.048 231.523 849.307 209.358 828.675 187.154L821.591 179.545C802.533 158.957 781.081 135.722 754.526 114.153C737.854 100.34 719.708 88.3991 700.507 78.6056C673.751 65.1302 631.586 53.4004 600.812 64.7235C571.154 75.6402 562.833 100.808 556.156 121.034C537.19 177.767 514.577 236.266 495.008 286.034C475.631 335.291 449.455 383.479 389.277 402.125C338.081 417.953 278.582 406.722 207.209 367.665L193.715 360.21C149.496 335.695 107.711 312.525 47.0159 309.091C42.2622 308.821 37.3469 308.734 32.4276 308.832C-38.536 310.246 -124.305 349.866 -147.518 392.039L-151.947 390.4Z" fill="url(#paint12_linear)"/>
<path style="mix-blend-mode:screen" opacity="0.7" d="M-154.105 386.343C-134.595 337.85 -47.7256 294.995 28.0704 296.48C33.2593 296.585 38.4502 296.902 43.4684 297.417C104.656 303.71 148.081 332.327 189.978 359.946C195.916 363.853 201.838 367.748 207.752 371.544C254.693 401.821 324.317 433.581 389.027 413.439C449.765 394.542 473.319 341.568 488.365 292.273C509.414 223.315 525.693 164.177 538.135 111.451C543.296 89.3625 550.408 59.1342 583.045 45.2012C616.575 30.9519 661.918 42.8382 690.556 57.3427C710.481 67.5565 729.115 80.3438 745.883 95.3098C773.313 119.231 794.773 146.176 813.716 169.964L818.748 176.278C840.298 203.243 863.234 230.4 888.886 259.229C941.671 318.34 987.588 361.602 1037.78 399.502C1082.68 433.106 1130.27 462.884 1179.91 488.44C1239.53 519.032 1301.14 544.909 1364.07 565.788C1504.27 613.112 1649.46 639.377 1783.87 641.733L1783.89 645.766C1648.75 643.347 1502.93 617.022 1362.03 569.491C1298.88 548.52 1237.07 522.553 1177.25 491.872C1127.33 466.167 1079.48 436.223 1034.32 402.437C983.877 364.347 937.761 320.891 884.771 261.557C859.074 232.648 836.087 205.453 814.463 178.409L809.425 172.068C789.685 147.29 769.279 121.665 742.149 98.0147C725.722 83.3621 707.477 70.8327 687.971 60.8098C660.537 46.9217 617.314 35.4463 585.769 48.8622C555.131 61.8334 548.375 91.0434 543.399 112.382C530.929 165.182 514.624 224.392 493.557 293.408C478.205 343.689 454.065 397.743 391.206 417.302C324.15 438.124 252.73 405.658 204.592 374.793C198.592 370.933 192.637 367.013 186.698 363.106C145.385 335.874 102.645 307.721 42.9096 301.528C38.0319 301.001 33.0097 300.67 28.0633 300.629C-44.4188 299.114 -130.562 341.413 -149.164 387.64L-154.105 386.343Z" fill="url(#paint13_linear)"/>
<path style="mix-blend-mode:screen" opacity="0.7" d="M-156.22 382.303C-141.052 329.331 -53.4231 283.527 24.1702 287.985C29.4711 288.291 34.7575 288.867 39.8936 289.612C100.921 298.72 143.677 331.338 185.005 362.894C191.853 368.131 198.921 373.533 205.943 378.712C244.175 406.938 319.054 450.918 391.035 428.456C453.92 408.833 474.704 352.46 486.709 299.886C503.076 228.492 515.653 164.121 525.18 103.101C528.755 80.1035 534.079 45.4625 567.812 29.2849C589.337 18.949 631.216 15.4135 678.415 39.4433C698.768 49.9086 717.61 63.3349 734.2 79.1943C761.889 105.123 782.07 134.164 801.589 162.246L805.345 167.677C827.418 199.362 850.952 231.063 875.384 261.798C927.577 327.636 976.75 379.377 1030.11 424.624C1075.78 463.127 1124.72 497.633 1176.22 527.648C1236.29 562.435 1299.03 591.848 1363.56 615.473C1505.07 668.136 1653.16 695.655 1791.76 695.276L1791.91 699.564C1652.49 699.958 1503.56 672.285 1361.16 619.472C1296.29 595.715 1233.22 566.141 1172.84 531.168C1121.05 501.004 1071.86 466.317 1025.96 427.603C972.332 382.153 922.971 330.203 870.568 264.114C846.163 233.236 822.589 201.483 800.471 169.717L796.619 164.237C777.253 136.34 757.197 107.486 729.883 81.9056C713.657 66.4059 695.237 53.2781 675.343 43.0349C630.342 20.1281 590.833 23.3053 570.658 32.9895C541.534 46.9526 535.047 74.4306 530.523 103.743C520.986 164.849 508.381 229.292 492.021 300.784C486.883 323.225 478.965 352.25 463.235 377.559C446.069 405.135 423.129 423.095 393.074 432.47C318.238 455.839 241.297 410.767 202.096 381.821C195.063 376.585 187.894 371.249 181.091 365.952C140.345 334.853 98.2355 302.715 38.875 293.845C33.9414 293.112 28.8804 292.587 23.7652 292.278C-51.3019 287.928 -136.189 332.157 -150.878 383.41L-156.22 382.303Z" fill="url(#paint14_linear)"/>
<path style="mix-blend-mode:screen" opacity="0.7" d="M-158.315 378.314C-147.06 319.901 -60.3461 271.958 20.1025 279.661C25.4485 280.149 30.7978 280.909 36.1282 281.937C97.2702 293.733 139.696 330.531 180.569 366.01C188.191 372.615 196.073 379.437 203.873 385.942C298.418 464.584 372.377 449.926 392.849 443.575C458.194 423.159 476.361 360.193 484.897 307.636C496.732 234.572 505.91 163.005 512.038 94.8553C514.873 63.0695 520.35 30.5921 552.389 13.5249C585.468 -4.09667 633.324 4.92106 666.066 21.69C686.843 32.3936 705.885 46.4469 722.268 63.1695C749.671 90.5581 769.137 122.39 787.998 153.119L791.679 159.146C813.559 194.943 837.039 230.392 861.44 264.521C912.866 336.388 965.398 397.026 1021.95 449.836C1068.41 493.153 1118.68 532.372 1172.02 566.914C1232.6 605.881 1296.58 638.899 1362.86 665.402C1506.15 723.091 1657.07 751.937 1799.45 748.663L1799.77 753.216C1656.33 756.539 1504.43 727.523 1360.23 669.39C1293.62 642.757 1229.31 609.574 1168.41 570.409C1114.81 535.712 1064.29 496.311 1017.61 452.787C960.745 399.695 908.02 338.819 856.395 266.687C831.948 232.477 808.406 196.935 786.49 161.042L782.781 155.018C764.08 124.501 744.717 92.9561 717.745 65.9111C701.766 49.598 683.194 35.8867 662.929 25.4402C631.842 9.53003 586.644 0.834186 555.808 17.3049C525.822 33.2658 520.644 64.5901 517.894 95.2974C511.755 163.532 502.612 235.196 490.716 308.307C481.994 362.077 463.256 426.53 395.164 447.816C363.252 457.798 327.7 455.885 289.576 441.988C251.452 428.091 219.551 405.513 199.708 389.09C191.857 382.547 183.958 375.712 176.33 369.08C135.961 334.022 94.1828 297.916 34.8761 286.413C29.8698 285.461 24.708 284.72 19.4645 284.268C-58.1482 276.858 -141.787 322.986 -152.606 379.205L-158.315 378.314Z" fill="url(#paint15_linear)"/>
<path style="mix-blend-mode:screen" opacity="0.7" d="M-160.442 374.407C-156.624 341.486 -132.105 311.085 -93.26 290.879C-54.4147 270.674 -8.56737 264.672 32.4617 274.353C93.92 288.775 136.06 329.616 176.811 369.097C185.02 377.07 193.519 385.328 201.962 393.126C276.908 462.411 350.648 472.343 394.671 458.553C462.787 437.204 477.729 366.593 483.103 315.212C490.963 239.518 496.322 162.545 498.936 86.5112C499.472 71.3232 500.474 53.7568 505.738 37.614C511.624 19.5584 521.855 6.483 537.002 -2.35163C570.873 -22.0883 619.989 -13.4959 653.727 3.85247C715.716 35.7236 745.904 91.2951 775.103 145.036L778.15 150.634C885.181 347.193 1012.75 496.198 1168.12 606.253C1356.91 739.754 1589.79 811.216 1807.11 802.188L1807.75 806.951C1588.71 816.098 1354.08 744.265 1164.09 609.867C1007.95 499.384 879.844 349.792 772.458 152.573L769.406 146.947C740.645 93.7885 710.772 38.8942 650.415 7.84104C618.557 -8.52754 572.337 -16.8753 540.763 1.56568C509.95 19.5471 506.243 53.5298 505.064 86.831C502.428 162.965 497.148 240.044 489.205 315.816C477.795 425.494 431.201 452.421 397.033 463.083C326.827 485.091 247.814 442.903 197.203 396.225C188.709 388.389 180.176 380.106 171.95 372.12C131.895 333.156 90.4235 292.906 30.7833 278.835C-8.39827 269.644 -52.3424 275.454 -89.6893 294.841C-127.036 314.228 -150.6 343.406 -154.256 374.933L-160.442 374.407Z" fill="url(#paint16_linear)"/>
</g>
<defs>
<linearGradient id="paint0_linear" x1="-481760" y1="222794" x2="-455493" y2="399832" gradientUnits="userSpaceOnUse">
<stop stop-color="#7A99ED"/>
<stop offset="1" stop-color="#FEFCFF"/>
</linearGradient>
<linearGradient id="paint1_linear" x1="-460638" y1="254215" x2="-438521" y2="403275" gradientUnits="userSpaceOnUse">
<stop stop-color="#7A99ED"/>
<stop offset="1" stop-color="#FEFCFF"/>
</linearGradient>
<linearGradient id="paint2_linear" x1="-438992" y1="286943" x2="-421168" y2="407074" gradientUnits="userSpaceOnUse">
<stop stop-color="#7A99ED"/>
<stop offset="1" stop-color="#FEFCFF"/>
</linearGradient>
<linearGradient id="paint3_linear" x1="-416986" y1="320503" x2="-403622" y2="410577" gradientUnits="userSpaceOnUse">
<stop stop-color="#7A99ED"/>
<stop offset="1" stop-color="#FEFCFF"/>
</linearGradient>
<linearGradient id="paint4_linear" x1="-399374" y1="337658" x2="-387729" y2="416149" gradientUnits="userSpaceOnUse">
<stop stop-color="#7A99ED"/>
<stop offset="1" stop-color="#FEFCFF"/>
</linearGradient>
<linearGradient id="paint5_linear" x1="-386394" y1="337569" x2="-368186" y2="460295" gradientUnits="userSpaceOnUse">
<stop stop-color="#7A99ED"/>
<stop offset="1" stop-color="#FEFCFF"/>
</linearGradient>
<linearGradient id="paint6_linear" x1="-374223" y1="334008" x2="-348590" y2="506790" gradientUnits="userSpaceOnUse">
<stop stop-color="#7A99ED"/>
<stop offset="1" stop-color="#FEFCFF"/>
</linearGradient>
<linearGradient id="paint7_linear" x1="-362475" y1="328792" x2="-328856" y2="555414" gradientUnits="userSpaceOnUse">
<stop stop-color="#7A99ED"/>
<stop offset="1" stop-color="#FEFCFF"/>
</linearGradient>
<linearGradient id="paint8_linear" x1="-350938" y1="322318" x2="-308827" y2="606199" gradientUnits="userSpaceOnUse">
<stop stop-color="#7A99ED"/>
<stop offset="1" stop-color="#FEFCFF"/>
</linearGradient>
<linearGradient id="paint9_linear" x1="-339582" y1="314726" x2="-288504" y2="659083" gradientUnits="userSpaceOnUse">
<stop stop-color="#7A99ED"/>
<stop offset="1" stop-color="#FEFCFF"/>
</linearGradient>
<linearGradient id="paint10_linear" x1="-328403" y1="306230" x2="-267891" y2="714221" gradientUnits="userSpaceOnUse">
<stop stop-color="#7A99ED"/>
<stop offset="1" stop-color="#FEFCFF"/>
</linearGradient>
<linearGradient id="paint11_linear" x1="-317473" y1="296786" x2="-247083" y2="771422" gradientUnits="userSpaceOnUse">
<stop stop-color="#7A99ED"/>
<stop offset="1" stop-color="#FEFCFF"/>
</linearGradient>
<linearGradient id="paint12_linear" x1="-306611" y1="286574" x2="-225876" y2="831014" gradientUnits="userSpaceOnUse">
<stop stop-color="#7A99ED"/>
<stop offset="1" stop-color="#FEFCFF"/>
</linearGradient>
<linearGradient id="paint13_linear" x1="-295834" y1="275479" x2="-204236" y2="893242" gradientUnits="userSpaceOnUse">
<stop stop-color="#7A99ED"/>
<stop offset="1" stop-color="#FEFCFF"/>
</linearGradient>
<linearGradient id="paint14_linear" x1="-285073" y1="263779" x2="-182145" y2="958042" gradientUnits="userSpaceOnUse">
<stop stop-color="#7A99ED"/>
<stop offset="1" stop-color="#FEFCFF"/>
</linearGradient>
<linearGradient id="paint15_linear" x1="-274458" y1="250993" x2="-159668" y2="1.02536e+06" gradientUnits="userSpaceOnUse">
<stop stop-color="#7A99ED"/>
<stop offset="1" stop-color="#FEFCFF"/>
</linearGradient>
<linearGradient id="paint16_linear" x1="-263877" y1="237458" x2="-136725" y2="1.09536e+06" gradientUnits="userSpaceOnUse">
<stop stop-color="#7A99ED"/>
<stop offset="1" stop-color="#FEFCFF"/>
</linearGradient>
</defs>
</svg>
