<svg width="52" height="52" viewBox="0 0 52 52" fill="none" xmlns="http://www.w3.org/2000/svg">
<path d="M26.5 44C22.8411 44 19.2643 42.915 16.222 40.8822C13.1797 38.8494 10.8085 35.9601 9.40825 32.5796C8.00803 29.1992 7.64165 25.4795 8.35548 21.8908C9.0693 18.3022 10.8313 15.0058 13.4185 12.4185C16.0058 9.83126 19.3022 8.06931 22.8908 7.35548C26.4795 6.64165 30.1992 7.00802 33.5796 8.40824C36.9601 9.80846 39.8494 12.1796 41.8822 15.222C43.915 18.2643 45 21.8411 45 25.5C44.9944 30.4048 43.0436 35.1071 39.5753 38.5753C36.1071 42.0436 31.4048 43.9944 26.5 44ZM26.5 7.88096C23.0153 7.88096 19.6088 8.9143 16.7114 10.8503C13.8139 12.7863 11.5557 15.538 10.2221 18.7575C8.88858 21.9769 8.53968 25.5196 9.21952 28.9373C9.89935 32.3551 11.5774 35.4945 14.0414 37.9585C16.5055 40.4226 19.645 42.1007 23.0627 42.7805C26.4805 43.4603 30.0231 43.1114 33.2425 41.7779C36.462 40.4443 39.2137 38.1861 41.1497 35.2886C43.0857 32.3912 44.119 28.9847 44.119 25.5C44.1138 20.8288 42.2558 16.3503 38.9527 13.0473C35.6497 9.74421 31.1713 7.88623 26.5 7.88096Z" fill="url(#paint0_linear)"/>
<path d="M33.3722 17.0032L18.1219 17.0729C17.9255 17.0639 17.7304 17.0952 17.5477 17.165C17.3651 17.2347 17.1985 17.3415 17.0574 17.4793C16.9164 17.6171 16.8038 17.7831 16.726 17.9679C16.6482 18.1526 16.6068 18.3524 16.6042 18.5558L17.0728 34.4053C17.096 34.8317 17.2757 35.2369 17.5751 35.5376C17.8744 35.8383 18.2706 36.0117 18.6822 36.022L33.9279 35.9523C34.3286 35.9341 34.7022 35.7528 34.9676 35.4476C35.233 35.1424 35.3689 34.7379 35.3458 34.3218L34.8772 18.4723C34.8746 18.2741 34.8328 18.0776 34.7546 17.8948C34.6764 17.7119 34.5633 17.5466 34.4224 17.409C34.2814 17.2714 34.1155 17.1644 33.9349 17.0946C33.7543 17.0249 33.5628 16.9937 33.3722 17.0032ZM22.6918 32.8491L20.074 32.8611L19.8245 24.4207L22.4422 24.4088L22.6918 32.8491ZM21.1859 23.131L21.1672 23.1311C20.7904 23.1303 20.4255 22.9746 20.1523 22.6983C19.879 22.422 19.7198 22.0475 19.7095 21.6569C19.6992 21.2663 19.8386 20.8914 20.0972 20.6145C20.3559 20.3375 20.7126 20.1811 21.0892 20.1793C21.4659 20.1776 21.8317 20.3308 22.1067 20.6053C22.3816 20.8798 22.5432 21.2532 22.556 21.6438C22.5688 22.0344 22.4317 22.4103 22.1749 22.689C21.9181 22.9678 21.5625 23.1267 21.1859 23.131ZM32.259 32.8054L29.6412 32.8174L29.5048 28.2023C29.4721 27.0967 29.0688 26.343 28.1217 26.3473C27.8255 26.3511 27.5402 26.4501 27.3051 26.6307C27.07 26.8113 26.8966 27.0645 26.809 27.3555C26.7456 27.5703 26.7216 27.7965 26.7381 28.0225L26.8803 32.83L24.2625 32.8419L24.013 24.4016L26.6307 24.3896L26.6655 25.5642C26.8912 25.1356 27.2258 24.781 27.6341 24.5376C28.0424 24.2943 28.5093 24.1712 28.9857 24.1813C30.7041 24.1734 32.0388 25.3421 32.1136 27.8744L32.259 32.8054Z" fill="url(#paint1_linear)"/>
<defs>
<linearGradient id="paint0_linear" x1="7.5632" y1="13.6654" x2="49.514" y2="18.7512" gradientUnits="userSpaceOnUse">
<stop stop-color="#00A3FF"/>
<stop offset="1" stop-color="#8F00FF"/>
</linearGradient>
<linearGradient id="paint1_linear" x1="13.0125" y1="23.0037" x2="37.6516" y2="18.001" gradientUnits="userSpaceOnUse">
<stop stop-color="#00A3FF"/>
<stop offset="1" stop-color="#8F00FF"/>
</linearGradient>
</defs>
</svg>
