<svg width="52" height="52" viewBox="0 0 52 52" fill="none" xmlns="http://www.w3.org/2000/svg">
<path d="M26.5 42C23.2366 42 20.0465 41.0323 17.3331 39.2192C14.6197 37.4062 12.5049 34.8293 11.256 31.8143C10.0072 28.7993 9.68039 25.4817 10.317 22.281C10.9537 19.0803 12.5252 16.1403 14.8327 13.8327C17.1403 11.5252 20.0803 9.95371 23.281 9.31705C26.4817 8.68039 29.7993 9.00715 32.8143 10.256C35.8293 11.5048 38.4062 13.6197 40.2192 16.3331C42.0323 19.0465 43 22.2366 43 25.5C42.995 29.8746 41.2551 34.0685 38.1618 37.1618C35.0685 40.2551 30.8746 41.995 26.5 42ZM26.5 9.78573C23.392 9.78573 20.3538 10.7074 17.7696 12.4341C15.1854 14.1608 13.1713 16.615 11.9819 19.4864C10.7925 22.3578 10.4813 25.5174 11.0877 28.5657C11.694 31.614 13.1906 34.414 15.3883 36.6117C17.586 38.8094 20.386 40.306 23.4343 40.9123C26.4826 41.5187 29.6422 41.2075 32.5136 40.0181C35.385 38.8287 37.8392 36.8146 39.566 34.2304C41.2927 31.6462 42.2143 28.608 42.2143 25.5C42.2096 21.3338 40.5525 17.3395 37.6065 14.3935C34.6605 11.4475 30.6662 9.79043 26.5 9.78573Z" fill="url(#paint0_linear)"/>
<path d="M27.0025 15C24.4761 15.0002 22.0267 15.8299 20.0657 17.3499C18.1047 18.8698 16.7517 20.9873 16.2337 23.3467C15.7158 25.7061 16.0645 28.1637 17.2214 30.3068C18.3783 32.4498 20.2728 34.1477 22.5867 35.1153C22.5405 34.3078 22.6049 33.498 22.7783 32.7064C22.9895 31.8534 24.1929 26.9839 24.1929 26.9839C23.9526 26.4612 23.832 25.8956 23.8393 25.3248C23.8393 23.7688 24.7823 22.6065 25.9612 22.6065C26.9632 22.6065 27.4445 23.3236 27.4445 24.1813C27.4445 25.142 26.8011 26.5762 26.472 27.9072C26.4064 28.1538 26.4025 28.4116 26.4606 28.6599C26.5187 28.9082 26.6371 29.1399 26.8063 29.3365C26.9755 29.5331 27.1908 29.689 27.4347 29.7916C27.6787 29.8942 27.9445 29.9406 28.2108 29.9272C30.2934 29.9272 31.6981 27.3729 31.6981 24.3453C31.6981 22.0441 30.0723 20.3241 27.1203 20.3241C23.7852 20.3241 21.7026 22.7002 21.7026 25.3529C21.6699 26.1009 21.9289 26.834 22.4296 27.4104C22.5174 27.4796 22.58 27.5736 22.6082 27.6789C22.6365 27.7842 22.6289 27.8953 22.5867 27.9962C22.5327 28.1884 22.4148 28.6524 22.3608 28.8398C22.3514 28.8965 22.328 28.9503 22.2924 28.9966C22.2569 29.0429 22.2103 29.0804 22.1565 29.1061C22.1027 29.1317 22.0432 29.1448 21.9831 29.1441C21.923 29.1435 21.8639 29.1291 21.8107 29.1023C20.2733 28.5024 19.5562 26.8995 19.5562 25.0905C19.5562 22.1097 22.1938 18.5338 27.42 18.5338C31.6196 18.5338 34.3849 21.4348 34.3849 24.5468C34.3849 28.6664 31.983 31.7409 28.4465 31.7409C27.2579 31.7409 26.1429 31.127 25.7598 30.4333C25.7598 30.4333 25.1212 32.8517 24.9837 33.3203C24.7297 34.1167 24.3575 34.8742 23.8786 35.5699C25.3918 35.9964 26.9835 36.1074 28.5457 35.8953C30.1079 35.6832 31.604 35.1531 32.9326 34.3408C34.2611 33.5286 35.3911 32.4532 36.2458 31.1876C37.1005 29.922 37.66 28.4958 37.8863 27.0058C38.1125 25.5158 38.0003 23.9967 37.5573 22.5517C37.1142 21.1067 36.3507 19.7695 35.3184 18.6308C34.2861 17.4921 33.0092 16.5785 31.5744 15.9521C30.1396 15.3256 28.5804 15.0009 27.0025 15Z" fill="url(#paint1_linear)"/>
<defs>
<linearGradient id="paint0_linear" x1="9.61042" y1="14.9448" x2="47.026" y2="19.4808" gradientUnits="userSpaceOnUse">
<stop stop-color="#00A3FF"/>
<stop offset="1" stop-color="#8F00FF"/>
</linearGradient>
<linearGradient id="paint1_linear" x1="15.7403" y1="18.7831" x2="40.6488" y2="21.9466" gradientUnits="userSpaceOnUse">
<stop stop-color="#00A3FF"/>
<stop offset="1" stop-color="#8F00FF"/>
</linearGradient>
</defs>
</svg>
