<svg width="61" height="61" viewBox="0 0 61 61" fill="none" xmlns="http://www.w3.org/2000/svg">
<path d="M59.5725 29.0464C59.3299 29.0458 59.0911 29.1074 58.879 29.2252C58.6669 29.3429 58.4884 29.513 58.3606 29.7193H57.1104L58.0356 28.6373C58.1007 28.5607 58.15 28.4721 58.1808 28.3765C58.2116 28.2808 58.2232 28.1801 58.215 28.0799C58.2069 27.9798 58.179 27.8823 58.1332 27.7929C58.0873 27.7035 58.0243 27.6241 57.9477 27.5591C57.7938 27.4284 57.5945 27.3639 57.3932 27.3797C57.192 27.3955 57.0051 27.4902 56.8734 27.6432L55.0995 29.7193H53.7385L55.5659 27.5782C55.6699 27.4233 55.7137 27.2357 55.689 27.0507C55.6643 26.8658 55.5729 26.6963 55.4319 26.5741C55.2909 26.4519 55.1101 26.3854 54.9235 26.3873C54.737 26.3891 54.5575 26.4591 54.419 26.5841L51.7428 29.7193H49.7702L52.6757 26.3126C52.7575 26.2404 52.8229 26.1515 52.8675 26.0519C52.9121 25.9523 52.9349 25.8443 52.9343 25.7351C52.9337 25.626 52.9098 25.5182 52.8641 25.4191C52.8184 25.32 52.752 25.2318 52.6694 25.1605C52.5868 25.0892 52.4899 25.0364 52.3851 25.0056C52.2804 24.9749 52.1703 24.9669 52.0623 24.9822C51.9542 24.9976 51.8507 25.0358 51.7587 25.0945C51.6667 25.1532 51.5883 25.2309 51.5288 25.3224L47.7745 29.7193H45.863L49.8466 25.0509C49.927 24.9784 49.9911 24.8895 50.0347 24.7903C50.0782 24.6911 50.1001 24.5838 50.0991 24.4755C50.098 24.3672 50.0739 24.2603 50.0284 24.162C49.9829 24.0637 49.9171 23.9762 49.8353 23.9052C49.7534 23.8343 49.6574 23.7815 49.5536 23.7505C49.4499 23.7194 49.3407 23.7108 49.2333 23.7251C49.126 23.7395 49.0229 23.7765 48.9309 23.8336C48.8389 23.8908 48.7601 23.9669 48.6997 24.0568L43.8673 29.7193H40.9389L46.6047 24.6036C46.722 24.4979 46.8038 24.3584 46.8387 24.2044C46.8736 24.0504 46.8599 23.8893 46.7996 23.7433C46.7391 23.5976 46.6349 23.4741 46.5014 23.3899C46.368 23.3057 46.2117 23.2649 46.0541 23.273L38.4309 23.6554L40.6407 21.4455L47.9809 22.0228H48.0421C48.2449 22.0309 48.4426 21.9581 48.5917 21.8204C48.7409 21.6828 48.8292 21.4915 48.8373 21.2887C48.8454 21.0859 48.7727 20.8882 48.635 20.739C48.4973 20.5899 48.3061 20.5015 48.1033 20.4934L42.017 20.0423L43.3703 18.6888L49.0552 19.1361H49.1202C49.2206 19.1399 49.3208 19.1238 49.415 19.0889C49.5092 19.0539 49.5956 19.0008 49.6693 18.9324C49.743 18.8641 49.8024 18.7819 49.8443 18.6906C49.8862 18.5992 49.9098 18.5005 49.9135 18.4001C49.9173 18.2997 49.9012 18.1995 49.8663 18.1053C49.8313 18.0111 49.7782 17.9247 49.7098 17.851C49.6415 17.7773 49.5593 17.7178 49.468 17.6759C49.3767 17.634 49.278 17.6105 49.1776 17.6068L44.7963 17.2627L46.1879 15.8671L50.2174 16.1845H50.2671C50.4699 16.1926 50.6676 16.1198 50.8168 15.9821C50.9659 15.8444 51.0542 15.6532 51.0623 15.4504C51.0705 15.2476 50.9977 15.0498 50.86 14.9007C50.7224 14.7516 50.5311 14.6632 50.3283 14.6551L47.5986 14.441L48.5621 13.4775L51.2038 13.6878H51.265C51.4677 13.6959 51.6655 13.6231 51.8146 13.4854C51.9637 13.3478 52.0521 13.1565 52.0602 12.9537C52.0683 12.7509 51.9955 12.5532 51.8578 12.404C51.7202 12.2549 51.5289 12.1665 51.3261 12.1584L49.9842 12.0514L50.7259 11.3096C51.0299 11.3799 51.3484 11.3493 51.6334 11.2226C51.9185 11.0958 52.1546 10.8798 52.3061 10.6071C52.4576 10.3344 52.5163 10.0198 52.4733 9.7108C52.4303 9.40181 52.2879 9.11518 52.0678 8.89419C51.8476 8.6732 51.5615 8.52985 51.2527 8.48576C50.9438 8.44167 50.6291 8.49924 50.3559 8.64979C50.0826 8.80034 49.8658 9.03568 49.7381 9.32031C49.6103 9.60493 49.5787 9.92338 49.6478 10.2276L48.8297 11.0458L48.7112 9.54703C48.6954 9.34422 48.5998 9.15597 48.4453 9.02368C48.2908 8.89139 48.0901 8.8259 47.8873 8.84161C47.6845 8.85733 47.4963 8.95297 47.364 9.10749C47.2317 9.26201 47.1662 9.46275 47.1819 9.66556L47.4037 12.4681L46.4441 13.4316L46.2185 10.5449C46.2107 10.4445 46.1833 10.3466 46.1376 10.2568C46.092 10.167 46.0292 10.0871 45.9527 10.0216C45.8762 9.95609 45.7875 9.90629 45.6918 9.87506C45.596 9.84382 45.4951 9.83174 45.3947 9.83953C45.2942 9.84731 45.1963 9.87479 45.1066 9.92041C45.0168 9.96603 44.9369 10.0289 44.8714 10.1054C44.8059 10.1819 44.7561 10.2706 44.7248 10.3663C44.6936 10.4621 44.6815 10.563 44.6893 10.6635L45.0181 14.8692L43.6265 16.2647L43.2671 11.7187C43.2509 11.5159 43.1548 11.3279 42.9999 11.1959C42.8451 11.064 42.6441 10.999 42.4413 11.0152C42.2385 11.0314 42.0505 11.1276 41.9186 11.2824C41.7867 11.4373 41.7217 11.6383 41.7379 11.8411L42.2005 17.6832L40.8471 19.0367L40.3578 12.839C40.342 12.6362 40.2464 12.4479 40.0919 12.3156C39.9374 12.1833 39.7367 12.1178 39.5339 12.1336C39.3311 12.1493 39.1429 12.2449 39.0106 12.3994C38.8783 12.554 38.8128 12.7547 38.8285 12.9575L39.4211 20.459L37.284 22.5963L37.6663 14.9724C37.6745 14.8148 37.6336 14.6586 37.5494 14.5251C37.4653 14.3916 37.3418 14.2874 37.1961 14.2269C37.0501 14.1666 36.8891 14.1529 36.7351 14.1878C36.581 14.2227 36.4416 14.3045 36.3359 14.4219L31.2206 20.0881V16.865L36.9094 12.0131C37.0343 11.8746 37.1043 11.6951 37.1062 11.5085C37.108 11.322 37.0416 11.1411 36.9194 11.0001C36.7972 10.8591 36.6277 10.7677 36.4428 10.743C36.2578 10.7183 36.0703 10.7621 35.9154 10.8661L31.2474 14.8501V12.9384L35.6439 9.18382C35.7354 9.1243 35.8131 9.04589 35.8718 8.95386C35.9304 8.86183 35.9687 8.75829 35.984 8.65023C35.9994 8.54217 35.9914 8.43209 35.9607 8.32737C35.9299 8.22264 35.8771 8.12571 35.8058 8.0431C35.7345 7.96048 35.6463 7.89409 35.5472 7.84839C35.4481 7.80269 35.3403 7.77873 35.2312 7.77814C35.1221 7.77754 35.0141 7.80031 34.9145 7.84493C34.8149 7.88954 34.726 7.95497 34.6538 8.0368L31.2474 10.9426V8.95441L34.3823 6.27803C34.4722 6.21765 34.5483 6.13884 34.6055 6.04684C34.6627 5.95484 34.6997 5.85173 34.714 5.74436C34.7283 5.63698 34.7197 5.52779 34.6886 5.42401C34.6576 5.32023 34.6048 5.22424 34.5339 5.14238C34.463 5.06052 34.3754 4.99466 34.2771 4.94918C34.1788 4.90369 34.072 4.87961 33.9637 4.87854C33.8554 4.87746 33.7481 4.89942 33.6489 4.94295C33.5497 4.98647 33.4609 5.05057 33.3883 5.13101L31.2474 6.95859V5.59747L33.3233 3.82723C33.4483 3.68868 33.5183 3.50922 33.5201 3.32265C33.522 3.13607 33.4556 2.95525 33.3334 2.81424C33.2112 2.67324 33.0417 2.58179 32.8567 2.5571C32.6718 2.53242 32.4842 2.5762 32.3293 2.68021L31.2474 3.60548V2.64963C31.5117 2.48441 31.715 2.23753 31.8265 1.9464C31.9379 1.65526 31.9515 1.33573 31.865 1.03622C31.7786 0.736699 31.5969 0.473521 31.3475 0.286541C31.0981 0.0995614 30.7945 -0.00103507 30.4828 8.03091e-06C30.1711 -0.00103507 29.8675 0.0995614 29.6181 0.286541C29.3687 0.473521 29.187 0.736699 29.1006 1.03622C29.0141 1.33573 29.0277 1.65526 29.1391 1.9464C29.2506 2.23753 29.4538 2.48441 29.7182 2.64963V3.60548L28.6363 2.68021C28.4814 2.5762 28.2938 2.53242 28.1089 2.5571C27.9239 2.58179 27.7544 2.67324 27.6322 2.81424C27.51 2.95525 27.4436 3.13607 27.4454 3.32265C27.4473 3.50922 27.5173 3.68868 27.6423 3.82723L29.7182 5.59747V6.95859L27.5773 5.13101C27.505 5.04918 27.4162 4.98377 27.3166 4.93915C27.217 4.89454 27.109 4.87176 26.9998 4.87235C26.8907 4.87295 26.783 4.89691 26.6838 4.94261C26.5847 4.98831 26.4966 5.0547 26.4252 5.13731C26.3539 5.21993 26.3011 5.31686 26.2704 5.42158C26.2396 5.5263 26.2316 5.6364 26.247 5.74446C26.2623 5.85252 26.3006 5.95604 26.3593 6.04808C26.4179 6.14011 26.4956 6.21852 26.5871 6.27803L29.7182 8.95441V10.9273L26.3157 8.0215C26.1608 7.91749 25.9732 7.8737 25.7883 7.89839C25.6033 7.92308 25.4338 8.01453 25.3116 8.15553C25.1894 8.29653 25.123 8.47735 25.1248 8.66393C25.1267 8.85051 25.1967 9.02997 25.3217 9.16852L29.7182 12.9231V14.8348L25.0349 10.8661C24.9624 10.7857 24.8736 10.7216 24.7744 10.678C24.6752 10.6345 24.5679 10.6126 24.4596 10.6136C24.3513 10.6147 24.2444 10.6388 24.1461 10.6843C24.0478 10.7298 23.9603 10.7956 23.8894 10.8775C23.8184 10.9593 23.7657 11.0553 23.7346 11.1591C23.7036 11.2629 23.6949 11.3721 23.7093 11.4795C23.7236 11.5868 23.7606 11.6899 23.8178 11.7819C23.8749 11.8739 23.951 11.9527 24.0409 12.0131L29.7029 16.8459V20.069L24.5876 14.4028C24.4818 14.2859 24.3425 14.2046 24.1887 14.17C24.0349 14.1354 23.8742 14.1492 23.7286 14.2095C23.5829 14.2698 23.4594 14.3736 23.3751 14.5067C23.2907 14.6399 23.2495 14.7959 23.2572 14.9533L23.6395 22.5772L21.4068 20.3443L22.0071 12.7319C22.0151 12.6315 22.0033 12.5305 21.9723 12.4346C21.9413 12.3388 21.8917 12.25 21.8264 12.1733C21.761 12.0966 21.6813 12.0335 21.5916 11.9877C21.5019 11.9418 21.404 11.9141 21.3036 11.9061C21.2032 11.898 21.1022 11.9099 21.0064 11.9409C20.9105 11.9719 20.8217 12.0215 20.745 12.0868C20.6684 12.1521 20.6053 12.2319 20.5594 12.3216C20.5136 12.4113 20.4859 12.5092 20.4778 12.6096L19.9808 18.922L18.6275 17.5723L19.1283 11.6308C19.1361 11.5304 19.124 11.4294 19.0928 11.3336C19.0615 11.2379 19.0117 11.1492 18.9462 11.0727C18.8808 10.9962 18.8008 10.9333 18.711 10.8877C18.6212 10.8421 18.5233 10.8146 18.4229 10.8068C18.3225 10.7991 18.2216 10.8111 18.1258 10.8424C18.0301 10.8736 17.9414 10.9234 17.8649 10.9889C17.7884 11.0544 17.7256 11.1343 17.68 11.2241C17.6343 11.3139 17.6068 11.4118 17.5991 11.5123L17.2168 16.1692L15.8596 14.7583L16.1998 10.457C16.2079 10.3566 16.196 10.2556 16.165 10.1597C16.134 10.0639 16.0845 9.97507 16.0191 9.89838C15.8872 9.7435 15.6992 9.64737 15.4964 9.63115C15.2936 9.61492 15.0927 9.67993 14.9378 9.81186C14.7829 9.94379 14.6868 10.1318 14.6706 10.3346L14.4336 13.336L13.4702 12.3725L13.6995 9.4591C13.7153 9.25629 13.6498 9.05555 13.5175 8.90103C13.3852 8.74651 13.197 8.65088 12.9942 8.63516C12.7914 8.61944 12.5907 8.68492 12.4362 8.81721C12.2817 8.94951 12.186 9.13777 12.1703 9.34058L12.0403 10.9502L11.3216 10.2276C11.3909 9.92356 11.3595 9.60523 11.2321 9.32061C11.1047 9.03599 10.8882 8.80052 10.6153 8.64971C10.3424 8.4989 10.0278 8.44092 9.71908 8.48452C9.41034 8.52813 9.12413 8.67097 8.90365 8.89147C8.68317 9.11197 8.54035 9.39819 8.49675 9.70696C8.45314 10.0157 8.51112 10.3303 8.66192 10.6033C8.81272 10.8762 9.04817 11.0927 9.33276 11.2201C9.61736 11.3475 9.93566 11.3789 10.2397 11.3096L10.7825 11.8525L9.55535 11.952C9.35256 11.9601 9.1613 12.0484 9.02365 12.1976C8.88599 12.3467 8.8132 12.5444 8.82131 12.7472C8.82943 12.95 8.91777 13.1413 9.0669 13.279C9.21602 13.4166 9.41373 13.4894 9.61652 13.4813H9.67768L12.2047 13.2825L13.1681 14.246L10.5532 14.4525C10.3504 14.4606 10.1591 14.5489 10.0215 14.6981C9.8838 14.8472 9.81103 15.0449 9.81914 15.2477C9.82725 15.4505 9.91558 15.6418 10.0647 15.7795C10.2138 15.9171 10.4115 15.9899 10.6143 15.9818H10.6755L14.5903 15.6721L15.9857 17.0677L11.7154 17.4041C11.5126 17.4117 11.3211 17.4996 11.1831 17.6484C11.0451 17.7971 10.9718 17.9947 10.9794 18.1975C10.987 18.4003 11.0749 18.5918 11.2237 18.7298C11.3724 18.8678 11.5699 18.9411 11.7727 18.9335H11.8339L17.3888 18.4785L18.7383 19.832L12.8126 20.2984C12.6098 20.3065 12.4185 20.3949 12.2809 20.544C12.1432 20.6932 12.0704 20.8909 12.0786 21.0937C12.0867 21.2965 12.175 21.4878 12.3241 21.6254C12.4733 21.7631 12.671 21.8359 12.8738 21.8278H12.9349L20.1605 21.2581L22.569 23.6668L14.9459 23.2845C14.7883 23.2764 14.632 23.3172 14.4985 23.4014C14.3651 23.4856 14.2609 23.609 14.2004 23.7548C14.1401 23.9007 14.1264 24.0618 14.1613 24.2159C14.1962 24.3699 14.278 24.5093 14.3953 24.615L20.0649 29.7193H17.0906C17.0913 29.7104 17.0913 29.7014 17.0906 29.6925L12.0365 23.7624C11.9761 23.6725 11.8973 23.5964 11.8053 23.5392C11.7133 23.482 11.6102 23.4451 11.5029 23.4307C11.3955 23.4164 11.2863 23.425 11.1826 23.4561C11.0788 23.4871 10.9828 23.5399 10.901 23.6108C10.8191 23.6818 10.7533 23.7693 10.7078 23.8676C10.6623 23.9659 10.6382 24.0728 10.6371 24.1811C10.6361 24.2894 10.658 24.3967 10.7015 24.4959C10.7451 24.5951 10.8092 24.6839 10.8896 24.7565L15.1294 29.7269H13.2178C13.2186 29.718 13.2186 29.7091 13.2178 29.7002L9.17304 25.0127C9.03442 24.8903 8.85615 24.8223 8.67125 24.8213C8.48636 24.8203 8.30736 24.8863 8.1674 25.0072C8.02744 25.128 7.93601 25.2955 7.91004 25.4786C7.88406 25.6616 7.92531 25.8479 8.02612 26.0029L11.184 29.704H9.20745C9.20333 29.6936 9.19677 29.6845 9.18833 29.6772L6.28662 26.2744C6.22624 26.1845 6.14745 26.1084 6.05545 26.0512C5.96346 25.994 5.86037 25.957 5.75301 25.9427C5.64564 25.9284 5.53646 25.937 5.43269 25.9681C5.32891 25.9991 5.23292 26.0519 5.15107 26.1228C5.06921 26.1937 5.00336 26.2813 4.95788 26.3796C4.9124 26.4779 4.88834 26.5848 4.88726 26.6931C4.88619 26.8014 4.90813 26.9087 4.95165 27.0079C4.99517 27.1071 5.05927 27.1959 5.1397 27.2685L7.21564 29.704H5.8508L5.83168 29.6772L3.83222 27.3335C3.77184 27.2435 3.69305 27.1675 3.60105 27.1103C3.50906 27.0531 3.40596 27.0161 3.29859 27.0018C3.19123 26.9875 3.08205 26.9961 2.97827 27.0271C2.8745 27.0582 2.77851 27.1109 2.69666 27.1819C2.6148 27.2528 2.54896 27.3404 2.50348 27.4387C2.458 27.537 2.43393 27.6438 2.43285 27.7522C2.43178 27.8605 2.45373 27.9678 2.49725 28.067C2.54077 28.1662 2.60487 28.255 2.6853 28.3276L3.85897 29.704H2.65471C2.48883 29.4399 2.24158 29.2369 1.95024 29.1256C1.65891 29.0144 1.33929 29.0009 1.03962 29.0872C0.739946 29.1735 0.476478 29.355 0.288947 29.6042C0.101415 29.8534 0 30.1568 0 30.4687C0 30.7805 0.101415 31.084 0.288947 31.3332C0.476478 31.5823 0.739946 31.7638 1.03962 31.8501C1.33929 31.9364 1.65891 31.9229 1.95024 31.8117C2.24158 31.7004 2.48883 31.4974 2.65471 31.2333H3.35815L2.6853 32.021C2.5813 32.1759 2.53752 32.3635 2.5622 32.5484C2.58689 32.7333 2.67833 32.9029 2.81932 33.0251C2.96031 33.1473 3.14111 33.2137 3.32767 33.2119C3.51423 33.21 3.69368 33.14 3.83222 33.015L5.36145 31.2333H6.68422L5.10912 33.08C5.0273 33.1523 4.96188 33.2412 4.91727 33.3408C4.87266 33.4404 4.84989 33.5484 4.85049 33.6575C4.85109 33.7667 4.87504 33.8744 4.92074 33.9735C4.96643 34.0727 5.03282 34.1608 5.11542 34.2322C5.19803 34.3035 5.29496 34.3563 5.39967 34.3871C5.50438 34.4178 5.61446 34.4258 5.72251 34.4105C5.83056 34.3951 5.93408 34.3568 6.02611 34.2982C6.11813 34.2395 6.19654 34.1618 6.25604 34.0703L8.67986 31.2333H10.6526L7.99553 34.3418C7.93048 34.4183 7.88116 34.5069 7.85037 34.6026C7.81958 34.6982 7.80795 34.799 7.81612 34.8991C7.82428 34.9992 7.8521 35.0967 7.89797 35.1861C7.94385 35.2755 8.00687 35.355 8.08347 35.42C8.23737 35.5506 8.43669 35.6151 8.63794 35.5993C8.8392 35.5836 9.02605 35.4889 9.15775 35.3358L12.6635 31.2333H14.575L10.8399 35.6073C10.7359 35.7622 10.6921 35.9498 10.7168 36.1348C10.7415 36.3197 10.8329 36.4892 10.9739 36.6114C11.1149 36.7336 11.2957 36.8001 11.4823 36.7982C11.6688 36.7964 11.8483 36.7264 11.9868 36.6014L16.5745 31.2486H20.0649L14.4068 36.3643C14.29 36.4702 14.2087 36.6095 14.1741 36.7633C14.1395 36.9171 14.1533 37.0778 14.2136 37.2235C14.2738 37.3691 14.3777 37.4926 14.5108 37.577C14.6439 37.6614 14.7999 37.7026 14.9573 37.6949L22.5805 37.3125L20.6155 39.2778H20.5084L12.7361 38.666C12.6357 38.6582 12.5348 38.6703 12.439 38.7016C12.3433 38.7328 12.2546 38.7826 12.1781 38.8481C12.1016 38.9136 12.0388 38.9935 11.9931 39.0833C11.9475 39.1731 11.92 39.271 11.9123 39.3714C11.9045 39.4719 11.9165 39.5728 11.9478 39.6686C11.979 39.7643 12.0288 39.853 12.0943 39.9295C12.1598 40.006 12.2397 40.0689 12.3295 40.1145C12.4193 40.1601 12.5172 40.1876 12.6176 40.1954L19.2009 40.6886L17.8399 42.0497L17.7367 42.0306L11.6198 41.5489C11.417 41.5326 11.2161 41.5977 11.0612 41.7296C10.9064 41.8615 10.8102 42.0496 10.794 42.2524C10.7778 42.4552 10.8428 42.6561 10.9747 42.811C11.1066 42.9659 11.2947 43.062 11.4975 43.0782L16.4254 43.4606L15.0223 44.8638L14.9191 44.8446L10.4576 44.512C10.3572 44.5042 10.2562 44.5163 10.1605 44.5475C10.0647 44.5788 9.97608 44.6286 9.89957 44.6941C9.82307 44.7596 9.76021 44.8395 9.71459 44.9293C9.66898 45.0191 9.6415 45.117 9.63372 45.2174C9.62593 45.3178 9.63801 45.4188 9.66924 45.5146C9.70048 45.6103 9.75027 45.699 9.81577 45.7755C9.88127 45.852 9.96119 45.9149 10.051 45.9605C10.1408 46.0061 10.2387 46.0336 10.3391 46.0414L13.6116 46.2975L12.6367 47.2725L12.5335 47.2534L9.47506 47.0125C9.37465 47.0047 9.27369 47.0168 9.17794 47.048C9.0822 47.0793 8.99355 47.1291 8.91704 47.1946C8.84054 47.2601 8.77769 47.34 8.73207 47.4298C8.68646 47.5196 8.65897 47.6175 8.65119 47.7179C8.6434 47.8183 8.65548 47.9193 8.68671 48.0151C8.71795 48.1108 8.76774 48.1995 8.83324 48.276C8.89874 48.3525 8.97866 48.4153 9.06845 48.461C9.15824 48.5066 9.25613 48.5341 9.35654 48.5419L11.2413 48.6872L10.2473 49.6812C9.94331 49.6119 9.62501 49.6433 9.34042 49.7707C9.05582 49.8981 8.82036 50.1146 8.66956 50.3876C8.51876 50.6605 8.4608 50.9751 8.5044 51.2839C8.54801 51.5927 8.69082 51.8789 8.9113 52.0994C9.13179 52.3199 9.41798 52.4627 9.72673 52.5063C10.0355 52.5499 10.35 52.492 10.6229 52.3411C10.8959 52.1903 11.1124 51.9549 11.2398 51.6702C11.3672 51.3856 11.3986 51.0673 11.3292 50.7633L11.8951 50.1974L11.9677 51.1532C11.9831 51.3453 12.0704 51.5244 12.2122 51.6548C12.3539 51.7853 12.5397 51.8574 12.7323 51.8567H12.7935C12.8937 51.849 12.9913 51.8216 13.0809 51.7761C13.1705 51.7306 13.2502 51.6679 13.3156 51.5915C13.3809 51.5152 13.4305 51.4267 13.4617 51.3312C13.4928 51.2356 13.5048 51.1349 13.4969 51.0347L13.3172 48.7789L14.2806 47.8154L14.4642 50.1591C14.4796 50.3512 14.5669 50.5303 14.7086 50.6607C14.8504 50.7912 15.0362 50.8633 15.2288 50.8627H15.2899C15.4916 50.8461 15.6784 50.7503 15.8095 50.5962C15.9407 50.4421 16.0054 50.2423 15.9896 50.0406L15.7028 46.3969L17.0982 45.0052L17.4117 49.0007C17.4271 49.1927 17.5145 49.3718 17.6562 49.5023C17.798 49.6327 17.9837 49.7048 18.1764 49.7042H18.2375C18.4392 49.6876 18.626 49.5918 18.7571 49.4377C18.8883 49.2836 18.953 49.0839 18.9371 48.8821L18.5204 43.5829L19.8738 42.2294L20.3173 47.8842C20.3327 48.0763 20.42 48.2554 20.5617 48.3858C20.7035 48.5162 20.8893 48.5884 21.0819 48.5877H21.1431C21.2432 48.58 21.3409 48.5526 21.4305 48.5071C21.5201 48.4616 21.5998 48.3989 21.6651 48.3225C21.7305 48.2462 21.7801 48.1577 21.8112 48.0622C21.8423 47.9666 21.8543 47.8659 21.8465 47.7657L21.2998 40.8071L23.6854 38.4213L23.3031 46.0452C23.2954 46.2026 23.3366 46.3586 23.421 46.4918C23.5053 46.6249 23.6288 46.7287 23.7744 46.789C23.9201 46.8493 24.0808 46.8631 24.2346 46.8285C24.3884 46.7939 24.5277 46.7126 24.6335 46.5958L29.7488 40.9295V43.6059H29.722L23.7963 48.6719C23.6775 48.7735 23.5926 48.909 23.5533 49.0603C23.5139 49.2116 23.5218 49.3713 23.5759 49.5179C23.6301 49.6646 23.7279 49.7911 23.8561 49.8804C23.9844 49.9698 24.1369 50.0177 24.2933 50.0177C24.4742 50.0168 24.6489 49.9518 24.7864 49.8342L29.7564 45.5978V47.5095L29.7297 47.5287L25.0349 51.4973C24.9584 51.5626 24.8954 51.6423 24.8496 51.7319C24.8039 51.8215 24.7762 51.9193 24.7682 52.0196C24.7603 52.1199 24.7721 52.2208 24.8031 52.3165C24.8341 52.4122 24.8836 52.5009 24.9489 52.5775C25.0142 52.654 25.0939 52.717 25.1835 52.7628C25.2731 52.8085 25.3708 52.8362 25.4711 52.8442C25.5714 52.8522 25.6723 52.8403 25.768 52.8093C25.8637 52.7783 25.9524 52.7288 26.0289 52.6635L29.7258 49.5054V51.4821H29.6991L26.3004 54.3878C26.1816 54.4894 26.0968 54.625 26.0574 54.7763C26.018 54.9275 26.0259 55.0873 26.08 55.2339C26.1342 55.3806 26.232 55.5071 26.3602 55.5964C26.4885 55.6858 26.641 55.7337 26.7974 55.7337C26.9788 55.7356 27.1545 55.6702 27.2905 55.5501L29.7258 53.474V58.345C29.4617 58.5109 29.2588 58.7582 29.1475 59.0496C29.0363 59.3409 29.0228 59.6606 29.1091 59.9603C29.1954 60.26 29.3769 60.5235 29.626 60.711C29.8752 60.8986 30.1786 61 30.4904 61C30.8023 61 31.1057 60.8986 31.3549 60.711C31.604 60.5235 31.7854 60.26 31.8718 59.9603C31.9581 59.6606 31.9446 59.3409 31.8333 59.0496C31.7221 58.7582 31.5191 58.5109 31.255 58.345V53.9902L33.1016 55.5654C33.1741 55.6459 33.263 55.71 33.3621 55.7535C33.4613 55.797 33.5686 55.819 33.6769 55.8179C33.7853 55.8168 33.8921 55.7928 33.9904 55.7473C34.0887 55.7018 34.1762 55.6359 34.2472 55.5541C34.3181 55.4722 34.3708 55.3762 34.4019 55.2724C34.4329 55.1687 34.4416 55.0595 34.4273 54.9521C34.4129 54.8447 34.3759 54.7416 34.3188 54.6496C34.2616 54.5576 34.1855 54.4788 34.0956 54.4184L31.255 51.9944V50.0215L34.367 52.6788C34.4436 52.7438 34.5322 52.7931 34.6278 52.8239C34.7234 52.8546 34.8242 52.8663 34.9243 52.8581C35.0244 52.8499 35.1219 52.8221 35.2113 52.7763C35.3007 52.7304 35.3801 52.6674 35.4451 52.5908C35.5101 52.5143 35.5594 52.4256 35.5902 52.33C35.621 52.2344 35.6326 52.1336 35.6244 52.0335C35.6163 51.9334 35.5885 51.8359 35.5426 51.7465C35.4968 51.6571 35.4338 51.5777 35.3572 51.5126L31.255 48.0104V46.0987L35.6286 49.8342C35.7835 49.9382 35.9711 49.982 36.156 49.9573C36.341 49.9326 36.5105 49.8411 36.6327 49.7001C36.7549 49.5591 36.8213 49.3783 36.8194 49.1917C36.8176 49.0052 36.7476 48.8257 36.6226 48.6872L31.2703 44.0991V40.9218L36.3856 46.5881C36.4575 46.6678 36.5454 46.7315 36.6436 46.7749C36.7417 46.8184 36.8479 46.8407 36.9552 46.8404C37.0548 46.8399 37.1534 46.8204 37.2458 46.7831C37.3915 46.7225 37.515 46.6184 37.5991 46.4849C37.6833 46.3514 37.7242 46.1951 37.716 46.0375L37.3337 38.4137L39.272 40.3483L38.6412 47.9531C38.6334 48.0532 38.6454 48.154 38.6765 48.2495C38.7076 48.3451 38.7572 48.4335 38.8226 48.5099C38.8879 48.5862 38.9676 48.6489 39.0572 48.6944C39.1468 48.74 39.2445 48.7674 39.3447 48.7751H39.4058C39.5991 48.7756 39.7853 48.703 39.9272 48.5718C40.069 48.4405 40.1559 48.2605 40.1704 48.0678L40.6674 41.7553L42.0208 43.1088L41.5506 49.0657C41.5408 49.2617 41.6068 49.4541 41.7349 49.6028C41.863 49.7516 42.0434 49.8454 42.2387 49.8648H42.2961C42.4887 49.8654 42.6744 49.7933 42.8162 49.6628C42.958 49.5324 43.0453 49.3533 43.0607 49.1613L43.4239 44.5044L44.8193 45.8999L44.4828 50.2012C44.467 50.4029 44.5317 50.6027 44.6629 50.7568C44.794 50.9108 44.9808 51.0067 45.1825 51.0232H45.2436C45.4363 51.0239 45.622 50.9517 45.7638 50.8213C45.9055 50.6909 45.9928 50.5118 46.0082 50.3197L46.2415 47.3222L47.2049 48.2857L46.9755 51.1991C46.9677 51.2993 46.9796 51.4 47.0108 51.4956C47.0419 51.5911 47.0915 51.6796 47.1569 51.7559C47.2222 51.8323 47.3019 51.895 47.3915 51.9405C47.4811 51.986 47.5788 52.0134 47.6789 52.0212H47.7401C47.9327 52.0218 48.1185 51.9497 48.2602 51.8192C48.402 51.6888 48.4893 51.5097 48.5047 51.3176L48.6309 49.7042L49.6478 50.7212C49.5794 51.0245 49.6114 51.3419 49.7391 51.6254C49.8668 51.9089 50.0831 52.1432 50.3555 52.293C50.628 52.4429 50.9417 52.5 51.2495 52.456C51.5573 52.4119 51.8424 52.269 52.0619 52.0487C52.2813 51.8285 52.4232 51.5428 52.4662 51.2349C52.5092 50.9269 52.4509 50.6133 52.3001 50.3414C52.1494 50.0695 51.9143 49.8539 51.6303 49.7273C51.3464 49.6006 51.029 49.5697 50.7259 49.6392L49.8848 48.8172L51.112 48.7216C51.2125 48.7138 51.3103 48.6863 51.4001 48.6407C51.4899 48.5951 51.5699 48.5322 51.6354 48.4557C51.7009 48.3792 51.7506 48.2905 51.7819 48.1948C51.8131 48.099 51.8252 47.998 51.8174 47.8976C51.8096 47.7972 51.7821 47.6993 51.7365 47.6095C51.6909 47.5197 51.6281 47.4398 51.5516 47.3743C51.475 47.3088 51.3864 47.259 51.2906 47.2277C51.1949 47.1965 51.0939 47.1844 50.9935 47.1922L48.4627 47.391L47.5145 46.4237L50.1257 46.2172C50.3285 46.2015 50.5167 46.1059 50.649 45.9514C50.7813 45.7968 50.8468 45.5961 50.8311 45.3933C50.8153 45.1905 50.7197 45.0022 50.5652 44.8699C50.4107 44.7377 50.21 44.6722 50.0072 44.6879L46.0924 44.9938L44.6969 43.5982L48.9673 43.2618C49.1701 43.2455 49.3581 43.1494 49.4901 42.9945C49.622 42.8396 49.687 42.6387 49.6707 42.4359C49.6545 42.2331 49.5584 42.045 49.4035 41.9131C49.2487 41.7812 49.0478 41.7162 48.845 41.7324L43.2748 42.1721L41.9214 40.8186L47.8472 40.3521C48.0499 40.3364 48.2382 40.2408 48.3705 40.0863C48.5027 39.9318 48.5682 39.731 48.5525 39.5282C48.5368 39.3254 48.4412 39.1371 48.2867 39.0049C48.1321 38.8726 47.9314 38.8071 47.7286 38.8228L40.4992 39.3925L38.3851 37.2781L46.0082 37.6605C46.1657 37.6681 46.3217 37.627 46.4548 37.5426C46.5879 37.4582 46.6917 37.3347 46.752 37.1891C46.8123 37.0434 46.8261 36.8827 46.7915 36.7289C46.7569 36.5751 46.6756 36.4358 46.5588 36.3299L40.893 31.2142H43.8215L48.6538 36.8728C48.7252 36.9575 48.8142 37.0256 48.9145 37.0725C49.0149 37.1193 49.1242 37.1439 49.2349 37.1443C49.3811 37.1443 49.5242 37.1024 49.6473 37.0236C49.7704 36.9448 49.8683 36.8323 49.9295 36.6995C49.9906 36.5668 50.0124 36.4193 49.9923 36.2745C49.9722 36.1297 49.911 35.9937 49.816 35.8826L45.8324 31.2486H47.7439L51.4982 35.6455C51.6367 35.7705 51.8162 35.8405 52.0027 35.8424C52.1893 35.8442 52.3701 35.7778 52.5111 35.6556C52.6521 35.5334 52.7435 35.3638 52.7682 35.1789C52.7929 34.994 52.7491 34.8064 52.6451 34.6515L49.7396 31.2486H51.7123L54.3884 34.38C54.4602 34.4639 54.5493 34.5313 54.6496 34.5775C54.7499 34.6237 54.8591 34.6476 54.9695 34.6476C55.115 34.647 55.2572 34.6049 55.3796 34.5263C55.502 34.4477 55.5994 34.3357 55.6604 34.2037C55.7214 34.0716 55.7435 33.9249 55.7241 33.7807C55.7046 33.6365 55.6444 33.5009 55.5506 33.3897L53.7232 31.2486H55.0842L56.8581 33.3209C56.9893 33.4745 57.1759 33.5699 57.3771 33.5864C57.5784 33.6029 57.778 33.539 57.9324 33.4089C58.009 33.3438 58.072 33.2644 58.1179 33.175C58.1638 33.0857 58.1916 32.9881 58.1997 32.888C58.2079 32.7878 58.1963 32.6871 58.1655 32.5915C58.1347 32.4958 58.0854 32.4072 58.0203 32.3307L57.0951 31.2486H58.3453C58.4784 31.4606 58.6646 31.6341 58.8853 31.752C59.1061 31.8699 59.3539 31.9282 59.604 31.9209C59.8542 31.9137 60.0982 31.8413 60.3118 31.7108C60.5254 31.5804 60.7012 31.3964 60.8219 31.1771C60.9425 30.9578 61.0039 30.7108 60.9998 30.4605C60.9957 30.2103 60.9264 29.9654 60.7986 29.7501C60.6709 29.5349 60.4891 29.3567 60.2714 29.2333C60.0537 29.1099 59.8075 29.0454 59.5572 29.0464H59.5725ZM17.0294 24.9094L24.1938 25.2918L28.6363 29.7346H22.3588L17.0294 24.9094ZM24.1938 35.6914L17.0294 36.0738L22.3588 31.2486H28.6401L24.1938 35.6914ZM29.7182 38.6125L24.9088 43.9385L25.2911 36.7734L29.7335 32.3307L29.7182 38.6125ZM29.7182 28.6373L25.2758 24.1945L24.8935 17.0256L29.7182 22.3363V28.6373ZM31.2474 22.3516L36.0568 17.0256L35.6745 24.1945L31.2321 28.6373L31.2474 22.3516ZM31.2474 38.6125V32.3307L35.6898 36.7734L36.0721 43.9385L31.2474 38.6125ZM43.94 36.0585L36.7717 35.6761L32.3293 31.2333H38.6144L43.94 36.0585ZM38.6144 29.7193H32.3293L36.7717 25.2765L43.94 24.8942L38.6144 29.7193Z" fill="url(#paint0_linear)"/>
<defs>
<linearGradient id="paint0_linear" x1="25269.3" y1="17213.6" x2="25269.3" y2="26273.9" gradientUnits="userSpaceOnUse">
<stop stop-color="#F6F9FA"/>
<stop offset="1" stop-color="#E2E6E7"/>
</linearGradient>
</defs>
</svg>
