<svg width="52" height="52" viewBox="0 0 52 52" fill="none" xmlns="http://www.w3.org/2000/svg">
<path d="M26.5 44C22.8411 44 19.2643 42.915 16.222 40.8822C13.1797 38.8494 10.8085 35.9601 9.40824 32.5796C8.00802 29.1992 7.64165 25.4795 8.35548 21.8908C9.06931 18.3022 10.8313 15.0058 13.4185 12.4185C16.0058 9.83126 19.3022 8.06931 22.8908 7.35548C26.4795 6.64165 30.1992 7.00802 33.5796 8.40824C36.9601 9.80846 39.8494 12.1796 41.8822 15.222C43.915 18.2643 45 21.8411 45 25.5C44.9944 30.4048 43.0436 35.1071 39.5753 38.5753C36.1071 42.0436 31.4048 43.9944 26.5 44ZM26.5 7.88096C23.0153 7.88096 19.6088 8.9143 16.7114 10.8503C13.814 12.7863 11.5557 15.538 10.2221 18.7575C8.8886 21.9769 8.53967 25.5196 9.21951 28.9373C9.89934 32.3551 11.5774 35.4945 14.0415 37.9585C16.5055 40.4226 19.6449 42.1007 23.0627 42.7805C26.4805 43.4603 30.0231 43.1114 33.2425 41.7779C36.462 40.4443 39.2137 38.1861 41.1497 35.2886C43.0857 32.3912 44.119 28.9847 44.119 25.5C44.1138 20.8288 42.2558 16.3504 38.9527 13.0473C35.6496 9.74422 31.1712 7.88624 26.5 7.88096Z" fill="url(#paint0_linear)"/>
<path d="M37.7 20.0728L40 19.6339C40 19.6339 38.068 21.697 37.7 21.8287C37.6657 22.2671 37.6657 22.7073 37.7 23.1457C33.284 41.2315 17 33.2421 17 33.2421C22.934 33.3738 23.44 31.0472 23.44 31.0472C19.99 30.5644 19.3 28.4134 19.3 28.4134C19.6095 28.5692 19.9684 28.6106 20.3079 28.5296C20.6474 28.4486 20.9437 28.2509 21.14 27.9744C17.414 27.0525 17.92 23.5846 17.92 23.5846C18.5841 24.0422 19.3602 24.3294 20.174 24.4187C19.76 23.9358 16.264 19.9411 18.38 17.878C18.38 17.878 20.956 22.2677 27.718 22.6628L28.178 22.575C28.0998 22.2588 28.0688 21.9337 28.086 21.6092C28.086 20.3868 28.5949 19.2144 29.5007 18.35C30.4065 17.4856 31.635 17 32.916 17C36.136 17 36.826 18.7559 36.826 18.7559L39.126 17.439C39.08 17.439 38.85 19.6339 37.7 20.0728Z" fill="url(#paint1_linear)"/>
<defs>
<linearGradient id="paint0_linear" x1="7.5632" y1="13.6654" x2="49.514" y2="18.7512" gradientUnits="userSpaceOnUse">
<stop stop-color="#00A3FF"/>
<stop offset="1" stop-color="#8F00FF"/>
</linearGradient>
<linearGradient id="paint1_linear" x1="16.7285" y1="20.2426" x2="42.5692" y2="24.2455" gradientUnits="userSpaceOnUse">
<stop stop-color="#00A3FF"/>
<stop offset="1" stop-color="#8F00FF"/>
</linearGradient>
</defs>
</svg>
